<svg width="12" height="12" viewBox="0 0 12 12" fill="none" xmlns="http://www.w3.org/2000/svg">
<path fill-rule="evenodd" clip-rule="evenodd" d="M6 10.5C6.23025 10.5 6.45524 10.4858 6.67799 10.464L9.75 12V9.34424C11.121 8.38199 12 6.90675 12 5.25C12 2.3505 9.31425 0 6 0C2.6865 0 0 2.3505 0 5.25C0 8.1495 2.6865 10.5 6 10.5ZM6 0.749268C8.8995 0.749268 11.25 2.76452 11.25 5.24927C11.25 6.77327 10.3553 8.10601 9 8.91751V8.99844V10.8734L6.75 9.74927C6.75 9.74927 6.86025 9.74927 6 9.74927C3.10125 9.74927 0.75 7.73402 0.75 5.24927C0.75 2.76452 3.10125 0.749268 6 0.749268Z" fill="#2A2A2A"/>
</svg>
