<svg width="6" height="8" viewBox="0 0 6 8" fill="none" xmlns="http://www.w3.org/2000/svg">
<path fill-rule="evenodd" clip-rule="evenodd" d="M5.33379 8.00003H0.444482C0.198684 8.00003 0 7.77652 0 7.50052V2.50001C0 2.22401 0.198684 2.00001 0.444482 2.00001H1.11121V2.50001H0.666724C0.544047 2.50001 0.444482 2.61251 0.444482 2.75001V7.25003C0.444482 7.38853 0.544047 7.50052 0.666724 7.50052H5.11155C5.23378 7.50052 5.33379 7.38853 5.33379 7.25003V2.75001C5.33379 2.61251 5.23378 2.50001 5.11155 2.50001H4.66707V2.00001H5.33379C5.57914 2.00001 5.77827 2.22401 5.77827 2.50001V7.50052C5.77827 7.77652 5.57914 8.00003 5.33379 8.00003ZM3.85189 1.67847L3.11138 0.845462V5.75002C3.11138 5.88802 3.01137 6.00002 2.88914 6.00002C2.76646 6.00002 2.66689 5.88802 2.66689 5.75002V0.845462L1.92595 1.67847C1.84149 1.77397 1.70368 1.77397 1.61922 1.67847C1.53477 1.58397 1.53477 1.42849 1.61922 1.33399L2.71714 0.0984501C2.71847 0.0964501 2.72112 0.0955062 2.72246 0.0935062C2.72734 0.0870062 2.72559 0.0774842 2.73092 0.0709842C2.73936 0.0619841 2.75133 0.0649837 2.76022 0.0579836C2.79311 0.0279835 2.83133 0.00746732 2.87622 0.0039673C2.87978 0.0039673 2.88293 0.00146485 2.88604 0.00146485C2.88738 0.00146485 2.88824 0 2.88957 0C2.8909 0 2.89182 0.000964848 2.89315 0.00146485C2.89582 0.000964848 2.89759 0.00299073 2.90026 0.00299073C2.95315 0.00599075 3.00113 0.0294674 3.03802 0.0664676C3.04113 0.0699676 3.04604 0.0684724 3.04871 0.0714725C3.05138 0.0754725 3.05005 0.0809847 3.05316 0.0839847C3.05494 0.0859847 3.05447 0.0899686 3.05625 0.0924686L4.15948 1.33399C4.24438 1.42849 4.24438 1.58397 4.15948 1.67847C4.07414 1.77447 3.93679 1.77447 3.85189 1.67847Z" fill="#2A2A2A"/>
</svg>
