<svg width="18" height="14" viewBox="0 0 18 14" fill="none" xmlns="http://www.w3.org/2000/svg">
<path fill-rule="evenodd" clip-rule="evenodd" d="M16.6154 13.7042H1.38462C0.618923 13.7042 0 13.3213 0 12.8485V4.28256C0 3.80976 0.618923 3.42604 1.38462 3.42604H3.46154V4.28256H2.07692C1.69477 4.28256 1.38462 4.47527 1.38462 4.71081V12.4194C1.38462 12.6567 1.69477 12.8485 2.07692 12.8485H15.9231C16.3038 12.8485 16.6154 12.6567 16.6154 12.4194V4.71081C16.6154 4.47527 16.3038 4.28256 15.9231 4.28256H14.5385V3.42604H16.6154C17.3797 3.42604 18 3.80976 18 4.28256V12.8485C18 13.3213 17.3797 13.7042 16.6154 13.7042ZM11.9991 2.87525L9.69231 1.44829V9.84988C9.69231 10.0863 9.38077 10.2781 9 10.2781C8.61785 10.2781 8.30769 10.0863 8.30769 9.84988V1.44829L5.99955 2.87525C5.73647 3.03884 5.30715 3.03884 5.04408 2.87525C4.781 2.71337 4.781 2.44703 5.04408 2.28515L8.46421 0.168647C8.46836 0.165221 8.47662 0.163604 8.48077 0.160178C8.496 0.149043 8.49052 0.132732 8.50714 0.121597C8.53345 0.10618 8.57072 0.111318 8.59841 0.0993269C8.70087 0.0479362 8.81993 0.0127916 8.95977 0.00679605C8.97085 0.00679605 8.98068 0.00250931 8.99037 0.00250931C8.99452 0.00250931 8.9972 0 9.00135 0C9.00551 0 9.00836 0.0016528 9.01251 0.00250931C9.02082 0.0016528 9.02634 0.00512317 9.03465 0.00512317C9.19942 0.0102622 9.34887 0.0504781 9.46379 0.11386C9.47349 0.119856 9.48878 0.117294 9.49709 0.122433C9.5054 0.129286 9.50126 0.138728 9.51095 0.143867C9.51649 0.147293 9.51505 0.154118 9.52058 0.1584L12.9573 2.28515C13.2217 2.44703 13.2217 2.71337 12.9573 2.87525C12.6914 3.0397 12.2636 3.0397 11.9991 2.87525Z" fill="#2A2A2A"/>
</svg>
