<svg width="15" height="17" viewBox="0 0 15 17" fill="none" xmlns="http://www.w3.org/2000/svg">
<path fill-rule="evenodd" clip-rule="evenodd" d="M4.99999 3.46251C4.99999 3.84339 4.71874 4.15502 4.37499 4.15502H3.74999V12.4651H4.37499C4.71874 12.4651 4.99999 12.7767 4.99999 13.1576C4.99999 13.5385 4.71874 13.8501 4.37499 13.8501H3.12499C2.78124 13.8501 2.49999 13.5385 2.49999 13.1576V3.46251C2.49999 3.08163 2.78124 2.77 3.12499 2.77H4.37499C4.71874 2.77 4.99999 3.08163 4.99999 3.46251ZM11.2525 5.14171L13.0113 7.91173C13.1675 8.15688 13.1625 8.48582 13 8.72542L11.125 11.4954C11.0025 11.6769 10.8144 11.7724 10.6244 11.7724C10.4944 11.7724 10.3625 11.7274 10.25 11.6339C9.97376 11.4047 9.91813 10.9705 10.125 10.6651L11.2506 9.00243H11.25H6.25001C5.90501 9.00243 5.62501 8.69288 5.62501 8.30992C5.62501 7.92697 5.90501 7.61742 6.25001 7.61742H11.25C11.2603 7.61742 11.2699 7.62057 11.2796 7.62375C11.2874 7.62634 11.2953 7.62895 11.3038 7.62988L10.23 5.93809C10.0313 5.62577 10.0994 5.19365 10.3819 4.97343C10.6638 4.75252 11.0538 4.8287 11.2525 5.14171Z" fill="#F2F2F2"/>
</svg>
