<svg width="86" height="68" viewBox="0 0 86 68" fill="none" xmlns="http://www.w3.org/2000/svg">
<path d="M35.3074 0C35.2168 0 35.1271 0.0117344 35.0377 0.0276762C34.3596 0.133953 33.6777 0.328937 33.0184 0.562752C32.4157 0.796552 31.8486 1.15605 31.3589 1.62366C30.8692 2.09128 30.5531 2.72399 30.4025 3.40414C30.2706 4.02053 30.2706 4.64203 30.4025 5.2585C30.5343 5.81114 30.8162 6.31505 31.2118 6.69766C31.419 6.88895 31.5697 7.12889 31.645 7.42646C31.7581 7.8303 31.8697 8.23394 31.9639 8.61653C32.2087 9.65803 32.7171 10.5905 33.4517 11.2919C33.7719 11.6107 34.2064 11.7211 34.6207 11.6148C34.6584 11.5935 34.6975 11.5871 34.7352 11.5871C34.867 11.5871 34.995 11.6533 35.0704 11.7808C35.1457 11.9084 35.2012 12.0564 35.2012 12.2052C35.2012 12.3115 35.1898 12.4154 35.1521 12.5004C35.0579 12.7555 34.9797 13.0175 34.9232 13.2938C34.7914 13.974 34.7302 14.6773 34.7679 15.3787C34.8056 16.0801 34.9979 16.7578 35.2993 17.353L36.7135 20.0744L37.7518 22.5837C37.8648 22.775 37.9209 23.0061 37.9398 23.58C37.9398 23.9201 37.9561 24.2338 37.9561 24.3826V24.9638C37.9561 25.9203 37.9138 26.8302 37.8008 27.7868C37.7255 28.5095 37.6725 29.2321 37.6536 29.9548C37.616 30.89 37.5794 31.8064 37.5229 32.8054C37.4852 33.4856 37.3679 34.1825 37.1795 34.8627C37.123 35.0965 37.0138 35.3356 36.8443 35.5269L35.2992 37.1597L34.3183 38.1376C32.642 38.9878 31.0402 40.0321 29.5524 41.265L28.3343 42.2614L27.6885 43.0455L26.5195 44.1525L25.563 43.7282C23.4159 45.2798 21.1919 46.703 18.8186 47.9995L18.2873 48.2948C17.515 47.5083 16.6539 46.8519 15.7122 46.3205C15.2037 46.0442 14.6586 45.8078 14.0935 45.6378C13.0011 45.319 11.8524 45.7238 11.1179 46.6803C10.5717 47.3817 10.0804 48.1669 9.70366 48.9958C9.53415 49.3572 9.28812 49.6569 8.96791 49.8907C8.70422 50.0607 8.45571 50.2999 8.24853 50.5549C7.72115 51.1713 7.27637 51.8313 6.8996 52.5753C6.5229 53.2767 6.08702 53.9487 5.61614 54.5864C5.37129 54.9052 5.14729 55.2491 4.92127 55.6104C4.69525 55.993 4.4695 56.4187 4.29997 56.8651L3.59694 58.5902L3.40892 58.95C3.31474 59.0137 3.24221 59.0707 3.20455 59.1345C2.90319 59.6871 2.60098 60.2183 2.28079 60.8135C1.80992 61.685 1.41633 62.6459 1.15265 63.5811C0.794794 64.7289 0.470538 65.9185 0.188018 67.1513L0 68H86V66.2195L76.4516 66.1734C76.0184 66.0884 75.5833 65.8741 75.2254 65.5553C73.3419 63.8124 71.8558 61.602 70.8763 59.0514C70.7257 58.6688 70.4828 58.3535 70.1815 58.1197C69.8048 57.8433 69.3721 57.6953 68.9389 57.6953C68.5999 57.674 68.2632 57.8028 68.056 58.0366C67.9241 58.1429 67.7898 58.2661 67.6391 58.4149C67.074 58.9675 66.4508 59.4317 65.7916 59.8356L65.0395 60.3061L64.3446 60.6474C64.1751 60.7537 64.0407 60.8796 63.9277 61.0072C63.777 61.1985 63.7045 61.4348 63.7233 61.6898C63.7233 61.9661 63.7592 62.265 63.7969 62.5201C63.8157 62.5839 63.8133 62.6224 63.8133 62.6862C63.8133 62.92 63.7212 63.1555 63.5517 63.3043L62.4399 64.3283L62.2519 64.3467C61.7998 64.3467 61.4205 63.9436 61.4017 63.4334L61.369 62.0312L61.4425 59.0976L61.4998 55.9333L61.4589 53.1657C61.4589 52.9744 61.4834 52.7878 61.4834 52.5753C61.4834 51.8951 61.4223 51.1677 61.3281 50.5087C61.1963 49.4672 61.1237 48.4256 61.1237 47.3629C61.1237 46.6615 61.1628 45.9425 61.2382 45.2412L61.4425 42.9441L61.557 41.0252L61.5161 38.9218L61.5897 36.5048L61.557 31.4401L61.3117 25.296C61.3306 25.1472 61.4251 25.0497 61.557 25.0285C61.8207 24.9859 62.0667 24.8941 62.2927 24.724C62.5752 24.5327 62.8547 24.3028 63.1184 24.069C63.4009 23.814 63.5517 23.412 63.5517 23.0081C63.5517 22.7531 63.4955 22.4919 63.3636 22.2793C63.0811 21.7692 62.7039 21.3499 62.2519 21.0523C62.0258 20.9036 61.8164 20.7114 61.6469 20.4988C60.9877 19.7124 60.5746 18.731 60.4616 17.7958C60.2732 16.3717 60.1274 14.9524 59.9956 13.3584C59.9391 12.8058 59.8186 12.2477 59.6114 11.7164C59.4419 11.2488 59.1461 10.8672 58.7694 10.5909C58.5245 10.3996 58.2564 10.2351 57.9927 10.065C55.3936 8.3434 52.5372 7.19223 49.5236 6.66089C48.9397 6.55461 48.3342 6.59233 47.8069 6.76237C46.8463 7.08119 45.9063 7.37891 44.9457 7.74025C44.4748 7.91029 43.9664 8.02062 43.4578 8.06313C42.8362 8.1269 42.2318 8.20955 41.6103 8.35834C41.4596 8.40085 41.3057 8.42292 41.1361 8.42292C40.929 8.42292 40.7032 8.3852 40.5148 8.32144C40.2017 8.20985 39.9309 7.99717 39.8935 7.98933C39.669 7.60889 39.4585 7.23272 39.215 6.72547C38.8948 6.10907 38.674 5.45266 38.561 4.75117C38.5234 4.4536 38.4647 4.14746 38.3894 3.82864C38.2952 3.33978 38.164 2.85069 38.0133 2.36181C37.8626 1.85169 37.5946 1.40754 37.2367 1.08872C36.8977 0.748639 36.5066 0.476602 36.0922 0.221539C35.8521 0.0780674 35.5793 0.000123394 35.3074 0.000123394L35.3074 0ZM52.6624 13.5059L53.5862 13.5243L54.3955 13.635L55.6626 13.9118C55.7191 13.933 55.7909 13.9744 55.8097 14.0594L56.1531 14.8897L56.3901 15.4985L56.5618 16.0336L56.8234 16.7347L57.2567 17.7126L57.5265 18.2477L57.8289 19.0687L58.1069 20.0282L58.2622 20.7477L58.3112 21.0245C58.3301 21.067 58.3358 21.1296 58.3358 21.1721C58.3358 21.4697 58.109 21.7256 57.8453 21.7256H57.8289C57.7347 21.7256 57.6206 21.6879 57.5264 21.6242L56.9215 20.9415L56.2839 20.1758L55.9078 19.7145L55.6053 19.1979L55.3764 18.709C55.2069 18.3051 55.0341 17.9071 54.9023 17.482L54.0603 16.3934L53.0057 15.0742L52.1555 14.1424C52.099 14.0787 52.0965 13.9912 52.1719 13.9487L52.4171 13.6074C52.4736 13.5436 52.5682 13.5059 52.6624 13.5059L52.6624 13.5059ZM43.6046 22.4913C43.7553 22.4913 43.884 22.5575 43.997 22.685L44.5692 23.174L45.0352 23.7736C45.1671 23.9437 45.2396 24.1515 45.2396 24.364C45.2396 24.5128 45.2282 24.6637 45.1905 24.7699C45.134 25.025 45.0917 25.2834 45.0352 25.5172C44.9787 25.9636 44.8507 26.3856 44.7 26.7257C44.474 27.2146 44.2419 27.6824 43.997 28.1926C43.8463 28.5114 43.6785 28.8267 43.4902 29.1243C43.3018 29.4219 43.1365 29.74 42.967 30.0376C42.7409 30.3989 42.5333 30.7584 42.2884 31.0985C41.9683 31.5874 41.6269 32.058 41.2502 32.5469C41.1937 32.6319 41.1212 32.6576 41.0459 32.6576C41.0082 32.6576 40.9829 32.6512 40.9641 32.6299C40.8888 32.6299 40.8333 32.5489 40.8333 32.4639C40.8145 32.4214 40.817 32.3772 40.817 32.3347C40.817 32.1647 40.8586 31.9946 40.9151 31.8458L41.1767 30.9786L41.3974 30.2498C41.6987 29.2083 41.9839 28.1037 42.2476 26.6797C42.3417 26.127 42.4552 25.5794 42.4928 25.3881C42.5682 24.9843 42.6073 24.5742 42.6073 24.1704C42.6261 23.9366 42.6791 23.7279 42.7544 23.5154L43.1305 22.8143C43.2246 22.623 43.4163 22.4914 43.6046 22.4914L43.6046 22.4913ZM51.1337 36.0894C51.2479 36.0963 51.3596 36.1441 51.4444 36.2278C51.6892 36.4403 51.8513 36.7733 51.9267 37.1134L52.0248 38.2666L52.1392 39.3921L52.4172 41.6431C52.4737 42.1957 52.5153 42.7261 52.5153 43.2576C52.5153 43.7677 52.4737 44.2632 52.4172 44.7521C52.3983 44.9434 52.4008 45.1328 52.4008 45.3241C52.4008 45.8767 52.4766 46.4284 52.6461 46.9386C52.7779 47.3211 52.9262 47.6778 53.0957 48.0179C53.5289 48.9319 53.8506 49.8879 54.0767 50.887C54.2274 51.5884 54.3194 52.2953 54.3383 53.0181C54.3759 54.1871 54.5128 55.3574 54.7388 56.5053C54.8707 57.1854 54.961 57.7367 55.074 58.3319C55.0929 58.4807 55.2617 58.6272 55.4501 58.6272C55.4877 58.6272 55.5268 58.63 55.5645 58.6087L56.0141 58.6272C56.1083 58.6272 56.2078 58.7146 56.2267 58.8209C56.3585 59.331 56.4147 59.8422 56.4147 60.3523C56.4147 60.8412 56.356 61.3239 56.243 61.7915C56.1489 62.2591 55.8456 62.6206 55.4501 62.7694C55.111 62.8969 54.7534 63.0036 54.3955 63.0461C54.0565 63.1099 53.7735 63.3859 53.717 63.7472C53.6793 63.9173 53.6598 64.069 53.6598 64.2177V64.2362C53.6598 64.5975 53.4518 64.88 53.1693 64.965C52.8867 65.0713 52.5852 65.1282 52.3027 65.1495C51.8695 65.192 51.4386 65.2582 50.9866 65.3432L49.6132 65.3893L48.011 65.3063L46.7357 65.0665L45.9182 64.8543L44.6756 64.5775L43.8336 64.393L42.8117 64.1716L45.1334 62.3911L45.2397 62.3081L45.6729 62.1605L46.5395 61.9206L48.2235 60.7951L48.1254 60.4169C47.9935 59.758 47.7148 59.1152 47.3569 58.5625C47.0556 58.0736 46.7655 57.5653 46.5395 57.0127C46.3511 56.5876 46.264 56.1611 46.2452 55.6935C46.1698 54.2269 45.9384 52.7661 45.5993 51.3207C45.2038 49.7479 44.7345 48.1296 44.226 46.5144C43.9623 45.728 43.8329 44.9861 43.7764 44.2634C43.7576 44.0933 43.733 43.9168 43.7519 43.7468C43.7519 43.6405 43.7935 43.5366 43.85 43.4515L44.3568 42.9165L44.9618 42.3906L45.5258 41.8187L46.2207 41.1175L46.654 40.6009L48.5587 38.267L48.8039 37.9072L48.9184 37.7134C49.0314 37.5222 49.1626 37.3328 49.2944 37.1415C49.3698 37.0352 49.4455 36.9654 49.5397 36.9016L50.3081 36.3758L50.8722 36.1451C50.9193 36.1239 50.9693 36.1067 51.0193 36.099C51.0568 36.0933 51.0957 36.0875 51.1338 36.0898L51.1337 36.0894ZM35.2416 39.7519L36.8438 44.6875L36.8847 44.872L36.9174 45.0657L37.5387 47.409L38.0701 49.8076L38.4625 51.3391L38.7241 52.483L39.2881 55.3798L39.4435 56.2931C39.5376 56.7607 39.7225 57.1864 40.0239 57.5477C40.1369 57.6752 40.2681 57.7791 40.3999 57.8429C40.7201 58.0342 41.0639 58.1197 41.4218 58.1197C41.4783 58.1197 41.5533 58.1225 41.6098 58.1012C41.8547 58.08 42.0968 58.1839 42.2475 58.3964C42.5865 58.8428 42.7934 59.3724 42.8688 59.9462V60.0293C42.8688 60.1355 42.8492 60.2395 42.8115 60.3245L42.1167 61.5791L41.9859 61.819L40.4245 62.8153C40.3115 62.8791 40.2365 63.0263 40.2365 63.1751C40.2365 63.1964 40.2365 63.2184 40.2365 63.2397L40.3673 63.8116L39.8359 63.6825C39.1579 63.4912 38.4614 63.415 37.7268 63.415C37.3124 63.415 36.8822 63.4342 36.4679 63.498C35.658 63.6255 34.8303 63.79 33.9827 64.0238C33.1163 64.2576 32.2324 64.39 31.3095 64.4113C30.688 64.4325 30.0622 64.3443 29.4783 64.153C29.2334 64.0892 28.949 64.0046 28.6853 63.9408C28.1391 63.8345 27.6535 63.5384 27.2956 63.0921C27.0319 62.7945 26.7109 62.3925 26.3718 62.0312L25.5216 60.6658L25.0557 59.8171L24.5407 58.9868L24.091 58.2488L23.3798 57.0126L23.0365 56.3945L22.546 55.269L22.1863 54.3741L21.941 53.8206L21.7367 53.3778C21.0209 51.9112 20.1175 50.5522 19.0063 49.3831L19.4804 49.2724L20.7803 48.9588C21.6655 48.7462 22.5103 48.4493 23.339 48.0455C24.0548 47.7054 24.5995 47.4518 25.1457 47.1967C25.805 46.8992 26.4666 46.4109 27.0504 45.7945L27.9742 44.9181L28.759 44.0232L29.274 43.5343L29.8544 43.0453L30.4022 42.6025L31.0807 42.132L31.5712 41.8368L32.0944 41.5416L32.6421 41.2372L33.2307 40.9051L33.6639 40.6468L34.0563 40.37L34.4324 40.1394L35.2417 39.7519L35.2416 39.7519Z" fill="black"/>
</svg>
