<svg width="17" height="13" viewBox="0 0 17 13" fill="none" xmlns="http://www.w3.org/2000/svg">
<path fill-rule="evenodd" clip-rule="evenodd" d="M8.18698 13C8.18698 13 0 6.21524 0 3.80611C0 1.24104 1.49719 0 4.60517 0C6.14023 0 8.18698 2.09715 8.18698 2.09715C8.18698 2.09715 10.2337 0 11.7688 0C14.8768 0 16.374 1.24023 16.374 3.80611C16.374 6.21524 8.18698 13 8.18698 13ZM11.7688 0.839017C10.9613 0.839017 8.18698 2.93458 8.18698 2.93458C8.18698 2.93458 5.41159 0.839017 4.60517 0.839017C1.88505 0.839017 1.02337 1.75445 1.02337 3.91746C1.02337 5.95051 8.18698 11.741 8.18698 11.741C8.18698 11.741 15.3506 5.95051 15.3506 3.91746C15.3506 1.75445 14.4889 0.839017 11.7688 0.839017Z" fill="#2A2A2A"/>
</svg>
