<svg width="14" height="17" viewBox="0 0 14 17" fill="none" xmlns="http://www.w3.org/2000/svg">
<path fill-rule="evenodd" clip-rule="evenodd" d="M6.7248 14.875C6.98286 14.875 7.23503 14.8548 7.48469 14.824L10.9278 17V13.2377C12.4644 11.8745 13.4496 9.78455 13.4496 7.43749C13.4496 3.32987 10.4394 0 6.7248 0C3.01103 0 -3.88683e-06 3.32987 -3.88683e-06 7.43749C-3.88683e-06 11.5451 3.01103 14.875 6.7248 14.875ZM6.7248 1.06146C9.97456 1.06146 12.609 3.9164 12.609 7.43645C12.609 9.59545 11.6062 11.4835 10.0872 12.6331V12.7478V15.404L7.5654 13.8114C7.5654 13.8114 7.68897 13.8114 6.7248 13.8114C3.47588 13.8114 0.840596 10.9565 0.840596 7.43645C0.840596 3.9164 3.47588 1.06146 6.7248 1.06146Z" fill="#2A2A2A"/>
</svg>
