<svg width="25" height="36" viewBox="0 0 25 36" fill="none" xmlns="http://www.w3.org/2000/svg">
<path d="M12.4333 33.7589L22.756 15.2997C22.9525 14.7608 23.0978 14.2057 23.2003 13.6424C23.3029 13.0709 23.3542 12.483 23.3542 11.8789C23.3542 8.99693 22.1322 6.38439 20.1582 4.49847C18.1757 2.61254 15.4498 1.44506 12.4333 1.44506C9.41686 1.44506 6.69093 2.61254 4.70843 4.49847C2.73448 6.38439 1.51251 8.99693 1.51251 11.8789C1.51251 12.483 1.56378 13.0709 1.66632 13.6424C1.76887 14.2057 1.91414 14.7608 2.11068 15.2997L12.4333 33.7589ZM12.4333 5.38836C14.3475 5.38836 16.0736 6.1313 17.3212 7.33144C18.5774 8.52341 19.355 10.1726 19.355 12.0014C19.355 12.3769 19.3208 12.7443 19.2524 13.1117C19.1841 13.4791 19.0901 13.8383 18.9619 14.1894C18.4834 15.4956 17.5861 16.6141 16.424 17.3979C15.296 18.1571 13.9202 18.6062 12.4333 18.6062C10.9465 18.6062 9.57068 18.1571 8.4427 17.3979C7.28055 16.6141 6.39184 15.4956 5.91331 14.1894L5.90477 14.1975C5.77659 13.8465 5.68259 13.4872 5.61423 13.1117C5.54586 12.7443 5.51168 12.3769 5.51168 12.0014C5.51168 10.1726 6.2893 8.52341 7.54545 7.33144C8.79306 6.1313 10.5192 5.38836 12.4333 5.38836ZM16.2616 8.3438C15.2789 7.41308 13.9288 6.83342 12.4333 6.83342C10.9379 6.83342 9.58777 7.41308 8.60506 8.3438C7.6309 9.28268 7.02419 10.5726 7.02419 12.0014C7.02419 12.3034 7.04983 12.5973 7.1011 12.8749C7.15237 13.1607 7.22928 13.4464 7.32328 13.7158C7.69927 14.7364 8.39998 15.6099 9.30577 16.2222C10.1859 16.8182 11.2626 17.1693 12.4333 17.1693C13.604 17.1693 14.6807 16.8182 15.5609 16.2222C16.4667 15.6099 17.1674 14.7364 17.5434 13.7158C17.6374 13.4464 17.7143 13.1688 17.7656 12.8749C17.8168 12.5973 17.8425 12.3034 17.8425 12.0014C17.8425 10.5726 17.2358 9.28268 16.2616 8.3438ZM24.1147 15.912L13.0999 35.6122C13.0315 35.7428 12.929 35.8489 12.7837 35.9142C12.4248 36.102 11.9633 35.9714 11.7668 35.6203L0.777617 15.961C0.751982 15.912 0.726346 15.8712 0.709255 15.814C0.478534 15.1935 0.299084 14.5404 0.17945 13.8791C0.068362 13.2178 0 12.5565 0 11.8789C0 8.59689 1.39288 5.63329 3.64882 3.47794C5.89622 1.33076 8.99814 0 12.4333 0C15.8685 0 18.9704 1.33076 21.2178 3.47794C23.4738 5.63329 24.8667 8.59689 24.8667 11.8789C24.8667 12.5565 24.7983 13.2178 24.6872 13.8791C24.5676 14.5404 24.3881 15.1935 24.1574 15.814C24.1489 15.8467 24.1318 15.8793 24.1147 15.912Z" fill="white"/>
</svg>
