<svg width="18" height="16" viewBox="0 0 18 16" fill="none" xmlns="http://www.w3.org/2000/svg">
<path fill-rule="evenodd" clip-rule="evenodd" d="M16.4234 16H1.36861C0.61177 16 0 15.553 0 15.001V5.00001C0 4.44801 0.61177 4 1.36861 4H3.42153V5.00001H2.05292C1.67518 5.00001 1.36861 5.22501 1.36861 5.50001V14.5C1.36861 14.777 1.67518 15.001 2.05292 15.001H15.7391C16.1154 15.001 16.4234 14.777 16.4234 14.5V5.50001C16.4234 5.22501 16.1154 5.00001 15.7391 5.00001H14.3704V4H16.4234C17.1788 4 17.792 4.44801 17.792 5.00001V15.001C17.792 15.553 17.1788 16 16.4234 16ZM11.8604 3.35694L9.5803 1.69092V11.5C9.5803 11.776 9.27236 12 8.89599 12C8.51825 12 8.21168 11.776 8.21168 11.5V1.69092L5.93021 3.35694C5.67018 3.54794 5.24582 3.54794 4.98578 3.35694C4.72575 3.16794 4.72575 2.85697 4.98578 2.66797L8.36639 0.1969C8.37049 0.1929 8.37865 0.191012 8.38276 0.187012C8.39781 0.174012 8.3924 0.154968 8.40882 0.141968C8.43483 0.123968 8.47167 0.129967 8.49904 0.115967C8.60032 0.0559669 8.718 0.0149346 8.85623 0.00793458C8.86718 0.00793458 8.87689 0.00292969 8.88647 0.00292969C8.89057 0.00292969 8.89322 0 8.89733 0C8.90143 0 8.90425 0.00192969 8.90835 0.00292969C8.91656 0.00192969 8.92203 0.00598145 8.93024 0.00598145C9.0931 0.0119815 9.24083 0.0589346 9.35442 0.132935C9.364 0.139935 9.37912 0.136944 9.38733 0.142945C9.39555 0.150945 9.39145 0.161969 9.40103 0.167969C9.40651 0.171969 9.40508 0.179937 9.41056 0.184937L12.8075 2.66797C13.0689 2.85697 13.0689 3.16794 12.8075 3.35694C12.5448 3.54894 12.1218 3.54894 11.8604 3.35694Z" fill="#2A2A2A"/>
</svg>
