<svg width="7" height="2" viewBox="0 0 7 2" fill="none" xmlns="http://www.w3.org/2000/svg">
<path fill-rule="evenodd" clip-rule="evenodd" d="M6.125 1.96907C5.642 1.96907 5.25 1.52812 5.25 0.984295C5.25 0.440964 5.642 0 6.125 0C6.608 0 7 0.440964 7 0.984295C7 1.52861 6.608 1.96907 6.125 1.96907ZM6.125 0.492147C5.88306 0.492147 5.6875 0.712629 5.6875 0.984295C5.6875 1.25645 5.88306 1.47692 6.125 1.47692C6.3665 1.47692 6.5625 1.25645 6.5625 0.984295C6.5625 0.712629 6.3665 0.492147 6.125 0.492147ZM3.5 1.96907C3.01656 1.96907 2.625 1.52812 2.625 0.984295C2.625 0.440964 3.01656 0 3.5 0C3.983 0 4.375 0.440964 4.375 0.984295C4.375 1.52861 3.983 1.96907 3.5 1.96907ZM3.5 0.492147C3.25806 0.492147 3.0625 0.712629 3.0625 0.984295C3.0625 1.25645 3.25806 1.47692 3.5 1.47692C3.7415 1.47692 3.9375 1.25645 3.9375 0.984295C3.9375 0.712629 3.7415 0.492147 3.5 0.492147ZM0.875 1.96907C0.392 1.96907 0 1.52812 0 0.984295C0 0.440964 0.392 0 0.875 0C1.358 0 1.75 0.440964 1.75 0.984295C1.75 1.52861 1.358 1.96907 0.875 1.96907ZM0.875 0.492147C0.633062 0.492147 0.4375 0.712629 0.4375 0.984295C0.4375 1.25645 0.633062 1.47692 0.875 1.47692C1.1165 1.47692 1.3125 1.25645 1.3125 0.984295C1.3125 0.712629 1.1165 0.492147 0.875 0.492147Z" fill="#2A2A2A"/>
</svg>
