<svg width="12" height="14" viewBox="0 0 12 14" fill="none" xmlns="http://www.w3.org/2000/svg">
<path fill-rule="evenodd" clip-rule="evenodd" d="M6 13.6241C6 13.6241 0 6.5136 0 3.98882C0 1.30062 1.09725 0 3.375 0C4.5 0 6 2.19782 6 2.19782C6 2.19782 7.5 0 8.625 0C10.9028 0 12 1.29977 12 3.98882C12 6.5136 6 13.6241 6 13.6241ZM8.625 0.879293C8.03325 0.879293 6 3.07545 6 3.07545C6 3.07545 3.966 0.879293 3.375 0.879293C1.3815 0.879293 0.75 1.83867 0.75 4.10552C0.75 6.23616 6 12.3046 6 12.3046C6 12.3046 11.25 6.23616 11.25 4.10552C11.25 1.83867 10.6185 0.879293 8.625 0.879293Z" fill="#2A2A2A"/>
</svg>
