<svg width="15" height="17" viewBox="0 0 15 17" fill="none" xmlns="http://www.w3.org/2000/svg">
<path fill-rule="evenodd" clip-rule="evenodd" d="M13.12 4.82189C13.1187 4.77203 13.1056 4.72494 13.0937 4.67716C13.0844 4.63699 13.08 4.59613 13.0644 4.55943C13.05 4.52342 13.0256 4.49433 13.0044 4.46109C12.9781 4.41885 12.9544 4.37661 12.9206 4.34198C12.915 4.33575 12.9125 4.32744 12.9062 4.3219C12.8837 4.30043 12.8562 4.29282 12.8319 4.2755C12.7944 4.2485 12.7575 4.2208 12.715 4.20279C12.6731 4.18617 12.6319 4.18202 12.5887 4.17509C12.5587 4.17024 12.5319 4.15501 12.5 4.15501H9.375C9.02937 4.15501 8.75 4.46525 8.75 4.84751C8.75 5.22978 9.02937 5.54002 9.375 5.54002H11.1412L8.61875 8.80033L5.94625 7.02406C5.68187 6.84678 5.34187 6.91187 5.14437 7.17433L2.01937 11.3294C1.79875 11.623 1.83437 12.06 2.09937 12.3044C2.21687 12.4124 2.35812 12.4651 2.49937 12.4651C2.67875 12.4651 2.85625 12.3806 2.98 12.2158L5.7625 8.51641L8.42812 10.2892C8.69 10.463 9.02625 10.4021 9.22437 10.1459L11.875 6.71935V8.31004C11.875 8.6923 12.1544 9.00254 12.5 9.00254C12.8456 9.00254 13.125 8.6923 13.125 8.31004V4.84751C13.125 4.83851 13.1206 4.83089 13.12 4.82189" fill="#F2F2F2"/>
</svg>
