<svg width="16" height="20" viewBox="0 0 16 20" fill="none" xmlns="http://www.w3.org/2000/svg">
<path fill-rule="evenodd" clip-rule="evenodd" d="M8 16.9697C8.307 16.9697 8.60699 16.9467 8.90399 16.9115L13 19.3939V15.1018C14.828 13.5466 16 11.1624 16 8.48485C16 3.79879 12.419 0 8 0C3.582 0 -4.76837e-07 3.79879 -4.76837e-07 8.48485C-4.76837e-07 13.1709 3.582 16.9697 8 16.9697ZM8 1.21094C11.866 1.21094 15 4.46791 15 8.48367C15 10.9467 13.807 13.1006 12 14.4121V14.5429V17.5732L9 15.7564C9 15.7564 9.147 15.7564 8 15.7564C4.135 15.7564 1 12.4994 1 8.48367C1 4.46791 4.135 1.21094 8 1.21094Z" fill="#2A2A2A"/>
</svg>
