<svg width="69" height="50" viewBox="0 0 69 50" fill="none" xmlns="http://www.w3.org/2000/svg">
<path d="M40.2557 18.4521C45.5246 21.7807 46.1911 26.9157 42.2568 30.7026L42.2566 30.7023H42.2564C46.1909 26.9158 45.5242 21.7809 40.255 18.4518C40.0674 18.3333 39.876 18.2185 39.6812 18.1073C39.8765 18.2185 40.0685 18.3334 40.2557 18.4516V18.4521ZM65.7338 45.535L47.01 33.7062C47.0673 33.6282 47.0995 33.5434 47.1049 33.4598C47.1192 33.2789 47.0172 33.0957 46.7989 32.9578L44.6512 31.601C49.2221 27.1395 48.4114 21.1188 42.2226 17.2102C41.2508 16.5962 40.1967 16.0659 39.0835 15.6205C37.9595 15.1693 36.7748 14.8041 35.5506 14.5249C29.1041 13.0494 21.6053 13.9449 16.4384 17.2102C9.31724 21.7079 9.31724 29.0016 16.4384 33.4993C22.6254 37.4091 32.1556 37.9213 39.2177 35.0336L41.3653 36.3904C41.6857 36.5928 42.1618 36.638 42.5501 36.5238L61.2739 48.3526L62.9777 49.429L63.1978 49.568L63.273 49.5206L67.6578 46.7505L65.7338 45.535Z" fill="#CCCCCC"/>
<path d="M64.54 48.7195L64.6152 48.6719L64.3199 48.5801L64.54 48.7195Z" fill="#278279"/>
<path d="M67.0761 44.6865L62.6162 47.5041L64.32 48.5805L64.6153 48.672L69 45.902L67.0761 44.6865Z" fill="#278279"/>
<path d="M48.3523 32.8576C48.304 32.9277 48.2324 32.9933 48.1411 33.0509L44.1984 35.5417C44.1072 35.5994 44.0033 35.6435 43.8924 35.6752L62.6162 47.5039L67.0761 44.6864L48.3523 32.8576Z" fill="#295148"/>
<path d="M48.3522 32.8582C48.4095 32.78 48.4417 32.695 48.447 32.6112L48.0644 32.676L48.3522 32.8582Z" fill="#278279"/>
<path d="M40.5599 34.1849L42.7075 35.5417C43.0279 35.7441 43.5039 35.7893 43.8923 35.6751L41.1415 33.9373C40.95 34.0233 40.7567 34.1058 40.5599 34.1849" fill="#278279"/>
<path d="M48.1411 33.0509C48.2324 32.9932 48.3039 32.9276 48.3523 32.8575L48.0645 32.6757L41.4688 33.7893C41.3598 33.8402 41.2506 33.8898 41.1416 33.9373L43.8924 35.6751C44.0033 35.6434 44.1071 35.5993 44.1984 35.5417L48.1411 33.0509Z" fill="#278279"/>
<path d="M48.0642 32.6758L48.4469 32.6111C48.4612 32.4302 48.3592 32.2471 48.1408 32.1091L45.9932 30.7524C45.8679 30.8767 45.7373 30.9989 45.6012 31.1198L48.0642 32.6758Z" fill="#278279"/>
<g opacity="0.7">
<path opacity="0.7" d="M48.0641 32.6757L48.4468 32.611C48.4611 32.4301 48.3591 32.247 48.1407 32.109L45.9931 30.7523C45.8678 30.8766 45.7372 30.9987 45.6011 31.1197L48.0641 32.6757Z" fill="#278279"/>
</g>
<path d="M43.5646 32.6505C42.9024 33.0688 42.2008 33.4487 41.4688 33.789L41.4685 33.7891L48.0642 32.6756L45.6012 31.1196C45.0053 31.6577 44.3252 32.1699 43.5646 32.6505" fill="#278279"/>
<g opacity="0.7">
<path opacity="0.7" d="M43.5648 32.6509C42.9026 33.0692 42.2011 33.4491 41.4691 33.7894L41.4687 33.7896L48.0645 32.676L45.6015 31.12C45.0055 31.6582 44.3254 32.1704 43.5648 32.6509Z" fill="#278279"/>
</g>
<path d="M36.8928 13.6762L40.4257 14.7718C39.3017 14.3207 38.117 13.9555 36.8928 13.6762Z" fill="#0D6954"/>
<path d="M40.7441 33.6862L39.1391 32.6722C33.1454 35.1573 25.0166 34.7367 19.7477 31.4081C19.5607 31.29 19.3789 31.1685 19.2027 31.0453C19.2015 31.0444 19.2003 31.0436 19.1992 31.0427C19.1893 31.036 19.1793 31.0293 19.1696 31.0226C19.1721 31.0239 19.1748 31.0253 19.1772 31.0267C13.7218 27.1948 13.9115 21.2916 19.7481 17.6037C25.5846 13.9165 34.9288 13.7966 40.9954 17.2431C40.993 17.2416 40.9909 17.2399 40.9887 17.2383C40.9995 17.2444 41.01 17.2508 41.0206 17.257C41.022 17.2577 41.0233 17.2584 41.0247 17.2592C41.2198 17.3704 41.412 17.4854 41.599 17.6035C46.8679 20.9321 47.5344 26.0672 43.6001 29.854L45.2053 30.868L45.692 30.5605L45.9945 30.7515C50.5654 26.29 49.7547 20.2693 43.5659 16.3607C42.5941 15.7468 41.54 15.2165 40.4268 14.771L36.8939 13.6754C30.4474 12.1999 22.9486 13.0954 17.7817 16.3607C10.6605 20.8584 10.6605 28.1522 17.7817 32.6499C23.9687 36.5597 33.4988 37.0718 40.561 34.1842L40.2585 33.9931L40.7453 33.6856L40.7441 33.6862Z" fill="#0D6954"/>
<path d="M43.5986 29.8545C43.0283 30.4038 42.3616 30.9249 41.5976 31.4078C40.8332 31.8905 40.0083 32.3116 39.1389 32.672L40.7439 33.686L45.2038 30.8685L43.5986 29.8545Z" fill="#0D6954"/>
<path d="M41.0251 33.8634L40.2568 33.9936L40.5593 34.1851C40.7562 34.1058 40.9494 34.023 41.1409 33.9369L41.0251 33.8634Z" fill="#0D6954"/>
<path d="M41.1415 33.9382C41.2505 33.8906 41.3597 33.8408 41.4687 33.7898L41.0257 33.8647L41.1415 33.9382Z" fill="#0D6954"/>
<path d="M40.744 33.6862L40.2572 33.9945L40.744 33.6862Z" fill="#0D6954"/>
<path d="M45.2042 30.8687L40.7443 33.6863L45.2042 30.8687Z" fill="#0D6954"/>
<path d="M40.2572 33.9945L41.0255 33.8644L40.744 33.6862L40.2572 33.9945Z" fill="#0D6954"/>
<path d="M43.5649 32.6506C44.3255 32.1701 45.0056 31.6579 45.6015 31.1197L45.2042 30.8687L40.7443 33.6863L41.0258 33.864L41.4688 33.7893L41.4691 33.7892C42.2011 33.4488 42.9027 33.0689 43.5649 32.6506" fill="#0D6954"/>
<path d="M40.4238 30.6665C42.8729 29.1199 44.324 27.1826 44.7853 25.1721C42.4034 26.3127 36.9826 28.5182 30.6718 28.5182C22.1636 28.5182 15.2661 24.5056 15.2661 24.5056C15.2661 24.5056 19.0531 22.302 24.4758 21.1611C26.3729 20.762 28.4687 20.4929 30.6718 20.4929C32.8767 20.4929 34.9742 20.762 36.8695 21.1611C40.5255 21.931 43.4357 23.1822 44.9455 23.9163C45.0037 21.5311 43.6884 19.135 40.9942 17.2437C34.9286 13.7973 25.5844 13.9171 19.7469 17.6044C13.9104 21.2916 13.7207 27.1948 19.176 31.0274C25.2417 34.4759 34.5873 34.3547 40.4233 30.667" fill="#0BA587"/>
<path d="M41.0198 17.2568C41.0215 17.2581 41.023 17.2596 41.0247 17.261C41.023 17.2595 41.0215 17.2581 41.0198 17.2568Z" fill="#0BA587"/>
<path d="M19.202 31.0483C19.2006 31.0463 19.1992 31.0445 19.198 31.0425C19.1992 31.0445 19.2006 31.0463 19.202 31.0483Z" fill="#0BA587"/>
<path d="M40.9876 17.2389C40.9896 17.2406 40.9917 17.2425 40.9939 17.2441C41.0019 17.2493 41.0102 17.2541 41.0183 17.2594C41.0081 17.2525 40.9979 17.2456 40.9876 17.2389" fill="#0D6954"/>
<g opacity="0.3">
<path opacity="0.3" d="M40.9875 17.2374C40.9896 17.2391 40.9916 17.2409 40.9939 17.2426C41.0018 17.2478 41.0101 17.2526 41.0182 17.2578C41.008 17.251 40.9978 17.244 40.9875 17.2374" fill="#0BA587"/>
</g>
<path d="M19.7471 31.4083C19.5596 31.2897 19.3777 31.1689 19.2018 31.0459C19.3779 31.1692 19.5598 31.2906 19.7468 31.4088C25.0157 34.7374 33.1439 35.1584 39.1382 32.6729L39.1378 32.6727C33.1441 35.1583 25.016 34.7371 19.7464 31.4083" fill="#0D6954"/>
<g opacity="0.3">
<path opacity="0.3" d="M19.747 31.4081C19.5595 31.2895 19.3776 31.1687 19.2017 31.0457C19.3778 31.169 19.5596 31.2904 19.7467 31.4085C25.0155 34.7372 33.1438 35.1582 39.1381 32.6727L39.1377 32.6725C33.144 35.1581 25.0159 34.7369 19.7463 31.4081" fill="#0BA587"/>
</g>
<path d="M19.1694 31.0226C19.1788 31.03 19.1886 31.0374 19.1983 31.0447C19.1909 31.0389 19.1841 31.0329 19.1767 31.0272C19.1744 31.0256 19.1718 31.0241 19.1694 31.0226Z" fill="#0D6954"/>
<g opacity="0.3">
<path opacity="0.3" d="M19.1692 31.0204C19.1787 31.0279 19.1885 31.0352 19.1981 31.0425C19.1908 31.0367 19.1839 31.0307 19.1766 31.025C19.1743 31.0234 19.1716 31.0219 19.1692 31.0204Z" fill="#0BA587"/>
</g>
<path d="M43.5988 29.8542L43.5986 29.854H43.5984C43.0278 30.4032 42.3612 30.9242 41.597 31.4071C40.8326 31.8899 40.0079 32.311 39.1387 32.6715L39.139 32.6717C40.0085 32.3114 40.8333 31.8902 41.5977 31.4075C42.3617 30.9246 43.0284 30.4035 43.5988 29.8542" fill="#0D6954"/>
<g opacity="0.3">
<path opacity="0.3" d="M43.5988 29.8543L43.5986 29.8541H43.5985C43.0279 30.4033 42.3612 30.9243 41.5971 31.4072C40.8327 31.8899 40.008 32.3111 39.1387 32.6716L39.1391 32.6718C40.0085 32.3114 40.8334 31.8903 41.5978 31.4076C42.3618 30.9247 43.0284 30.4036 43.5988 29.8543" fill="#0BA587"/>
</g>
<path d="M39.1391 32.672L38.8456 32.4867L43.3056 29.6691L43.5989 29.8545C47.5334 26.068 46.8667 20.9331 41.5975 17.604C41.4097 17.4855 41.2186 17.3706 41.0239 17.2595C41.0225 17.2587 41.0212 17.2579 41.0198 17.2572C41.0114 17.2525 41.0028 17.2481 40.9945 17.2433C43.6887 19.1347 45.004 21.5307 44.9458 23.9159C45.6753 24.2706 46.0796 24.5052 46.0796 24.5052C46.0796 24.5052 45.6157 24.7743 44.7856 25.1717C44.3243 27.1822 42.8732 29.1195 40.4242 30.6661C34.5885 34.3538 25.2429 34.475 19.1769 31.0264C19.1844 31.0316 19.1914 31.0371 19.1989 31.0424C19.2 31.0433 19.2012 31.0441 19.2025 31.045C19.3784 31.168 19.5602 31.2887 19.7478 31.4073C25.017 34.7362 33.1451 35.1573 39.1391 32.6717" fill="#0BA587"/>
<g opacity="0.3">
<path opacity="0.3" d="M39.1389 32.6722L38.8454 32.4869L43.3053 29.6693L43.5986 29.8547C47.5331 26.0682 46.8665 20.9333 41.5972 17.6042C41.4095 17.4857 41.2184 17.3708 41.0236 17.2597C41.0222 17.2589 41.0209 17.2581 41.0195 17.2574C41.0111 17.2527 41.0025 17.2483 40.9943 17.2435C43.6885 19.1349 45.0037 21.5309 44.9456 23.9161C45.6751 24.2708 46.0793 24.5054 46.0793 24.5054C46.0793 24.5054 45.6155 24.7745 44.7854 25.1719C44.324 27.1825 42.8729 29.1197 40.4239 30.6663C34.5882 34.354 25.2426 34.4752 19.1766 31.0266C19.1841 31.0318 19.1911 31.0373 19.1986 31.0426C19.1997 31.0435 19.201 31.0443 19.2022 31.0452C19.3782 31.1682 19.56 31.289 19.7475 31.4076C25.0168 34.7364 33.1449 35.1576 39.1389 32.672" fill="#0BA587"/>
</g>
<path d="M38.8453 32.487L39.1388 32.6723C40.0081 32.3119 40.8328 31.8907 41.5972 31.4079C42.3614 30.925 43.028 30.404 43.5986 29.8549L43.3053 29.6694L38.8453 32.487Z" fill="#0BA587"/>
<g opacity="0.3">
<path opacity="0.3" d="M38.8453 32.4865L39.1388 32.6718C40.0081 32.3113 40.8328 31.8902 41.5972 31.4074C42.3614 30.9245 43.028 30.4035 43.5986 29.8543L43.3053 29.6689L38.8453 32.4865Z" fill="#0BA587"/>
</g>
<path d="M44.9446 23.9163C44.94 24.1023 44.9292 24.2883 44.9081 24.474C44.9285 24.4843 44.9498 24.495 44.9695 24.5051C44.9471 24.5164 44.9215 24.5291 44.8979 24.5409C42.9759 25.5109 37.284 28.066 30.6709 28.066C23.9794 28.066 18.2275 25.4476 16.3744 24.5053C17.6202 23.8701 20.6296 22.4754 24.4884 21.6363C24.476 21.5353 24.4678 21.4337 24.4678 21.3308C24.4678 21.2742 24.4696 21.2166 24.475 21.1612C19.0522 22.302 15.2652 24.5056 15.2652 24.5056C15.2652 24.5056 22.1627 28.5183 30.6709 28.5183C36.9817 28.5183 42.4025 26.3127 44.7844 25.1721C45.6145 24.7747 46.0784 24.5056 46.0784 24.5056C46.0784 24.5056 45.6741 24.271 44.9446 23.9163" fill="#295148"/>
<path d="M36.8765 21.3305C36.8765 21.4335 36.8683 21.5352 36.856 21.6361C40.6627 22.4646 43.6305 23.826 44.9089 24.4737C44.93 24.2881 44.9408 24.1021 44.9454 23.9161C43.4356 23.182 40.5254 21.9308 36.8694 21.1609C36.8747 21.2163 36.8765 21.274 36.8765 21.3305" fill="#295148"/>
<path d="M30.6717 25.2494C27.4093 25.2494 24.7362 23.6573 24.4892 21.6361C20.6304 22.4753 17.6211 23.8699 16.3753 24.5051C18.2283 25.4474 23.9802 28.0659 30.6717 28.0659C37.2848 28.0659 42.9768 25.5107 44.8987 24.5408C44.9018 24.5185 44.9062 24.4961 44.9089 24.4738C43.6305 23.8261 40.6627 22.4647 36.856 21.6362C36.6088 23.6574 33.9359 25.2494 30.6717 25.2494" fill="#F9FBED"/>
<path d="M33.4727 22.8719C32.9394 22.8719 32.5068 22.5986 32.5068 22.2615C32.5068 21.9246 32.9394 21.6513 33.4727 21.6513C34.0062 21.6513 34.4388 21.9246 34.4388 22.2615C34.4388 22.5986 34.0062 22.8719 33.4727 22.8719ZM36.8701 21.1618C34.9748 20.7627 32.8773 20.4936 30.6724 20.4936C28.4693 20.4936 26.3735 20.7627 24.4765 21.1618C24.4711 21.2172 24.4693 21.2748 24.4693 21.3314C24.4693 21.4343 24.4775 21.5359 24.4899 21.6369C24.7368 23.658 27.4099 25.2502 30.6724 25.2502C33.9366 25.2502 36.6095 23.6581 36.8567 21.637C36.869 21.536 36.8773 21.4344 36.8773 21.3314C36.8773 21.2748 36.8755 21.2172 36.8701 21.1618" fill="#295148"/>
<path d="M33.4725 21.6506C32.9392 21.6506 32.5066 21.9239 32.5066 22.2608C32.5066 22.5979 32.9392 22.8711 33.4725 22.8711C34.006 22.8711 34.4386 22.5979 34.4386 22.2608C34.4386 21.9239 34.006 21.6506 33.4725 21.6506Z" fill="white"/>
<path d="M38.7799 43.7963C39.0303 43.7435 39.0982 43.7299 39.1998 43.7061L39.1645 43.6268C40.1952 43.3903 40.6828 43.2658 41.741 42.9567L41.7869 43.0333L42.252 42.8896L42.0964 42.6421C40.9424 42.9992 39.9042 43.277 38.6705 43.5368L38.7799 43.7963ZM39.1998 43.7061C40.2889 43.4563 40.743 43.3382 41.7869 43.0333L41.9681 43.3357C40.9 43.6477 40.414 43.7728 39.3393 44.0193L39.1998 43.7061ZM11.8514 24.8153L9.72937 24.8893C9.73262 25.421 9.96322 26.6907 10.2595 27.5404L8.39106 27.8521C8.51981 28.2251 8.478 28.11 8.55952 28.3223L8.00843 28.4269C8.26401 29.0962 8.45831 29.4728 8.60316 29.7638L9.13951 29.6261C9.16979 29.6872 9.12734 29.6061 9.35991 30.0387L10.0435 29.8479C10.3531 30.3822 10.4843 30.5981 10.8611 31.1339L11.2441 30.9972L11.1864 30.9149L11.3325 30.8635L11.3899 30.9452L11.7729 30.8086L11.7167 30.7285L11.8632 30.6771C12.18 31.1284 12.5116 31.5409 12.85 31.9237L10.2319 33.081C10.4451 33.3226 10.6876 33.5795 10.7177 33.6097L10.1348 33.8893C10.6376 34.4019 11.051 34.8048 11.6989 35.3462L12.2372 35.025C12.4767 35.2253 12.3597 35.1304 12.7701 35.4574L13.0302 35.2913C12.622 34.966 12.7347 35.0574 12.5848 34.9319L12.7713 34.8194C12.9189 34.943 12.8056 34.8511 13.2121 35.1751L13.4372 35.0314C13.0373 34.7126 13.1494 34.8036 13.0021 34.6803L13.1886 34.5678C13.3337 34.6893 13.2209 34.5977 13.6191 34.9152L13.8442 34.7713C13.4515 34.4583 13.5647 34.5502 13.4195 34.4285L13.6061 34.316C13.7489 34.4357 13.6357 34.3437 14.0262 34.6551L14.2513 34.5113C13.8671 34.205 13.9792 34.2961 13.8369 34.1768L14.0233 34.0644C14.1636 34.182 14.0503 34.09 14.433 34.3952L14.6583 34.2513C14.2816 33.951 14.3942 34.0425 14.2542 33.9251L14.4406 33.8127C14.5783 33.9282 14.4661 33.837 14.8401 34.1352L15.0653 33.9913C14.6957 33.6966 14.8095 33.7892 14.6716 33.6735L14.858 33.5611C14.9935 33.6748 14.8808 33.5831 15.2471 33.8752L15.4721 33.7314C15.111 33.4434 15.2238 33.5352 15.0888 33.4219L15.2754 33.3094C15.4087 33.4213 15.2954 33.329 15.6541 33.6151L15.8792 33.4714C15.5274 33.1908 15.6389 33.2817 15.5062 33.1702L15.6926 33.0578C15.8237 33.1678 15.7105 33.0756 16.061 33.3552L16.1748 33.2826C16.2246 33.3225 16.1851 33.2918 16.3632 33.4267C15.2366 34.1672 14.5218 34.6371 13.5759 35.259C13.8245 35.4478 13.7368 35.3827 13.9862 35.563C12.5655 36.546 11.9112 36.9987 10.4929 37.98C10.7266 38.1491 10.6422 38.0894 10.8864 38.2587L10.4499 38.573C10.7163 38.7568 10.7578 38.786 10.7864 38.804L10.533 38.9925C11.3319 39.5183 11.9023 39.8785 12.9509 40.4468L13.1737 40.24C13.4192 40.3729 13.3219 40.3215 13.629 40.4799L13.9966 40.1243C14.3374 40.3 14.235 40.2486 14.4692 40.3634L16.5549 38.2555C17.2268 38.5848 17.6387 38.7667 18.1659 38.9869L18.5733 38.4972C18.7351 38.5649 18.7725 38.5812 18.8366 38.6059L18.9204 38.5021C19.3027 38.653 19.612 38.775 20.0277 38.9207L20.2201 38.6496C19.8145 38.5075 19.512 38.3882 19.1331 38.2388L19.215 38.1373C19.2577 38.1542 19.8404 38.3865 20.1626 38.4991L20.3574 38.229C20.051 38.1219 19.4704 37.8909 19.4277 37.874L19.5097 37.7726C19.995 37.9644 19.8251 37.899 20.3056 38.0784L20.5028 37.8092C20.0312 37.6332 20.1985 37.6975 19.7223 37.5093L19.8042 37.4079C20.3038 37.6053 20.1083 37.53 20.4557 37.6595L20.6555 37.3911C20.3262 37.2684 20.5081 37.3386 20.0169 37.1445L20.0989 37.043C20.5864 37.2354 20.4329 37.1763 20.6128 37.2431L20.815 36.9757C20.6403 36.9109 20.7946 36.9704 20.3115 36.7797L20.3934 36.6784L20.7765 36.8297L20.9811 36.5631L20.6061 36.415L20.688 36.3136L20.9486 36.4164L21.1556 36.1509L20.9006 36.0502L20.9826 35.9488L21.1274 36.0058L21.3368 35.7411L21.1952 35.6855L21.2536 35.6132C21.7182 35.7968 21.5106 35.7163 21.8615 35.8473L20.8776 37.1784C20.9976 37.2233 21.0226 37.2331 21.0683 37.2488L22.0326 35.9106L22.1481 35.9508L21.1969 37.2937L21.3895 37.3615L18.1367 42.0758C18.2463 42.1153 18.3153 42.1373 18.6013 42.2317L18.3149 42.667L18.5533 42.7456L18.4219 42.9501C18.4646 42.9647 19.5288 43.3078 20.8934 43.6479L20.9978 43.4357C21.3271 43.5175 21.8152 43.6289 22.0618 43.681L21.9692 43.8959C23.0813 44.1297 23.5571 44.2091 24.5479 44.3613L24.6122 44.1413C24.6961 44.1538 24.631 44.1448 25.0645 44.2036L25.1912 43.732C25.5552 43.7812 25.4517 43.7679 25.6338 43.7894L26.5051 40.2384C26.6686 40.2575 27.1929 40.3214 27.6299 40.3563L26.4514 47.1274L26.9011 47.1639L26.797 47.8385L27.0285 47.8568L26.9829 48.1729C28.293 48.2605 28.8037 48.27 29.5095 48.2884L29.5221 47.9708C29.6069 47.9737 29.7362 47.9748 30.3344 47.9799L30.3324 48.2976C31.0762 48.3076 32.1174 48.273 32.86 48.2397L32.8291 47.9228C33.1192 47.9094 33.0266 47.9144 33.235 47.9016L33.1574 47.2252L33.5516 47.2005L32.3374 37.9859C32.5373 37.9737 32.479 37.9778 32.5914 37.9685L33.0356 40.9255C33.643 40.8765 33.4224 40.8961 33.9204 40.8469L34.0208 41.3397C35.0431 41.2389 35.8517 41.1062 36.5575 40.9845L36.384 40.5019C36.471 40.487 36.4089 40.4984 36.709 40.4409L37.9444 43.6822C38.3779 43.5992 38.2755 43.6195 38.4837 43.5758L38.4324 43.451C40.0092 43.1198 40.8853 42.8747 42.1907 42.4707L42.2664 42.5892L42.8541 42.3952L40.0327 38.2408C40.0754 38.2267 40.4042 38.1138 40.8027 37.9651L41.7058 39.1712C41.9978 39.0623 41.86 39.1154 42.3065 38.9389L42.6539 39.3723C43.3522 39.0967 44.2391 38.685 44.3423 38.6324L43.9469 38.22C44.4635 37.9666 44.3468 38.0248 44.4575 37.9681L44.2035 37.7174C44.6561 37.4841 44.4999 37.5665 44.9347 37.3315L47.8206 39.9596C47.9942 39.8654 47.9161 39.9089 48.2038 39.7452L48.5233 40.0261C48.7546 39.8943 48.817 39.8597 48.9087 39.8038L49.6881 40.4653C49.8238 40.3843 50.1135 40.2115 50.1528 40.1869L51.1664 41.0127C51.7797 40.6283 51.628 40.7262 52.076 40.4314L51.018 39.6339C51.2371 39.4895 51.145 39.5518 51.4579 39.3362L50.607 38.7202C50.9056 38.5139 50.8089 38.5822 51.0126 38.4349L50.6492 38.182C50.9028 37.9984 50.9704 37.9502 51.0067 37.9218L50.7168 37.7272C50.604 37.8105 50.2461 38.072 50.0551 38.2023C49.7557 37.9874 49.9755 38.1451 49.8402 38.0481C49.9983 37.9405 50.4463 37.6155 50.4947 37.5781L48.8852 36.4977C49.3087 36.3731 49.5688 36.2796 49.9328 36.1331L50.4232 36.4355C50.8389 36.1043 51.4686 35.5423 51.735 35.2841C51.8136 35.3185 51.892 35.3528 51.9702 35.387C51.4714 35.8703 50.8773 36.3603 50.6974 36.5106L51.5004 37.0021C51.8898 36.6767 52.3582 36.2848 52.8665 35.7925C52.9514 35.8316 53.0361 35.8706 53.1208 35.9096C52.6696 36.3465 52.2548 36.7035 51.7974 37.0857L52.5823 37.5624C53.1131 37.1187 53.5034 36.7798 53.9922 36.3064L54.2712 36.4321C53.7731 36.9119 53.428 37.2168 52.9037 37.6551L53.6705 38.1174C54.2435 37.6381 54.6093 37.3126 55.1282 36.8103C55.2306 36.8549 55.3323 36.8991 55.4336 36.9432C54.9891 37.3734 54.6095 37.7231 54.0172 38.219L54.7656 38.6668C55.3739 38.1573 55.7464 37.8158 56.2771 37.3019C56.3982 37.3528 56.518 37.4032 56.6363 37.453C54.0601 40.1967 56.1016 39.8476 58.0741 38.0438C59.5577 38.6378 60.108 38.8361 60.809 39.093L60.9672 38.9317C58.3909 37.2882 58.5349 37.6938 58.9796 37.0416C60.3367 34.9723 59.6123 34.5535 57.3273 36.7474C57.2199 36.6867 57.1109 36.6251 57.0009 36.5629C57.5804 35.9399 57.8922 35.5677 58.2976 35.0558L57.4404 34.7192C57.06 35.1997 56.7435 35.5778 56.2291 36.1311C56.1353 36.0796 56.041 36.0278 55.9459 35.9756C56.4765 35.4042 56.7719 35.0466 57.1835 34.526L56.3008 34.1824C55.9465 34.6303 55.6219 35.0274 55.1434 35.5417L54.8788 35.4014C55.3766 34.8662 55.7163 34.4433 56.0648 34.0024L55.1565 33.6519C54.8497 34.0401 54.4954 34.4823 54.0469 34.9644C53.9654 34.9221 53.8839 34.8798 53.8023 34.8374C54.2415 34.3651 54.8181 33.6563 54.9402 33.4847L54.0059 33.1274C53.8873 33.2952 53.3091 34.0013 52.95 34.387C52.8925 34.3557 52.8352 34.3245 52.7776 34.2931C55.7009 31.4054 55.0125 27.5793 51.0894 26.0607C51.0997 26.0093 51.0906 26.0609 51.1283 25.8259C49.2094 25.6723 50.461 25.7472 49.0372 25.5359C49.0398 25.5233 49.0826 25.1921 49.0885 25.1229L51.2075 25.2315L51.2209 25.0792L49.1004 24.9859C49.1356 24.6079 49.1345 24.3594 49.1391 24.1498H46.075C45.7043 38.6073 15.2689 38.859 14.8914 24.1498H11.8273C11.835 24.5586 11.8302 24.4165 11.8512 24.8149L11.8514 24.8153ZM56.8349 38.2441C56.9948 38.3295 56.6074 38.6133 56.6155 38.3607C56.6184 38.2712 56.6923 38.1679 56.8349 38.2441ZM57.1942 37.902C57.3561 37.9853 56.978 38.2756 56.9786 38.022C56.9786 37.9322 57.0497 37.8276 57.1942 37.902ZM58.614 36.4089C58.4462 36.3355 58.7829 36.026 58.8166 36.2768C58.8274 36.3662 58.7658 36.4753 58.614 36.4089ZM57.9471 37.1422C58.1163 37.2222 57.7481 37.5196 57.7375 37.2678C57.7347 37.1791 57.7988 37.072 57.9471 37.1422ZM27.7162 38.8545C27.2262 38.8061 27.4006 38.825 26.9013 38.7669L27.2953 37.1451C27.7383 37.1967 27.5844 37.1801 28.0196 37.2229L27.7162 38.8545ZM26.1608 39.6915C25.9045 39.657 25.5476 39.6033 25.1526 39.5349L25.2965 39.1182C25.6385 39.1774 25.9915 39.2321 26.2772 39.2704L26.1608 39.6915ZM24.881 40.3219C25.2935 40.3932 25.6582 40.4484 25.9411 40.4865L25.8248 40.9075C25.5445 40.8696 25.1675 40.813 24.7372 40.7386L24.881 40.3219ZM19.8813 42.2146C19.3206 42.0512 18.9109 41.914 18.7142 41.849L18.9727 41.4611C19.0709 41.4935 19.5441 41.6526 20.114 41.8185L19.8813 42.2146ZM20.5536 41.0703C20.0305 40.9182 19.6193 40.7804 19.4608 40.7281L19.7193 40.34C19.8355 40.3784 20.2607 40.5214 20.7863 40.6742L20.5536 41.0703ZM21.2259 39.9262C20.7431 39.786 20.3316 39.6482 20.2075 39.6072L20.466 39.2191C20.5694 39.2533 20.9716 39.3887 21.4586 39.5301L21.2259 39.9262ZM21.562 39.3541C21.0998 39.22 20.7001 39.0861 20.5808 39.0467L20.8393 38.6587C20.9394 38.6917 21.3286 38.8228 21.7948 38.958L21.562 39.3541ZM22.2343 38.2099C21.8135 38.088 21.4338 37.961 21.3274 37.9258L21.5859 37.5378C21.6288 37.5519 22.0323 37.6879 22.4671 37.8138L22.2343 38.2099ZM22.9066 37.0657C22.738 37.017 22.4847 36.9405 22.0741 36.8049L22.3326 36.4168C22.7188 36.5443 22.9557 36.6164 23.1393 36.6695L22.9066 37.0657ZM21.6011 42.6735C20.8783 42.4936 21.1353 42.5601 20.4021 42.3638L20.6233 41.9644C21.34 42.1564 21.0892 42.0914 21.7958 42.2674L21.6011 42.6735ZM21.8823 42.0868C21.1668 41.9087 21.4148 41.9726 20.7216 41.787L20.9428 41.3876C21.6348 41.573 21.3938 41.5106 22.0771 41.6807L21.8823 42.0868ZM22.4449 40.9134C21.7765 40.747 22.0081 40.8067 21.3607 40.6333L21.5819 40.2339C22.2283 40.4071 22.0025 40.3486 22.6396 40.5072L22.4449 40.9134ZM22.7261 40.3267C22.0814 40.1662 22.3048 40.2238 21.6802 40.0564L21.9015 39.657C22.5246 39.824 22.3065 39.7675 22.9209 39.9205L22.7261 40.3267ZM23.0074 39.74C22.3862 39.5854 22.6015 39.6408 21.9997 39.4796L22.221 39.0802C22.8206 39.2409 22.6111 39.1866 23.2022 39.3338L23.0074 39.74ZM23.5699 38.5666C23.0086 38.4268 23.2081 38.4785 22.6388 38.3259L22.86 37.9266C23.4129 38.0747 23.2197 38.0247 23.7647 38.1604L23.5699 38.5666ZM24.1324 37.3932C23.6056 37.262 23.7882 37.3091 23.2778 37.1723L23.4991 36.7728C24.0043 36.9082 23.8284 36.8627 24.3273 36.9869L24.1324 37.3932ZM23.5866 42.4492C23.0108 42.3391 22.6163 42.2553 22.3999 42.2057L22.5828 41.7968C22.8042 41.8476 23.1943 41.93 23.7424 42.0348L23.5866 42.4492ZM24.0367 41.2519C23.977 41.2404 23.4032 41.1336 22.9283 41.0244L23.1113 40.6155C23.2904 40.6567 23.6374 40.7311 24.1926 40.8373L24.0367 41.2519ZM24.2618 40.6532C24.2121 40.6437 23.6536 40.5398 23.1925 40.4337L23.3755 40.0248C23.6706 40.0927 24.1176 40.1812 24.4177 40.2386L24.2618 40.6532ZM24.712 39.4558C24.201 39.3579 23.8798 39.2891 23.721 39.2524L23.9039 38.8434C24.0558 38.8785 24.3673 38.9453 24.8679 39.0412L24.712 39.4558ZM25.1622 38.2584C24.9119 38.2105 24.4942 38.1278 24.2494 38.0712L24.4323 37.6621C24.5769 37.6956 24.8622 37.7565 25.3181 37.8438L25.1622 38.2584ZM25.3873 37.6597C25.3446 37.6515 24.8755 37.5643 24.5136 37.4805L24.6966 37.0715C24.8291 37.1022 25.1025 37.1607 25.5431 37.2451L25.3873 37.6597ZM24.6732 40.9236C25.1033 40.9979 25.4782 41.0546 25.7731 41.0944L25.6568 41.5154C25.3644 41.4759 24.9773 41.4177 24.5294 41.3404L24.6732 40.9236ZM25.153 43.3393C24.8228 43.2946 24.4069 43.2321 23.9064 43.1458L24.0502 42.7292C24.5301 42.8119 24.934 42.873 25.2692 42.9184L25.153 43.3393ZM25.321 42.7314C25.0034 42.6883 24.5988 42.6276 24.1141 42.544L24.2579 42.1274C24.7204 42.2072 25.1147 42.2668 25.4372 42.3105L25.321 42.7314ZM26.4968 38.4755C26.2646 38.4444 25.9277 38.3936 25.5681 38.3313L25.7119 37.9145C26.0197 37.9679 26.3529 38.0196 26.6132 38.0545L26.4968 38.4755ZM27.504 39.9954C26.964 39.9421 27.1516 39.9622 26.6258 39.901L26.8183 39.1085C27.3292 39.1679 27.1512 39.1487 27.6523 39.1981L27.504 39.9954ZM28.1325 46.4973C28.0467 46.4942 27.36 46.4521 27.0291 46.4257L27.1217 45.8228C27.4387 45.8482 28.1137 45.8896 28.1954 45.8926L28.1325 46.4973ZM28.2233 45.6239C28.1439 45.6211 27.4762 45.5801 27.1628 45.5551L27.2555 44.9522C27.5525 44.976 28.2088 45.0164 28.2862 45.0191L28.2233 45.6239ZM28.405 43.877C28.3421 43.8749 27.714 43.8365 27.4304 43.8137L27.523 43.2108C27.7837 43.2318 28.4007 43.2699 28.4679 43.2722L28.405 43.877ZM28.4958 43.0035C28.4365 43.0015 27.829 42.9643 27.5642 42.9429L27.6568 42.3401C27.9019 42.3599 28.4981 42.3968 28.5587 42.3987L28.4958 43.0035ZM28.6775 41.2567C28.6328 41.2553 28.0922 41.2228 27.8317 41.2016L27.9244 40.5986C28.1394 40.6162 28.691 40.6502 28.7404 40.6517L28.6775 41.2567ZM28.7683 40.3833C28.7255 40.382 28.1881 40.3492 27.9655 40.331L28.0582 39.728C28.2474 39.7435 28.7835 39.777 28.8312 39.7784L28.7683 40.3833ZM28.95 38.6363C28.9161 38.6354 28.4221 38.6052 28.2331 38.5896L28.3257 37.9866C28.5058 38.0015 28.9823 38.0306 29.0129 38.0314L28.95 38.6363ZM29.783 44.8011C29.6974 44.8002 29.0859 44.785 28.763 44.7708L28.8129 44.1655C29.1112 44.1787 29.7128 44.1941 29.8033 44.1949L29.783 44.8011ZM29.8122 43.9255C29.7333 43.9248 29.1375 43.9099 28.835 43.8964L28.8848 43.291C29.1613 43.3034 29.7462 43.3184 29.8325 43.3192L29.8122 43.9255ZM29.8415 43.0499C29.7563 43.0491 29.1767 43.0341 28.907 43.0221L28.9568 42.4167C29.2469 42.4297 29.8133 42.4433 29.8617 42.4437L29.8415 43.0499ZM29.8707 42.1744C29.828 42.174 29.2716 42.1609 28.979 42.1478L29.0288 41.5424C29.2601 41.5528 29.8121 41.5674 29.8909 41.5681L29.8707 42.1744ZM29.8999 41.2989C29.8303 41.2983 29.2855 41.2841 29.0509 41.2735L29.1007 40.668C29.3115 40.6776 29.8459 40.6919 29.9201 40.6925L29.8999 41.2989ZM29.9291 40.4233C29.8656 40.4228 29.3383 40.409 29.1229 40.3992L29.1727 39.7936C29.3633 39.8024 29.8803 39.8164 29.9493 39.8169L29.9291 40.4233ZM29.9583 39.5478C29.9151 39.5475 29.4232 39.5354 29.1948 39.5249L29.2447 38.9194C29.4611 38.9293 29.9359 38.9411 29.9786 38.9414L29.9583 39.5478ZM29.9875 38.6722C29.9344 38.6718 29.4449 38.6588 29.2668 38.6505L29.3166 38.045C29.4706 38.0522 29.9501 38.0654 30.0078 38.0658L29.9875 38.6722ZM31.317 46.5511C31.2743 46.5518 30.6517 46.5603 30.2118 46.5567L30.219 45.9503C30.6464 45.9538 31.2519 45.9456 31.2949 45.9449L31.317 46.5511ZM31.285 45.6757C31.2421 45.6763 30.6454 45.6845 30.2222 45.681L30.2294 45.0746C30.6109 45.0778 31.2197 45.0701 31.2628 45.0695L31.285 45.6757ZM31.2529 44.8001C31.2102 44.8008 30.6274 44.8085 30.2327 44.8051L30.2399 44.1989C30.569 44.2017 31.188 44.1955 31.2307 44.194L31.2529 44.8001ZM31.1888 43.0491C30.3504 43.0571 30.5429 43.0561 30.2536 43.0536L30.2609 42.4472C30.5375 42.4497 30.3469 42.4506 31.1666 42.4429L31.1888 43.0491ZM31.1247 41.2981C30.3493 41.3053 30.5462 41.3047 30.2746 41.3021L30.2818 40.6956C30.5409 40.698 30.3455 40.6987 31.1025 40.6917L31.1247 41.2981ZM31.0606 39.5471C30.3482 39.5535 30.5504 39.5531 30.2955 39.5506L30.3028 38.9441C30.5505 38.9466 30.3376 38.947 31.0384 38.9408L31.0606 39.5471ZM32.9092 46.4939C31.9883 46.5356 32.1764 46.528 31.8042 46.5382L31.7689 45.9323C32.1311 45.9224 31.938 45.9302 32.8443 45.8893L32.9092 46.4939ZM32.7218 44.7474C31.8587 44.7863 32.0508 44.7786 31.7024 44.7881L31.6672 44.1823C32.0043 44.1732 31.806 44.1811 32.6569 44.1428L32.7218 44.7474ZM32.6282 43.8741C31.7849 43.912 31.9819 43.9041 31.6515 43.9131L31.6163 43.3071C31.9415 43.2984 31.7414 43.3063 32.5633 43.2694L32.6282 43.8741ZM32.4407 42.1275C31.6646 42.1622 31.8645 42.1545 31.5497 42.1629L31.5145 41.557C31.8133 41.5491 31.61 41.557 32.3758 41.5228L32.4407 42.1275ZM32.2534 40.3809C31.5326 40.413 31.7386 40.4052 31.448 40.4129L31.4128 39.8068C31.6944 39.7995 31.4863 39.8073 32.1885 39.7762L32.2534 40.3809ZM32.1597 39.5077C31.469 39.5383 31.677 39.5305 31.3972 39.5378L31.3619 38.9318C31.6334 38.9248 31.4235 38.9325 32.0948 38.9029L32.1597 39.5077ZM32.066 38.6343C31.4064 38.6634 31.6156 38.6557 31.3463 38.6627L31.311 38.0567C31.5711 38.05 31.3609 38.0577 32.0011 38.0296L32.066 38.6343ZM32.553 37.71C32.4412 37.7193 32.5014 37.7151 32.3037 37.7271L32.2888 37.6146C32.483 37.6028 32.4255 37.6069 32.5361 37.5977L32.553 37.71ZM33.8676 38.2714C33.5174 38.3127 33.6373 38.2997 33.4062 38.3223L33.3255 37.9265C33.5345 37.9062 33.4264 37.918 33.774 37.877L33.8676 38.2714ZM35.0262 39.7059L34.5177 39.775L34.417 39.3816L34.9126 39.3144L35.0262 39.7059ZM34.8551 38.1924C35.1292 38.1506 35.0327 38.1664 35.3112 38.118L35.445 38.5065C35.1643 38.5553 35.2652 38.5389 34.976 38.5831L34.8551 38.1924ZM33.8545 39.2828C33.7414 39.2958 33.8594 39.2833 33.3598 39.3328L33.2857 38.9366C33.7832 38.8872 33.6526 38.9011 33.7674 38.8878L33.8545 39.2828ZM36.2276 40.066C35.7251 40.1525 35.7331 40.1515 35.7074 40.1553L35.5807 39.7655C35.6008 39.7625 36.0683 39.6819 36.0882 39.6784L36.2276 40.066ZM41.3298 34.8808C41.7303 34.6743 41.5635 34.7623 41.8316 34.6168L41.8986 34.6785C41.6367 34.8206 41.7994 34.735 41.3938 34.944L41.3298 34.8808ZM41.6081 35.1554C42.0166 34.9448 41.8495 35.033 42.1227 34.8848L42.2199 34.9743C41.955 35.1181 42.1137 35.0345 41.7011 35.2472L41.6081 35.1554ZM43.8814 35.7796C43.9803 35.7246 44.0295 35.6938 44.2967 35.5342L44.6293 35.808C44.3651 35.9659 44.3078 36.0015 44.2041 36.0594L43.8814 35.7796ZM44.0972 35.3699C43.8324 35.5281 43.7853 35.5576 43.6878 35.6119L43.4036 35.3656C43.4989 35.3125 43.5445 35.284 43.8043 35.1288L44.0972 35.3699ZM42.8391 36.1027C42.6644 36.03 42.495 35.9518 42.3308 35.8687L41.9153 35.4586C42.3311 35.2442 42.1652 35.3318 42.444 35.1805L43.2241 35.8986C42.9575 36.0434 43.0545 35.9919 42.8391 36.1027ZM43.4606 35.9887C43.6619 36.172 43.8019 36.2995 44.001 36.4808C43.6546 36.3964 43.3515 36.3012 43.0738 36.1962C43.1907 36.1362 43.0939 36.1874 43.4606 35.9887V35.9887ZM46.639 38.6105C47.1319 38.3299 47.0581 38.372 47.1545 38.3144L47.4449 38.5609C47.3468 38.6195 47.4185 38.5785 46.9205 38.8621L46.639 38.6105ZM47.0432 37.4486C46.8572 37.5654 46.9541 37.5065 46.5586 37.7429L46.2477 37.4803C46.6289 37.2524 46.5377 37.308 46.723 37.1916L47.0432 37.4486ZM46.2493 35.8653L46.667 35.5773L46.998 35.8111L46.5719 36.1049L46.2493 35.8653ZM45.2536 34.5163C45.1645 34.5808 45.2625 34.5115 44.8748 34.7796L44.5075 34.5083C44.895 34.2403 44.7855 34.3177 44.8767 34.2517L45.2536 34.5163ZM44.6593 34.0992C44.5702 34.1637 44.6751 34.0895 44.2957 34.3519L43.999 34.1329C44.3771 33.8712 44.2634 33.9517 44.3548 33.8855L44.6593 34.0992ZM45.6988 35.4564L46.102 35.1783L46.4501 35.4242L46.038 35.7084L45.6988 35.4564ZM40.6914 35.9423C40.617 35.976 40.5782 35.9913 40.3653 36.0801L40.1171 35.7814C40.3187 35.6973 40.3611 35.6806 40.435 35.647L40.6914 35.9423ZM42.0958 37.9986C42.3299 37.901 42.2486 37.9359 42.4742 37.8362L42.7328 38.1306C42.4978 38.2344 42.5799 38.1992 42.3463 38.2966L42.0958 37.9986ZM40.4646 36.64C40.6147 36.581 40.5278 36.6164 40.8056 36.5L41.0554 36.7981C40.7727 36.9165 40.8601 36.8809 40.7062 36.9414L40.4646 36.64ZM41.9925 37.9162C41.6876 38.0438 41.7795 38.0063 41.6123 38.0722L41.3706 37.7707C41.5318 37.7071 41.4413 37.7441 41.7425 37.618L41.9925 37.9162ZM42.2201 37.4123C42.4442 37.3136 42.3668 37.3486 42.5822 37.2483L42.8508 37.5383C42.6302 37.641 42.7099 37.605 42.4806 37.7059L42.2201 37.4123ZM42.1795 36.8134C41.9665 36.9127 42.0412 36.8788 41.8294 36.9719L41.569 36.6783C41.7808 36.5852 41.7077 36.6183 41.9111 36.5234L42.1795 36.8134ZM41.4916 36.0704C41.2955 36.1619 41.3662 36.13 41.1621 36.2197L40.9015 35.926C41.0963 35.8405 41.0273 35.8718 41.2231 35.7804L41.4916 36.0704ZM38.5544 36.044C38.5715 36.0389 38.9073 35.9215 39.1929 35.8149L39.8936 36.7506C39.5909 36.8636 39.2204 36.993 39.2035 36.9982L38.5544 36.044ZM40.5023 40.8094C41.0961 40.6257 40.9773 40.663 41.0991 40.6232L41.6247 41.4376C41.5048 41.4767 41.6052 41.4454 40.9982 41.633L40.5023 40.8094ZM37.2676 40.5981C37.7824 40.4899 37.6444 40.5199 37.8577 40.4708L38.2427 41.3237C38.0228 41.3742 38.1624 41.344 37.6215 41.4578L37.2676 40.5981ZM37.8262 40.401C37.6158 40.4494 37.7532 40.4195 37.2386 40.5277L36.8848 39.6682C37.3746 39.5653 37.2382 39.5949 37.4412 39.5482L37.8262 40.401ZM37.4096 39.4782C37.2097 39.5243 37.3456 39.4947 36.8557 39.5977L36.7098 39.2432C37.1881 39.1427 37.0524 39.1722 37.2509 39.1265L37.4096 39.4782ZM37.1083 38.6061C37.4206 38.5347 37.3096 38.5613 37.6263 38.4824L37.7921 38.8152C37.4681 38.8959 37.5814 38.8688 37.262 38.9418L37.1083 38.6061ZM37.5919 38.4133C37.2769 38.4918 37.3869 38.4654 37.0764 38.5364L36.6865 37.6846C36.9853 37.6164 36.8817 37.6411 37.1711 37.5689L37.5919 38.4133ZM38.4018 38.6564C37.9649 38.7739 38.0954 38.7399 37.8772 38.794L37.7095 38.4617C37.9206 38.4094 37.792 38.4429 38.2219 38.3272L38.4018 38.6564ZM38.2395 37.1997C37.7327 37.3455 37.8635 37.3093 37.7677 37.3348L37.5855 37.0053C37.6814 36.9798 37.5468 37.017 38.0454 36.8736L38.2395 37.1997ZM37.8055 37.403C37.9007 37.3777 37.7701 37.4138 38.2797 37.2672L38.771 38.0925C38.2378 38.2461 38.3621 38.2115 38.2667 38.237L37.8055 37.403ZM37.691 37.3552C37.289 37.4634 37.4165 37.4303 37.2139 37.4804L37.0456 37.1472C37.2416 37.0988 37.1139 37.132 37.5107 37.0252L37.691 37.3552ZM37.1366 37.4996C36.842 37.5732 36.9449 37.5485 36.6545 37.6148L36.5004 37.2782C36.7901 37.2121 36.6897 37.236 36.9703 37.166L37.1366 37.4996ZM36.5766 37.6327C36.3959 37.6745 36.5283 37.6456 36.0899 37.7377L35.9501 37.398C36.3766 37.3084 36.2451 37.3372 36.4244 37.2957L36.5766 37.6327ZM36.1189 37.808C36.5568 37.716 36.4255 37.7447 36.6081 37.7025L36.9931 38.5555C36.8023 38.5995 36.9377 38.5701 36.4728 38.6678L36.1189 37.808ZM36.5019 38.7381C36.967 38.6404 36.8323 38.6697 37.0246 38.6253L37.1764 38.9614C36.9815 39.0064 37.1174 38.9768 36.6413 39.0769L36.5019 38.7381ZM38.3741 41.3707C38.7468 41.2852 38.6138 41.317 38.9921 41.2231L39.4128 42.0674C39.025 42.1636 39.1641 42.1305 38.7641 42.2223L38.3741 41.3707ZM38.9576 41.1539C38.5897 41.2453 38.7217 41.2139 38.3421 41.3009L37.9522 40.4491C38.3038 40.3686 38.1799 40.3982 38.5368 40.3095L38.9576 41.1539ZM38.5024 40.2403C38.1465 40.3288 38.2708 40.2991 37.9202 40.3794L37.5303 39.5277C37.8703 39.4499 37.7521 39.478 38.0817 39.396L38.5024 40.2403ZM38.0471 39.3268C37.7191 39.4084 37.8368 39.3804 37.4983 39.4578L37.3375 39.1066C37.6607 39.0326 37.5456 39.0602 37.8735 38.9785L38.0471 39.3268ZM39.0912 41.1984C39.334 41.138 39.2008 41.1729 39.7027 41.038L40.1589 41.873C39.6406 42.0123 39.7718 41.978 39.5169 42.0415L39.0912 41.1984ZM39.6654 40.9695C39.1679 41.1032 39.3025 41.0681 39.0564 41.1293L38.6307 40.2861C38.863 40.2284 38.7316 40.2627 39.2092 40.1344L39.6654 40.9695ZM38.6782 39.1624C38.2292 39.2831 38.3585 39.2494 38.1352 39.3048L37.9596 38.9571C38.1777 38.903 38.0452 38.9376 38.49 38.818L38.6782 39.1624ZM39.801 41.0115C39.8965 40.9859 39.7864 41.0171 40.4056 40.8384L40.8967 41.6635C40.2641 41.8462 40.3615 41.8186 40.2621 41.8453L39.801 41.0115ZM40.3653 40.7708C39.7565 40.9465 39.8627 40.9165 39.7632 40.9432L39.3021 40.1094C39.3988 40.0835 39.281 40.1167 39.8741 39.9456L40.3653 40.7708ZM39.8339 39.878C39.2505 40.0463 39.3631 40.0147 39.2644 40.0411L38.8033 39.2074C38.9 39.1815 38.777 39.216 39.3427 39.0529L39.8339 39.878ZM39.3024 38.9852C38.7404 39.1472 38.8636 39.1128 38.7655 39.139L38.5754 38.7951C38.6725 38.7691 38.5466 38.8043 39.0999 38.6449L39.3024 38.9852ZM39.0048 38.4853C38.4605 38.6421 38.5833 38.6078 38.4861 38.6338L38.3044 38.3052C38.4012 38.2793 38.2714 38.3156 38.8112 38.1601L39.0048 38.4853ZM38.3556 37.2444C38.8487 37.0915 38.7047 37.1374 38.8238 37.0982L39.3496 37.9129C39.2332 37.9511 39.3583 37.9113 38.8517 38.0683L38.3556 37.2444ZM38.7808 37.0317C38.6628 37.0704 38.8057 37.0248 38.3149 37.177L38.1189 36.8515C38.6008 36.702 38.4539 36.749 38.573 36.7098L38.7808 37.0317ZM38.4712 36.5521C38.3551 36.5903 38.4784 36.5507 38.0229 36.692L37.8189 36.3533C38.2909 36.2067 38.1362 36.2563 38.255 36.2171L38.4712 36.5521ZM37.9503 36.7138C37.4545 36.8564 37.5921 36.8184 37.4962 36.8438L37.3066 36.5009C37.4016 36.4757 37.2668 36.5129 37.7483 36.3745L37.9503 36.7138ZM37.4224 36.8635C37.0327 36.9684 37.1596 36.9355 36.9632 36.984L36.7881 36.6373C36.978 36.5904 36.8513 36.6233 37.2348 36.5201L37.4224 36.8635ZM36.8888 37.0025C36.6059 37.0732 36.7044 37.0496 36.4249 37.1133L36.2645 36.763C36.5366 36.7011 36.4399 36.7243 36.7157 36.6552L36.8888 37.0025ZM36.3499 37.1305C36.175 37.1711 36.3059 37.1424 35.8816 37.2316L35.7361 36.8781C36.1486 36.7914 36.0195 36.8197 36.1916 36.7798L36.3499 37.1305ZM38.0333 42.4582C38.5966 42.3398 38.4575 42.3699 38.6908 42.3164L38.8358 42.6376C38.6003 42.6916 38.7406 42.6613 38.1665 42.7819L38.0333 42.4582ZM38.796 42.2923C39.1967 42.2003 39.0583 42.2332 39.4474 42.1367L39.6058 42.4547C39.2093 42.5531 39.3516 42.5191 38.9429 42.613L38.796 42.2923ZM39.5518 42.1107C39.8044 42.0478 39.6731 42.0822 40.1963 41.9416L40.3681 42.2561C39.8394 42.3981 39.9725 42.3633 39.7121 42.4282L39.5518 42.1107ZM40.2999 41.9137C40.3956 41.888 40.2919 41.9176 40.937 41.7312L41.122 42.042C40.4756 42.2287 40.5707 42.2016 40.4735 42.2277L40.2999 41.9137ZM41.0389 41.7007C41.6544 41.5104 41.5448 41.5447 41.6679 41.5044L41.8658 41.8111C41.7456 41.8504 41.8432 41.82 41.2257 42.0108L41.0389 41.7007ZM40.4872 39.6753C40.3688 39.7141 40.4823 39.6782 39.925 39.8507L39.429 39.0271C39.9735 38.8584 39.8407 38.9005 39.9616 38.8609L40.4872 39.6753ZM39.9183 38.7941C39.801 38.8326 39.9202 38.7948 39.3883 38.9595L39.1837 38.6198C39.717 38.4546 39.5812 38.4977 39.7015 38.4582L39.9183 38.7941ZM39.5998 38.3006C39.4832 38.3389 39.6058 38.2999 39.0877 38.4604L38.8923 38.1358C39.4117 37.9748 39.2722 38.0192 39.3926 37.9797L39.5998 38.3006ZM39.0758 43.1692C38.8332 43.2248 38.9737 43.1944 38.3872 43.3178L38.235 42.9483C38.8119 42.827 38.6711 42.8574 38.9103 42.8027L39.0758 43.1692ZM39.8682 42.981C39.4511 43.0844 39.5967 43.0496 39.186 43.1439L39.0184 42.7778C39.4306 42.6831 39.2877 42.7172 39.6873 42.618L39.8682 42.981ZM40.6525 42.7766C40.1128 42.9216 40.2447 42.8871 39.9775 42.9538L39.7945 42.5914C40.0552 42.5264 39.9199 42.5618 40.4564 42.4177L40.6525 42.7766ZM41.4282 42.5563C40.7671 42.7474 40.8618 42.7203 40.7609 42.7474L40.5628 42.3891C40.6679 42.3608 40.5765 42.3867 41.217 42.2016L41.4282 42.5563ZM42.1934 42.3189C42.073 42.3582 42.1658 42.3293 41.5348 42.5243L41.3216 42.1703C41.952 41.9754 41.8432 42.0094 41.9674 41.9688L42.1934 42.3189ZM40.7458 37.8889C40.3485 38.0372 40.0228 38.1489 39.9801 38.1631L39.3508 37.2364C39.3935 37.2222 39.7009 37.1165 40.0655 36.9803L40.7458 37.8889ZM41.2775 37.4728L40.9091 37.6183L40.6733 37.3145L41.0334 37.1723L41.2775 37.4728ZM43.7032 37.6809C43.4326 37.8137 43.5305 37.7668 43.3291 37.8603L43.058 37.5716C43.2452 37.4847 43.1584 37.5264 43.4243 37.3959L43.7032 37.6809ZM43.0057 36.9685C42.7496 37.0943 42.8426 37.0497 42.6512 37.1385L42.3802 36.8498C42.5616 36.7656 42.4739 36.8079 42.7268 36.6836L43.0057 36.9685ZM42.2908 36.2383C42.0461 36.3586 42.1383 36.3143 41.9565 36.3986L41.6854 36.11C41.858 36.0299 41.7701 36.0723 42.0119 35.9534L42.2908 36.2383ZM44.1327 37.6473L42.8036 36.3355L42.8741 36.2991C43.3249 36.4795 43.7651 36.6101 44.2544 36.7118L44.8601 37.2634C44.4174 37.5026 44.5726 37.4205 44.1327 37.6473V37.6473ZM47.9648 39.0025C47.863 39.0633 47.9251 39.0277 47.4244 39.3128L47.1104 39.0322C47.614 38.7454 47.5423 38.7864 47.6408 38.7276L47.9648 39.0025ZM46.5203 37.0292C46.3395 37.1427 46.4366 37.0838 46.0509 37.3143L45.7456 37.0565L46.0156 36.8952C46.1272 36.8968 46.2364 36.894 46.3482 36.8912L46.5203 37.0292ZM50.8978 27.4765C50.8148 27.7836 50.5058 28.5092 50.4931 28.5395L50.3368 28.5053C50.3494 28.4751 50.6564 27.7542 50.7383 27.4507L50.8978 27.4765ZM51.475 27.5701C51.406 27.8237 51.1619 28.4172 51.0587 28.6634L50.9028 28.6292C51.0013 28.3941 51.2474 27.7966 51.3159 27.5443L51.475 27.5701ZM49.5318 26.2672C49.3397 27.0889 49.1892 27.504 48.925 28.1375L48.8275 28.1165C49.1252 27.4025 49.2589 26.9927 49.4311 26.2561L49.5318 26.2672ZM49.007 26.2095C48.8195 27.012 48.672 27.4166 48.4171 28.0279L48.329 28.0089C48.5869 27.3903 48.7315 26.9887 48.916 26.1995L49.007 26.2095ZM51.2807 29.3385C51.1809 29.5392 51.2044 29.4931 51.1812 29.5365L50.8662 29.4545C50.8881 29.4137 50.8682 29.4526 50.9642 29.2596L51.2807 29.3385ZM49.1662 29.0119C49.1874 28.9725 49.167 29.0123 49.2558 28.8333L49.5722 28.9123C49.4801 29.0977 49.503 29.0531 49.4811 29.0939L49.1662 29.0119ZM50.1062 29.7711C50.2018 29.6063 50.1767 29.6508 50.2124 29.584L50.5251 29.6702C50.4888 29.7382 50.5142 29.6931 50.4172 29.8603L50.1062 29.7711ZM49.2253 30.0699L49.3361 29.8907L49.6442 29.9847L49.5317 30.1669L49.2253 30.0699ZM48.2555 29.6231C48.3621 29.4515 48.3378 29.4918 48.3596 29.4538L48.669 29.5457C48.6476 29.5831 48.669 29.5474 48.5631 29.718L48.2555 29.6231ZM50.0466 26.3238C49.89 26.9936 49.7605 27.4397 49.4233 28.2451L49.3355 28.2262C49.6037 27.5856 49.7605 27.1494 49.9559 26.3138L50.0466 26.3238ZM51.2746 30.5999L51.797 30.7622C52.1242 30.2343 52.3123 29.8677 52.5175 29.4564L51.9774 29.3264C51.9885 29.3052 52.1608 28.93 52.1706 28.907L51.4686 28.7532C51.671 28.2707 51.7766 28.0168 51.9696 27.3892L51.5499 27.3263L51.5222 27.4161L51.3627 27.3914L51.3902 27.3023L50.9705 27.2394L50.9435 27.3267L50.7837 27.3021C50.8852 26.975 50.9787 26.6246 51.0568 26.2262C54.193 27.5042 55.1438 30.3414 53.6107 32.8978L52.85 32.6094C52.5072 33.0691 52.134 33.4927 51.8658 33.7965C51.7985 33.7609 51.7326 33.7261 51.6659 33.6908C51.8518 33.4803 52.2442 33.0446 52.6747 32.4676L51.6887 32.0972C51.289 32.6332 50.922 33.0427 50.7466 33.2414C50.6839 33.2135 50.6214 33.1858 50.5593 33.1582C50.953 32.7121 51.1879 32.4336 51.5348 31.9682L50.5226 31.5915C50.0954 32.1646 49.7838 32.5092 49.5681 32.7538C49.4467 32.7068 49.5719 32.7546 49.3973 32.6883C49.7619 32.2748 49.977 32.0293 50.3902 31.4752L49.3519 31.0922C49.0611 31.4824 48.6949 31.939 48.3511 32.3065C48.3011 32.2889 48.2507 32.2711 48.2006 32.2535C48.5955 31.8315 48.9211 31.4166 49.2409 30.9883L48.1764 30.5992C47.8366 31.0544 47.566 31.3944 47.1068 31.8872C47.0635 31.8734 47.0204 31.8596 46.9781 31.8461C47.4712 31.3165 47.7136 31.0069 48.0872 30.5078L47.1023 30.1512C47.3602 29.7826 47.2769 29.9057 47.3383 29.8119L50.9895 31.0414C51.2189 30.6942 51.1493 30.8028 51.2746 30.6V30.5999ZM46.5042 32.33C46.5372 32.3533 46.5705 32.3769 46.6039 32.4007C46.1273 32.8625 45.779 33.1605 45.2895 33.5501L46.1808 34.1164C46.6281 33.7602 47.0721 33.3862 47.4736 32.9955C47.5131 33.0224 47.5555 33.0495 47.5965 33.0764C47.2297 33.4335 46.771 33.8245 46.3577 34.153L47.2316 34.7041C47.8683 34.1976 48.1903 33.8926 48.4705 33.6345C48.4794 33.6399 48.4761 33.6379 48.6174 33.7245C48.3943 33.9299 48.021 34.2823 47.4326 34.7506L48.289 35.2866C48.7645 34.908 49.0669 34.6386 49.5017 34.238C49.5601 34.2694 49.6188 34.301 49.6778 34.3328C49.3176 34.6646 48.9605 34.9878 48.5144 35.3429L49.353 35.8639C49.8447 35.4724 50.231 35.1197 50.5966 34.7828C50.6666 34.8145 50.7359 34.8459 50.8068 34.878C50.6839 34.9912 50.1224 35.5162 49.6029 35.9297L49.7364 36.0121C49.3691 36.1562 49.1055 36.2474 48.6878 36.3653L44.0143 33.2284C44.0298 33.2167 44.3055 33.0074 44.3164 32.9983L45.1366 33.5233C45.7046 33.0703 45.9989 32.8181 46.504 32.3299L46.5042 32.33ZM32.4971 37.3395C32.3886 37.3485 32.4473 37.3445 32.2546 37.3561L32.2444 37.2787C32.4357 37.2671 32.3772 37.2711 32.4855 37.2621L32.4971 37.3395ZM13.9708 32.4495L13.704 32.178L14.1721 31.9534L14.4315 32.2174L13.9708 32.4495ZM12.6562 33.8128C12.4387 33.6126 12.4988 33.6688 12.3451 33.5196L12.8013 33.2835C12.9656 33.4429 12.8889 33.3708 13.1046 33.5693L12.6562 33.8128ZM12.6399 34.5646L12.3045 34.2707L12.7485 34.0231L13.0759 34.3099L12.6399 34.5646ZM14.3638 33.5573L14.0606 33.2916L14.5047 33.0439L14.7998 33.3025L14.3638 33.5573ZM13.7558 30.9313C13.1578 30.1747 12.9235 29.8066 12.5725 29.2028L12.6957 29.168C12.8914 29.5071 13.3831 30.2999 13.6515 30.6072L13.9745 30.483C13.7135 30.1847 13.2345 29.4137 13.0371 29.0716L13.1513 29.0393C13.5088 29.6544 13.7243 29.9881 14.2961 30.7117L13.7558 30.9313ZM11.3882 25.396C11.4679 26.0435 11.6476 26.7877 11.8202 27.2805L11.721 27.297C11.5441 26.7917 11.3662 26.048 11.2867 25.4025L11.3882 25.396ZM11.6104 28.6276C11.6274 28.6652 11.6144 28.6387 11.6985 28.8066L11.3818 28.8851C11.297 28.7157 11.3148 28.7527 11.2922 28.703L11.6104 28.6276ZM12.6302 28.3139C12.6827 28.4294 12.6674 28.3974 12.7107 28.4834L12.3935 28.5607C12.3494 28.473 12.3647 28.5051 12.3116 28.3881L12.6302 28.3139ZM9.67211 29.3088C9.58107 29.1266 9.59388 29.1526 9.57453 29.1102L9.89276 29.0348C9.91624 29.0864 9.89775 29.0481 9.98884 29.2303L9.67211 29.3088ZM10.1848 28.4038L10.2657 28.5971L9.9452 28.6675L9.86291 28.4711L10.1848 28.4038ZM11.7793 27.7485C11.8073 27.8205 11.8185 27.8548 11.8478 27.9264L11.5251 27.9916C11.4953 27.9187 11.4838 27.8838 11.4553 27.8106L11.7793 27.7485ZM10.6271 27.8292L10.6995 28.018C10.5756 28.0421 10.4984 28.0572 10.3761 28.081L10.3025 27.8892C10.425 27.8665 10.5038 27.852 10.6271 27.8292V27.8292ZM9.37908 28.0598L9.45599 28.2603L9.13243 28.3234L9.05432 28.1197L9.37908 28.0598ZM11.9075 25.3627C11.9844 25.9897 12.1595 26.7162 12.3276 27.1959L12.2377 27.2109C12.0658 26.7202 11.8922 25.9931 11.8155 25.3686L11.9075 25.3627ZM11.2139 27.3816C11.0325 26.8624 10.8502 26.1033 10.7679 25.4357L10.8593 25.4298C10.9415 26.0962 11.125 26.8566 11.3032 27.3667L11.2139 27.3816ZM11.087 30.7741C10.8718 30.4698 10.6243 30.0499 10.4428 29.737L10.5946 29.6946C10.7747 30.0049 11.0203 30.4218 11.2339 30.7238L11.087 30.7741ZM11.62 30.5917C11.4114 30.297 11.1691 29.8855 10.9936 29.5833L11.1458 29.5409C11.3203 29.8413 11.5615 30.2508 11.7673 30.5413L11.62 30.5917ZM13.3042 31.115C12.6716 30.3147 12.4335 29.9325 12.0886 29.3395L12.1739 29.3154C12.5503 29.9627 12.7938 30.3362 13.3838 31.0826L13.3042 31.115ZM12.6804 32.8825C12.4654 32.6637 12.5482 32.7499 12.3997 32.5901L12.8713 32.3695C13.0093 32.5181 12.9371 32.4431 13.1447 32.6543L12.6804 32.8825ZM18.4296 37.3216C18.5418 37.374 18.5088 37.359 18.5823 37.3914L18.4742 37.5114C18.4053 37.4811 18.4366 37.4953 18.32 37.4409L18.4296 37.3216ZM19.3587 36.6425C19.2123 36.5782 19.2455 36.5931 19.2136 36.5782L19.3223 36.4587C19.3513 36.4721 19.3241 36.46 19.4661 36.5223L19.3587 36.6425ZM19.0123 36.0679L18.8749 36.0004L18.9898 35.8835L19.1258 35.9503L19.0123 36.0679ZM18.2891 36.5454L18.4332 36.6161L18.3195 36.7334L18.174 36.662L18.2891 36.5454ZM17.8308 37.1232L17.7164 37.2402C17.6644 37.2148 17.618 37.1921 17.5646 37.166L17.6804 37.0496C17.7333 37.0755 17.7792 37.098 17.8308 37.1232ZM13.5152 38.1416C13.4155 38.082 13.4879 38.1272 12.989 37.8143L13.4315 37.469C13.93 37.7817 13.8472 37.7299 13.9444 37.788L13.5152 38.1416ZM12.7925 37.9678C13.2991 38.2855 13.221 38.2368 13.3245 38.2987L12.8953 38.6522C12.7907 38.5897 12.8638 38.6354 12.3501 38.3131L12.7925 37.9678ZM14.1351 37.6309C14.039 37.5735 14.1126 37.6194 13.628 37.3156L14.0705 36.9702C14.5494 37.2705 14.466 37.2186 14.5644 37.2774L14.1351 37.6309ZM14.755 37.1203C14.6599 37.0635 14.7366 37.1111 14.2671 36.8168L14.7095 36.4714C15.1729 36.7619 15.0871 36.7087 15.1843 36.7667L14.755 37.1203ZM15.375 36.6096C15.2809 36.5535 15.3605 36.6028 14.9061 36.318L15.3485 35.9727C15.8015 36.2565 15.7079 36.1986 15.8042 36.256L15.375 36.6096ZM15.9948 36.099C15.9014 36.0433 15.9842 36.0945 15.545 35.8193L15.9874 35.474C16.4248 35.748 16.3283 35.6886 16.424 35.7455L15.9948 36.099ZM16.6147 35.5884C16.522 35.5333 16.6086 35.5865 16.184 35.3206L16.6264 34.9753C17.0485 35.2396 16.9495 35.1787 17.0439 35.2348L16.6147 35.5884ZM13.4096 37.1728C13.106 36.9732 13.2106 37.0435 12.9205 36.8435L13.3814 36.5105C13.6705 36.7098 13.5688 36.6412 13.8578 36.8312L13.4096 37.1728ZM12.7157 36.9915C13.0095 37.1939 12.9033 37.1225 13.2105 37.3246L12.7624 37.6663C12.4543 37.4635 12.5631 37.5369 12.2548 37.3245L12.7157 36.9915ZM14.0569 36.6794C13.7647 36.4873 13.8654 36.5549 13.5862 36.3625L14.0471 36.0294C14.3188 36.2169 14.2206 36.1508 14.505 36.3378L14.0569 36.6794ZM14.7042 36.186C14.4239 36.0018 14.52 36.0664 14.2519 35.8814L14.7128 35.5484C14.9795 35.7325 14.8857 35.6692 15.1523 35.8444L14.7042 36.186ZM15.3513 35.6926C15.0824 35.5159 15.1746 35.578 14.9175 35.4005L15.3783 35.0675C15.6337 35.2438 15.5438 35.1832 15.7994 35.351L15.3513 35.6926ZM15.9985 35.1993C15.741 35.0301 15.8293 35.0895 15.5831 34.9195L16.044 34.5865C16.2882 34.7551 16.2022 34.6972 16.4467 34.8577L15.9985 35.1993ZM12.05 37.4725C12.3616 37.6872 12.2521 37.6133 12.5632 37.818L12.1151 38.1597C11.7893 37.9453 11.9012 38.0205 11.5891 37.8055L12.05 37.4725ZM16.6197 35.8623C16.7796 35.9582 16.6611 35.8894 17.0699 36.1222L16.6603 36.4871C16.2439 36.25 16.3617 36.3184 16.1965 36.2194L16.6197 35.8623ZM17.2519 35.96C16.85 35.7311 16.9674 35.7993 16.8077 35.7036L17.231 35.3464C17.3868 35.4399 17.2694 35.3717 17.6616 35.595L17.2519 35.96ZM16.0085 36.378C16.1744 36.4774 16.0559 36.4086 16.4784 36.6492L16.0688 37.0142C15.6374 36.7686 15.7563 36.8376 15.5852 36.7351L16.0085 36.378ZM15.3971 36.8938C15.5698 36.9972 15.4512 36.9284 15.8868 37.1764L15.4771 37.5414C15.0299 37.2868 15.1493 37.356 14.9738 37.251L15.3971 36.8938ZM14.7857 37.4095C14.9621 37.5151 14.8436 37.4465 15.2951 37.7035L14.8854 38.0685C14.4279 37.808 14.5445 37.8756 14.3624 37.7667L14.7857 37.4095ZM14.1744 37.9254C14.3572 38.0347 14.2377 37.9655 14.7034 38.2307L14.2938 38.5957C13.8166 38.324 13.9372 38.3937 13.751 38.2825L14.1744 37.9254ZM13.563 38.4411C13.7507 38.5534 13.6318 38.4846 14.1118 38.7579L13.7021 39.1229C13.2152 38.8457 13.3321 38.9132 13.1397 38.7983L13.563 38.4411ZM16.689 36.7655C17.0508 36.9618 16.9276 36.8966 17.1737 37.0233L16.7842 37.3992C16.5544 37.2808 16.6639 37.3391 16.2855 37.1339L16.689 36.7655ZM17.3466 36.8563C17.1233 36.7414 17.2323 36.7994 16.8682 36.6019L17.2717 36.2336C17.6208 36.423 17.4985 36.3583 17.736 36.4805L17.3466 36.8563ZM16.1062 37.2976C16.4795 37.5 16.3572 37.4354 16.6112 37.5662L16.2218 37.9421C15.9716 37.8132 16.0874 37.8745 15.7026 37.6659L16.1062 37.2976ZM15.0969 39.0278C14.8308 38.8907 14.9464 38.9519 14.537 38.73L14.9405 38.3616C15.3403 38.5783 15.2142 38.5117 15.4863 38.6519L15.0969 39.0278ZM14.3577 38.8937C14.7689 39.1166 14.6437 39.0505 14.9238 39.1949L14.5344 39.5707C14.259 39.4287 14.378 39.4917 13.9542 39.2621L14.3577 38.8937ZM15.6593 38.485C15.4132 38.3581 15.5244 38.4173 15.1198 38.198L15.5233 37.8296C15.9102 38.0393 15.7852 37.9733 16.0487 38.1091L15.6593 38.485ZM17.909 36.3135C17.6827 36.1971 17.7993 36.2589 17.451 36.0699L17.8545 35.7015C18.1901 35.8836 18.0702 35.8202 18.2984 35.9376L17.909 36.3135ZM18.0114 38.5684C17.64 38.4044 17.4078 38.3047 16.8581 38.0351L17.0272 37.8632C17.5661 38.1275 17.7958 38.2263 18.1662 38.3899L18.0114 38.5684ZM18.6192 38.1507C18.499 38.1006 18.5342 38.1158 18.4572 38.0817C18.5143 38.0158 18.4959 38.037 18.5622 37.9604C18.6361 37.9931 18.6028 37.9788 18.7228 38.0288C18.6572 38.106 18.6754 38.0846 18.6192 38.1507ZM19.2053 37.1792L19.0548 37.1127C19.1152 37.0444 19.1016 37.0598 19.1614 36.9921L19.3105 37.058C19.2515 37.126 19.2648 37.1106 19.2053 37.1792ZM20.1355 36.1074L19.9974 36.0464C20.0379 36.0006 20.0635 35.9716 20.104 35.9259L20.2406 35.9863C20.2007 36.0323 20.1754 36.0614 20.1355 36.1074ZM17.0571 33.4389C16.8015 33.2542 16.5697 33.0763 16.539 33.0506L16.6378 32.9875C16.668 33.0129 16.8996 33.1905 17.1522 33.373L17.0571 33.4389Z" fill="black"/>
<path d="M22.1876 4.50311C21.9372 4.55585 21.8693 4.56952 21.7677 4.59328L21.803 4.6726C20.7276 4.91931 20.2562 5.04198 19.2264 5.34268L19.1805 5.2661L18.7154 5.40982L18.8711 5.65725C20.0077 5.3055 21.0195 5.03148 22.297 4.76262L22.1876 4.50311ZM21.7677 4.59328C20.6907 4.84031 20.2184 4.96301 19.1805 5.2661L18.9993 4.96371C20.0676 4.65165 20.5527 4.52672 21.6282 4.28004L21.7677 4.59328ZM49.1161 23.4841L51.2381 23.4101C51.2369 23.2224 51.1025 21.8912 50.708 20.759L52.5764 20.4473C52.4476 20.0742 52.4893 20.1889 52.4079 19.977L52.959 19.8725C52.7178 19.2409 52.5439 18.8965 52.3643 18.5356L51.8279 18.6732C51.7978 18.6125 51.8423 18.6974 51.6075 18.2607L50.9239 18.4514C50.6136 17.9159 50.4821 17.6997 50.1063 17.1655L49.7233 17.3021L49.7811 17.3845L49.6349 17.4359L49.5776 17.3541L49.1945 17.4908L49.2507 17.5709L49.1043 17.6223C48.7534 17.1225 48.4367 16.7368 48.1176 16.3756L50.7356 15.2184C50.5201 14.9742 50.28 14.7199 50.2498 14.6897L50.8327 14.4101C50.3387 13.9065 49.9247 13.5014 49.2686 12.9532L48.7303 13.2744C48.477 13.0625 48.6016 13.164 48.1974 12.8419L47.9373 13.008C48.3453 13.3332 48.2328 13.242 48.3827 13.3675L48.1962 13.48C48.049 13.3567 48.161 13.4475 47.7554 13.1242L47.5304 13.268C47.9313 13.5876 47.8177 13.4954 47.9654 13.6191L47.7789 13.7316C47.6339 13.6101 47.7468 13.7017 47.3484 13.3842L47.1233 13.528C47.5157 13.8408 47.4031 13.7494 47.548 13.8708L47.3614 13.9834C47.2188 13.8639 47.3317 13.9554 46.9413 13.6443L46.7163 13.7881C47.1011 14.0948 46.9881 14.003 47.1307 14.1225L46.9442 14.235C46.804 14.1174 46.9167 14.209 46.5344 13.9042L46.3092 14.0481C46.6856 14.3482 46.573 14.2566 46.7133 14.3742L46.5268 14.4867C46.3889 14.371 46.5018 14.4628 46.1274 14.1642L45.9022 14.3081C46.2705 14.6018 46.158 14.5103 46.2959 14.6259L46.1094 14.7384C45.974 14.6247 46.0864 14.7162 45.7203 14.4242L45.4953 14.568C45.8566 14.8561 45.7433 14.7639 45.8786 14.8775L45.692 14.9901C45.5589 14.8783 45.6713 14.9698 45.3133 14.6843L45.0883 14.8281C45.4409 15.1093 45.3285 15.0177 45.4613 15.1292L45.2748 15.2417C45.1434 15.1312 45.2562 15.2232 44.9064 14.9442L44.7926 15.0169C44.7544 14.9862 44.7819 15.0072 44.6043 14.8728C45.7308 14.1322 46.4456 13.6623 47.3916 13.0405C47.143 12.8517 47.2306 12.9166 46.9813 12.7364C48.402 11.7534 49.0563 11.3007 50.4746 10.3194C50.236 10.1468 50.3196 10.2061 50.0811 10.0407L50.5176 9.72646C50.2509 9.54245 50.2096 9.51344 50.1811 9.49539L50.4344 9.30697C49.6355 8.78112 49.0652 8.42088 48.0166 7.85268L47.7938 8.05948C47.5482 7.92648 47.6468 7.97858 47.3385 7.8195L46.9709 8.17509C46.6311 8.00001 46.7318 8.05054 46.4983 7.93605L44.4126 10.044C43.7405 9.71453 43.3284 9.53255 42.8016 9.31256L42.3941 9.80222C42.2357 9.7359 42.1956 9.71849 42.1309 9.69355L42.0471 9.7973C41.7182 9.6675 41.3805 9.53315 40.9398 9.37872L40.7474 9.64982C41.1931 9.8059 41.5158 9.93498 41.8344 10.0607L41.7524 10.1621C41.708 10.1446 41.1271 9.913 40.8049 9.80026L40.6101 10.0704C40.9156 10.1772 41.497 10.4085 41.5397 10.4254L41.4578 10.5268C40.9725 10.335 41.1424 10.4004 40.6619 10.221L40.4647 10.4902C40.946 10.6699 40.7801 10.6063 41.2452 10.7901L41.1633 10.8915C40.6649 10.6947 40.8586 10.7692 40.5118 10.6399L40.312 10.9083C40.6405 11.0307 40.4595 10.9609 40.9506 11.1549L40.8686 11.2564C40.3809 11.0639 40.5345 11.123 40.3546 11.0563L40.1525 11.3237C40.3287 11.3891 40.1732 11.3291 40.656 11.5197L40.5741 11.621L40.191 11.4697L39.9864 11.7363L40.3614 11.8844L40.2795 11.9859L40.0189 11.883L39.8119 12.1485L40.0669 12.2492L39.9849 12.3506L39.8401 12.2936L39.6307 12.5583L39.7723 12.6139L39.7139 12.6862C39.2513 12.5034 39.4562 12.5829 39.106 12.4521L40.0899 11.121C39.9762 11.0785 39.9464 11.0668 39.8992 11.0506L38.9348 12.3888L38.8194 12.3486L39.7706 11.0057L39.578 10.9379L42.8308 6.22358C42.7212 6.18413 42.652 6.16203 42.3662 6.06767L42.6526 5.63243L42.4142 5.55383L42.5456 5.34927C42.5029 5.33466 41.4379 4.99142 40.074 4.6515L39.9697 4.86371C39.6404 4.7819 39.1523 4.67046 38.9057 4.61836L38.9983 4.40341C37.8861 4.16963 37.4104 4.09027 36.4196 3.93805L36.3553 4.15807C36.2713 4.14554 36.3369 4.15453 35.903 4.09573L35.7763 4.56732C35.4136 4.5183 35.5157 4.53137 35.3336 4.50997L34.4624 8.06096C34.3041 8.04248 33.7749 7.97798 33.3376 7.94305L34.5161 1.1719L34.0664 1.13547L34.1705 0.460888L33.9389 0.442506L33.9846 0.126436C32.6752 0.0388686 32.1637 0.0293904 31.4579 0.0109171L31.4453 0.328496C31.361 0.325598 31.2369 0.324632 30.633 0.31944L30.635 0.00174073C29.891 -0.0082204 28.8498 0.0263719 28.1075 0.0596058L28.1384 0.376551C27.8472 0.389983 27.9415 0.384942 27.7325 0.397771L27.81 1.07413L27.4158 1.09879L28.6301 10.3134C28.4361 10.3253 28.4954 10.321 28.3761 10.3309L27.9319 7.37382C27.323 7.42296 27.5447 7.40331 27.047 7.45248L26.9466 6.95962C26.0106 7.05189 25.2545 7.16919 24.4099 7.31484L24.5834 7.79744C24.4965 7.81235 24.5582 7.801 24.2584 7.85844L23.0229 4.61715C22.59 4.70007 22.6924 4.67973 22.4836 4.72353L22.5349 4.84831C21.1877 5.13133 20.3156 5.35234 18.7766 5.82861L18.7008 5.71019L18.1132 5.90413L20.9346 10.0585C20.8919 10.0727 20.5634 10.1854 20.1646 10.3342L19.2615 9.12815C18.9694 9.23703 19.1072 9.18397 18.6607 9.36043L18.3134 8.927C17.9564 9.06793 16.9719 9.48989 16.625 9.66699L17.0204 10.0793C16.5029 10.3331 16.6205 10.2746 16.5097 10.3313L16.7637 10.582C16.3112 10.8152 16.4674 10.7329 16.0326 10.9679L13.1466 8.33972C12.9734 8.43368 13.0501 8.39106 12.7635 8.55412L12.444 8.27325C12.2128 8.40492 12.1501 8.43978 12.0585 8.49556L11.2791 7.83402C11.1404 7.91688 10.8537 8.08788 10.8144 8.11242L9.80081 7.28661C9.18815 7.67069 9.33885 7.57337 8.89127 7.86795L9.94929 8.66544C9.73026 8.80973 9.82276 8.74716 9.50936 8.96319L10.3602 9.57918C10.0622 9.78504 10.1579 9.71746 9.95467 9.86446L10.318 10.1173C10.0647 10.3007 9.99686 10.3491 9.96052 10.3776L10.2504 10.5722C10.3631 10.4889 10.7212 10.2273 10.9121 10.097C11.2116 10.3119 10.9918 10.1542 11.127 10.2513C10.9694 10.3585 10.5211 10.6837 10.4725 10.7212L12.0821 11.8016C11.6581 11.9264 11.3978 12.02 11.0345 12.1662L10.544 11.8638C10.1807 12.1533 9.55582 12.7016 9.23222 13.0152C9.15369 12.9808 9.0752 12.9465 8.99705 12.9123C9.42378 12.4989 9.88566 12.1098 10.2699 11.7887L9.46683 11.2973C9.07477 11.6248 8.60747 12.0161 8.1008 12.5068C8.01586 12.4677 7.93114 12.4287 7.84645 12.3897C8.29804 11.9524 8.71316 11.5953 9.16983 11.2137L8.38499 10.7369C7.85397 11.1807 7.46366 11.5197 6.97505 11.9929L6.69607 11.8673C7.19835 11.3834 7.54284 11.0796 8.06352 10.6442L7.29674 10.1819C6.73259 10.6538 6.36376 10.9812 5.83902 11.489C5.73658 11.4444 5.6349 11.4002 5.53361 11.3562C5.97896 10.9251 6.35893 10.5753 6.95003 10.0803L6.20161 9.63255C5.59438 10.1411 5.22136 10.4829 4.69013 10.9975C4.56899 10.9465 4.4492 10.8961 4.33087 10.8464C6.90434 8.10554 4.86765 8.44983 2.89314 10.2555C1.4066 9.66035 0.855388 9.46185 0.158215 9.20633L0 9.3677C2.57124 11.0081 2.43203 10.6059 1.98758 11.2578C0.617317 13.3469 1.36198 13.7389 3.63985 11.552C3.74729 11.6127 3.85623 11.6742 3.96636 11.7365C3.38799 12.3582 3.07587 12.7306 2.66963 13.2435L3.52673 13.5802C3.90743 13.0994 4.22364 12.7216 4.73809 12.1683C4.83191 12.2198 4.9262 12.2716 5.02125 12.3238C4.49148 12.8943 4.19555 13.2524 3.78363 13.7733L4.66639 14.117C5.01925 13.6708 5.34443 13.2729 5.82378 12.7577L6.08837 12.898C5.60774 13.4147 5.27922 13.8201 4.90241 14.297L5.81071 14.6475C6.11702 14.2599 6.47073 13.8183 6.92031 13.335C7.00174 13.3773 7.08331 13.4196 7.16491 13.462C6.72627 13.9335 6.14892 14.6433 6.027 14.8147L6.96122 15.1719C7.07976 15.0042 7.65745 14.2988 8.01718 13.9123C8.07462 13.9436 8.13201 13.9748 8.18958 14.0062C5.25663 16.9034 5.96914 20.7254 9.87776 22.2386C9.86747 22.2898 9.87648 22.2388 9.83882 22.4734C11.7577 22.627 10.5061 22.5521 11.9299 22.7635C11.9273 22.7764 11.8845 23.1081 11.8787 23.1765L9.75973 23.0678L9.74628 23.2201L11.8668 23.3134C11.8315 23.6926 11.8326 23.9433 11.8281 24.1495H14.8922C15.2692 9.4454 45.7055 9.71405 46.0758 24.1495H49.1399C49.1326 23.7498 49.1378 23.8924 49.1162 23.4844L49.1161 23.4841ZM4.13252 10.0553C3.97264 9.96984 4.36004 9.68604 4.35197 9.93872C4.34911 10.0282 4.2751 10.1315 4.13252 10.0553ZM3.77325 10.3974C3.61154 10.3142 3.9895 10.0237 3.98882 10.2774C3.98856 10.3671 3.91776 10.4718 3.77325 10.3974V10.3974ZM2.35342 11.8905C2.52124 11.9639 2.18448 12.2734 2.15083 12.0226C2.14007 11.9332 2.20161 11.8241 2.35342 11.8905ZM3.02031 11.1572C2.85108 11.0772 3.21939 10.7798 3.2299 11.0316C3.23276 11.1203 3.16866 11.2274 3.02031 11.1572ZM33.2512 9.44492C33.7523 9.49436 33.5782 9.47574 34.0661 9.53252L33.6721 11.1543C33.2291 11.1026 33.383 11.1193 32.9478 11.0764L33.2512 9.44492ZM34.8066 8.60788C35.063 8.64235 35.4198 8.69608 35.8149 8.76442L35.671 9.18122C35.3287 9.122 34.976 9.06733 34.6903 9.02897L34.8066 8.60788ZM36.0864 7.97746C35.6739 7.90617 35.3093 7.85102 35.0263 7.81286L35.1426 7.3919C35.3589 7.42109 35.7644 7.48028 36.2302 7.56076L36.0864 7.97746ZM41.0861 6.08485C41.648 6.24845 42.085 6.39485 42.2532 6.45036L41.9947 6.83833C41.6714 6.73163 41.2863 6.60687 40.8534 6.48088L41.0861 6.08485ZM40.4138 7.22902C40.9405 7.38218 41.3915 7.53329 41.5066 7.57126L41.2481 7.95932C41.1894 7.93994 40.7187 7.78141 40.1811 7.62514L40.4138 7.22902ZM39.7416 8.37322C40.2234 8.51316 40.6337 8.65053 40.7599 8.69219L40.5015 9.08025C40.396 9.04545 39.9948 8.9104 39.5088 8.76934L39.7416 8.37322ZM39.4054 8.94529C39.8676 9.0794 40.2673 9.21325 40.3866 9.25264L40.1281 9.6407C40.0721 9.6222 39.651 9.48014 39.1727 9.34141L39.4054 8.94529ZM38.7331 10.0895C39.1602 10.2132 39.5206 10.3342 39.64 10.3736L39.3815 10.7616C39.2986 10.7343 38.9323 10.6106 38.5003 10.4856L38.7331 10.0895ZM38.0608 11.2337C38.4523 11.3468 38.7679 11.4531 38.8933 11.4945L38.6348 11.8826C38.2486 11.7551 38.0117 11.6829 37.8281 11.6299L38.0608 11.2337ZM39.3664 5.62585C40.1055 5.80986 39.8493 5.74385 40.5653 5.93561L40.3441 6.33493C39.6276 6.14302 39.8779 6.20785 39.1716 6.03199L39.3664 5.62585ZM39.0851 6.21256C39.8006 6.39069 39.5526 6.32678 40.2458 6.51245L40.0246 6.91177C39.3314 6.7261 39.5736 6.78883 38.8904 6.6187L39.0851 6.21256ZM38.5225 7.38595C39.1909 7.55236 38.9593 7.49266 39.6067 7.6661L39.3855 8.06548C38.7391 7.89231 38.9649 7.95081 38.3278 7.79216L38.5225 7.38595ZM38.2413 7.97266C38.8861 8.13322 38.6626 8.0756 39.2872 8.24294L39.066 8.64232C38.443 8.4754 38.6606 8.53179 38.0465 8.3789L38.2413 7.97266ZM37.96 8.55937C38.5812 8.71404 38.3659 8.65856 38.9677 8.81978L38.7464 9.21919C38.1468 9.05852 38.3563 9.11279 37.7653 8.96564L37.96 8.55937ZM37.3975 9.73276C37.9715 9.87569 37.7726 9.82441 38.3286 9.97343L38.1074 10.3728C37.5545 10.2246 37.7477 10.2747 37.2027 10.139L37.3975 9.73276ZM36.835 10.9062C37.3618 11.0374 37.1792 10.9903 37.6896 11.1271L37.4683 11.5266C36.9622 11.3909 37.139 11.4367 36.6402 11.3125L36.835 10.9062ZM37.3809 5.85013C37.9593 5.96076 38.352 6.04422 38.5675 6.09366L38.3846 6.50255C38.1644 6.45202 37.7754 6.36986 37.2251 6.26457L37.3809 5.85013ZM36.9307 7.04752C36.9838 7.05766 37.5579 7.16439 38.0391 7.27496L37.8562 7.68391C37.6698 7.64105 37.314 7.56519 36.7748 7.46202L36.9307 7.04752ZM36.7056 7.64621C37.2398 7.74842 37.5912 7.82334 37.7749 7.86563L37.592 8.27458C37.4177 8.23446 37.0846 8.16307 36.5497 8.06071L36.7056 7.64621ZM36.2554 8.8436C36.7654 8.94122 37.0869 9.01013 37.2464 9.04693L37.0635 9.45597C36.91 9.42056 36.5995 9.35391 36.0995 9.25819L36.2554 8.8436ZM35.8052 10.041C36.2889 10.1336 36.5807 10.1964 36.718 10.2282L36.5351 10.6373C36.3893 10.6035 36.0987 10.5416 35.6494 10.4556L35.8052 10.041ZM35.5801 10.6397C35.8256 10.6867 36.2116 10.7627 36.4538 10.8189L36.2709 11.2279C36.1527 11.2005 35.8937 11.1442 35.4243 11.0543L35.5801 10.6397ZM36.2942 7.37575C35.8452 7.29821 35.4554 7.24025 35.1943 7.20499L35.3106 6.78403C35.6866 6.83486 36.0636 6.89442 36.438 6.95904L36.2942 7.37575ZM35.8144 4.96006C36.1007 4.99891 36.5434 5.06435 37.061 5.15357L36.9172 5.57019C36.4377 5.48751 36.0344 5.42654 35.6982 5.38096L35.8144 4.96006ZM35.6465 5.56802C35.964 5.61106 36.3696 5.67195 36.8533 5.75535L36.7095 6.17196C36.2451 6.09185 35.8516 6.03242 35.5302 5.98889L35.6465 5.56802ZM34.4706 9.82383C34.7675 9.86362 35.0963 9.91554 35.3993 9.96803L35.2555 10.3848C34.8882 10.3212 34.5506 10.2711 34.3542 10.2449L34.4706 9.82383ZM33.4634 8.30395C34.0035 8.35728 33.8159 8.33721 34.3417 8.39834L34.1491 9.19088C33.6382 9.13144 33.8163 9.1507 33.3152 9.10123L33.4634 8.30395ZM32.835 1.80205C32.9207 1.80513 33.6068 1.84724 33.9384 1.87368L33.8457 2.47654C33.4773 2.44711 32.8258 2.40874 32.7721 2.40681L32.835 1.80205ZM32.7441 2.67543C32.8236 2.67823 33.4913 2.71923 33.8046 2.74428L33.712 3.3472C33.4149 3.32338 32.7587 3.28294 32.6813 3.28025L32.7441 2.67543ZM32.5625 4.42237C32.6254 4.42451 33.2527 4.46285 33.537 4.4857L33.4444 5.08862C33.1838 5.06761 32.5667 5.02942 32.4996 5.02719L32.5625 4.42237ZM32.4716 5.29587C32.5309 5.29783 33.1385 5.33508 33.4032 5.35645L33.3106 5.95928C33.0442 5.93773 32.4595 5.90226 32.4087 5.90063L32.4716 5.29587ZM32.29 7.04269C32.3334 7.04405 32.891 7.07785 33.1357 7.09774L33.043 7.70076C32.8312 7.68349 32.2772 7.64917 32.2271 7.64763L32.29 7.04269ZM32.1991 7.91613C32.2418 7.91742 32.779 7.95021 33.0019 7.96841L32.9093 8.57139C32.72 8.55587 32.1839 8.52243 32.1362 8.52101L32.1991 7.91613ZM32.0175 9.66304C32.0514 9.66397 32.5456 9.69422 32.7344 9.70979L32.6417 10.3128C32.4621 10.2979 31.9852 10.2688 31.9546 10.2679L32.0175 9.66304ZM31.1844 3.49831C31.233 3.49879 31.8407 3.51252 32.2044 3.52861L32.1545 4.13389C31.8533 4.12052 31.2506 4.10527 31.1641 4.10443L31.1844 3.49831ZM31.1552 4.37386C31.2342 4.37461 31.8301 4.3895 32.1324 4.40293L32.0826 5.00835C31.7698 4.99441 31.1854 4.98061 31.1349 4.98013L31.1552 4.37386ZM31.126 5.24947C31.2092 5.25023 31.788 5.26514 32.0604 5.2773L32.0106 5.88264C31.7553 5.87117 31.1869 5.85638 31.1057 5.85565L31.126 5.24947ZM31.0968 6.125C31.1727 6.12566 31.7347 6.14018 31.9885 6.15159L31.9387 6.75701C31.708 6.7466 31.1559 6.73193 31.0765 6.73127L31.0968 6.125ZM31.0676 7.00052C31.1364 7.00109 31.6814 7.01525 31.9165 7.02587L31.8667 7.63139C31.6059 7.61953 31.0901 7.60721 31.0473 7.60688L31.0676 7.00052ZM31.0383 7.87607C31.1021 7.87658 31.6295 7.89041 31.8445 7.90019L31.7947 8.5057C31.6037 8.49695 31.0869 8.48295 31.0181 8.48243L31.0383 7.87607ZM31.0091 8.75159C31.0684 8.75202 31.578 8.76554 31.7726 8.7745L31.7227 9.38002C31.5516 9.37211 31.0532 9.35841 30.9889 9.35799L31.0091 8.75159ZM30.9799 9.62721C31.033 9.62757 31.5233 9.64064 31.7006 9.64888L31.6508 10.2544C31.4964 10.2472 31.0167 10.2339 30.9596 10.2336L30.9799 9.62721ZM29.6504 1.74826C29.6931 1.74759 30.3159 1.73911 30.7557 1.74267L30.7484 2.34907C30.321 2.34553 29.7153 2.35377 29.6725 2.35447L29.6504 1.74826ZM29.6824 2.62369C29.7259 2.623 30.322 2.61488 30.7452 2.61838L30.738 3.22477C30.3573 3.22157 29.748 3.22921 29.7046 3.2299L29.6824 2.62369ZM29.7145 3.49924C29.7573 3.49858 30.3407 3.49085 30.7348 3.4942L30.7275 4.10047C30.3992 4.09766 29.7795 4.10388 29.7367 4.10533L29.7145 3.49924ZM29.7786 5.25029C30.6171 5.24229 30.4245 5.24319 30.7138 5.24576L30.7065 5.85212C30.4303 5.84962 30.6205 5.84871 29.8008 5.85647L29.7786 5.25029ZM29.8427 7.00127C30.6189 6.99406 30.4208 6.99472 30.6928 6.99726L30.6856 7.6038C30.4258 7.60133 30.6225 7.60066 29.8649 7.60763L29.8427 7.00127ZM29.9068 8.75223C30.6203 8.74583 30.4165 8.74622 30.6719 8.74876L30.6647 9.35527C30.4165 9.35273 30.6298 9.35237 29.929 9.35856L29.9068 8.75223ZM28.0582 1.8054C28.979 1.76374 28.7899 1.77141 29.1632 1.76112L29.1985 2.36703C28.8354 2.37699 29.0276 2.3692 28.1231 2.41007L28.0582 1.8054ZM28.2456 3.55198C29.1091 3.51307 28.916 3.52077 29.265 3.51123L29.3002 4.11701C28.9632 4.12616 29.161 4.11825 28.3105 4.15653L28.2456 3.55198ZM28.3393 4.42527C29.1808 4.38744 28.982 4.39535 29.3159 4.3863L29.3511 4.99223C29.026 5.00102 29.226 4.99311 28.4042 5.03L28.3393 4.42527ZM28.5267 6.17187C29.3016 6.13722 29.1031 6.14486 29.4177 6.13644L29.4529 6.74237C29.1495 6.75043 29.3532 6.74259 28.5916 6.77657L28.5267 6.17187ZM28.7141 7.91842C29.4313 7.88655 29.2279 7.89418 29.5194 7.88652L29.5547 8.49254C29.2731 8.49988 29.4798 8.49215 28.779 8.52321L28.7141 7.91842ZM28.8077 8.79168C29.4974 8.76116 29.2907 8.76883 29.5703 8.76156L29.6055 9.36758C29.3341 9.37459 29.5421 9.36695 28.8726 9.3965L28.8077 8.79168ZM28.9014 9.66503C29.5593 9.63605 29.3518 9.6436 29.6212 9.63666L29.6564 10.2427C29.3968 10.2493 29.6061 10.2417 28.9663 10.2698L28.9014 9.66503ZM28.4144 10.5893C28.5295 10.5798 28.4719 10.5839 28.6637 10.5722L28.6786 10.6847C28.4891 10.6962 28.547 10.6921 28.4313 10.7017L28.4144 10.5893ZM27.0998 10.028C27.4497 9.98671 27.3305 9.99954 27.5613 9.97702L27.6419 10.3728C27.424 10.3941 27.5381 10.3817 27.1934 10.4223L27.0998 10.028ZM25.9412 8.59342L26.4497 8.52442L26.5505 8.91773L26.0549 8.98499L25.9412 8.59342ZM26.1123 10.1069C25.8314 10.1498 25.9288 10.1339 25.6562 10.1813L25.5225 9.7928C25.8094 9.74294 25.7092 9.75936 25.9914 9.71625L26.1123 10.1069ZM27.1129 9.01656C27.2257 9.00355 27.1085 9.01602 27.6076 8.96651L27.6818 9.36275C27.1833 9.4122 27.3156 9.39813 27.2001 9.41147L27.1129 9.01656ZM24.7398 8.23334C25.2422 8.14686 25.2343 8.14789 25.26 8.14406L25.3867 8.53381C25.3666 8.5368 24.8991 8.61748 24.8792 8.62092L24.7398 8.23334ZM19.6376 13.4186C19.238 13.6246 19.404 13.5369 19.1359 13.6825L19.0688 13.6208C19.3297 13.4791 19.1691 13.5638 19.5736 13.3553L19.6376 13.4186ZM19.3593 13.1439C18.952 13.3539 19.1179 13.2663 18.8447 13.4146L18.7475 13.325C19.0133 13.1808 18.8534 13.2651 19.2664 13.0521L19.3593 13.1439ZM17.0861 12.5197C16.9869 12.5749 16.9393 12.6047 16.6707 12.7651L16.3381 12.4913C16.6024 12.3334 16.6596 12.2978 16.7634 12.2399L17.0861 12.5197ZM16.8702 12.9294C17.1351 12.7712 17.1821 12.7417 17.2796 12.6874L17.5638 12.9338C17.4685 12.9868 17.4229 13.0154 17.1632 13.1705L16.8702 12.9294ZM18.1284 12.1967C18.3031 12.2694 18.4725 12.3475 18.6367 12.4307L19.0522 12.8408C18.6372 13.0547 18.8017 12.9679 18.5234 13.1188L17.7433 12.4008C18.0117 12.255 17.9124 12.3078 18.1284 12.1967V12.1967ZM17.5068 12.3106C17.3055 12.1273 17.1655 11.9998 16.9664 11.8185C17.3146 11.9034 17.6175 11.9987 17.8937 12.1031C17.7766 12.1632 17.8736 12.1118 17.5068 12.3106ZM14.3285 9.68885C13.8351 9.96972 13.9092 9.92737 13.8129 9.98487L13.5225 9.73841C13.62 9.68015 13.5493 9.72057 14.047 9.43725L14.3285 9.68885ZM13.9242 10.8507C14.1101 10.7341 14.013 10.793 14.4089 10.5564L14.7198 10.819C14.3336 11.0499 14.4297 10.9914 14.2445 11.1077L13.9242 10.8507ZM14.7181 12.434L14.3004 12.722L13.9694 12.4883L14.3956 12.1944L14.7181 12.434ZM15.7138 13.783C15.8031 13.7185 15.7048 13.7879 16.0926 13.5198L16.4599 13.791C16.0722 14.0592 16.1822 13.9815 16.0908 14.0476L15.7138 13.783ZM16.3081 14.2001C16.3974 14.1355 16.2921 14.21 16.6718 13.9474L16.9685 14.1664C16.5918 14.4271 16.7033 14.3481 16.6126 14.4138L16.3081 14.2001ZM15.2686 12.8429L14.8654 13.121L14.5173 12.8751L14.9294 12.5909L15.2686 12.8429ZM20.276 12.357C20.3505 12.3233 20.3896 12.3079 20.6021 12.2192L20.8503 12.518C20.6488 12.602 20.6064 12.6188 20.5324 12.6523L20.276 12.357ZM18.8716 10.3007C18.6427 10.3961 18.7238 10.3613 18.4933 10.4632L18.2346 10.1687C18.47 10.0647 18.3875 10.1002 18.6211 10.0028L18.8716 10.3007ZM20.5028 11.6594C20.3529 11.7183 20.4396 11.6829 20.1618 11.7993L19.912 11.5013C20.1955 11.3825 20.1069 11.4186 20.2613 11.3579L20.5028 11.6594ZM18.9749 10.3831C19.2802 10.2554 19.1881 10.2929 19.3551 10.2271L19.5968 10.5287C19.4355 10.5922 19.526 10.5552 19.2248 10.6813L18.9749 10.3831ZM18.7474 10.887C18.5232 10.9857 18.6007 10.9507 18.3852 11.051L18.1167 10.761C18.342 10.6561 18.263 10.6919 18.4869 10.5934L18.7474 10.887ZM18.7879 11.4859C19.001 11.3866 18.9263 11.4205 19.138 11.3274L19.3985 11.621C19.1867 11.7141 19.2598 11.681 19.0563 11.7759L18.7879 11.4859ZM19.4758 12.2289C19.6763 12.1353 19.6059 12.1672 19.8054 12.0796L20.0659 12.3733C19.8667 12.4607 19.9354 12.4297 19.7443 12.5189L19.4758 12.2289ZM22.413 12.2553C22.4003 12.2591 22.0597 12.378 21.7745 12.4845L21.0739 11.5487C21.3883 11.4313 21.7498 11.3054 21.7639 11.3012L22.413 12.2553ZM20.4652 7.48997C19.8726 7.67329 19.9909 7.6361 19.8684 7.67618L19.3427 6.86179C19.4627 6.82258 19.3623 6.85397 19.9692 6.66634L20.4652 7.48997ZM23.6998 7.70121C23.1862 7.80921 23.3233 7.77939 23.1097 7.8285L22.7247 6.97562C22.9436 6.92533 22.8056 6.95521 23.346 6.84159L23.6998 7.70121ZM23.1412 7.89838C23.3513 7.85008 23.2138 7.87987 23.7288 7.77163L24.0826 8.63112C23.5931 8.73403 23.7296 8.70432 23.5262 8.75117L23.1412 7.89838ZM23.5578 8.82114C23.7589 8.77481 23.6228 8.80439 24.1117 8.70164L24.2576 9.05613C23.7794 9.15665 23.9146 9.12722 23.7165 9.17286L23.5578 8.82114ZM23.8591 9.69328C23.5398 9.76627 23.6504 9.73989 23.3411 9.81698L23.1753 9.48419C23.4992 9.4035 23.3861 9.43061 23.7054 9.35759L23.8591 9.69328ZM23.3756 9.88608C23.6836 9.80931 23.5731 9.83564 23.891 9.76298L24.281 10.6147C23.9888 10.6814 24.0926 10.6566 23.7964 10.7305L23.3756 9.88608ZM22.5657 9.64299C23.0034 9.5253 22.872 9.5595 23.0902 9.50538L23.258 9.83766C23.0461 9.89018 23.1765 9.85622 22.7455 9.97213L22.5657 9.64299ZM22.7279 11.0997C23.235 10.9538 23.104 10.99 23.1997 10.9646L23.3819 11.2941C23.2958 11.317 23.3745 11.2956 22.922 11.4257L22.7279 11.0997ZM23.162 10.8964C23.0661 10.9219 23.1981 10.8853 22.6877 11.0322L22.1964 10.2069C22.7332 10.0522 22.6032 10.0885 22.7008 10.0624L23.162 10.8964ZM23.2764 10.9441C23.6878 10.8334 23.5498 10.8693 23.7536 10.8189L23.9218 11.1521C23.7259 11.2006 23.8535 11.1673 23.4567 11.2741L23.2764 10.9441ZM23.8309 10.7997C24.1249 10.7263 24.0225 10.7509 24.313 10.6846L24.4671 11.0212C24.1773 11.0873 24.2777 11.0634 23.9972 11.1334L23.8309 10.7997ZM24.3908 10.6667C24.572 10.6248 24.439 10.6538 24.8775 10.5617L25.0173 10.9014C24.5895 10.9913 24.7211 10.9625 24.543 11.0037L24.3908 10.6667ZM24.8485 10.4913C24.4114 10.5832 24.5434 10.5543 24.3594 10.5969L23.9743 9.74381C24.1647 9.69989 24.03 9.72923 24.4946 9.63155L24.8485 10.4913ZM24.4656 9.56125C24.0022 9.65863 24.1368 9.62929 23.9428 9.67405L23.7911 9.33794C23.9857 9.29306 23.8506 9.32246 24.3261 9.22251L24.4656 9.56125ZM22.5933 6.92868C22.2125 7.01603 22.3445 6.98458 21.9754 7.07628L21.5546 6.23197C21.9512 6.13354 21.8127 6.16671 22.2034 6.077L22.5933 6.92868ZM22.0098 7.14544C22.386 7.05198 22.2546 7.08347 22.6253 6.99844L23.0152 7.8502C22.6628 7.93095 22.7881 7.90094 22.4306 7.98984L22.0098 7.14544ZM22.465 8.05902C22.813 7.97251 22.6882 8.00225 23.0472 7.91999L23.4371 8.77167C23.0973 8.84945 23.215 8.82138 22.8858 8.90337L22.465 8.05902ZM22.9203 8.97258C23.2557 8.88909 23.1386 8.91716 23.4691 8.84152L23.6299 9.19278C23.2995 9.26836 23.414 9.24108 23.0939 9.32083L22.9203 8.97258ZM21.8762 7.10094C21.6239 7.16376 21.7549 7.12968 21.2647 7.26141L20.8085 6.42633C21.3258 6.28733 21.1948 6.32156 21.4505 6.25787L21.8762 7.10094ZM21.3021 7.32984C21.8072 7.1941 21.6646 7.23135 21.911 7.17007L22.3367 8.01323C22.1043 8.07101 22.236 8.0366 21.7583 8.165L21.3021 7.32984ZM22.2893 9.13697C22.7318 9.01798 22.6095 9.04976 22.8322 8.99449L23.0078 9.3422C22.7898 9.39626 22.9212 9.36203 22.4774 9.48135L22.2893 9.13697ZM21.1664 7.28779C21.0698 7.31375 21.1824 7.28181 20.5619 7.46096L20.0707 6.63588C20.7055 6.45251 20.6052 6.481 20.7054 6.45407L21.1664 7.28779ZM20.6022 7.52858C21.2112 7.35275 21.1049 7.38278 21.2042 7.35613L21.6653 8.18994C21.569 8.21575 21.6859 8.18278 21.0934 8.35375L20.6022 7.52858ZM21.1336 8.42137C21.7162 8.25327 21.6047 8.2846 21.7031 8.25825L22.1642 9.09196C22.0679 9.11771 22.1898 9.08354 21.6248 9.24645L21.1336 8.42137ZM21.665 9.31413C22.2215 9.15369 22.1044 9.18644 22.2019 9.16036L22.3921 9.50423C22.2941 9.53043 22.4216 9.49478 21.8676 9.65446L21.665 9.31413ZM21.9626 9.81411C22.4872 9.66295 22.3877 9.69057 22.4813 9.66557L22.663 9.99417C22.5666 10.0199 22.6945 9.98424 22.1562 10.1393L21.9626 9.81411ZM22.6119 11.0549C22.1188 11.2079 22.2626 11.1619 22.1436 11.2011L21.6178 10.3865C21.7346 10.3481 21.6087 10.3882 22.1157 10.2311L22.6119 11.0549ZM22.1867 11.2677C22.3046 11.229 22.1614 11.2747 22.6525 11.1223L22.8486 11.4479C22.3642 11.5982 22.5133 11.5505 22.3945 11.5896L22.1867 11.2677ZM22.4962 11.7472C22.6128 11.7089 22.4696 11.7547 22.9446 11.6073L23.1485 11.9461C22.6804 12.0914 22.8304 12.0433 22.7124 12.0822L22.4962 11.7472ZM23.0171 11.5855C23.4643 11.4569 23.3857 11.4782 23.4712 11.4555L23.6608 11.7984C23.5769 11.8207 23.6448 11.8025 23.2191 11.9248L23.0171 11.5855ZM23.545 11.4358C23.9349 11.3309 23.8073 11.364 24.0042 11.3153L24.1793 11.6621C23.9895 11.709 24.116 11.6761 23.7327 11.7793L23.545 11.4358ZM24.0786 11.2969C24.362 11.2261 24.263 11.2498 24.5425 11.1861L24.7029 11.5363C24.4246 11.5997 24.521 11.5768 24.2517 11.6441L24.0786 11.2969ZM24.6175 11.1688C24.7928 11.1282 24.6613 11.1569 25.0858 11.0677L25.2314 11.4212C24.8181 11.5081 24.9486 11.4795 24.7758 11.5195L24.6175 11.1688ZM22.9342 5.8411C22.3704 5.95967 22.51 5.92943 22.2767 5.98294L22.1317 5.66174C22.372 5.60665 22.2382 5.63572 22.8009 5.5174L22.9342 5.8411ZM22.1714 6.00709C21.77 6.09925 21.9092 6.0661 21.5201 6.16267L21.3616 5.84467C21.7669 5.74412 21.6254 5.77802 22.0246 5.68634L22.1714 6.00709ZM21.4157 6.18866C21.1597 6.25241 21.295 6.21703 20.7711 6.35778L20.5993 6.04328C21.1255 5.90193 20.9946 5.93613 21.2553 5.87114L21.4157 6.18866ZM20.6676 6.38562C20.5709 6.4116 20.678 6.38106 20.0305 6.56811L19.8455 6.25736C20.4903 6.07105 20.3936 6.09858 20.4939 6.0716L20.6676 6.38562ZM19.9286 6.59872C19.3127 6.7891 19.423 6.75463 19.2996 6.79496L19.1016 6.48824C19.2219 6.44894 19.1245 6.47931 19.7417 6.28854L19.9286 6.59872ZM20.4802 8.62406C20.5985 8.5853 20.4854 8.62104 21.0425 8.44862L21.5385 9.27229C20.9936 9.44102 21.1269 9.3988 21.0059 9.43846L20.4802 8.62406ZM21.0491 9.50523C21.1666 9.46671 21.0472 9.50459 21.5791 9.33984L21.7837 9.67955C21.2506 9.84466 21.3864 9.80159 21.2659 9.8411L21.0491 9.50523ZM21.3677 9.99873C21.4847 9.9603 21.3616 9.99945 21.8797 9.83896L22.0752 10.1636C21.5563 10.3244 21.6951 10.2802 21.5748 10.3197L21.3677 9.99873ZM21.8917 5.13015C22.131 5.07533 21.9908 5.10558 22.5803 4.98161L22.7324 5.35108C22.159 5.47167 22.297 5.44175 22.0571 5.49672L21.8917 5.13015ZM21.0993 5.31833C21.5163 5.21491 21.3707 5.24977 21.7814 5.15542L21.949 5.52153C21.5368 5.61622 21.6797 5.58217 21.2801 5.6813L21.0993 5.31833ZM20.3149 5.52271C20.8582 5.37673 20.7236 5.41199 20.9899 5.34558L21.1729 5.70799C20.9149 5.77228 21.0476 5.73748 20.511 5.88167L20.3149 5.52271ZM19.5392 5.74306C20.1997 5.55217 20.1093 5.57807 20.2064 5.55193L20.4046 5.91032C20.308 5.93631 20.4106 5.90694 19.7504 6.09777L19.5392 5.74306ZM18.774 5.9805C18.8952 5.9409 18.8012 5.97015 19.4326 5.77503L19.6459 6.1291C19.016 6.32377 19.1239 6.29011 19 6.33059L18.774 5.9805ZM20.2216 10.4105C20.618 10.2625 20.9445 10.1505 20.9873 10.1363L21.6167 11.063C21.574 11.0771 21.2453 11.1908 20.9019 11.319L20.2216 10.4105ZM19.6899 10.8266L20.0584 10.6811L20.2942 10.9849L19.9341 11.1271L19.6899 10.8266ZM17.2642 10.6185C17.5333 10.4864 17.4372 10.5325 17.6384 10.439L17.9095 10.7278C17.7205 10.8155 17.8072 10.7738 17.5432 10.9034L17.2642 10.6185ZM17.9617 11.3309C18.2199 11.2041 18.1243 11.25 18.3163 11.1609L18.5873 11.4495C18.407 11.5332 18.4938 11.4914 18.2407 11.6158L17.9617 11.3309ZM18.6766 12.0611C18.9211 11.9409 18.8288 11.9852 19.0109 11.9008L19.282 12.1894C19.1109 12.2687 19.1951 12.2282 18.9555 12.346L18.6766 12.0611ZM16.8348 10.6521L18.1639 11.9638L18.0934 12.0003C17.6295 11.8147 17.1873 11.6861 16.7131 11.5876L16.1074 11.036C16.55 10.7968 16.3948 10.8789 16.8348 10.6521V10.6521ZM13.0027 9.29692C13.1043 9.23622 13.0433 9.27108 13.5431 8.98659L13.8571 9.26725C13.3544 9.55337 13.4246 9.51329 13.3266 9.57185L13.0027 9.29692ZM14.4471 11.2701C14.6288 11.1561 14.5312 11.2153 14.9166 10.9851L15.2218 11.2429L14.9518 11.4042C14.8403 11.4026 14.731 11.4053 14.6192 11.4082L14.4471 11.2701ZM10.0696 20.8228C10.0778 20.7926 10.2137 20.3824 10.4743 19.7599L10.6306 19.7941C10.5682 19.9432 10.2986 20.5914 10.2291 20.8487L10.0696 20.8228ZM9.49241 20.7293C9.57295 20.4329 9.86196 19.7474 9.90864 19.636L10.0646 19.6702C10.0413 19.7258 9.73581 20.4446 9.65152 20.7551L9.49241 20.7293ZM11.4356 22.0322C11.6175 21.2541 11.757 20.8462 12.0423 20.1619L12.1398 20.1829C11.8484 20.8818 11.7143 21.2818 11.5363 22.0433L11.4356 22.0322ZM11.9604 22.0899C12.1391 21.3252 12.2763 20.9286 12.5503 20.2715L12.6384 20.2905C12.3681 20.9388 12.2309 21.3318 12.0514 22.0999L11.9604 22.0899ZM9.68675 18.9612C9.78608 18.7613 9.76327 18.8061 9.78625 18.7632L10.1012 18.8451C10.079 18.8865 10.0994 18.8466 10.0033 19.0401L9.68675 18.9612ZM11.8012 19.2877C11.7801 19.327 11.8004 19.2874 11.7116 19.4663L11.3952 19.3874C11.4871 19.2023 11.4645 19.2464 11.4863 19.2057L11.8012 19.2877ZM10.8612 18.5286C10.7656 18.6934 10.791 18.6483 10.755 18.7157L10.4423 18.6295C10.4784 18.5619 10.4524 18.608 10.5502 18.4394L10.8612 18.5286ZM11.7421 18.2298L11.6313 18.4089L11.3231 18.3149L11.4357 18.1328L11.7421 18.2298ZM12.7119 18.6766C12.6056 18.8477 12.6294 18.8081 12.6078 18.8459L12.2984 18.7539C12.3197 18.7167 12.2983 18.7522 12.4043 18.5816L12.7119 18.6766ZM10.9208 21.9758C11.0872 21.2643 11.2178 20.8337 11.5441 20.0545L11.6319 20.0735C11.314 20.8328 11.1821 21.2562 11.0115 21.9858L10.9208 21.9758ZM9.69277 17.6998L9.17042 17.5375C8.85856 18.0405 8.70428 18.3335 8.44989 18.8432L8.99 18.9733C8.97886 18.9944 8.80655 19.3697 8.79681 19.3926L9.49881 19.5464C9.30797 20.0013 9.18729 20.2942 8.99778 20.9105L9.41751 20.9734L9.44522 20.8836L9.60472 20.9082L9.57722 20.9973L9.9969 21.0602L10.0239 20.9729L10.1836 20.9976C10.0779 21.3388 9.98772 21.6802 9.91056 22.0734C6.73993 20.7813 5.84163 17.9284 7.35665 15.4019L8.11737 15.6902C8.4604 15.2303 8.83324 14.8071 9.10155 14.5031C9.16889 14.5387 9.23482 14.5736 9.30144 14.6088C9.1138 14.8214 8.72294 15.2554 8.2927 15.8321L9.27872 16.2024C9.59203 15.7822 9.86683 15.4592 10.2208 15.0582C10.2835 15.0861 10.346 15.1139 10.4081 15.1415C10.0145 15.5874 9.77946 15.8661 9.43262 16.3314L10.4447 16.7081C10.7884 16.2472 11.014 15.9828 11.3993 15.5459C11.5207 15.5928 11.3954 15.5451 11.5701 15.6113C11.1956 16.0361 10.9816 16.2821 10.5772 16.8245L11.6155 17.2074C11.9062 16.8174 12.2725 16.3606 12.6163 15.9932C12.6663 16.0108 12.7167 16.0285 12.7668 16.0461C12.3698 16.4704 12.0431 16.8873 11.7264 17.3113L12.791 17.7004C13.1301 17.2461 13.4006 16.906 13.8606 16.4124C13.9039 16.4262 13.947 16.44 13.9893 16.4535C13.4975 16.9818 13.2561 17.2897 12.8802 17.7918L13.8651 18.1484C13.6072 18.5171 13.6906 18.3939 13.6291 18.4877L9.9779 17.2582C9.74828 17.6058 9.81798 17.497 9.69277 17.6997V17.6998ZM14.4631 15.9697C14.4302 15.9463 14.3969 15.9227 14.3635 15.899C14.8059 15.4703 15.1487 15.1706 15.6779 14.7496L14.7866 14.1832C14.3353 14.5425 13.8936 14.9151 13.4938 15.3041C13.4542 15.2773 13.4119 15.2501 13.3708 15.2232C13.7364 14.8675 14.193 14.4779 14.6097 14.1467L13.7358 13.5955C13.1062 14.0964 12.7899 14.3952 12.4969 14.6652C12.488 14.6597 12.4913 14.6617 12.3499 14.5751C12.5734 14.3695 12.9463 14.0174 13.5347 13.5491L12.6784 13.0131C12.2039 13.3908 11.9015 13.6601 11.4657 14.0616C11.4073 14.0302 11.3485 13.9986 11.2896 13.9669C11.6096 13.672 11.979 13.334 12.453 12.9568L11.6144 12.4358C11.1104 12.837 10.7145 13.2001 10.3708 13.5169C10.3008 13.4852 10.2315 13.4538 10.1606 13.4217C10.2885 13.3038 10.8449 12.7835 11.3645 12.3699L11.2309 12.2876C11.5981 12.1435 11.8618 12.0524 12.2796 11.9344L16.953 15.0712C16.9375 15.0831 16.6618 15.2922 16.651 15.3014L15.8308 14.7763C15.2531 15.237 14.9584 15.4913 14.4634 15.9697L14.4631 15.9697ZM28.4702 10.9602C28.5817 10.9509 28.5253 10.9549 28.7127 10.9435L28.7229 11.021C28.5376 11.0322 28.5946 11.0281 28.4818 11.0376L28.4702 10.9602ZM46.9966 15.8502L47.2634 16.1217L46.7953 16.3462L46.5359 16.0823L46.9966 15.8502ZM48.3112 14.4868C48.5314 14.6895 48.4539 14.6166 48.6223 14.78L48.166 15.0161C48.0025 14.8574 48.0776 14.9281 47.8628 14.7303L48.3112 14.4868ZM48.3274 13.735L48.6629 14.0289L48.2188 14.2765L47.8915 13.9898L48.3274 13.735ZM46.6036 14.7424L46.9068 15.0081L46.4626 15.2557L46.1676 14.9972L46.6036 14.7424ZM47.2115 17.3683C47.7828 18.0911 48.0219 18.4554 48.3949 19.0969L48.2717 19.1317C47.7883 18.2941 47.3422 17.7226 47.3159 17.6924L46.9929 17.8167C47.0193 17.8469 47.4481 18.3925 47.9302 19.2281L47.8161 19.2603C47.4569 18.6425 47.2259 18.2899 46.6712 17.588L47.2115 17.3683ZM49.5791 22.9037C49.513 22.3672 49.352 21.6046 49.1471 21.0192L49.2463 21.0027C49.4543 21.5974 49.615 22.3637 49.6806 22.8972L49.5791 22.9037ZM49.357 19.6721C49.335 19.6237 49.3533 19.6617 49.2689 19.4931L49.5855 19.4146C49.67 19.5834 49.6525 19.5468 49.6751 19.5966L49.357 19.6721ZM48.3372 19.9857C48.2806 19.8612 48.3022 19.9068 48.2566 19.8162L48.5738 19.7389C48.6186 19.828 48.5978 19.7839 48.6558 19.9115L48.3372 19.9857ZM51.2952 18.9909C51.3873 19.1752 51.3687 19.1365 51.3928 19.1894L51.0746 19.2648C51.0509 19.213 51.0696 19.2516 50.9785 19.0694L51.2952 18.9909ZM50.7826 19.8959L50.7016 19.7026L51.0222 19.6322L51.1044 19.8285L50.7826 19.8959ZM49.1881 20.5512C49.16 20.4792 49.1488 20.4449 49.1195 20.3732L49.4422 20.308C49.472 20.381 49.4835 20.4159 49.512 20.489L49.1881 20.5512ZM50.3402 20.4705L50.2678 20.2817C50.3917 20.2576 50.4689 20.2425 50.5912 20.2187L50.6649 20.4105C50.5423 20.4332 50.4636 20.4477 50.3402 20.4705V20.4705ZM51.5882 20.2399L51.5113 20.0393L51.8349 19.9763L51.913 20.18L51.5882 20.2399ZM49.0599 22.9369C48.9965 22.4209 48.8399 21.6755 48.6398 21.1038L48.7296 21.0888C48.931 21.6641 49.088 22.4114 49.1518 22.931L49.0599 22.9369ZM49.7534 20.9181C49.9624 21.5159 50.1294 22.2961 50.1995 22.864L50.1081 22.8698C50.0396 22.3143 49.8743 21.5343 49.6641 20.933L49.7534 20.9181ZM49.8803 17.5256C50.0948 17.8287 50.3422 18.2485 50.5245 18.5627L50.3727 18.605C50.1921 18.294 49.9474 17.8785 49.7334 17.5759L49.8803 17.5256ZM49.3473 17.708C49.5551 18.0014 49.7979 18.4135 49.9737 18.7163L49.8215 18.7588C49.6458 18.4563 49.4069 18.0507 49.2001 17.7584L49.3473 17.708ZM47.6631 17.1847C48.2572 17.9362 48.5016 18.3117 48.8787 18.9602L48.7934 18.9843C48.4084 18.3221 48.1629 17.9499 47.5836 17.217L47.6631 17.1847ZM48.2869 15.4171C48.5027 15.6367 48.4187 15.5493 48.5677 15.7096L48.0961 15.9302C47.9578 15.7813 48.0307 15.857 47.8227 15.6454L48.2869 15.4171ZM42.5378 10.9781C42.4254 10.9256 42.4587 10.9406 42.385 10.9083L42.4931 10.7883C42.5636 10.8193 42.5307 10.8043 42.6473 10.8587L42.5378 10.9781ZM41.6086 11.6571C41.7551 11.7215 41.7219 11.7066 41.7538 11.7214L41.6451 11.841C41.6161 11.8275 41.6458 11.8408 41.5013 11.7773L41.6086 11.6571ZM41.955 12.2317L42.0924 12.2992L41.9775 12.4161L41.8415 12.3493L41.955 12.2317ZM42.6783 11.7542L42.5342 11.6835L42.6478 11.5662L42.7933 11.6376L42.6783 11.7542ZM43.1365 11.1764L43.2509 11.0594C43.3029 11.0849 43.3493 11.1076 43.4027 11.1337L43.2869 11.25C43.2341 11.2241 43.1881 11.2016 43.1365 11.1764V11.1764ZM47.4521 10.158C47.5527 10.2181 47.4791 10.1722 47.9783 10.4853L47.5359 10.8306C47.0371 10.5178 47.1203 10.5697 47.0229 10.5116L47.4521 10.158ZM48.1749 10.3319C47.6652 10.0121 47.7457 10.0624 47.6428 10.0009L48.0721 9.64737C48.1769 9.71006 48.1039 9.66443 48.6173 9.9865L48.1749 10.3319ZM46.8322 10.6687C46.9279 10.7259 46.8549 10.6803 47.3393 10.9841L46.8968 11.3294C46.4161 11.028 46.5012 11.0809 46.403 11.0222L46.8322 10.6687ZM46.2123 11.1794C46.307 11.2359 46.2315 11.189 46.7003 11.4828L46.2578 11.8281C45.7942 11.5376 45.8801 11.5908 45.783 11.5329L46.2123 11.1794ZM45.5924 11.69C45.6867 11.7463 45.6068 11.6968 46.0612 11.9816L45.6188 12.3269C45.1661 12.0433 45.2591 12.1008 45.1631 12.0436L45.5924 11.69ZM44.9725 12.2006C45.0659 12.2563 44.983 12.2051 45.4223 12.4803L44.98 12.8256C44.5427 12.5517 44.6385 12.6108 44.5434 12.5541L44.9725 12.2006ZM44.3526 12.7112C44.4452 12.7663 44.359 12.7133 44.7834 12.979L44.3409 13.3243C43.9187 13.06 44.0181 13.1211 43.9234 13.0648L44.3526 12.7112ZM47.5577 11.1268C47.8607 11.3261 47.7567 11.2562 48.0468 11.4561L47.5859 11.7892C47.2968 11.5899 47.3985 11.6584 47.1096 11.4684L47.5577 11.1268ZM48.2516 11.3082C47.9578 11.1057 48.0642 11.1772 47.7568 10.975L48.2049 10.6334C48.5129 10.836 48.4043 10.7628 48.7125 10.9751L48.2516 11.3082ZM46.9104 11.6202C47.2026 11.8123 47.102 11.7447 47.3811 11.9371L46.9202 12.2702C46.6485 12.0827 46.7467 12.1488 46.4623 11.9618L46.9104 11.6202ZM46.2632 12.1137C46.5379 12.2943 46.4408 12.2287 46.7155 12.4182L46.2546 12.7512C45.9879 12.5672 46.0817 12.6305 45.8151 12.4553L46.2632 12.1137ZM45.616 12.607C45.8795 12.7801 45.7865 12.7174 46.0498 12.8991L45.589 13.2321C45.3393 13.0597 45.4295 13.1204 45.1679 12.9486L45.616 12.607ZM44.9688 13.1004C45.2269 13.2698 45.1379 13.21 45.3842 13.3801L44.9233 13.7131C44.6792 13.5445 44.7651 13.6025 44.5206 13.442L44.9688 13.1004ZM48.9173 10.8271C48.6058 10.6125 48.7153 10.6863 48.4041 10.4816L48.8523 10.14C49.178 10.3544 49.0662 10.2792 49.3783 10.4941L48.9173 10.8271ZM44.3477 12.4373C44.1873 12.3412 44.3056 12.4099 43.8975 12.1774L44.307 11.8125C44.7228 12.0493 44.6051 11.9809 44.7709 12.0802L44.3477 12.4373ZM43.7155 12.3396C44.1167 12.5681 44.0001 12.5004 44.1597 12.596L43.7364 12.9532C43.5816 12.8603 43.6983 12.9281 43.3058 12.7046L43.7155 12.3396ZM44.9589 11.9216C44.7933 11.8225 44.9116 11.891 44.489 11.6504L44.8986 11.2854C45.3285 11.5301 45.211 11.462 45.3822 11.5645L44.9589 11.9216ZM45.5702 11.4059C45.399 11.3034 45.5172 11.3719 45.0806 11.1233L45.4903 10.7582C45.936 11.012 45.8175 10.9433 45.9936 11.0487L45.5702 11.4059ZM46.1816 10.8901C46.0047 10.7842 46.1252 10.854 45.6723 10.5961L46.0819 10.2311C46.541 10.4924 46.4229 10.4241 46.6049 10.5329L46.1816 10.8901ZM46.793 10.3743C46.6125 10.2663 46.7323 10.3356 46.2639 10.0689L46.6736 9.70394C47.1473 9.97361 47.0287 9.905 47.2163 10.0172L46.793 10.3743ZM47.4044 9.85849C47.2165 9.7462 47.3358 9.81514 46.8556 9.54175L47.2652 9.17675C47.7542 9.45509 47.6344 9.38585 47.8277 9.50133L47.4044 9.85849ZM44.2784 11.5341C43.9191 11.3393 44.0401 11.4032 43.7937 11.2763L44.1832 10.9005C44.4359 11.0306 44.3139 10.9662 44.6819 11.1658L44.2784 11.5341ZM43.6208 11.4433C43.8641 11.5685 43.7455 11.5059 44.0992 11.6977L43.6957 12.0661C43.3475 11.8772 43.4606 11.937 43.2314 11.8191L43.6208 11.4433ZM44.8612 11.0021C44.4868 10.7991 44.6031 10.8607 44.3562 10.7335L44.7456 10.3576C45.0065 10.492 44.8844 10.4276 45.2647 10.6337L44.8612 11.0021ZM45.8705 9.27178C46.1376 9.40942 46.0194 9.34682 46.4304 9.56958L46.0269 9.93796C45.6279 9.72172 45.7528 9.78767 45.4811 9.64767L45.8705 9.27178ZM46.6096 9.40592C46.1992 9.18345 46.3232 9.24899 46.0435 9.10479L46.4329 8.72892C46.7078 8.87067 46.5904 8.80849 47.0131 9.03757L46.6096 9.40592ZM45.308 9.81469C45.5556 9.94225 45.4435 9.88266 45.8475 10.1017L45.444 10.47C45.0586 10.2611 45.1809 10.3257 44.9186 10.1906L45.308 9.81469ZM43.0584 11.9861C43.2846 12.1025 43.1688 12.0412 43.5164 12.2297L43.1129 12.5981C42.7777 12.4162 42.8967 12.4791 42.6689 12.362L43.0584 11.9861ZM42.956 9.73119C43.3298 9.89625 43.5617 9.99598 44.1094 10.2645L43.9403 10.4365C43.4014 10.1722 43.1724 10.0737 42.8012 9.90977L42.956 9.73119ZM42.3482 10.1489C42.4688 10.1992 42.4327 10.1836 42.5102 10.2179C42.4531 10.2838 42.4715 10.2626 42.4052 10.3392C42.3338 10.3076 42.3669 10.3218 42.2446 10.2708C42.3102 10.1937 42.292 10.215 42.3482 10.1489V10.1489ZM41.7621 11.1204L41.9126 11.1869C41.8522 11.2552 41.8658 11.2399 41.8059 11.3076L41.6568 11.2417C41.7159 11.1736 41.7025 11.1891 41.7621 11.1204V11.1204ZM40.8319 12.1922L40.97 12.2533C40.9295 12.299 40.9039 12.328 40.8634 12.3738L40.7267 12.3133C40.7667 12.2673 40.792 12.2382 40.8319 12.1922V12.1922ZM43.9103 14.8608C44.1499 15.0339 44.3922 15.2188 44.4284 15.249L44.3296 15.3121C44.2935 15.2819 44.054 15.0992 43.8152 14.9266L43.9103 14.8608Z" fill="black"/>
</svg>
