<svg width="39" height="40" viewBox="0 0 39 40" fill="none" xmlns="http://www.w3.org/2000/svg">
<path d="M19.6393 5.92476C23.1881 9.53325 23.637 15.1001 20.9871 19.2053L20.987 19.2051H20.9868C23.6369 15.1002 23.1879 9.5335 19.6388 5.92452C19.5125 5.79606 19.3835 5.67153 19.2523 5.55104C19.3839 5.67153 19.5132 5.79618 19.6393 5.92427V5.92476ZM36.7999 35.2849L24.1886 22.4616C24.2272 22.377 24.2489 22.2851 24.2525 22.1944C24.2621 21.9982 24.1934 21.7997 24.0464 21.6501L22.5998 20.1793C25.6785 15.3426 25.1325 8.81572 20.9641 4.57844C20.3095 3.91288 19.5995 3.33802 18.8497 2.85509C18.0927 2.36603 17.2947 1.97013 16.4702 1.66738C12.1282 0.067824 7.07743 1.03859 3.59733 4.57844C-1.19911 9.45432 -1.19911 17.3614 3.59733 22.2373C7.76453 26.4758 14.1835 27.031 18.9401 23.9005L20.3867 25.3714C20.6024 25.5908 20.9231 25.6398 21.1847 25.516L33.7959 38.3394L34.9435 39.5063L35.0918 39.6571L35.1424 39.6056L38.0957 36.6026L36.7999 35.2849Z" fill="#CCCCCC"/>
<path d="M35.9959 38.737L36.0466 38.6855L35.8477 38.5863L35.9959 38.737Z" fill="#278279"/>
<path d="M37.7042 34.365L34.7002 37.4194L35.8478 38.5863L36.0467 38.6856L39 35.6826L37.7042 34.365Z" fill="#278279"/>
<path d="M25.0927 21.5415C25.0602 21.6175 25.0119 21.6886 24.9505 21.7511L22.2949 24.4514C22.2334 24.5139 22.1635 24.5617 22.0888 24.596L34.7 37.4194L37.704 34.3649L25.0927 21.5415Z" fill="#295148"/>
<path d="M25.0927 21.5416C25.1313 21.457 25.153 21.3651 25.1566 21.2744L24.8989 21.3445L25.0927 21.5416Z" fill="#278279"/>
<path d="M19.844 22.9805L21.2906 24.4514C21.5063 24.6708 21.827 24.7198 22.0886 24.596L20.2358 22.7121C20.1068 22.8052 19.9766 22.8947 19.844 22.9805Z" fill="#278279"/>
<path d="M24.9505 21.7511C25.0119 21.6886 25.0601 21.6175 25.0927 21.5415L24.8989 21.3444L20.4563 22.5516C20.3829 22.6068 20.3094 22.6606 20.236 22.7121L22.0887 24.596C22.1635 24.5617 22.2334 24.5139 22.2949 24.4513L24.9505 21.7511Z" fill="#278279"/>
<path d="M24.8987 21.3442L25.1564 21.2741C25.166 21.078 25.0973 20.8795 24.9503 20.7299L23.5037 19.2591C23.4194 19.3939 23.3314 19.5263 23.2397 19.6574L24.8987 21.3442Z" fill="#278279"/>
<g opacity="0.7">
<path opacity="0.7" d="M24.8987 21.3442L25.1564 21.2741C25.166 21.078 25.0973 20.8794 24.9503 20.7299L23.5037 19.259C23.4194 19.3939 23.3314 19.5262 23.2397 19.6574L24.8987 21.3442Z" fill="#278279"/>
</g>
<path d="M21.8679 21.3172C21.4219 21.7707 20.9493 22.1825 20.4563 22.5515L20.4561 22.5516L24.8986 21.3444L23.2397 19.6576C22.8383 20.241 22.3802 20.7962 21.8679 21.3172Z" fill="#278279"/>
<g opacity="0.7">
<path opacity="0.7" d="M21.8682 21.3172C21.4222 21.7708 20.9497 22.1826 20.4567 22.5515L20.4564 22.5516L24.8989 21.3444L23.24 19.6576C22.8386 20.2411 22.3805 20.7963 21.8682 21.3172Z" fill="#278279"/>
</g>
<path d="M17.3744 0.747349L19.7539 1.93506C18.9969 1.446 18.1989 1.0501 17.3744 0.747349Z" fill="#0D6954"/>
<path d="M19.9685 22.44L18.8875 21.3406C14.8505 24.0347 9.37537 23.5788 5.82657 19.9703C5.7006 19.8422 5.57812 19.7106 5.45951 19.577C5.45867 19.576 5.45783 19.5751 5.4571 19.5741C5.45047 19.5669 5.44373 19.5597 5.43722 19.5523C5.43889 19.5538 5.44071 19.5552 5.44228 19.5569C1.76786 15.4027 1.89564 9.00312 5.82681 5.00522C9.75799 1.00793 16.0517 0.878007 20.1378 4.61422C20.1362 4.61263 20.1347 4.61079 20.1333 4.60907C20.1405 4.61569 20.1477 4.62255 20.1548 4.62929C20.1557 4.63003 20.1566 4.63089 20.1575 4.63174C20.2889 4.75223 20.4184 4.87689 20.5444 5.00497C24.0932 8.61347 24.5421 14.1803 21.8922 18.2856L22.9733 19.3848L23.3012 19.0514L23.5049 19.2585C26.5836 14.4219 26.0375 7.89495 21.8691 3.65767C21.2146 2.99211 20.5046 2.41725 19.7548 1.93432L17.3753 0.746609C13.0333 -0.852943 7.98249 0.11782 4.50239 3.65767C-0.294046 8.53355 -0.294046 16.4406 4.50239 21.3165C8.66959 25.555 15.0885 26.1102 19.8452 22.9798L19.6415 22.7726L19.9694 22.4392L19.9685 22.44Z" fill="#0D6954"/>
<path d="M21.891 18.2861C21.5069 18.8815 21.0578 19.4465 20.5432 19.97C20.0284 20.4932 19.4728 20.9498 18.8872 21.3404L19.9682 22.4398L22.9722 19.3853L21.891 18.2861Z" fill="#0D6954"/>
<path d="M20.1578 22.6325L19.6403 22.7732L19.8441 22.9803C19.9767 22.8945 20.1068 22.805 20.2358 22.7119L20.1578 22.6325Z" fill="#0D6954"/>
<path d="M20.236 22.7121C20.3094 22.6606 20.383 22.6068 20.4564 22.5516L20.158 22.6327L20.236 22.7121Z" fill="#0D6954"/>
<path d="M19.9683 22.44L19.6405 22.7734L19.9683 22.44Z" fill="#0D6954"/>
<path d="M22.9723 19.3855L19.9683 22.44L22.9723 19.3855Z" fill="#0D6954"/>
<path d="M19.6405 22.7734L20.158 22.6327L19.9684 22.44L19.6405 22.7734Z" fill="#0D6954"/>
<path d="M21.8681 21.3173C22.3804 20.7963 22.8385 20.2411 23.2399 19.6576L22.9723 19.3855L19.9683 22.44L20.158 22.6327L20.4563 22.5517L20.4565 22.5515C20.9496 22.1826 21.4221 21.7708 21.8681 21.3173Z" fill="#0D6954"/>
<path d="M19.7527 19.166C21.4022 17.4894 22.3796 15.3892 22.6904 13.2097C21.086 14.4462 17.4349 16.8372 13.1843 16.8372C7.45363 16.8372 2.80788 12.4871 2.80788 12.4871C2.80788 12.4871 5.35858 10.0982 9.01106 8.86148C10.2888 8.4288 11.7004 8.13708 13.1843 8.13708C14.6694 8.13708 16.0822 8.4288 17.3587 8.86148C19.8212 9.69606 21.7813 11.0524 22.7982 11.8483C22.8374 9.26253 21.9516 6.665 20.1369 4.61463C16.0514 0.878423 9.75771 1.00835 5.82593 5.00564C1.89476 9.00293 1.76698 15.4025 5.4414 19.5573C9.52687 23.2958 15.8215 23.1644 19.7524 19.1666" fill="#0BA587"/>
<path d="M20.1541 4.62923C20.1553 4.63011 20.1565 4.63115 20.1578 4.63218C20.1565 4.63114 20.1553 4.63011 20.1541 4.62923Z" fill="#0BA587"/>
<path d="M5.45919 19.5774C5.45808 19.5762 5.45697 19.5751 5.456 19.5739C5.45697 19.5751 5.45808 19.5762 5.45919 19.5774Z" fill="#0BA587"/>
<path d="M20.1322 4.60958C20.1337 4.61132 20.1351 4.61317 20.1366 4.61478C20.1421 4.61999 20.1479 4.62482 20.1535 4.63002C20.1465 4.62321 20.1394 4.61627 20.1322 4.60958" fill="#0D6954"/>
<g opacity="0.3">
<path opacity="0.3" d="M20.1323 4.60934C20.1337 4.61108 20.1352 4.61293 20.1367 4.61454C20.1422 4.61975 20.148 4.62458 20.1536 4.62978C20.1466 4.62297 20.1395 4.61603 20.1323 4.60934Z" fill="#0BA587"/>
</g>
<path d="M5.82596 19.9702C5.69963 19.8416 5.57716 19.7107 5.45867 19.5773C5.57728 19.7109 5.69975 19.8426 5.82572 19.9706C9.37453 23.5791 14.8493 24.0356 18.8866 21.3411L18.8864 21.3409C14.8494 24.0355 9.37477 23.5789 5.82548 19.9702" fill="#0D6954"/>
<g opacity="0.3">
<path opacity="0.3" d="M5.82566 19.9702C5.69933 19.8416 5.57685 19.7107 5.45836 19.5774C5.57697 19.711 5.69945 19.8426 5.82542 19.9707C9.37422 23.5792 14.849 24.0357 18.8863 21.3412L18.8861 21.3409C14.8491 24.0355 9.37447 23.579 5.82517 19.9702" fill="#0BA587"/>
</g>
<path d="M5.43669 19.5522C5.44334 19.5596 5.45022 19.567 5.45699 19.5743C5.45182 19.5684 5.44702 19.5625 5.44186 19.5568C5.44026 19.5552 5.4384 19.5537 5.43669 19.5522Z" fill="#0D6954"/>
<g opacity="0.3">
<path opacity="0.3" d="M5.4366 19.552C5.44324 19.5594 5.45013 19.5667 5.4569 19.574C5.45173 19.5682 5.44693 19.5622 5.44177 19.5565C5.44017 19.5549 5.43832 19.5534 5.4366 19.552Z" fill="#0BA587"/>
</g>
<path d="M21.8909 18.2861L21.8908 18.2858H21.8907C21.5064 18.8812 21.0574 19.446 20.5427 19.9695C20.0278 20.4929 19.4724 20.9494 18.8869 21.3402L18.8871 21.3404C19.4727 20.9498 20.0283 20.4932 20.5432 19.97C21.0578 19.4465 21.5068 18.8815 21.8909 18.2861Z" fill="#0D6954"/>
<g opacity="0.3">
<path opacity="0.3" d="M21.8911 18.2861L21.891 18.2858H21.8909C21.5066 18.8812 21.0575 19.446 20.5428 19.9695C20.028 20.4929 19.4725 20.9494 18.887 21.3402L18.8873 21.3404C19.4729 20.9498 20.0285 20.4932 20.5433 19.97C21.0579 19.4465 21.5069 18.8815 21.8911 18.2861Z" fill="#0BA587"/>
</g>
<path d="M18.8871 21.3405L18.6894 21.1396L21.6934 18.0852L21.8909 18.2862C24.541 14.1813 24.092 8.61458 20.5429 5.0056C20.4165 4.87715 20.2877 4.75261 20.1566 4.63213C20.1556 4.63127 20.1547 4.63041 20.1538 4.62968C20.1481 4.62453 20.1423 4.61975 20.1368 4.6146C21.9515 6.66497 22.8373 9.2625 22.7982 11.8483C23.2895 12.2328 23.5618 12.4871 23.5618 12.4871C23.5618 12.4871 23.2494 12.7788 22.6903 13.2097C22.3795 15.3892 21.4021 17.4893 19.7526 19.166C15.8221 23.1638 9.52739 23.2952 5.44168 19.5566C5.44674 19.5623 5.45144 19.5682 5.45651 19.5739C5.45723 19.5749 5.45807 19.5758 5.45891 19.5767C5.57741 19.7101 5.69988 19.841 5.82621 19.9696C9.37526 23.5783 14.8499 24.0349 18.8871 21.3403" fill="#0BA587"/>
<g opacity="0.3">
<path opacity="0.3" d="M18.8871 21.3405L18.6894 21.1396L21.6934 18.0852L21.8909 18.2862C24.541 14.1813 24.0919 8.61459 20.5429 5.00561C20.4164 4.87715 20.2877 4.75262 20.1565 4.63213C20.1556 4.63127 20.1547 4.63042 20.1538 4.62968C20.1481 4.62454 20.1423 4.61975 20.1368 4.61461C21.9514 6.66497 22.8373 9.2625 22.7981 11.8483C23.2895 12.2328 23.5618 12.4871 23.5618 12.4871C23.5618 12.4871 23.2493 12.7788 22.6903 13.2097C22.3795 15.3892 21.4021 17.4894 19.7526 19.166C15.822 23.1638 9.52736 23.2952 5.44165 19.5566C5.44671 19.5623 5.45141 19.5682 5.45648 19.5739C5.4572 19.5749 5.45804 19.5758 5.45888 19.5767C5.57738 19.7101 5.69985 19.841 5.82618 19.9696C9.37523 23.5783 14.8498 24.0349 18.8871 21.3403" fill="#0BA587"/>
</g>
<path d="M18.6895 21.1395L18.8872 21.3404C19.4727 20.9497 20.0282 20.4931 20.543 19.9697C21.0577 19.4462 21.5068 18.8814 21.8911 18.2861L21.6935 18.0851L18.6895 21.1395Z" fill="#0BA587"/>
<g opacity="0.3">
<path opacity="0.3" d="M18.6894 21.1395L18.8871 21.3404C19.4726 20.9497 20.0281 20.4931 20.5429 19.9697C21.0576 19.4462 21.5067 18.8814 21.891 18.2861L21.6934 18.0851L18.6894 21.1395Z" fill="#0BA587"/>
</g>
<path d="M22.7975 11.8487C22.7944 12.0503 22.7871 12.2519 22.7729 12.4532C22.7867 12.4643 22.801 12.476 22.8143 12.4869C22.7992 12.4992 22.782 12.513 22.766 12.5258C21.4715 13.5773 17.6377 16.3473 13.1835 16.3473C8.67653 16.3473 4.80237 13.5087 3.55426 12.4871C4.39337 11.7985 6.42031 10.2866 9.01935 9.3769C9.01104 9.26745 9.00549 9.15726 9.00549 9.04572C9.00549 8.98443 9.00669 8.92192 9.01031 8.86186C5.35784 10.0986 2.80713 12.4875 2.80713 12.4875C2.80713 12.4875 7.45289 16.8376 13.1835 16.8376C17.4342 16.8376 21.0853 14.4466 22.6896 13.2101C23.2487 12.7792 23.5612 12.4875 23.5612 12.4875C23.5612 12.4875 23.2888 12.2332 22.7975 11.8487Z" fill="#295148"/>
<path d="M17.3633 9.04547C17.3633 9.15714 17.3578 9.26733 17.3494 9.37678C19.9134 10.2749 21.9124 11.7507 22.7734 12.4529C22.7877 12.2517 22.7949 12.0501 22.798 11.8484C21.7811 11.0526 19.821 9.6962 17.3585 8.86162C17.3621 8.92168 17.3633 8.98419 17.3633 9.04547" fill="#295148"/>
<path d="M13.1839 13.2937C10.9866 13.2937 9.18611 11.5676 9.01976 9.37654C6.42072 10.2863 4.39377 11.7982 3.55467 12.4868C4.80278 13.5083 8.67693 16.3469 13.1839 16.3469C17.6382 16.3469 21.4719 13.5769 22.7664 12.5254C22.7685 12.5012 22.7715 12.477 22.7733 12.4528C21.9123 11.7506 19.9133 10.2747 17.3493 9.37666C17.1829 11.5677 15.3825 13.2937 13.1839 13.2937Z" fill="#F9FBED"/>
<path d="M15.0708 10.7161C14.7115 10.7161 14.4202 10.4199 14.4202 10.0545C14.4202 9.68922 14.7115 9.39296 15.0708 9.39296C15.4301 9.39296 15.7215 9.68922 15.7215 10.0545C15.7215 10.4199 15.4301 10.7161 15.0708 10.7161ZM17.359 8.86223C16.0825 8.42955 14.6697 8.13783 13.1846 8.13783C11.7007 8.13783 10.2892 8.42955 9.01139 8.86223C9.00778 8.92229 9.00657 8.9848 9.00657 9.04609C9.00657 9.15763 9.01211 9.26782 9.02043 9.37727C9.18678 11.5684 10.9872 13.2944 13.1846 13.2944C15.3832 13.2944 17.1835 11.5685 17.35 9.3774C17.3583 9.26794 17.3639 9.15775 17.3639 9.04609C17.3639 8.9848 17.3627 8.92229 17.359 8.86223" fill="#295148"/>
<path d="M15.0705 9.39233C14.7113 9.39233 14.4199 9.68859 14.4199 10.0538C14.4199 10.4192 14.7113 10.7155 15.0705 10.7155C15.4298 10.7155 15.7212 10.4192 15.7212 10.0538C15.7212 9.68859 15.4298 9.39233 15.0705 9.39233Z" fill="white"/>
</svg>
