<svg width="25" height="21" viewBox="0 0 25 21" fill="none" xmlns="http://www.w3.org/2000/svg">
<g clip-path="url(#clip0_255_918)">
<path d="M1.04167 17.9572H5.20834V7.69593H1.04167V17.9572ZM23.9583 8.55103C23.9583 7.61042 23.0208 6.84083 21.875 6.84083H15.3021L16.2917 2.933L16.3229 2.65937C16.3229 2.30878 16.1458 1.98384 15.8646 1.75296L14.7604 0.855103L7.90625 6.49023C7.52084 6.79807 7.29167 7.22562 7.29167 7.69593V16.247C7.29167 17.1876 8.22917 17.9572 9.375 17.9572H18.75C19.6146 17.9572 20.3542 17.5296 20.6667 16.9139L23.8125 10.8855C23.9063 10.6888 23.9583 10.4836 23.9583 10.2612V8.55103Z" fill="#323232"/>
</g>
<defs>
<clipPath id="clip0_255_918">
<rect width="25" height="20.5225" fill="white"/>
</clipPath>
</defs>
</svg>
