<svg width="24" height="24" viewBox="0 0 24 24" fill="none" xmlns="http://www.w3.org/2000/svg">
<path d="M1.64401 15.0135V17.9075Z" fill="#F2F2F2"/>
<path d="M1.64401 15.0135V17.9075" stroke="#171716" stroke-width="3.175" stroke-linecap="round" stroke-linejoin="round"/>
<path d="M18.1617 15.0135L18.1617 17.9075Z" fill="#F2F2F2"/>
<path d="M18.1617 15.0135L18.1617 17.9075" stroke="#BFC612" stroke-width="3.175" stroke-linecap="round" stroke-linejoin="round"/>
<path d="M9.90305 22.356C14.4644 22.356 18.1621 20.3644 18.1621 17.9077C18.1621 15.4509 14.4644 13.4593 9.90305 13.4593C5.34171 13.4593 1.64401 15.4509 1.64401 17.9077C1.64401 20.3644 5.34171 22.356 9.90305 22.356Z" fill="#FFFA83" stroke="#171716" stroke-width="3.175" stroke-linecap="round" stroke-linejoin="round"/>
<path d="M9.90305 19.4616C14.4644 19.4616 18.1621 17.47 18.1621 15.0132C18.1621 12.5564 14.4644 10.5648 9.90305 10.5648C5.34171 10.5648 1.64401 12.5564 1.64401 15.0132C1.64401 17.47 5.34171 19.4616 9.90305 19.4616Z" fill="#FFFA83" stroke="#171716" stroke-width="3.175" stroke-linecap="round" stroke-linejoin="round"/>
<path d="M5.83725 11.6661V14.5603Z" fill="#F2F2F2"/>
<path d="M5.83725 11.6661V14.5603" stroke="#171716" stroke-width="3.175" stroke-linecap="round" stroke-linejoin="round"/>
<path d="M22.3559 11.6661L22.3559 14.5603Z" fill="#F2F2F2"/>
<path d="M22.3559 11.6661L22.3559 14.5603" stroke="#171716" stroke-width="3.175" stroke-linecap="round" stroke-linejoin="round"/>
<path d="M14.0963 19.0089C18.6576 19.0089 22.3553 17.0173 22.3553 14.5605C22.3553 12.1037 18.6576 10.1121 14.0963 10.1121C9.53495 10.1121 5.83725 12.1037 5.83725 14.5605C5.83725 17.0173 9.53495 19.0089 14.0963 19.0089Z" fill="#FFFA83" stroke="#171716" stroke-width="3.175" stroke-linecap="round" stroke-linejoin="round"/>
<path d="M14.0963 16.1147C18.6576 16.1147 22.3553 14.1231 22.3553 11.6663C22.3553 9.20957 18.6576 7.21795 14.0963 7.21795C9.53494 7.21795 5.83725 9.20957 5.83725 11.6663C5.83725 14.1231 9.53494 16.1147 14.0963 16.1147Z" fill="#FFFA83" stroke="#171716" stroke-width="3.175" stroke-linecap="round" stroke-linejoin="round"/>
<path d="M3.85981 6.09247V8.98663Z" fill="#F2F2F2"/>
<path d="M3.85981 6.09247V8.98663" stroke="#171716" stroke-width="3.175" stroke-linecap="round" stroke-linejoin="round"/>
<path d="M20.3779 6.09247V8.98663Z" fill="#F2F2F2"/>
<path d="M20.3779 6.09247V8.98663" stroke="#171716" stroke-width="3.175" stroke-linecap="round" stroke-linejoin="round"/>
<path d="M12.1188 13.4348C16.6802 13.4348 20.3779 11.4432 20.3779 8.98637C20.3779 6.52957 16.6802 4.53794 12.1188 4.53794C7.5575 4.53794 3.85981 6.52957 3.85981 8.98637C3.85981 11.4432 7.5575 13.4348 12.1188 13.4348Z" fill="#FFFA83" stroke="#171716" stroke-width="3.175" stroke-linecap="round" stroke-linejoin="round"/>
<path d="M12.1188 10.5408C16.6802 10.5408 20.3779 8.54922 20.3779 6.09243C20.3779 3.63565 16.6802 1.64403 12.1188 1.64403C7.5575 1.64403 3.85981 3.63565 3.85981 6.09243C3.85981 8.54922 7.5575 10.5408 12.1188 10.5408Z" fill="#FFFA83" stroke="#171716" stroke-width="3.175" stroke-linecap="round" stroke-linejoin="round"/>
<path d="M12.1187 6.0922C12.7822 6.97459 12.8503 8.08496 12.2709 8.57229C11.6915 9.05962 10.6839 8.73937 10.0204 7.85699C9.35694 6.97461 9.28876 5.86424 9.86816 5.3769M14.2169 4.32738C14.8804 5.20977 14.9486 6.32014 14.3692 6.80748L14.2169 4.32738ZM12.1187 6.0922C11.4551 5.2098 11.387 4.09941 11.9664 3.61208C12.5458 3.12475 13.5534 3.445 14.2169 4.32738L12.1187 6.0922Z" stroke="#171716" stroke-width="1.5875" stroke-linecap="round" stroke-linejoin="round"/>
<path d="M14.413 3.11766L8.86174 7.78678" stroke="#171716" stroke-width="1.5875" stroke-linecap="round" stroke-linejoin="round"/>
<path d="M15.3758 4.39825L9.82455 9.06737" stroke="#171716" stroke-width="1.5875" stroke-linecap="round" stroke-linejoin="round"/>
</svg>
