<svg width="12" height="14" viewBox="0 0 12 14" fill="none" xmlns="http://www.w3.org/2000/svg">
<path fill-rule="evenodd" clip-rule="evenodd" d="M11.0769 13.6241H0.923077C0.412615 13.6241 0 13.2434 0 12.7734V4.25752C0 3.78749 0.412615 3.40601 0.923077 3.40601H2.30769V4.25752H1.38462C1.12985 4.25752 0.923077 4.44911 0.923077 4.68327V12.3468C0.923077 12.5827 1.12985 12.7734 1.38462 12.7734H10.6154C10.8692 12.7734 11.0769 12.5827 11.0769 12.3468V4.68327C11.0769 4.44911 10.8692 4.25752 10.6154 4.25752H9.69231V3.40601H11.0769C11.5865 3.40601 12 3.78749 12 4.25752V12.7734C12 13.2434 11.5865 13.6241 11.0769 13.6241ZM7.9994 2.85844L6.46154 1.43982V9.79229C6.46154 10.0273 6.25385 10.218 6 10.218C5.74523 10.218 5.53846 10.0273 5.53846 9.79229V1.43982L3.9997 2.85844C3.82432 3.02108 3.5381 3.02108 3.36272 2.85844C3.18733 2.69751 3.18733 2.43272 3.36272 2.27179L5.6428 0.167661C5.64557 0.164255 5.65108 0.162647 5.65385 0.159241C5.664 0.148172 5.66035 0.131956 5.67142 0.120886C5.68896 0.105559 5.71381 0.110667 5.73227 0.0987462C5.80058 0.0476559 5.87995 0.0127168 5.97318 0.00675632C5.98057 0.00675632 5.98712 0.00249464 5.99358 0.00249464L6.0009 0L6.00834 0.00249464C6.01388 0.00164314 6.01756 0.00509322 6.0231 0.00509322C6.13295 0.0102022 6.23258 0.050183 6.30919 0.113194C6.31566 0.119155 6.32585 0.116609 6.33139 0.121718C6.33693 0.12853 6.33417 0.137917 6.34063 0.143026C6.34432 0.146432 6.34336 0.153217 6.34706 0.157474L8.63818 2.27179C8.81449 2.43272 8.81449 2.69751 8.63818 2.85844C8.46095 3.02193 8.17571 3.02193 7.9994 2.85844Z" fill="#2A2A2A"/>
</svg>
