<svg width="28" height="20" viewBox="0 0 28 20" fill="none" xmlns="http://www.w3.org/2000/svg">
<path d="M14 1.66669C9.40001 1.66669 5.66667 5.40002 5.66667 10C5.66667 14.6 9.40001 18.3334 14 18.3334C18.6 18.3334 22.3333 14.6 22.3333 10C22.3333 5.40002 18.6 1.66669 14 1.66669ZM9.89167 15.2334C10.25 14.4834 12.4333 13.75 14 13.75C15.5667 13.75 17.7583 14.4834 18.1083 15.2334C16.975 16.1334 15.55 16.6667 14 16.6667C12.45 16.6667 11.025 16.1334 9.89167 15.2334ZM19.3 14.025C18.1083 12.575 15.2167 12.0834 14 12.0834C12.7833 12.0834 9.89167 12.575 8.7 14.025C7.85 12.9084 7.33334 11.5167 7.33334 10C7.33334 6.32502 10.325 3.33335 14 3.33335C17.675 3.33335 20.6667 6.32502 20.6667 10C20.6667 11.5167 20.15 12.9084 19.3 14.025Z" fill="#5F6368"/>
<path d="M14 5C12.3833 5 11.0833 6.3 11.0833 7.91667C11.0833 9.53333 12.3833 10.8333 14 10.8333C15.6167 10.8333 16.9167 9.53333 16.9167 7.91667C16.9167 6.3 15.6167 5 14 5ZM14 9.16667C13.3083 9.16667 12.75 8.60833 12.75 7.91667C12.75 7.225 13.3083 6.66667 14 6.66667C14.6917 6.66667 15.25 7.225 15.25 7.91667C15.25 8.60833 14.6917 9.16667 14 9.16667Z" fill="#5F6368"/>
</svg>
