<svg width="35" height="20" viewBox="0 0 35 20" fill="none" xmlns="http://www.w3.org/2000/svg">
<path d="M1.4212 17.5H7.10603V7.50004H1.4212V17.5ZM32.6877 8.33337C32.6877 7.41671 31.4086 6.66671 29.8453 6.66671H20.8775L22.2277 2.85837L22.2703 2.59171C22.2703 2.25004 22.0287 1.93337 21.645 1.70837L20.1385 0.833374L10.7869 6.32504C10.2611 6.62504 9.94844 7.04171 9.94844 7.50004V15.8334C9.94844 16.75 11.2275 17.5 12.7908 17.5H25.5817C26.7613 17.5 27.7704 17.0834 28.1967 16.4834L32.4888 10.6084C32.6167 10.4167 32.6877 10.2167 32.6877 10V8.33337Z" fill="#323232"/>
</svg>
