<svg width="12" height="12" viewBox="0 0 12 12" fill="none" xmlns="http://www.w3.org/2000/svg">
<path fill-rule="evenodd" clip-rule="evenodd" d="M11.0769 12H0.923077C0.412615 12 0 11.6647 0 11.2507V3.75C0 3.336 0.412615 3 0.923077 3H2.30769V3.75H1.38462C1.12985 3.75 0.923077 3.91875 0.923077 4.125V10.875C0.923077 11.0828 1.12985 11.2507 1.38462 11.2507H10.6154C10.8692 11.2507 11.0769 11.0828 11.0769 10.875V4.125C11.0769 3.91875 10.8692 3.75 10.6154 3.75H9.69231V3H11.0769C11.5865 3 12 3.336 12 3.75V11.2507C12 11.6647 11.5865 12 11.0769 12ZM7.9994 2.5177L6.46154 1.26819V8.625C6.46154 8.832 6.25385 9 6 9C5.74523 9 5.53846 8.832 5.53846 8.625V1.26819L3.9997 2.5177C3.82432 2.66095 3.5381 2.66095 3.36272 2.5177C3.18733 2.37595 3.18733 2.14273 3.36272 2.00098L5.6428 0.147675C5.64557 0.144675 5.65108 0.143259 5.65385 0.140259C5.664 0.130509 5.66035 0.116226 5.67142 0.106476C5.68896 0.0929758 5.71381 0.0974751 5.73227 0.0869751C5.80058 0.0419751 5.87995 0.0112009 5.97318 0.00595093C5.98057 0.00595093 5.98712 0.00219727 5.99358 0.00219727L6.0009 0L6.00834 0.00219727C6.01388 0.00144727 6.01756 0.00448608 6.0231 0.00448608C6.13295 0.00898608 6.23258 0.0442009 6.30919 0.0997009C6.31566 0.104951 6.32585 0.102708 6.33139 0.107208C6.33693 0.113208 6.33417 0.121477 6.34063 0.125977C6.34432 0.128977 6.34336 0.134952 6.34706 0.138702L8.63818 2.00098C8.81449 2.14273 8.81449 2.37595 8.63818 2.5177C8.46095 2.6617 8.17571 2.6617 7.9994 2.5177Z" fill="#2A2A2A"/>
</svg>
