<svg width="20" height="20" viewBox="0 0 20 20" fill="none" xmlns="http://www.w3.org/2000/svg">
<g clip-path="url(#clip0_255_937)">
<path d="M0 9.60109C0 10.0708 0.313248 10.4516 0.699677 10.4516H5.78773C6.17414 10.4516 6.48741 10.0708 6.48741 9.60109V1.30525C6.48741 0.835529 6.17416 0.454815 5.78773 0.454815H0.699677C0.313274 0.454815 0 0.835569 0 1.30525V9.60109ZM12.4642 19.9932C13.5183 20.098 14.4492 19.0211 14.5685 17.7762C14.7836 16.4381 14.5662 15.8874 14.0166 14.7366C13.7239 13.9459 13.7988 14.0706 13.9573 13.1698C14.5089 12.9843 15.1963 13.1927 15.7991 13.123C16.7847 13.0951 17.7944 13.175 18.7585 12.8897C19.4062 12.5202 19.8306 11.6734 19.9999 10.8515C19.9586 10.0974 19.004 9.47868 19.6461 8.71189C20.2045 8.04502 19.9011 7.2321 19.3811 6.70048C18.9018 5.91648 19.9749 5.08588 19.4809 4.28184C19.1223 3.67417 18.4122 3.2225 18.5951 2.34294C18.6787 1.45924 17.9663 0.888221 17.4497 0.437139C16.5402 -0.114809 15.4751 0.0288732 14.4888 0.000366211C12.8377 0.0636833 11.1724 0.0890389 9.55677 0.552019C8.78154 0.73051 8.00264 0.888803 7.22977 1.08062L7.20697 9.99721C7.85926 9.88453 8.38497 10.4521 8.72999 11.0632C9.4937 12.3139 10.2821 13.0049 10.8292 14.3944C11.3405 15.3305 11.4484 15.6007 11.7469 16.7325C12.1717 17.931 12.0766 18.4593 12.1904 19.7382C12.1904 19.7382 12.5615 19.9968 12.464 19.9928L12.4642 19.9932Z" fill="black"/>
</g>
<defs>
<clipPath id="clip0_255_937">
<rect width="20" height="20" fill="white"/>
</clipPath>
</defs>
</svg>
