<svg width="12" height="14" viewBox="0 0 12 14" fill="none" xmlns="http://www.w3.org/2000/svg">
<path fill-rule="evenodd" clip-rule="evenodd" d="M6 11.9211C6.23025 11.9211 6.45524 11.9049 6.67799 11.8802L9.75 13.6241V10.6089C11.121 9.51639 12 7.8415 12 5.96053C12 2.66861 9.31425 0 6 0C2.6865 0 0 2.66861 0 5.96053C0 9.25244 2.6865 11.9211 6 11.9211ZM6 0.850672C8.8995 0.850672 11.25 3.13866 11.25 5.95969C11.25 7.68995 10.3553 9.20306 9 10.1244V10.2163V12.345L6.75 11.0687C6.75 11.0687 6.86025 11.0687 6 11.0687C3.10125 11.0687 0.75 8.78073 0.75 5.95969C0.75 3.13866 3.10125 0.850672 6 0.850672Z" fill="#2A2A2A"/>
</svg>
