<svg width="7" height="7" viewBox="0 0 7 7" fill="none" xmlns="http://www.w3.org/2000/svg">
<path fill-rule="evenodd" clip-rule="evenodd" d="M5.5416 3.20837H3.7916V1.45837C3.7916 1.29708 3.66094 1.1667 3.49994 1.1667C3.33894 1.1667 3.20827 1.29708 3.20827 1.45837V3.20837H1.45827C1.29727 3.20837 1.16661 3.33874 1.16661 3.50003C1.16661 3.66132 1.29727 3.7917 1.45827 3.7917H3.20827V5.5417C3.20827 5.70299 3.33894 5.83336 3.49994 5.83336C3.66094 5.83336 3.7916 5.70299 3.7916 5.5417V3.7917H5.5416C5.7026 3.7917 5.83327 3.66132 5.83327 3.50003C5.83327 3.33874 5.7026 3.20837 5.5416 3.20837" fill="#343C44"/>
</svg>
