<svg width="20" height="22" viewBox="0 0 20 22" fill="none" xmlns="http://www.w3.org/2000/svg">
<g clip-path="url(#clip0_255_937)">
<path d="M0 10.5612C0 11.0778 0.300474 11.4967 0.671146 11.4967H5.55172C5.92237 11.4967 6.22287 11.0779 6.22287 10.5612V1.43574C6.22287 0.919045 5.92239 0.50026 5.55172 0.50026H0.671146C0.300499 0.50026 0 0.919089 0 1.43574V10.5612ZM11.9559 21.9925C12.967 22.1078 13.86 20.9232 13.9744 19.5538C14.1807 18.0818 13.9722 17.4761 13.445 16.2103C13.1643 15.3404 13.2361 15.4776 13.3881 14.4867C13.9173 14.2827 14.5766 14.5119 15.1548 14.4352C16.1003 14.4045 17.0688 14.4924 17.9936 14.1786C18.6148 13.7722 19.022 12.8407 19.1843 11.9366C19.1448 11.1071 18.229 10.4265 18.845 9.58304C19.3806 8.84948 19.0896 7.95528 18.5908 7.3705C18.131 6.50809 19.1604 5.59443 18.6865 4.70999C18.3425 4.04155 17.6613 3.54472 17.8368 2.5772C17.9171 1.60513 17.2336 0.977006 16.7382 0.480816C15.8658 -0.126326 14.8441 0.0317239 13.898 0.000366211C12.3142 0.070015 10.7168 0.0979061 9.16706 0.607184C8.42344 0.803525 7.67631 0.977646 6.93495 1.18864L6.91308 10.9969C7.53878 10.8729 8.04304 11.4972 8.374 12.1694C9.10656 13.5453 9.8628 14.3053 10.3876 15.8338C10.878 16.8636 10.9816 17.1608 11.2679 18.4057C11.6753 19.7241 11.5841 20.3052 11.6933 21.712C11.6933 21.712 12.0493 21.9964 11.9557 21.992L11.9559 21.9925Z" fill="black"/>
</g>
<defs>
<clipPath id="clip0_255_937">
<rect width="19.1844" height="22" fill="white"/>
</clipPath>
</defs>
</svg>
