<svg width="16" height="16" viewBox="0 0 16 16" fill="none" xmlns="http://www.w3.org/2000/svg">
<path fill-rule="evenodd" clip-rule="evenodd" d="M14.7692 16H1.23077C0.550154 16 0 15.553 0 15.001V5C0 4.448 0.550154 4 1.23077 4H3.07692V5H1.84615C1.50646 5 1.23077 5.225 1.23077 5.5V14.5C1.23077 14.777 1.50646 15.001 1.84615 15.001H14.1538C14.4923 15.001 14.7692 14.777 14.7692 14.5V5.5C14.7692 5.225 14.4923 5 14.1538 5H12.9231V4H14.7692C15.4486 4 16 4.448 16 5V15.001C16 15.553 15.4486 16 14.7692 16ZM10.6659 3.35693L8.61538 1.69092V11.5C8.61538 11.776 8.33846 12 8 12C7.66031 12 7.38462 11.776 7.38462 11.5V1.69092L5.33293 3.35693C5.09909 3.54793 4.71747 3.54793 4.48362 3.35693C4.24978 3.16793 4.24978 2.85697 4.48362 2.66797L7.52374 0.196899C7.52743 0.192899 7.53477 0.191012 7.53846 0.187012C7.552 0.174012 7.54713 0.154968 7.5619 0.141968C7.58528 0.123968 7.61841 0.129967 7.64303 0.115967C7.73411 0.0559668 7.83994 0.0149346 7.96424 0.00793457C7.97409 0.00793457 7.98282 0.00292969 7.99144 0.00292969C7.99513 0.00292969 7.99751 0 8.0012 0C8.00489 0 8.00743 0.00192969 8.01112 0.00292969C8.0185 0.00192969 8.02341 0.00598145 8.0308 0.00598145C8.17726 0.0119814 8.31011 0.0589346 8.41226 0.132935C8.42088 0.139935 8.43447 0.136944 8.44186 0.142944C8.44924 0.150944 8.44556 0.161969 8.45418 0.167969C8.4591 0.171969 8.45782 0.179937 8.46274 0.184937L11.5176 2.66797C11.7527 2.85697 11.7527 3.16793 11.5176 3.35693C11.2813 3.54893 10.9009 3.54893 10.6659 3.35693Z" fill="#2A2A2A"/>
</svg>
