<svg width="29" height="29" viewBox="0 0 29 29" fill="none" xmlns="http://www.w3.org/2000/svg">
<path d="M5.41119 9.49659L12.3361 5.59331L19.1925 18.7414L12.2676 22.6447L5.41119 9.49659Z" fill="#F9F9F9" stroke="black" stroke-width="8"/>
<path d="M6.87119 7.98809L14.3221 9.051L14.8695 10.194L7.41857 9.13111L6.87119 7.98809Z" fill="black"/>
<path d="M7.10379 9.48371L13.4703 10.1922L14.0305 11.5023L7.66396 10.7937L7.10379 9.48371Z" fill="black"/>
<path d="M7.33638 10.6402L14.584 11.6428L15.132 12.8106L7.88439 11.808L7.33638 10.6402Z" fill="black"/>
<path d="M7.56897 12.2775L12.9868 12.7238L13.4816 14.1187L8.06382 13.6724L7.56897 12.2775Z" fill="black"/>
<path d="M7.94316 14.0377L15.278 15.0665L15.8256 16.2234L8.49076 15.1946L7.94316 14.0377Z" fill="black"/>
<path d="M8.19597 15.5405L15.0629 16.424L15.615 17.6452L8.74815 16.7617L8.19597 15.5405Z" fill="black"/>
<path d="M8.4387 16.7739L16.063 17.8867L16.6108 19.0103L8.98645 17.8975L8.4387 16.7739Z" fill="black"/>
<path d="M8.69152 18.7279L13.3546 18.9244L13.8222 20.4323L9.15906 20.2357L8.69152 18.7279Z" fill="black"/>
<path d="M15.5694 7.55664L23.496 10.3411L18.8511 23.8165L10.9246 21.032L15.5694 7.55664Z" fill="#F9F9F9" stroke="black" stroke-width="8"/>
<path d="M13.4459 10.7972L21.1473 9.69673L20.8336 10.128L13.1321 11.2285L13.4459 10.7972Z" fill="black"/>
<path d="M13.3411 11.9805L19.9466 11.02L19.6208 11.4972L13.0153 12.4577L13.3411 11.9805Z" fill="black"/>
<path d="M13.2157 13.417L20.7088 12.3434L20.3916 12.7838L12.8986 13.8574L13.2157 13.417Z" fill="black"/>
<path d="M13.0927 14.4953L18.6874 13.6668L18.3765 14.1871L12.7819 15.0156L13.0927 14.4953Z" fill="black"/>
<path d="M12.9098 16.8808L20.4921 15.7956L20.1763 16.2322L12.594 17.3174L12.9098 16.8808Z" fill="black"/>
<path d="M12.7893 18.2584L19.8964 17.2342L19.5743 17.691L12.4671 18.7151L12.7893 18.2584Z" fill="black"/>
<path d="M12.6559 19.739L20.5363 18.615L20.2257 19.0382L12.3453 20.1622L12.6559 19.739Z" fill="black"/>
<path d="M12.5862 20.6204L17.3329 20.0536L16.9651 20.7668L12.2184 21.3336L12.5862 20.6204Z" fill="black"/>
<path d="M9.04002 8.67446H20.3058V24.0189H9.04002V8.67446Z" fill="#F9F9F9" stroke="black" stroke-width="8"/>
<path d="M10.1578 10.7256H18.1291V11.5717H10.1578V10.7256Z" fill="black"/>
<path d="M10.1578 12.0542H17.0409V12.9002H10.1578V12.0542Z" fill="black"/>
<path d="M10.1578 13.3824H17.9232V14.2284H10.1578V13.3824Z" fill="black"/>
<path d="M10.1578 14.711H16.0113V15.557H10.1578V14.711Z" fill="black"/>
<path d="M10.1578 16.848H18.0115V17.6939H10.1578V16.848Z" fill="black"/>
<path d="M10.1578 18.2921H17.5409V19.1381H10.1578V18.2921Z" fill="black"/>
<path d="M10.1578 19.6782H18.3056V20.5243H10.1578V19.6782Z" fill="black"/>
<path d="M10.1578 21.122H15.2172V21.9679H10.1578V21.122Z" fill="black"/>
</svg>
