<svg width="26" height="17" viewBox="0 0 26 17" fill="none" xmlns="http://www.w3.org/2000/svg">
<path fill-rule="evenodd" clip-rule="evenodd" d="M6.67164 12.6492L0 16.8656V1.01085C0 0.452574 0.452575 0 1.01085 0H12.3324C12.8907 0 13.3433 0.452575 13.3433 1.01085V16.8656L6.67164 12.6492ZM12.0089 2.06495C12.0089 1.50667 11.5564 1.0541 10.9981 1.0541H2.34518C1.7869 1.0541 1.33433 1.50667 1.33433 2.06495V14.7574L6.67164 11.068L12.0089 14.7574V2.06495Z" fill="#2A2A2A"/>
<path fill-rule="evenodd" clip-rule="evenodd" d="M25.0714 6.60198C24.5589 6.60198 24.1429 6.01051 24.1429 5.28104C24.1429 4.55224 24.5589 3.96074 25.0714 3.96074C25.584 3.96074 26 4.55224 26 5.28104C26 6.01117 25.584 6.60198 25.0714 6.60198ZM25.0714 4.62089C24.8147 4.62089 24.6071 4.91664 24.6071 5.28104C24.6071 5.6461 24.8147 5.94183 25.0714 5.94183C25.3277 5.94183 25.5357 5.6461 25.5357 5.28104C25.5357 4.91664 25.3277 4.62089 25.0714 4.62089ZM22.2857 6.60198C21.7727 6.60198 21.3571 6.01051 21.3571 5.28104C21.3571 4.55224 21.7727 3.96074 22.2857 3.96074C22.7983 3.96074 23.2143 4.55224 23.2143 5.28104C23.2143 6.01117 22.7983 6.60198 22.2857 6.60198ZM22.2857 4.62089C22.029 4.62089 21.8214 4.91664 21.8214 5.28104C21.8214 5.6461 22.029 5.94183 22.2857 5.94183C22.542 5.94183 22.75 5.6461 22.75 5.28104C22.75 4.91664 22.542 4.62089 22.2857 4.62089ZM19.5 6.60198C18.9874 6.60198 18.5714 6.01051 18.5714 5.28104C18.5714 4.55224 18.9874 3.96074 19.5 3.96074C20.0126 3.96074 20.4286 4.55224 20.4286 5.28104C20.4286 6.01117 20.0126 6.60198 19.5 6.60198ZM19.5 4.62089C19.2432 4.62089 19.0357 4.91664 19.0357 5.28104C19.0357 5.6461 19.2432 5.94183 19.5 5.94183C19.7563 5.94183 19.9643 5.6461 19.9643 5.28104C19.9643 4.91664 19.7563 4.62089 19.5 4.62089Z" fill="#2A2A2A"/>
</svg>
