<svg width="14" height="17" viewBox="0 0 14 17" fill="none" xmlns="http://www.w3.org/2000/svg">
<path fill-rule="evenodd" clip-rule="evenodd" d="M6.7248 17C6.7248 17 0 8.12761 0 4.97722C0 1.6229 1.2298 0 3.7827 0C5.0436 0 6.7248 2.74242 6.7248 2.74242C6.7248 2.74242 8.406 0 9.6669 0C12.2198 0 13.4496 1.62184 13.4496 4.97722C13.4496 8.12761 6.7248 17 6.7248 17ZM9.6669 1.09717C9.00367 1.09717 6.7248 3.83752 6.7248 3.83752C6.7248 3.83752 4.44509 1.09717 3.7827 1.09717C1.54839 1.09717 0.8406 2.29428 0.8406 5.12283C0.8406 7.78143 6.7248 15.3536 6.7248 15.3536C6.7248 15.3536 12.609 7.78143 12.609 5.12283C12.609 2.29428 11.9012 1.09717 9.6669 1.09717Z" fill="#2A2A2A"/>
</svg>
