<svg width="17" height="16" viewBox="0 0 17 16" fill="none" xmlns="http://www.w3.org/2000/svg">
<path fill-rule="evenodd" clip-rule="evenodd" d="M8.50001 15.9424C8.50001 15.9424 0 7.622 0 4.6676C0 1.52194 1.55444 0 4.78125 0C6.375 0 8.50001 2.57182 8.50001 2.57182C8.50001 2.57182 10.625 0 12.2188 0C15.4456 0 17 1.52094 17 4.6676C17 7.622 8.50001 15.9424 8.50001 15.9424ZM12.2188 1.02892C11.3804 1.02892 8.50001 3.59879 8.50001 3.59879C8.50001 3.59879 5.6185 1.02892 4.78125 1.02892C1.95713 1.02892 1.0625 2.15155 1.0625 4.80414C1.0625 7.29736 8.50001 14.3985 8.50001 14.3985C8.50001 14.3985 15.9375 7.29736 15.9375 4.80414C15.9375 2.15155 15.0429 1.02892 12.2188 1.02892Z" fill="#2A2A2A"/>
</svg>
