<svg width="113" height="91" viewBox="0 0 113 91" fill="none" xmlns="http://www.w3.org/2000/svg">
<path d="M46.3923 0C46.2732 0 46.1554 0.0157034 46.0379 0.0370373C45.1469 0.17926 44.2509 0.440195 43.3847 0.753094C42.5927 1.06597 41.8476 1.54706 41.2042 2.17284C40.5607 2.79862 40.1454 3.64533 39.9474 4.55554C39.7742 5.38042 39.7742 6.21213 39.9474 7.03711C40.1207 7.77667 40.4911 8.45102 41.0108 8.96304C41.283 9.21903 41.4811 9.54013 41.5801 9.93835C41.7286 10.4788 41.8753 11.0189 41.999 11.5309C42.3207 12.9247 42.9888 14.1726 43.954 15.1112C44.3747 15.5379 44.9456 15.6856 45.4901 15.5433C45.5395 15.5149 45.5909 15.5063 45.6404 15.5063C45.8137 15.5063 45.9818 15.5949 46.0808 15.7655C46.1798 15.9362 46.2527 16.1343 46.2527 16.3334C46.2527 16.4757 46.2378 16.6147 46.1883 16.7285C46.0645 17.0698 45.9617 17.4205 45.8875 17.7902C45.7143 18.7005 45.6339 19.6417 45.6834 20.5803C45.7329 21.5189 45.9856 22.4258 46.3816 23.2224L48.2399 26.8643L49.604 30.2223C49.7525 30.4782 49.8264 30.7876 49.8511 31.5556C49.8511 32.0107 49.8726 32.4306 49.8726 32.6297V33.4074C49.8726 34.6874 49.817 35.9051 49.6685 37.1853C49.5695 38.1524 49.4999 39.1194 49.4751 40.0865C49.4257 41.3381 49.3775 42.5645 49.3033 43.9014C49.2538 44.8116 49.0996 45.7443 48.8521 46.6544C48.7779 46.9673 48.6345 47.2873 48.4117 47.5433L46.3816 49.7285L45.0926 51.0371C42.89 52.1749 40.7854 53.5724 38.8304 55.2223L37.2299 56.5557L36.3814 57.605L34.8453 59.0865L33.5886 58.5186C30.7673 60.595 27.8452 62.4996 24.7268 64.2347L24.0286 64.6297C23.0139 63.5773 21.8825 62.6989 20.6451 61.9877C19.9769 61.6179 19.2608 61.3017 18.5183 61.0741C17.0828 60.6475 15.5735 61.1892 14.6084 62.4692C13.8907 63.4078 13.2451 64.4586 12.7502 65.568C12.5274 66.0515 12.2042 66.4526 11.7834 66.7655C11.4369 66.9931 11.1104 67.313 10.8382 67.6544C10.1452 68.4793 9.56081 69.3625 9.06576 70.3581C8.57079 71.2967 7.99806 72.1961 7.37934 73.0495C7.05762 73.4761 6.7633 73.9363 6.46632 74.4198C6.16934 74.9319 5.87271 75.5015 5.64997 76.0988L4.72621 78.4074L4.47916 78.8889C4.35542 78.9742 4.26011 79.0505 4.21063 79.1358C3.81466 79.8754 3.41756 80.5863 2.99685 81.3828C2.37814 82.549 1.86099 83.835 1.51453 85.0865C1.04432 86.6225 0.618265 88.2145 0.247047 89.8642L0 91H113V88.6173L100.454 88.5556C99.8847 88.4418 99.3129 88.1551 98.8427 87.7284C96.3679 85.3961 94.4151 82.438 93.1282 79.0247C92.9302 78.5127 92.6112 78.0907 92.2152 77.7778C91.7202 77.408 91.1517 77.2099 90.5825 77.2099C90.137 77.1814 89.6947 77.3538 89.4224 77.6667C89.2492 77.8089 89.0726 77.9737 88.8746 78.1728C88.1322 78.9124 87.3132 79.5336 86.4471 80.0741L85.4589 80.7037L84.5458 81.1605C84.3231 81.3027 84.1465 81.4713 83.998 81.642C83.8 81.8979 83.7047 82.2142 83.7295 82.5555C83.7295 82.9253 83.7767 83.3253 83.8262 83.6666C83.8509 83.752 83.8476 83.8035 83.8476 83.8889C83.8476 84.2017 83.7267 84.5169 83.5039 84.716L82.0431 86.0864L81.796 86.1111C81.2021 86.1111 80.7037 85.5715 80.6789 84.8889L80.636 83.0123L80.7326 79.0865L80.8078 74.8519L80.7541 71.1482C80.7541 70.8922 80.7864 70.6425 80.7864 70.3581C80.7864 69.4478 80.706 68.4744 80.5823 67.5926C80.409 66.1988 80.3137 64.8049 80.3137 63.3828C80.3137 62.4441 80.3651 61.4819 80.4641 60.5433L80.7326 57.4693L80.883 54.9014L80.8293 52.0865L80.926 48.852L80.883 42.0742L80.5608 33.852C80.5855 33.6529 80.7098 33.5224 80.883 33.494C81.2295 33.4371 81.5528 33.3141 81.8498 33.0866C82.221 32.8306 82.5882 32.5229 82.9346 32.21C83.3059 31.8687 83.5039 31.3307 83.5039 30.7903C83.5039 30.4489 83.4301 30.0994 83.2569 29.815C82.8857 29.1323 82.39 28.5712 81.7961 28.173C81.4991 27.9739 81.2239 27.7167 81.0012 27.4323C80.135 26.3798 79.5922 25.0665 79.4437 23.8149C79.1962 21.9091 79.0047 20.0099 78.8314 17.8767C78.7572 17.1371 78.5988 16.3903 78.3266 15.6793C78.1039 15.0535 77.7152 14.5429 77.2202 14.1731C76.8985 13.9171 76.5462 13.697 76.1998 13.4694C72.7846 11.1654 69.0314 9.6249 65.0717 8.91384C64.3045 8.77162 63.5089 8.82209 62.816 9.04964C61.5538 9.4763 60.3187 9.87472 59.0565 10.3583C58.4378 10.5858 57.7698 10.7335 57.1015 10.7904C56.2848 10.8757 55.4906 10.9863 54.674 11.1854C54.476 11.2423 54.2737 11.2718 54.051 11.2718C53.7787 11.2718 53.4821 11.2214 53.2346 11.136C52.8232 10.9867 52.4673 10.7021 52.4183 10.6916C52.1232 10.1825 51.8466 9.67908 51.5267 9.00026C51.106 8.17538 50.8159 7.29695 50.6674 6.35819C50.6179 5.95996 50.5408 5.55028 50.4418 5.12362C50.3181 4.46941 50.1457 3.81489 49.9477 3.16066C49.7497 2.47799 49.3975 1.88363 48.9273 1.45697C48.4818 1.00186 47.9679 0.637806 47.4235 0.296472C47.108 0.104473 46.7496 0.00016513 46.3923 0.00016513L46.3923 0ZM69.1959 18.074L70.4097 18.0987L71.4731 18.2468L73.138 18.6172C73.2123 18.6457 73.3066 18.701 73.3314 18.8148L73.7825 19.9259L74.094 20.7407L74.3196 21.4567L74.6633 22.395L75.2326 23.7036L75.5871 24.4197L75.9845 25.5185L76.3497 26.8024L76.5538 27.7654L76.6183 28.1357C76.643 28.1926 76.6505 28.2764 76.6505 28.3333C76.6505 28.7315 76.3525 29.074 76.006 29.074H75.9845C75.8608 29.074 75.7108 29.0235 75.5871 28.9382L74.7922 28.0246L73.9544 27L73.4603 26.3827L73.0628 25.6913L72.7621 25.037C72.5393 24.4966 72.3123 23.9639 72.1391 23.395L71.0327 21.9383L69.647 20.1728L68.5299 18.9259C68.4557 18.8406 68.4524 18.7236 68.5514 18.6667L68.8737 18.2099C68.9479 18.1245 69.0722 18.0741 69.1959 18.0741L69.1959 18.074ZM57.2944 30.0986C57.4924 30.0986 57.6615 30.1872 57.81 30.3579L58.5619 31.0122L59.1742 31.8147C59.3474 32.0422 59.4427 32.3204 59.4427 32.6048C59.4427 32.8039 59.4278 33.0058 59.3783 33.148C59.304 33.4894 59.2484 33.8351 59.1742 34.148C59.0999 34.7453 58.9318 35.3102 58.7338 35.7653C58.4368 36.4195 58.1317 37.0456 57.81 37.7283C57.612 38.1549 57.3915 38.577 57.144 38.9752C56.8966 39.3734 56.6793 39.7992 56.4566 40.1974C56.1596 40.6809 55.8868 41.162 55.565 41.6171C55.1443 42.2714 54.6958 42.9012 54.2009 43.5554C54.1266 43.6692 54.0313 43.7036 53.9324 43.7036C53.8829 43.7036 53.8497 43.695 53.8249 43.6665C53.7259 43.6665 53.6531 43.5581 53.6531 43.4443C53.6283 43.3874 53.6316 43.3284 53.6316 43.2715C53.6316 43.0439 53.6862 42.8163 53.7605 42.6172L54.1042 41.4567L54.3942 40.4814C54.7902 39.0876 55.1649 37.6093 55.5113 35.7037C55.6351 34.9641 55.7841 34.2313 55.8336 33.9753C55.9326 33.4349 55.984 32.8861 55.984 32.3457C56.0087 32.0328 56.0783 31.7536 56.1773 31.4691L56.6714 30.5309C56.7952 30.2749 57.047 30.0988 57.2944 30.0988L57.2944 30.0986ZM67.1873 48.2961C67.3373 48.3054 67.4841 48.3693 67.5955 48.4813C67.9172 48.7657 68.1302 49.2114 68.2292 49.6665L68.3581 51.2097L68.5085 52.7158L68.8737 55.7283C68.948 56.4678 69.0026 57.1776 69.0026 57.8888C69.0026 58.5715 68.948 59.2346 68.8737 59.8888C68.849 60.1448 68.8522 60.3983 68.8522 60.6543C68.8522 61.3938 68.9518 62.1321 69.1745 62.8148C69.3477 63.3268 69.5425 63.8042 69.7653 64.2593C70.3345 65.4824 70.7572 66.7618 71.0542 68.0987C71.2522 69.0374 71.3732 69.9835 71.398 70.9506C71.4475 72.5151 71.6273 74.0813 71.9243 75.6174C72.0975 76.5276 72.2162 77.2653 72.3647 78.0619C72.3894 78.261 72.6113 78.4569 72.8588 78.4569C72.9083 78.4569 72.9597 78.4607 73.0092 78.4322L73.6 78.4569C73.7237 78.4569 73.8545 78.574 73.8792 78.7162C74.0525 79.3989 74.1263 80.0829 74.1263 80.7656C74.1263 81.4198 74.0492 82.0658 73.9007 82.6915C73.777 83.3173 73.3785 83.8011 72.8588 84.0002C72.4133 84.1708 71.9434 84.3136 71.4732 84.3705C71.0277 84.4559 70.6559 84.8252 70.5816 85.3088C70.5321 85.5364 70.5064 85.7393 70.5064 85.9384V85.9631C70.5064 86.4467 70.2332 86.8247 69.8619 86.9384C69.4907 87.0807 69.0946 87.1569 68.7234 87.1854C68.1541 87.2422 67.5879 87.3308 66.994 87.4446L65.1895 87.5063L63.0842 87.3952L61.4085 87.0742L60.3343 86.7903L58.7016 86.4199L57.5953 86.173L56.2526 85.8767L59.3032 83.494L59.4428 83.3829L60.0121 83.1854L61.1507 82.8644L63.3634 81.3582L63.2345 80.852C63.0613 79.9702 62.6951 79.1101 62.2248 78.3704C61.8288 77.7162 61.4477 77.0359 61.1507 76.2964C60.9032 75.7276 60.7887 75.1568 60.764 74.531C60.665 72.5683 60.3609 70.6134 59.9154 68.6792C59.3957 66.5744 58.7791 64.4088 58.1109 62.2472C57.7644 61.1948 57.5944 60.202 57.5202 59.2348C57.4954 59.0072 57.4632 58.771 57.4879 58.5435C57.4879 58.4012 57.5426 58.2622 57.6168 58.1484L58.2828 57.4323L59.0777 56.7286L59.8188 55.9632L60.7318 55.0249L61.3011 54.3336L63.8038 51.2102L64.1261 50.7287L64.2765 50.4695C64.4249 50.2135 64.5973 49.96 64.7706 49.704C64.8696 49.5618 64.9691 49.4684 65.0928 49.383L66.1025 48.6793L66.8437 48.3707C66.9055 48.3423 66.9713 48.3192 67.037 48.309C67.0863 48.3013 67.1374 48.2935 67.1874 48.2966L67.1873 48.2961ZM46.3058 53.1974L48.4111 59.8024L48.4648 60.0493L48.5078 60.3086L49.3241 63.4444L50.0223 66.6544L50.5379 68.7038L50.8816 70.2346L51.6228 74.1112L51.8269 75.3334C51.9506 75.9592 52.1936 76.5288 52.5895 77.0124C52.738 77.183 52.9104 77.3221 53.0836 77.4074C53.5043 77.6634 53.9561 77.7778 54.4263 77.7778C54.5006 77.7778 54.5991 77.7816 54.6734 77.7531C54.9951 77.7247 55.3132 77.8637 55.5112 78.1482C55.9567 78.7455 56.2286 79.4543 56.3276 80.2222V80.3333C56.3276 80.4755 56.3019 80.6146 56.2524 80.7283L55.3393 82.4073L55.1675 82.7283L53.116 84.0617C52.9675 84.147 52.8689 84.3441 52.8689 84.5432C52.8689 84.5716 52.8689 84.6011 52.8689 84.6296L53.0408 85.395L52.3426 85.2222C51.4516 84.9662 50.5365 84.8641 49.5713 84.8641C49.0268 84.8641 48.4615 84.8899 47.9171 84.9752C46.8529 85.1459 45.7653 85.3661 44.6517 85.6789C43.5133 85.9918 42.3519 86.169 41.1393 86.1975C40.3226 86.2259 39.5004 86.1078 38.7331 85.8518C38.4114 85.7665 38.0377 85.6532 37.6912 85.5678C36.9735 85.4256 36.3354 85.0294 35.8651 84.432C35.5187 84.0338 35.0968 83.4958 34.6514 83.0123L33.5343 81.1851L32.922 80.0493L32.2453 78.9382L31.6545 77.9505L30.72 76.2962L30.2689 75.4691L29.6244 73.9629L29.1518 72.7654L28.8295 72.0246L28.561 71.432C27.6205 69.4694 26.4334 67.6508 24.9734 66.0863L25.5964 65.9381L27.3043 65.5184C28.4675 65.2339 29.5775 64.8366 30.6664 64.2961C31.6068 63.841 32.3226 63.5017 33.0403 63.1603C33.9065 62.7621 34.7759 62.1087 35.543 61.2838L36.7568 60.111L37.788 58.9134L38.4647 58.2591L39.2273 57.6048L39.947 57.0122L40.8386 56.3826L41.4831 55.9875L42.1705 55.5925L42.8902 55.1851L43.6636 54.7406L44.2329 54.3949L44.7484 54.0246L45.2425 53.7159L46.306 53.1974L46.3058 53.1974Z" fill="black"/>
</svg>
