<svg width="34" height="20" viewBox="0 0 34 20" fill="none" xmlns="http://www.w3.org/2000/svg">
<path fill-rule="evenodd" clip-rule="evenodd" d="M16.6199 17.5C17.2577 17.5 17.881 17.4763 18.498 17.44L27.0074 20V15.5737C30.805 13.97 33.2399 11.5113 33.2399 8.75C33.2399 3.9175 25.8004 0 16.6199 0C7.44159 0 1.52588e-05 3.9175 1.52588e-05 8.75C1.52588e-05 13.5825 7.44159 17.5 16.6199 17.5ZM16.6199 1.24878C24.6515 1.24878 31.1624 4.60753 31.1624 8.74878C31.1624 11.2888 28.6839 13.51 24.9299 14.8625V14.9974V18.1224L18.6974 16.2488C18.6974 16.2488 19.0028 16.2488 16.6199 16.2488C8.59044 16.2488 2.07751 12.89 2.07751 8.74878C2.07751 4.60753 8.59044 1.24878 16.6199 1.24878Z" fill="#2A2A2A"/>
</svg>
