<svg width="20" height="20" viewBox="0 0 20 20" fill="none" xmlns="http://www.w3.org/2000/svg">
<path d="M8.5312 12.6003L6.3891 10.4903L5.32308 11.5404L8.52114 14.6904L14.5552 8.7469L13.4892 7.69688L8.5312 12.6003ZM15.3668 0L20 3.80882L18.7127 5.32937L14.0765 1.52254L15.3668 0ZM4.63217 0L5.92146 1.52155L1.28727 5.32937L0 3.80783L4.63217 0ZM9.9995 2.16939C5.00126 2.16939 0.948358 6.16147 0.948358 11.0847C0.948358 16.0079 5.00126 20 9.9995 20C14.9977 20 19.0506 16.0079 19.0506 11.0847C19.0506 6.16147 14.9977 2.16939 9.9995 2.16939ZM9.9995 18.0188C6.11756 18.0188 2.95972 14.9084 2.95972 11.0847C2.95972 7.26102 6.11756 4.15057 9.9995 4.15057C13.8814 4.15057 17.0393 7.26102 17.0393 11.0847C17.0393 14.9084 13.8814 18.0188 9.9995 18.0188Z" fill="black"/>
</svg>
