<svg width="25" height="20" viewBox="0 0 25 20" fill="none" xmlns="http://www.w3.org/2000/svg">
<path d="M11.1125 15.8667L11.825 12.6556C11.975 12 11.775 11.3222 11.3 10.8111C10.825 10.3 10.125 10 9.375 10H2.5V8.8L5.7125 2.22222H15.825C16.05 2.22222 16.25 2.4 16.25 2.6V11.3111L11.1125 15.8667ZM10 20L18.0125 12.8778C18.4875 12.4556 18.75 11.8889 18.75 11.3V2.6C18.75 1.16667 17.4375 0 15.825 0H5.7C4.8125 0 4 0.411111 3.55 1.07778L0.2125 7.91111C0.0750001 8.18889 0 8.48889 0 8.8V10C0 11.2222 1.125 12.2222 2.5 12.2222H9.375L8.225 17.3889C8.1625 17.6333 8.2 17.9 8.325 18.1222C8.6125 18.6222 8.975 19.0778 9.425 19.4778L10 20ZM22.5 12.2222H25V0H22.5C21.8125 0 21.25 0.5 21.25 1.11111V11.1111C21.25 11.7222 21.8125 12.2222 22.5 12.2222Z" fill="#323232"/>
</svg>
