<svg width="24" height="14" viewBox="0 0 24 14" fill="none" xmlns="http://www.w3.org/2000/svg">
<path fill-rule="evenodd" clip-rule="evenodd" d="M6.15843 10.4879L0 13.9838V1.02641C0 0.459538 0.459538 0 1.02641 0H11.2905C11.8573 0 12.3169 0.459537 12.3169 1.02641V13.9838L6.15843 10.4879ZM11.0852 1.90039C11.0852 1.33353 10.6256 0.873988 10.0588 0.873988H2.25809C1.69122 0.873988 1.23169 1.33353 1.23169 1.90039V12.2358L6.15843 9.17688L11.0852 12.2358V1.90039Z" fill="#2A2A2A"/>
<path fill-rule="evenodd" clip-rule="evenodd" d="M23.1428 5.47401C22.6697 5.47401 22.2857 4.9836 22.2857 4.37878C22.2857 3.7745 22.6697 3.28407 23.1428 3.28407C23.616 3.28407 24 3.7745 24 4.37878C24 4.98415 23.616 5.47401 23.1428 5.47401ZM23.1428 3.83142C22.9058 3.83142 22.7143 4.07664 22.7143 4.37878C22.7143 4.68146 22.9058 4.92666 23.1428 4.92666C23.3794 4.92666 23.5714 4.68146 23.5714 4.37878C23.5714 4.07664 23.3794 3.83142 23.1428 3.83142ZM20.5714 5.47401C20.0978 5.47401 19.7143 4.9836 19.7143 4.37878C19.7143 3.7745 20.0978 3.28407 20.5714 3.28407C21.0446 3.28407 21.4286 3.7745 21.4286 4.37878C21.4286 4.98415 21.0446 5.47401 20.5714 5.47401ZM20.5714 3.83142C20.3344 3.83142 20.1428 4.07664 20.1428 4.37878C20.1428 4.68146 20.3344 4.92666 20.5714 4.92666C20.808 4.92666 21 4.68146 21 4.37878C21 4.07664 20.808 3.83142 20.5714 3.83142ZM18 5.47401C17.5268 5.47401 17.1428 4.9836 17.1428 4.37878C17.1428 3.7745 17.5268 3.28407 18 3.28407C18.4731 3.28407 18.8571 3.7745 18.8571 4.37878C18.8571 4.98415 18.4731 5.47401 18 5.47401ZM18 3.83142C17.763 3.83142 17.5714 4.07664 17.5714 4.37878C17.5714 4.68146 17.763 4.92666 18 4.92666C18.2366 4.92666 18.4286 4.68146 18.4286 4.37878C18.4286 4.07664 18.2366 3.83142 18 3.83142Z" fill="#2A2A2A"/>
</svg>
