<svg width="16" height="20" viewBox="0 0 16 20" fill="none" xmlns="http://www.w3.org/2000/svg">
<path fill-rule="evenodd" clip-rule="evenodd" d="M14.7692 19.3939H1.23077C0.550154 19.3939 0 18.8521 0 18.183V6.06061C0 5.39152 0.550154 4.84848 1.23077 4.84848H3.07692V6.06061H1.84615C1.50646 6.06061 1.23077 6.33333 1.23077 6.66667V17.5758C1.23077 17.9115 1.50646 18.183 1.84615 18.183H14.1538C14.4923 18.183 14.7692 17.9115 14.7692 17.5758V6.66667C14.7692 6.33333 14.4923 6.06061 14.1538 6.06061H12.9231V4.84848H14.7692C15.4486 4.84848 16 5.39152 16 6.06061V18.183C16 18.8521 15.4486 19.3939 14.7692 19.3939ZM10.6659 4.06901L8.61538 2.0496V13.9394C8.61538 14.2739 8.33846 14.5455 8 14.5455C7.66031 14.5455 7.38462 14.2739 7.38462 13.9394V2.0496L5.33293 4.06901C5.09909 4.30053 4.71747 4.30053 4.48362 4.06901C4.24978 3.83992 4.24978 3.46299 4.48362 3.2339L7.52374 0.238666C7.52743 0.233817 7.53477 0.231529 7.53846 0.226681C7.552 0.210923 7.54713 0.18784 7.5619 0.172082C7.58528 0.150264 7.61841 0.157536 7.64303 0.140566C7.73411 0.0678385 7.83994 0.0181025 7.96424 0.00961766C7.97409 0.00961766 7.98282 0.00355114 7.99144 0.00355114C7.99513 0.00355114 7.99751 0 8.0012 0C8.00489 0 8.00743 0.00233902 8.01112 0.00355114C8.0185 0.00233902 8.02341 0.00725024 8.0308 0.00725024C8.17726 0.014523 8.31011 0.0714358 8.41226 0.161133C8.42088 0.169618 8.43447 0.165993 8.44186 0.173266C8.44924 0.182963 8.44556 0.196326 8.45418 0.203598C8.4591 0.208447 8.45782 0.218105 8.46274 0.224165L11.5176 3.2339C11.7527 3.46299 11.7527 3.83992 11.5176 4.06901C11.2813 4.30174 10.9009 4.30174 10.6659 4.06901Z" fill="#2A2A2A"/>
</svg>
