<svg width="15" height="14" viewBox="0 0 15 14" fill="none" xmlns="http://www.w3.org/2000/svg">
<path fill-rule="evenodd" clip-rule="evenodd" d="M13.8462 13.431H1.15385C0.515769 13.431 0 13.0558 0 12.5924V4.1972C0 3.73383 0.515769 3.35776 1.15385 3.35776H2.88462V4.1972H1.73077C1.41231 4.1972 1.15385 4.38607 1.15385 4.61692V12.1719C1.15385 12.4044 1.41231 12.5924 1.73077 12.5924H13.2692C13.5865 12.5924 13.8462 12.4044 13.8462 12.1719V4.61692C13.8462 4.38607 13.5865 4.1972 13.2692 4.1972H12.1154V3.35776H13.8462C14.4831 3.35776 15 3.73383 15 4.1972V12.5924C15 13.0558 14.4831 13.431 13.8462 13.431ZM9.99925 2.81794L8.07692 1.41942V9.65356C8.07692 9.88525 7.81731 10.0733 7.5 10.0733C7.18154 10.0733 6.92308 9.88525 6.92308 9.65356V1.41942L4.99962 2.81794C4.78039 2.97828 4.42263 2.97828 4.2034 2.81794C3.98417 2.65929 3.98417 2.39825 4.2034 2.2396L7.0535 0.165285C7.05697 0.161927 7.06385 0.160343 7.06731 0.156985C7.08 0.146072 7.07543 0.130086 7.08928 0.119173C7.1112 0.104064 7.14226 0.109099 7.16534 0.0973472C7.25072 0.0469808 7.34994 0.0125367 7.46648 0.0066606C7.47571 0.0066606 7.4839 0.0024593 7.49197 0.0024593C7.49543 0.0024593 7.49767 0 7.50113 0C7.50459 0 7.50696 0.00161986 7.51042 0.0024593C7.51735 0.00161986 7.52195 0.00502106 7.52887 0.00502106C7.66618 0.0100577 7.79072 0.049472 7.88649 0.111591C7.89457 0.117467 7.90732 0.114957 7.91424 0.119993C7.92116 0.126709 7.91771 0.135963 7.92579 0.141C7.93041 0.144357 7.9292 0.151046 7.93382 0.155243L10.7977 2.2396C11.0181 2.39825 11.0181 2.65929 10.7977 2.81794C10.5762 2.97912 10.2196 2.97912 9.99925 2.81794Z" fill="#2A2A2A"/>
</svg>
