<svg width="24" height="12" viewBox="0 0 24 12" fill="none" xmlns="http://www.w3.org/2000/svg">
<path fill-rule="evenodd" clip-rule="evenodd" d="M6 9L0 12V1C0 0.447715 0.447715 0 1 0H11C11.5523 0 12 0.447715 12 1V12L6 9ZM10.8 1.75C10.8 1.19772 10.3523 0.75 9.8 0.75H2.2C1.64771 0.75 1.2 1.19772 1.2 1.75V10.5L6 7.875L10.8 10.5V1.75Z" fill="#2A2A2A"/>
<path fill-rule="evenodd" clip-rule="evenodd" d="M22.5475 4.69738C22.0865 4.69738 21.7124 4.27654 21.7124 3.75752C21.7124 3.23897 22.0865 2.81812 22.5475 2.81812C23.0084 2.81812 23.3826 3.23897 23.3826 3.75752C23.3826 4.27701 23.0084 4.69738 22.5475 4.69738ZM22.5475 3.28782C22.3166 3.28782 22.1299 3.49824 22.1299 3.75752C22.1299 4.01726 22.3166 4.22768 22.5475 4.22768C22.778 4.22768 22.965 4.01726 22.965 3.75752C22.965 3.49824 22.778 3.28782 22.5475 3.28782ZM20.0422 4.69738C19.5808 4.69738 19.2071 4.27654 19.2071 3.75752C19.2071 3.23897 19.5808 2.81812 20.0422 2.81812C20.5032 2.81812 20.8773 3.23897 20.8773 3.75752C20.8773 4.27701 20.5032 4.69738 20.0422 4.69738ZM20.0422 3.28782C19.8113 3.28782 19.6246 3.49824 19.6246 3.75752C19.6246 4.01726 19.8113 4.22768 20.0422 4.22768C20.2727 4.22768 20.4597 4.01726 20.4597 3.75752C20.4597 3.49824 20.2727 3.28782 20.0422 3.28782ZM17.5369 4.69738C17.0759 4.69738 16.7018 4.27654 16.7018 3.75752C16.7018 3.23897 17.0759 2.81812 17.5369 2.81812C17.9979 2.81812 18.372 3.23897 18.372 3.75752C18.372 4.27701 17.9979 4.69738 17.5369 4.69738ZM17.5369 3.28782C17.306 3.28782 17.1194 3.49824 17.1194 3.75752C17.1194 4.01726 17.306 4.22768 17.5369 4.22768C17.7674 4.22768 17.9545 4.01726 17.9545 3.75752C17.9545 3.49824 17.7674 3.28782 17.5369 3.28782Z" fill="#2A2A2A"/>
</svg>
