<svg width="7" height="7" viewBox="0 0 7 7" fill="none" xmlns="http://www.w3.org/2000/svg">
<path fill-rule="evenodd" clip-rule="evenodd" d="M5.54159 3.20837H3.79159V1.45837C3.79159 1.29708 3.66092 1.1667 3.49992 1.1667C3.33892 1.1667 3.20826 1.29708 3.20826 1.45837V3.20837H1.45826C1.29726 3.20837 1.16659 3.33874 1.16659 3.50003C1.16659 3.66132 1.29726 3.7917 1.45826 3.7917H3.20826V5.5417C3.20826 5.70299 3.33892 5.83336 3.49992 5.83336C3.66092 5.83336 3.79159 5.70299 3.79159 5.5417V3.7917H5.54159C5.70259 3.7917 5.83325 3.66132 5.83325 3.50003C5.83325 3.33874 5.70259 3.20837 5.54159 3.20837Z" fill="#343C44"/>
</svg>
