<svg width="11" height="13" viewBox="0 0 11 13" fill="none" xmlns="http://www.w3.org/2000/svg">
<path fill-rule="evenodd" clip-rule="evenodd" d="M5.49999 10.8273C5.71106 10.8273 5.9173 10.8126 6.12149 10.7902L8.9375 12.374V9.63547C10.1942 8.64323 11 7.12201 11 5.41363C11 2.42376 8.53806 0 5.49999 0C2.46262 0 -1.2562e-05 2.42376 -1.2562e-05 5.41363C-1.2562e-05 8.4035 2.46262 10.8273 5.49999 10.8273ZM5.49999 0.77262C8.15787 0.77262 10.3125 2.85068 10.3125 5.41287C10.3125 6.98437 9.49231 8.35865 8.25 9.19544V9.2789V11.2123L6.18749 10.0531C6.18749 10.0531 6.28856 10.0531 5.49999 10.0531C2.8428 10.0531 0.687488 7.97506 0.687488 5.41287C0.687488 2.85068 2.8428 0.77262 5.49999 0.77262Z" fill="#2A2A2A"/>
</svg>
