<svg width="14" height="16" viewBox="0 0 14 16" fill="none" xmlns="http://www.w3.org/2000/svg">
<path fill-rule="evenodd" clip-rule="evenodd" d="M8.16672 4.66669C8.16672 3.93136 7.64347 3.33336 7.00005 3.33336C6.35663 3.33336 5.83338 3.93136 5.83338 4.66669C5.83338 5.40202 6.35663 6.00002 7.00005 6.00002C7.64347 6.00002 8.16672 5.40202 8.16672 4.66669ZM9.33335 4.66668C9.33335 6.13734 8.28685 7.33334 7.00002 7.33334C5.71319 7.33334 4.66669 6.13734 4.66669 4.66668C4.66669 3.19601 5.71319 2.00001 7.00002 2.00001C8.28685 2.00001 9.33335 3.19601 9.33335 4.66668ZM2.91669 13.3333C2.91669 10.76 4.74894 8.66668 7.00002 8.66668C9.25111 8.66668 11.0834 10.76 11.0834 13.3333C11.0834 13.7013 10.8226 14 10.5 14C10.1774 14 9.91669 13.7013 9.91669 13.3333C9.91669 11.4953 8.60827 10 7.00002 10C5.39177 10 4.08336 11.4953 4.08336 13.3333C4.08336 13.7013 3.82261 14 3.50002 14C3.17744 14 2.91669 13.7013 2.91669 13.3333Z" fill="#F2F2F2"/>
</svg>
