<svg width="17" height="16" viewBox="0 0 17 16" fill="none" xmlns="http://www.w3.org/2000/svg">
<path fill-rule="evenodd" clip-rule="evenodd" d="M8.5 15.9035C8.5 15.9035 0 7.60338 0 4.65619C0 1.51822 1.55444 0 4.78125 0C6.375 0 8.5 2.56553 8.5 2.56553C8.5 2.56553 10.625 0 12.2187 0C15.4456 0 17 1.51723 17 4.65619C17 7.60338 8.5 15.9035 8.5 15.9035ZM12.2187 1.02641C11.3804 1.02641 8.5 3.59 8.5 3.59C8.5 3.59 5.6185 1.02641 4.78125 1.02641C1.95712 1.02641 1.0625 2.1463 1.0625 4.79241C1.0625 7.27953 8.5 14.3633 8.5 14.3633C8.5 14.3633 15.9375 7.27953 15.9375 4.79241C15.9375 2.1463 15.0429 1.02641 12.2187 1.02641Z" fill="#2A2A2A"/>
</svg>
