<svg width="25" height="16" viewBox="0 0 25 16" fill="none" xmlns="http://www.w3.org/2000/svg">
<path fill-rule="evenodd" clip-rule="evenodd" d="M12.5 13.1619C12.9797 13.1619 13.4484 13.1441 13.9125 13.1168L20.3125 15.0422V11.7131C23.1687 10.507 25 8.65772 25 6.58096C25 2.94639 19.4047 0 12.5 0C5.59687 0 0 2.94639 0 6.58096C0 10.2155 5.59687 13.1619 12.5 13.1619ZM12.5 0.939218C18.5406 0.939218 23.4375 3.46537 23.4375 6.58004C23.4375 8.4904 21.5734 10.161 18.75 11.1782V11.2797V13.63L14.0625 12.2209C14.0625 12.2209 14.2922 12.2209 12.5 12.2209C6.46094 12.2209 1.5625 9.69471 1.5625 6.58004C1.5625 3.46537 6.46094 0.939218 12.5 0.939218Z" fill="#2A2A2A"/>
</svg>
