<svg width="12" height="12" viewBox="0 0 12 12" fill="none" xmlns="http://www.w3.org/2000/svg">
<path fill-rule="evenodd" clip-rule="evenodd" d="M6 12C6 12 0 5.73714 0 3.51334C0 1.14558 1.09725 0 3.375 0C4.5 0 6 1.93583 6 1.93583C6 1.93583 7.5 0 8.625 0C10.9027 0 12 1.14483 12 3.51334C12 5.73714 6 12 6 12ZM8.625 0.774477C8.03325 0.774477 6 2.70884 6 2.70884C6 2.70884 3.966 0.774477 3.375 0.774477C1.3815 0.774477 0.75 1.61949 0.75 3.61612C0.75 5.49278 6 10.8378 6 10.8378C6 10.8378 11.25 5.49278 11.25 3.61612C11.25 1.61949 10.6185 0.774477 8.625 0.774477Z" fill="#2A2A2A"/>
</svg>
