<svg width="25" height="20" viewBox="0 0 25 20" fill="none" xmlns="http://www.w3.org/2000/svg">
<path fill-rule="evenodd" clip-rule="evenodd" d="M23.0769 20H1.92308C0.859615 20 0 19.4412 0 18.7512V6.25C0 5.56 0.859615 5 1.92308 5H4.80769V6.25H2.88462C2.35385 6.25 1.92308 6.53125 1.92308 6.875V18.125C1.92308 18.4713 2.35385 18.7512 2.88462 18.7512H22.1154C22.6442 18.7512 23.0769 18.4713 23.0769 18.125V6.875C23.0769 6.53125 22.6442 6.25 22.1154 6.25H20.1923V5H23.0769C24.1385 5 25 5.56 25 6.25V18.7512C25 19.4412 24.1385 20 23.0769 20ZM16.6654 4.19617L13.4615 2.11365V14.375C13.4615 14.72 13.0288 15 12.5 15C11.9692 15 11.5385 14.72 11.5385 14.375V2.11365L8.33271 4.19617C7.96732 4.43492 7.37105 4.43492 7.00566 4.19617C6.64028 3.95992 6.64028 3.57121 7.00566 3.33496L11.7558 0.246124C11.7616 0.241124 11.7731 0.238765 11.7788 0.233765C11.8 0.217515 11.7924 0.19371 11.8155 0.17746C11.852 0.15496 11.9038 0.162458 11.9422 0.144958C12.0845 0.0699585 12.2499 0.0186682 12.4441 0.00991821C12.4595 0.00991821 12.4732 0.00366211 12.4866 0.00366211C12.4924 0.00366211 12.4961 0 12.5019 0C12.5076 0 12.5116 0.00241211 12.5174 0.00366211C12.5289 0.00241211 12.5366 0.00747681 12.5481 0.00747681C12.777 0.0149768 12.9845 0.0736682 13.1442 0.166168C13.1576 0.174918 13.1789 0.17118 13.1904 0.17868C13.2019 0.18868 13.1962 0.202461 13.2097 0.209961C13.2173 0.214961 13.2153 0.224921 13.223 0.231171L17.9962 3.33496C18.3635 3.57121 18.3635 3.95992 17.9962 4.19617C17.627 4.43617 17.0327 4.43617 16.6654 4.19617Z" fill="#2A2A2A"/>
</svg>
