<svg width="110" height="78" viewBox="0 0 110 78" fill="none" xmlns="http://www.w3.org/2000/svg">
<path fill-rule="evenodd" clip-rule="evenodd" d="M40.9886 76.7241H109.351C105.745 69.0103 101.391 74.3808 96.5143 69.9313C95.6296 61.1263 87.7167 60.6057 87.7167 60.6057C79.6401 54.8492 80.9484 56.0448 77.0439 56.0004C66.6593 55.8852 66.973 66.8375 58.4388 66.5928C49.9295 66.3625 51.8043 73.2707 40.9875 76.7245L40.9886 76.7241Z" fill="black" stroke="black" stroke-width="0.512447"/>
<path d="M5.65217 72.3478L11.2769 52.8905L11.9259 36.2827" stroke="black" stroke-width="11.2738" stroke-linecap="round"/>
<path d="M24.8352 72.348L36.5174 52.8907L24.8352 37.8082L18.0568 34.0088" stroke="black" stroke-width="11.2738" stroke-linecap="round"/>
<path fill-rule="evenodd" clip-rule="evenodd" d="M8.54067 32.9724L35.8718 9.48527C35.8718 9.48527 36.629 8.73691 39.4054 8.73691L53.6838 22.1497L28.2998 34.8143L8.54056 32.9722L8.54067 32.9724Z" fill="black" stroke="black" stroke-width="0.512447"/>
<path d="M36.7375 10.2648L19.0699 10.4087L11.6784 23.0446" stroke="black" stroke-width="7.17426" stroke-linecap="round"/>
<path d="M38.2879 39.7676L51.0894 23.7721" stroke="black" stroke-width="7.17426" stroke-linecap="round"/>
<path d="M7.92752 18.3502L67.9597 62.79" stroke="black" stroke-width="3.07468" stroke-linecap="round"/>
<path d="M65.0783 8.44918C65.0783 10.2813 64.1665 12.0384 62.5436 13.3339C60.9208 14.6294 58.7197 15.3572 56.4246 15.3572C54.1295 15.3572 51.9283 14.6294 50.3055 13.3339C48.6826 12.0384 47.7708 10.2813 47.7708 8.44918C47.7708 6.61705 48.6826 4.85996 50.3055 3.56444C51.9283 2.26893 54.1295 1.54112 56.4246 1.54112C58.7197 1.54112 60.9208 2.26893 62.5436 3.56444C64.1665 4.85996 65.0783 6.61705 65.0783 8.44918Z" fill="black" stroke="black" stroke-width="3.07468" stroke-linecap="round" stroke-linejoin="round"/>
</svg>
