<svg width="20" height="13" viewBox="0 0 20 13" fill="none" xmlns="http://www.w3.org/2000/svg">
<path fill-rule="evenodd" clip-rule="evenodd" d="M9.57318 13C9.57318 13 0 6.21524 0 3.80611C0 1.24104 1.7507 0 5.38491 0C7.17989 0 9.57318 2.09715 9.57318 2.09715C9.57318 2.09715 11.9665 0 13.7614 0C17.3957 0 19.1464 1.24023 19.1464 3.80611C19.1464 6.21524 9.57318 13 9.57318 13ZM13.7614 0.839017C12.8173 0.839017 9.57318 2.93458 9.57318 2.93458C9.57318 2.93458 6.32787 0.839017 5.38491 0.839017C2.20422 0.839017 1.19665 1.75445 1.19665 3.91746C1.19665 5.95051 9.57318 11.741 9.57318 11.741C9.57318 11.741 17.9497 5.95051 17.9497 3.91746C17.9497 1.75445 16.9421 0.839017 13.7614 0.839017Z" fill="#2A2A2A"/>
</svg>
