<svg width="24" height="13" viewBox="0 0 24 13" fill="none" xmlns="http://www.w3.org/2000/svg">
<path d="M1.64402 7.77812V9.10593Z" fill="#F2F2F2"/>
<path d="M1.64402 7.77812V9.10593" stroke="#171716" stroke-width="3.175" stroke-linecap="round" stroke-linejoin="round"/>
<path d="M18.1617 7.77812L18.1617 9.10593Z" fill="#F2F2F2"/>
<path d="M18.1617 7.77812L18.1617 9.10593" stroke="#BFC612" stroke-width="3.175" stroke-linecap="round" stroke-linejoin="round"/>
<path d="M9.90307 11.1469C14.4644 11.1469 18.1621 10.2331 18.1621 9.10596C18.1621 7.97877 14.4644 7.06501 9.90307 7.06501C5.34172 7.06501 1.64402 7.97877 1.64402 9.10596C1.64402 10.2331 5.34172 11.1469 9.90307 11.1469Z" fill="#FFFA83" stroke="#171716" stroke-width="3.175" stroke-linecap="round" stroke-linejoin="round"/>
<path d="M9.90307 9.81898C14.4644 9.81898 18.1621 8.9052 18.1621 7.77799C18.1621 6.65079 14.4644 5.73701 9.90307 5.73701C5.34172 5.73701 1.64402 6.65079 1.64402 7.77799C1.64402 8.9052 5.34172 9.81898 9.90307 9.81898Z" fill="#FFFA83" stroke="#171716" stroke-width="3.175" stroke-linecap="round" stroke-linejoin="round"/>
<path d="M5.83726 6.24229V7.57015Z" fill="#F2F2F2"/>
<path d="M5.83726 6.24229V7.57015" stroke="#171716" stroke-width="3.175" stroke-linecap="round" stroke-linejoin="round"/>
<path d="M22.356 6.24229L22.356 7.57015Z" fill="#F2F2F2"/>
<path d="M22.356 6.24229L22.356 7.57015" stroke="#171716" stroke-width="3.175" stroke-linecap="round" stroke-linejoin="round"/>
<path d="M14.0963 9.61128C18.6577 9.61128 22.3554 8.6975 22.3554 7.57029C22.3554 6.44309 18.6577 5.52931 14.0963 5.52931C9.53497 5.52931 5.83726 6.44309 5.83726 7.57029C5.83726 8.6975 9.53497 9.61128 14.0963 9.61128Z" fill="#FFFA83" stroke="#171716" stroke-width="3.175" stroke-linecap="round" stroke-linejoin="round"/>
<path d="M14.0963 8.28339C18.6577 8.28339 22.3554 7.36961 22.3554 6.24241C22.3554 5.11521 18.6577 4.20143 14.0963 4.20143C9.53497 4.20143 5.83726 5.11521 5.83726 6.24241C5.83726 7.36961 9.53497 8.28339 14.0963 8.28339Z" fill="#FFFA83" stroke="#171716" stroke-width="3.175" stroke-linecap="round" stroke-linejoin="round"/>
<path d="M3.85982 3.68502V5.0129Z" fill="#F2F2F2"/>
<path d="M3.85982 3.68502V5.0129" stroke="#171716" stroke-width="3.175" stroke-linecap="round" stroke-linejoin="round"/>
<path d="M20.378 3.68502V5.0129Z" fill="#F2F2F2"/>
<path d="M20.378 3.68502V5.0129" stroke="#171716" stroke-width="3.175" stroke-linecap="round" stroke-linejoin="round"/>
<path d="M12.1189 7.05377C16.6802 7.05377 20.3779 6.13999 20.3779 5.01278C20.3779 3.88557 16.6802 2.97179 12.1189 2.97179C7.55752 2.97179 3.85982 3.88557 3.85982 5.01278C3.85982 6.13999 7.55752 7.05377 12.1189 7.05377Z" fill="#FFFA83" stroke="#171716" stroke-width="3.175" stroke-linecap="round" stroke-linejoin="round"/>
<path d="M12.1189 5.72599C16.6802 5.72599 20.3779 4.81222 20.3779 3.68502C20.3779 2.55782 16.6802 1.64404 12.1189 1.64404C7.55752 1.64404 3.85982 2.55782 3.85982 3.68502C3.85982 4.81222 7.55752 5.72599 12.1189 5.72599Z" fill="#FFFA83" stroke="#171716" stroke-width="3.175" stroke-linecap="round" stroke-linejoin="round"/>
<path d="M12.1187 3.68491C12.7822 4.08976 12.8504 4.59921 12.271 4.82281C11.6915 5.0464 10.684 4.89946 10.0205 4.49462C9.35695 4.08977 9.28877 3.58032 9.86818 3.35672M14.2169 2.87519C14.8804 3.28004 14.9486 3.78949 14.3692 4.01309L14.2169 2.87519ZM12.1187 3.68491C11.4552 3.28006 11.387 2.77059 11.9664 2.547C12.5458 2.32341 13.5534 2.47035 14.2169 2.87519L12.1187 3.68491Z" stroke="#171716" stroke-width="1.5875" stroke-linecap="round" stroke-linejoin="round"/>
<path d="M14.413 2.32011L8.86176 4.46236" stroke="#171716" stroke-width="1.5875" stroke-linecap="round" stroke-linejoin="round"/>
<path d="M15.3758 2.90769L9.82458 5.04994" stroke="#171716" stroke-width="1.5875" stroke-linecap="round" stroke-linejoin="round"/>
</svg>
