<svg width="20" height="20" viewBox="0 0 20 20" fill="none" xmlns="http://www.w3.org/2000/svg">
<g clip-path="url(#clip0_255_932)">
<path d="M1.53417 5.14405C3.21073 3.32785 5.62315 2.05905 8.36875 1.69505L7.11643 0.320845C6.46507 -0.272555 5.05672 -0.0185548 3.28545 0.882245C1.51418 1.78305 0.560523 2.72965 0.818071 3.52305L1.53417 5.14405V5.14405Z" fill="black"/>
<path d="M9.99989 4.78955C9.62333 4.78955 9.31809 5.05835 9.31809 5.38995V10.5936H3.409C3.03245 10.5936 2.7272 10.8624 2.7272 11.194C2.7272 11.5256 3.03245 11.7944 3.409 11.7944H9.99989C10.3764 11.7944 10.6817 11.5256 10.6817 11.194V5.38995C10.6817 5.05835 10.3764 4.78955 9.99989 4.78955V4.78955Z" fill="black"/>
<path d="M18.4658 5.14405C16.7893 3.32785 14.3769 2.05905 11.6313 1.69505L12.8836 0.320845C13.5349 -0.272555 14.9433 -0.0185548 16.7145 0.882245C18.4858 1.78305 19.4395 2.72965 19.1819 3.52305L18.4658 5.14405Z" fill="black"/>
<path d="M9.99989 2.38782C4.48598 2.38782 0 6.33822 0 11.1938C0 16.0494 4.48598 20 9.99989 20C15.5138 20 19.9998 16.0496 19.9998 11.1938C19.9998 6.33802 15.514 2.38782 9.99989 2.38782ZM9.99989 18.7992C5.23773 18.7992 1.3636 15.3874 1.3636 11.194C1.3636 7.00062 5.23773 3.58862 9.99989 3.58862C14.762 3.58862 18.6362 7.00042 18.6362 11.1938C18.6362 15.3872 14.762 18.7992 9.99989 18.7992V18.7992Z" fill="black"/>
</g>
<defs>
<clipPath id="clip0_255_932">
<rect width="20" height="20" fill="white"/>
</clipPath>
</defs>
</svg>
