<svg width="49" height="34" viewBox="0 0 49 34" fill="none" xmlns="http://www.w3.org/2000/svg">
<rect width="48.576" height="33.7087" fill="#7BC7D1"/>
<path fill-rule="evenodd" clip-rule="evenodd" d="M35.227 17.2133C35.227 16.6814 35.1575 16.1699 35.0286 15.6789H24.7517V18.5807H30.6242C30.3713 19.5184 29.6025 20.3129 28.4468 20.8449V22.7272H31.9733C34.0366 21.4212 35.227 19.498 35.227 17.2133Z" fill="#4285F4"/>
<path fill-rule="evenodd" clip-rule="evenodd" d="M24.7518 24.5447C27.6979 24.5447 30.1679 23.873 31.9733 22.7273L28.4469 20.845C27.4698 21.2951 26.2199 21.5611 24.7518 21.5611C21.9098 21.5611 19.5042 20.2414 18.6462 18.4683H15.0007V20.4119C16.7961 22.8637 20.4863 24.5447 24.7518 24.5447Z" fill="#34A853"/>
<path fill-rule="evenodd" clip-rule="evenodd" d="M18.6462 18.4683C18.4279 18.0182 18.3039 17.5374 18.3039 17.043C18.3039 16.5485 18.4279 16.0677 18.6462 15.6176V13.674H15.0007C14.2616 14.6867 13.8401 15.8325 13.8401 17.043C13.8401 18.2535 14.2616 19.3992 15.0007 20.412L18.6462 18.4683Z" fill="#FBBC05"/>
<path fill-rule="evenodd" clip-rule="evenodd" d="M24.7518 12.5248C26.3538 12.5248 27.7922 12.9033 28.923 13.6466L32.0527 11.495C30.163 10.2845 27.693 9.54109 24.7518 9.54109C20.4863 9.54109 16.7961 11.2222 15.0007 13.6739L18.6462 15.6175C19.5042 13.8444 21.9098 12.5248 24.7518 12.5248Z" fill="#EA4335"/>
</svg>
