<svg width="7" height="7" viewBox="0 0 7 7" fill="none" xmlns="http://www.w3.org/2000/svg">
<path fill-rule="evenodd" clip-rule="evenodd" d="M5.54171 3.20837H3.79171V1.45837C3.79171 1.29708 3.66105 1.1667 3.50005 1.1667C3.33905 1.1667 3.20838 1.29708 3.20838 1.45837V3.20837H1.45838C1.29738 3.20837 1.16672 3.33874 1.16672 3.50003C1.16672 3.66132 1.29738 3.7917 1.45838 3.7917H3.20838V5.5417C3.20838 5.70299 3.33905 5.83336 3.50005 5.83336C3.66105 5.83336 3.79171 5.70299 3.79171 5.5417V3.7917H5.54171C5.70271 3.7917 5.83338 3.66132 5.83338 3.50003C5.83338 3.33874 5.70271 3.20837 5.54171 3.20837Z" fill="#343C44"/>
</svg>
