<svg width="28" height="20" viewBox="0 0 28 20" fill="none" xmlns="http://www.w3.org/2000/svg">
<path fill-rule="evenodd" clip-rule="evenodd" d="M24.9299 20H2.07749C0.928638 20 0 19.4412 0 18.7512V6.25C0 5.56 0.928638 5 2.07749 5H5.19373V6.25H3.11624C2.54285 6.25 2.07749 6.53125 2.07749 6.875V18.125C2.07749 18.4713 2.54285 18.7512 3.11624 18.7512H23.8911C24.4625 18.7512 24.9299 18.4713 24.9299 18.125V6.875C24.9299 6.53125 24.4625 6.25 23.8911 6.25H21.8137V5H24.9299C26.0767 5 27.0074 5.56 27.0074 6.25V18.7512C27.0074 19.4412 26.0767 20 24.9299 20ZM18.0036 4.19617L14.5424 2.11365V14.375C14.5424 14.72 14.075 15 13.5037 15C12.9303 15 12.4649 14.72 12.4649 14.375V2.11365L9.00178 4.19617C8.60706 4.43492 7.96291 4.43492 7.56818 4.19617C7.17346 3.95992 7.17346 3.57121 7.56818 3.33496L12.6998 0.246124C12.706 0.241124 12.7184 0.238765 12.7246 0.233765C12.7475 0.217515 12.7393 0.19371 12.7642 0.17746C12.8037 0.15496 12.8596 0.162458 12.9011 0.144958C13.0549 0.0699585 13.2335 0.0186682 13.4433 0.00991821C13.46 0.00991821 13.4747 0.00366211 13.4892 0.00366211C13.4955 0.00366211 13.4995 0 13.5057 0C13.5119 0 13.5162 0.00241211 13.5225 0.00366211C13.5349 0.00241211 13.5432 0.00747681 13.5557 0.00747681C13.8029 0.0149768 14.0271 0.0736682 14.1996 0.166168C14.2141 0.174918 14.2371 0.17118 14.2495 0.17868C14.262 0.18868 14.2558 0.202461 14.2703 0.209961C14.2786 0.214961 14.2765 0.224921 14.2848 0.231171L19.4412 3.33496C19.838 3.57121 19.838 3.95992 19.4412 4.19617C19.0423 4.43617 18.4004 4.43617 18.0036 4.19617Z" fill="#2A2A2A"/>
</svg>
