<svg width="7" height="7" viewBox="0 0 7 7" fill="none" xmlns="http://www.w3.org/2000/svg">
<path fill-rule="evenodd" clip-rule="evenodd" d="M5.54161 3.20837H3.79161V1.45837C3.79161 1.29708 3.66095 1.1667 3.49995 1.1667C3.33894 1.1667 3.20828 1.29708 3.20828 1.45837V3.20837H1.45828C1.29728 3.20837 1.16661 3.33875 1.16661 3.50004C1.16661 3.66133 1.29728 3.79171 1.45828 3.79171H3.20828V5.54171C3.20828 5.703 3.33894 5.83338 3.49995 5.83338C3.66095 5.83338 3.79161 5.703 3.79161 5.54171V3.79171H5.54161C5.70261 3.79171 5.83328 3.66133 5.83328 3.50004C5.83328 3.33875 5.70261 3.20837 5.54161 3.20837" fill="#343C44"/>
</svg>
