<svg width="87" height="81" viewBox="0 0 87 81" fill="none" xmlns="http://www.w3.org/2000/svg">
<g filter="url(#filter0_dd_255_766)">
<rect x="3.29304" y="3.29301" width="80.1362" height="71.1209" rx="6.57488" fill="#4285F4"/>
<rect x="4.7956" y="5.29642" width="77.1311" height="67.1141" rx="3.28744" fill="white"/>
<path fill-rule="evenodd" clip-rule="evenodd" d="M60.0215 39.1967C60.0215 38.1259 59.911 37.0963 59.7059 36.1079H43.3612V41.9491H52.701C52.2987 43.8367 51.076 45.436 49.238 46.5068V50.2957H54.8467C58.1283 47.6668 60.0215 43.7955 60.0215 39.1967Z" fill="#4285F4"/>
<path fill-rule="evenodd" clip-rule="evenodd" d="M43.3612 53.9541C48.0469 53.9541 51.9753 52.6019 54.8467 50.2956L49.238 46.5067C47.684 47.4127 45.6961 47.9481 43.3612 47.9481C38.8411 47.9481 35.0152 45.2918 33.6505 41.7225H27.8525V45.635C30.7081 50.5702 36.5771 53.9541 43.3612 53.9541Z" fill="#34A853"/>
<path fill-rule="evenodd" clip-rule="evenodd" d="M33.6505 41.7226C33.3034 40.8166 33.1062 39.8488 33.1062 38.8535C33.1062 37.8582 33.3034 36.8904 33.6505 35.9844V32.0719H27.8525C26.6772 34.1105 26.0066 36.4168 26.0066 38.8535C26.0066 41.2902 26.6772 43.5965 27.8525 45.6351L33.6505 41.7226Z" fill="#FBBC05"/>
<path fill-rule="evenodd" clip-rule="evenodd" d="M43.3612 29.7587C45.9091 29.7587 48.1968 30.5206 49.9953 32.0169L54.9729 27.6858C51.9674 25.2491 48.039 23.7527 43.3612 23.7527C36.5771 23.7527 30.7081 27.1366 27.8525 32.0718L33.6505 35.9843C35.0152 32.415 38.8411 29.7587 43.3612 29.7587Z" fill="#EA4335"/>
</g>
<defs>
<filter id="filter0_dd_255_766" x="5.25414e-06" y="-2.53154e-05" width="86.7223" height="81" filterUnits="userSpaceOnUse" color-interpolation-filters="sRGB">
<feFlood flood-opacity="0" result="BackgroundImageFix"/>
<feColorMatrix in="SourceAlpha" type="matrix" values="0 0 0 0 0 0 0 0 0 0 0 0 0 0 0 0 0 0 127 0" result="hardAlpha"/>
<feOffset dy="3.28744"/>
<feGaussianBlur stdDeviation="1.64372"/>
<feColorMatrix type="matrix" values="0 0 0 0 0 0 0 0 0 0 0 0 0 0 0 0 0 0 0.168 0"/>
<feBlend mode="normal" in2="BackgroundImageFix" result="effect1_dropShadow_255_766"/>
<feColorMatrix in="SourceAlpha" type="matrix" values="0 0 0 0 0 0 0 0 0 0 0 0 0 0 0 0 0 0 127 0" result="hardAlpha"/>
<feOffset/>
<feGaussianBlur stdDeviation="1.64372"/>
<feColorMatrix type="matrix" values="0 0 0 0 0 0 0 0 0 0 0 0 0 0 0 0 0 0 0.084 0"/>
<feBlend mode="normal" in2="effect1_dropShadow_255_766" result="effect2_dropShadow_255_766"/>
<feBlend mode="normal" in="SourceGraphic" in2="effect2_dropShadow_255_766" result="shape"/>
</filter>
</defs>
</svg>
