<svg width="14" height="17" viewBox="0 0 14 17" fill="none" xmlns="http://www.w3.org/2000/svg">
<path fill-rule="evenodd" clip-rule="evenodd" d="M12.415 17H1.03458C0.462459 17 0 16.525 0 15.9385V5.31249C0 4.72599 0.462459 4.25 1.03458 4.25H2.58646V5.31249H1.55188C1.26633 5.31249 1.03458 5.55156 1.03458 5.84374V15.4062C1.03458 15.7005 1.26633 15.9385 1.55188 15.9385H11.8977C12.1822 15.9385 12.415 15.7005 12.415 15.4062V5.84374C12.415 5.55156 12.1822 5.31249 11.8977 5.31249H10.8631V4.25H12.415C12.9861 4.25 13.4496 4.72599 13.4496 5.31249V15.9385C13.4496 16.525 12.9861 17 12.415 17ZM8.96573 3.56674L7.24209 1.7966V12.2187C7.24209 12.512 7.00931 12.75 6.7248 12.75C6.43926 12.75 6.20751 12.512 6.20751 12.2187V1.7966L4.48286 3.56674C4.28629 3.76968 3.96551 3.76968 3.76893 3.56674C3.57236 3.36593 3.57236 3.03553 3.76893 2.83471L6.32446 0.209205C6.32756 0.204955 6.33373 0.20295 6.33683 0.1987C6.34821 0.184887 6.34412 0.164653 6.35653 0.150841C6.37619 0.131716 6.40404 0.13809 6.42473 0.123215C6.50129 0.0594647 6.59025 0.015868 6.69474 0.00843047C6.70302 0.00843047 6.71036 0.00311279 6.7176 0.00311279L6.72581 0L6.73415 0.00311279C6.74035 0.00205029 6.74448 0.00635528 6.75069 0.00635528C6.87381 0.0127303 6.98548 0.0626179 7.07135 0.141243C7.07859 0.14868 7.09002 0.145503 7.09623 0.151878C7.10243 0.160378 7.09934 0.172092 7.10658 0.178467C7.11072 0.182717 7.10964 0.191182 7.11378 0.196495L9.68168 2.83471C9.87928 3.03553 9.87928 3.36593 9.68168 3.56674C9.48304 3.77074 9.16333 3.77074 8.96573 3.56674Z" fill="#2A2A2A"/>
</svg>
