<svg width="18" height="16" viewBox="0 0 18 16" fill="none" xmlns="http://www.w3.org/2000/svg">
<path fill-rule="evenodd" clip-rule="evenodd" d="M16.4636 16H1.37196C0.613268 16 0 15.553 0 15.001V5.00001C0 4.44801 0.613268 4 1.37196 4H3.42991V5.00001H2.05795C1.67928 5.00001 1.37196 5.22501 1.37196 5.50001V14.5C1.37196 14.777 1.67928 15.001 2.05795 15.001H15.7776C16.1549 15.001 16.4636 14.777 16.4636 14.5V5.50001C16.4636 5.22501 16.1549 5.00001 15.7776 5.00001H14.4056V4H16.4636C17.2209 4 17.8355 4.44801 17.8355 5.00001V15.001C17.8355 15.553 17.2209 16 16.4636 16ZM11.8895 3.35694L9.60375 1.69092V11.5C9.60375 11.776 9.29506 12 8.91777 12C8.53911 12 8.23179 11.776 8.23179 11.5V1.69092L5.94473 3.35694C5.68406 3.54794 5.25866 3.54794 4.99799 3.35694C4.73732 3.16794 4.73732 2.85697 4.99799 2.66797L8.38687 0.1969C8.39098 0.1929 8.39917 0.191012 8.40328 0.187012C8.41837 0.174012 8.41294 0.154968 8.42941 0.141968C8.45548 0.123968 8.49241 0.129967 8.51984 0.115967C8.62137 0.0559669 8.73934 0.0149346 8.87791 0.00793458C8.88888 0.00793458 8.89862 0.00292969 8.90822 0.00292969C8.91234 0.00292969 8.91499 0 8.91911 0C8.92322 0 8.92605 0.00192969 8.93016 0.00292969C8.93839 0.00192969 8.94387 0.00598145 8.9521 0.00598145C9.11536 0.0119815 9.26345 0.0589346 9.37732 0.132935C9.38693 0.139935 9.40208 0.136944 9.41032 0.142945C9.41855 0.150945 9.41444 0.161969 9.42405 0.167969C9.42954 0.171969 9.42811 0.179937 9.43359 0.184937L12.8389 2.66797C13.1009 2.85697 13.1009 3.16794 12.8389 3.35694C12.5755 3.54894 12.1515 3.54894 11.8895 3.35694Z" fill="#2A2A2A"/>
</svg>
