<svg width="13" height="13" viewBox="0 0 13 13" fill="none" xmlns="http://www.w3.org/2000/svg">
<path fill-rule="evenodd" clip-rule="evenodd" d="M6.44498 13C6.44498 13 0 6.21525 0 3.80612C0 1.24104 1.17863 0 3.6253 0C4.83374 0 6.44498 2.09715 6.44498 2.09715C6.44498 2.09715 8.05623 0 9.26466 0C11.7113 0 12.89 1.24023 12.89 3.80612C12.89 6.21525 6.44498 13 6.44498 13ZM9.26466 0.839019C8.62903 0.839019 6.44498 2.93458 6.44498 2.93458C6.44498 2.93458 4.26013 0.839019 3.6253 0.839019C1.48396 0.839019 0.805623 1.75445 0.805623 3.91747C0.805623 5.95052 6.44498 11.741 6.44498 11.741C6.44498 11.741 12.0843 5.95052 12.0843 3.91747C12.0843 1.75445 11.406 0.839019 9.26466 0.839019Z" fill="#2A2A2A"/>
</svg>
