<svg width="16" height="13" viewBox="0 0 16 13" fill="none" xmlns="http://www.w3.org/2000/svg">
<path fill-rule="evenodd" clip-rule="evenodd" d="M7.60086 13C7.60086 13 0 6.21524 0 3.80611C0 1.24104 1.39001 0 4.27549 0C5.70065 0 7.60086 2.09715 7.60086 2.09715C7.60086 2.09715 9.50108 0 10.9262 0C13.8117 0 15.2017 1.24023 15.2017 3.80611C15.2017 6.21524 7.60086 13 7.60086 13ZM10.9262 0.839017C10.1766 0.839017 7.60086 2.93458 7.60086 2.93458C7.60086 2.93458 5.02417 0.839017 4.27549 0.839017C1.7501 0.839017 0.950108 1.75445 0.950108 3.91746C0.950108 5.95051 7.60086 11.741 7.60086 11.741C7.60086 11.741 14.2516 5.95051 14.2516 3.91746C14.2516 1.75445 13.4516 0.839017 10.9262 0.839017Z" fill="#2A2A2A"/>
</svg>
