<svg width="16" height="16" viewBox="0 0 16 16" fill="none" xmlns="http://www.w3.org/2000/svg">
<path d="M15.6262 8.14968C15.6262 7.49417 15.573 7.01582 15.4578 6.51976H7.97253V9.47842H12.3662C12.2777 10.2137 11.7993 11.321 10.7363 12.065L10.7214 12.1641L13.0881 13.9976L13.2521 14.0139C14.758 12.6231 15.6262 10.5769 15.6262 8.14968Z" fill="#4285F4"/>
<path d="M7.97254 15.945C10.1251 15.945 11.9322 15.2363 13.2521 14.0139L10.7363 12.065C10.0631 12.5345 9.15953 12.8622 7.97254 12.8622C5.86427 12.8622 4.07489 11.4715 3.43703 9.54925L3.34353 9.55719L0.882586 11.4617L0.850403 11.5512C2.16143 14.1555 4.85437 15.945 7.97254 15.945Z" fill="#34A853"/>
<path d="M3.43701 9.5493C3.2687 9.05324 3.1713 8.5217 3.1713 7.97251C3.1713 7.42326 3.2687 6.89177 3.42815 6.39571L3.42369 6.29006L0.931908 4.35492L0.850382 4.3937C0.310046 5.47443 0 6.68805 0 7.97251C0 9.25697 0.310046 10.4705 0.850382 11.5513L3.43701 9.5493Z" fill="#FBBC05"/>
<path d="M7.97254 3.08269C9.46958 3.08269 10.4794 3.72934 11.0552 4.26974L13.3052 2.07286C11.9234 0.788397 10.1251 0 7.97254 0C4.85437 0 2.16143 1.78937 0.850403 4.39371L3.42817 6.39573C4.07489 4.47347 5.86427 3.08269 7.97254 3.08269Z" fill="#EB4335"/>
</svg>
