<svg width="19" height="13" viewBox="0 0 19 13" fill="none" xmlns="http://www.w3.org/2000/svg">
<path fill-rule="evenodd" clip-rule="evenodd" d="M9.5 13C9.5 13 0 6.21524 0 3.80611C0 1.24104 1.73731 0 5.34375 0C7.125 0 9.5 2.09715 9.5 2.09715C9.5 2.09715 11.875 0 13.6562 0C17.2627 0 19 1.24023 19 3.80611C19 6.21524 9.5 13 9.5 13ZM13.6562 0.839017C12.7193 0.839017 9.5 2.93458 9.5 2.93458C9.5 2.93458 6.2795 0.839017 5.34375 0.839017C2.18738 0.839017 1.1875 1.75445 1.1875 3.91746C1.1875 5.95051 9.5 11.741 9.5 11.741C9.5 11.741 17.8125 5.95051 17.8125 3.91746C17.8125 1.75445 16.8126 0.839017 13.6562 0.839017Z" fill="#2A2A2A"/>
</svg>
