<svg width="24" height="12" viewBox="0 0 24 12" fill="none" xmlns="http://www.w3.org/2000/svg">
<path fill-rule="evenodd" clip-rule="evenodd" d="M6 9L0 12V1C0 0.447715 0.447715 0 1 0H11C11.5523 0 12 0.447715 12 1V12L6 9ZM10.8 1.75C10.8 1.19772 10.3523 0.75 9.8 0.75H2.2C1.64771 0.75 1.2 1.19772 1.2 1.75V10.5L6 7.875L10.8 10.5V1.75Z" fill="#2A2A2A"/>
<path fill-rule="evenodd" clip-rule="evenodd" d="M22.5475 4.69744C22.0865 4.69744 21.7124 4.2766 21.7124 3.75758C21.7124 3.23903 22.0865 2.81818 22.5475 2.81818C23.0084 2.81818 23.3826 3.23903 23.3826 3.75758C23.3826 4.27707 23.0084 4.69744 22.5475 4.69744ZM22.5475 3.28788C22.3166 3.28788 22.1299 3.4983 22.1299 3.75758C22.1299 4.01732 22.3166 4.22774 22.5475 4.22774C22.7779 4.22774 22.965 4.01732 22.965 3.75758C22.965 3.4983 22.7779 3.28788 22.5475 3.28788ZM20.0422 4.69744C19.5808 4.69744 19.2071 4.2766 19.2071 3.75758C19.2071 3.23903 19.5808 2.81818 20.0422 2.81818C20.5031 2.81818 20.8773 3.23903 20.8773 3.75758C20.8773 4.27707 20.5031 4.69744 20.0422 4.69744ZM20.0422 3.28788C19.8113 3.28788 19.6246 3.4983 19.6246 3.75758C19.6246 4.01732 19.8113 4.22774 20.0422 4.22774C20.2727 4.22774 20.4597 4.01732 20.4597 3.75758C20.4597 3.4983 20.2727 3.28788 20.0422 3.28788ZM17.5369 4.69744C17.0759 4.69744 16.7018 4.2766 16.7018 3.75758C16.7018 3.23903 17.0759 2.81818 17.5369 2.81818C17.9979 2.81818 18.372 3.23903 18.372 3.75758C18.372 4.27707 17.9979 4.69744 17.5369 4.69744ZM17.5369 3.28788C17.306 3.28788 17.1194 3.4983 17.1194 3.75758C17.1194 4.01732 17.306 4.22774 17.5369 4.22774C17.7674 4.22774 17.9544 4.01732 17.9544 3.75758C17.9544 3.4983 17.7674 3.28788 17.5369 3.28788Z" fill="#2A2A2A"/>
</svg>
