<svg width="20" height="20" viewBox="0 0 20 20" fill="none" xmlns="http://www.w3.org/2000/svg">
<g clip-path="url(#clip0_255_956)">
<path d="M13.9141 2.31211C14.1198 2.30208 14.4271 2.32268 14.5844 2.42293L14.4318 2.60525C13.9431 3.15389 13.4723 3.83399 13.257 4.50288C13.2159 4.65567 13.2528 4.77978 13.424 4.83858C13.7965 4.93128 14.217 4.93987 14.531 5.35598C14.9229 5.86454 14.1488 6.27039 14.531 6.74638C14.7173 7.03197 14.5891 7.4278 14.4512 7.69085C14.335 7.83364 14.1295 7.89377 14.0593 8.05661C14.3544 8.7255 13.4423 8.72971 13.5594 9.59645C15.2164 10.9242 16.5195 12.784 16.413 14.9461C16.2268 16.3992 14.6979 17.048 13.5416 17.311C12.0902 17.5967 10.3171 17.8096 9.09298 16.8551C7.94636 16.0233 7.23036 14.663 7.59318 13.1999C7.78912 12.521 8.09389 11.8821 8.57289 11.3235C8.35759 11.2107 8.10356 11.3235 7.86895 11.3235C7.72135 11.5264 7.76977 11.7995 7.77945 12.0525C7.5448 12.1853 7.2013 12.075 6.97633 12.2454C6.9473 12.6112 7.04409 12.8041 6.97633 13.1197C6.35948 13.1598 5.82974 13.2499 5.21286 13.2199C5.22253 11.5966 5.13733 9.95856 4.50653 8.57519C4.20271 7.9089 3.91293 7.2913 3.56553 6.59607C3.54618 6.45327 3.68436 6.43775 3.78079 6.40316C4.87903 6.32049 5.91679 6.38062 7.02474 6.26037L7.37792 6.13758C7.86898 5.5088 8.28022 4.85995 8.76886 4.22863C9.10269 3.95553 9.55259 4.15845 9.96631 4.0683C10.109 3.97561 10.0412 3.81277 9.98563 3.70254L9.30834 2.72801C9.17795 2.41569 9.55733 2.4041 9.72922 2.33218C10.3805 2.05977 10.5946 3.4262 11.1644 2.26781C11.6143 1.96468 11.8999 2.6327 12.3305 2.50991C12.6927 1.97094 13.4899 1.86332 13.9136 2.31176L13.9141 2.31211Z" fill="black"/>
<path d="M11.8455 4.59434C12.1382 5.10287 12.4914 5.56887 12.6874 6.1075C12.6874 6.1576 12.5705 6.25767 12.5318 6.26769C11.9319 6.34786 11.6841 5.75617 11.2439 5.49062C10.7818 5.64344 10.6192 6.07743 10.3168 6.42315C10.2563 6.83902 10.1208 7.36512 10.3361 7.7409C10.2369 8.18933 10.2369 8.68537 10.295 9.15384C10.0047 9.72002 9.56203 10.2186 9.12174 10.7146L7.76577 10.683L7.76164 10.6329C7.65282 9.3878 7.57353 7.83359 7.63158 6.57343C8.0743 5.90454 8.57353 5.18342 9.09365 4.57214C9.98567 4.5624 10.9812 4.53422 11.8446 4.59441L11.8455 4.59434Z" fill="white"/>
<path d="M14.1003 5.49859C14.197 5.62131 14.2351 5.86968 14.1963 6.01241C13.9012 6.1853 13.5995 6.10736 13.2754 6.05726C13.0988 5.8844 12.973 5.65141 12.9222 5.4059C13.3334 5.39581 13.7564 5.28551 14.1001 5.49845L14.1003 5.49859Z" fill="white"/>
<path d="M14.2165 7.03199C14.2262 7.24494 14.0956 7.452 13.8803 7.48206L11.021 7.67083C10.8568 7.67083 10.7536 7.58161 10.6678 7.42782C10.5807 7.23492 10.6568 7.05621 10.7863 6.9393C11.3064 6.66623 11.8916 6.72124 12.5691 6.66623C13.271 6.66136 14.1025 6.3757 14.2164 7.03192L14.2165 7.03199Z" fill="white"/>
<path d="M7.25912 7.35491C7.27847 8.70523 7.41639 10.0455 7.37765 11.3932C7.25912 11.4233 7.09221 11.4433 7.00512 11.3932C6.90594 9.88254 6.88659 8.39194 6.83821 6.88866C6.88656 6.76591 7.0825 6.81852 7.19139 6.83856L7.25926 7.35491H7.25912Z" fill="white"/>
<path d="M13.6575 8.29955C13.6575 8.54255 13.5002 8.71541 13.2753 8.73545C12.5906 8.76802 11.7517 8.78806 11.0671 8.81813C10.8809 8.78806 10.7667 8.70539 10.7377 8.49245C10.7377 8.36962 10.7699 8.16851 10.9962 8.11287C11.7606 8.11287 12.4527 8.04033 13.2365 8.00024C13.4038 8.00338 13.6387 8.07644 13.6578 8.29948L13.6575 8.29955Z" fill="white"/>
<path d="M12.9022 9.31524C13.0737 9.36712 13.1115 9.61301 13.0558 9.7478C13.0106 9.85689 12.9771 9.90372 12.764 9.92129L11.0316 10.0083C10.879 10.0083 10.7379 9.91311 10.7186 9.76277C10.6895 9.49721 10.9069 9.34036 11.1318 9.32035C11.7682 9.31026 12.2856 9.19509 12.9024 9.31548L12.9022 9.31524Z" fill="white"/>
<path d="M11.9782 14.3121C12.1479 14.3421 12.3383 14.4193 12.3383 14.6292C12.3383 14.8735 12.1976 14.9764 11.9782 14.9978V14.3124V14.3121ZM11.7841 13.6051C11.6102 13.5837 11.4571 13.4894 11.4571 13.3008C11.4571 13.138 11.5979 13.018 11.7841 13.0094V13.6054V13.6051ZM11.73 14.998C11.4775 14.998 11.2044 14.9508 10.9478 14.8436L10.8941 15.4522C11.0638 15.5208 11.4651 15.5636 11.73 15.5636V15.9322H11.9783V15.5636C12.4873 15.5551 13.0087 15.2636 13.0087 14.6379C13.0087 13.948 12.5576 13.7765 12.0321 13.6565V13.0094C12.268 13.0094 12.5618 13.0865 12.748 13.1808L12.7977 12.6022C12.6073 12.5079 12.2887 12.4694 12.0321 12.4694V12.1055H11.7838V12.4698C11.2375 12.4954 10.7865 12.7569 10.7865 13.3697C10.7865 13.9183 11.2665 14.2012 11.73 14.274V14.9981V14.998Z" fill="white"/>
</g>
<defs>
<clipPath id="clip0_255_956">
<rect width="20" height="20" fill="white"/>
</clipPath>
</defs>
</svg>
