<svg width="14" height="14" viewBox="0 0 14 14" fill="none" xmlns="http://www.w3.org/2000/svg">
<path d="M13.16 7.14584C13.16 6.69084 13.1192 6.25334 13.0433 5.83334H7V8.31543H10.4533C10.3046 9.11751 9.8525 9.79709 9.17292 10.2521V11.8621H11.2467C12.46 10.745 13.16 9.10001 13.16 7.14584V7.14584Z" fill="#4285F4"/>
<path d="M6.99999 13.4167C8.73249 13.4167 10.185 12.8421 11.2467 11.8621L9.17291 10.2521C8.59832 10.6371 7.86332 10.8646 6.99999 10.8646C5.32874 10.8646 3.91416 9.73584 3.40957 8.21918H1.26582V9.88168C2.32166 11.9788 4.49166 13.4167 6.99999 13.4167Z" fill="#34A853"/>
<path d="M3.40958 8.21918C3.28124 7.83418 3.20833 7.42293 3.20833 7.00001C3.20833 6.5771 3.28124 6.16585 3.40958 5.78085V4.11835H1.26583C0.831245 4.9846 0.583328 5.9646 0.583328 7.00001C0.583328 8.03543 0.831245 9.01543 1.26583 9.88168L3.40958 8.21918V8.21918Z" fill="#FBBC05"/>
<path d="M6.99999 3.13543C7.94207 3.13543 8.78791 3.45918 9.45291 4.09501L11.2933 2.25459C10.1821 1.21918 8.72957 0.583344 6.99999 0.583344C4.49166 0.583344 2.32166 2.02126 1.26582 4.11834L3.40957 5.78084C3.91416 4.26418 5.32874 3.13543 6.99999 3.13543Z" fill="#EA4335"/>
</svg>
