<svg width="76" height="55" viewBox="0 0 76 55" fill="none" xmlns="http://www.w3.org/2000/svg">
<path fill-rule="evenodd" clip-rule="evenodd" d="M54.416 27.7812C54.416 26.9037 54.3072 26.06 54.1051 25.25H38V30.0369H47.2029C46.8065 31.5838 45.6017 32.8944 43.7907 33.7719V36.8769H49.3171C52.5505 34.7225 54.416 31.55 54.416 27.7812Z" fill="#4285F4"/>
<path fill-rule="evenodd" clip-rule="evenodd" d="M38 39.8749C42.617 39.8749 46.4878 38.7668 49.3171 36.8768L43.7907 33.7718C42.2595 34.5143 40.3007 34.953 38 34.953C33.5462 34.953 29.7765 32.7761 28.4318 29.8511H22.7188V33.0574C25.5326 37.1018 31.3155 39.8749 38 39.8749Z" fill="#34A853"/>
<path fill-rule="evenodd" clip-rule="evenodd" d="M28.4318 29.8511C28.0898 29.1086 27.8955 28.3155 27.8955 27.4999C27.8955 26.6843 28.0898 25.8911 28.4318 25.1486V21.9424H22.7188C21.5607 23.613 20.9 25.503 20.9 27.4999C20.9 29.4968 21.5607 31.3868 22.7188 33.0574L28.4318 29.8511Z" fill="#FBBC05"/>
<path fill-rule="evenodd" clip-rule="evenodd" d="M38 20.0469C40.5106 20.0469 42.7647 20.6713 44.5369 21.8975L49.4415 18.3481C46.4801 16.3513 42.6092 15.125 38 15.125C31.3155 15.125 25.5326 17.8981 22.7188 21.9425L28.4318 25.1488C29.7765 22.2238 33.5462 20.0469 38 20.0469Z" fill="#EA4335"/>
</svg>
