<svg width="43" height="40" viewBox="0 0 43 40" fill="none" xmlns="http://www.w3.org/2000/svg">
<path d="M25.0868 15.3066C28.3703 17.9385 28.7856 21.9988 26.3338 24.993L26.3337 24.9929H26.3336C28.7855 21.9989 28.37 17.9387 25.0863 15.3064C24.9694 15.2127 24.8501 15.1219 24.7287 15.034C24.8504 15.1219 24.9701 15.2128 25.0868 15.3062V15.3066ZM40.9644 36.721L29.296 27.368C29.3317 27.3063 29.3517 27.2393 29.3551 27.1731C29.364 27.0301 29.3004 26.8853 29.1644 26.7762L27.826 25.7034C30.6745 22.1757 30.1693 17.4152 26.3125 14.3246C25.7069 13.8392 25.05 13.4199 24.3562 13.0677C23.6558 12.7109 22.9175 12.4222 22.1546 12.2014C18.1372 11.0347 13.464 11.7427 10.2441 14.3246C5.80625 17.8809 5.80625 23.6481 10.2441 27.2044C14.0998 30.2959 20.0388 30.7008 24.4399 28.4176L25.7783 29.4904C25.9779 29.6504 26.2746 29.6862 26.5166 29.5959L38.1851 38.9489L39.2468 39.8L39.384 39.9099L39.4309 39.8724L42.1634 37.6821L40.9644 36.721Z" fill="#CCCCCC"/>
<path d="M40.2206 39.2379L40.2674 39.2006L40.0834 39.1287L40.2206 39.2379Z" fill="#278279"/>
<path d="M41.801 36.05L39.0217 38.2779L40.0834 39.129L40.2675 39.2014L43 37.0111L41.801 36.05Z" fill="#278279"/>
<path d="M30.1326 26.6968C30.1025 26.7522 30.0579 26.8041 30.001 26.8497L27.5439 28.8191C27.487 28.8647 27.4224 28.8996 27.3532 28.9246L39.0217 38.2776L41.801 36.0498L30.1326 26.6968Z" fill="#295148"/>
<path d="M30.1325 26.6973C30.1682 26.6355 30.1882 26.5683 30.1916 26.502L29.9531 26.5532L30.1325 26.6973Z" fill="#278279"/>
<path d="M25.2763 27.7463L26.6147 28.8191C26.8144 28.9791 27.111 29.0149 27.3531 28.9246L25.6388 27.5505C25.5195 27.6185 25.399 27.6837 25.2763 27.7463" fill="#278279"/>
<path d="M30.001 26.8496C30.0578 26.804 30.1025 26.7522 30.1326 26.6967L29.9532 26.553L25.8428 27.4335C25.7749 27.4737 25.7069 27.5129 25.6389 27.5505L27.3532 28.9246C27.4223 28.8995 27.487 28.8647 27.5439 28.8191L30.001 26.8496Z" fill="#278279"/>
<path d="M29.953 26.5531L30.1914 26.5019C30.2003 26.3589 30.1368 26.2141 30.0007 26.105L28.6623 25.0322C28.5842 25.1306 28.5028 25.2271 28.4181 25.3228L29.953 26.5531Z" fill="#278279"/>
<g opacity="0.7">
<path opacity="0.7" d="M29.953 26.553L30.1914 26.5018C30.2003 26.3588 30.1368 26.214 30.0007 26.1049L28.6623 25.0321C28.5842 25.1304 28.5028 25.227 28.4181 25.3226L29.953 26.553Z" fill="#278279"/>
</g>
<path d="M27.1489 26.5332C26.7362 26.864 26.299 27.1644 25.8429 27.4335L25.8427 27.4336L29.953 26.5531L28.4181 25.3228C28.0467 25.7483 27.6229 26.1533 27.1489 26.5332" fill="#278279"/>
<g opacity="0.7">
<path opacity="0.7" d="M27.149 26.5333C26.7363 26.864 26.2991 27.1644 25.843 27.4335L25.8427 27.4336L29.9531 26.5531L28.4182 25.3228C28.0468 25.7483 27.623 26.1533 27.149 26.5333Z" fill="#278279"/>
</g>
<path d="M22.9911 11.5303L25.1928 12.3965C24.4924 12.0398 23.754 11.7511 22.9911 11.5303Z" fill="#0D6954"/>
<path d="M25.3914 27.3521L24.3912 26.5503C20.656 28.5153 15.5902 28.1828 12.3067 25.5508C12.1902 25.4574 12.0769 25.3614 11.9671 25.2639C11.9664 25.2632 11.9656 25.2626 11.9649 25.2619C11.9588 25.2566 11.9525 25.2513 11.9465 25.246C11.9481 25.2471 11.9497 25.2481 11.9512 25.2493C8.55147 22.2194 8.66969 17.5517 12.307 14.6358C15.9443 11.7203 21.7674 11.6255 25.548 14.3506C25.5466 14.3494 25.5452 14.3481 25.5439 14.3468C25.5506 14.3517 25.5572 14.3567 25.5638 14.3616C25.5646 14.3621 25.5655 14.3627 25.5663 14.3634C25.6879 14.4512 25.8077 14.5422 25.9242 14.6356C29.2077 17.2675 29.6231 21.3278 27.1713 24.322L28.1716 25.1238L28.475 24.8806L28.6635 25.0317C31.512 21.504 31.0067 16.7434 27.15 13.6529C26.5444 13.1675 25.8874 12.7482 25.1937 12.3959L22.9921 11.5297C18.9747 10.363 14.3015 11.071 11.0816 13.6529C6.64371 17.2092 6.64371 22.9764 11.0816 26.5327C14.9372 29.6241 20.8763 30.0291 25.2774 27.7459L25.0889 27.5948L25.3922 27.3516L25.3914 27.3521Z" fill="#0D6954"/>
<path d="M27.1702 24.3225C26.8147 24.7568 26.3993 25.1689 25.9232 25.5507C25.4468 25.9323 24.9328 26.2654 24.3909 26.5503L25.3911 27.3521L28.1705 25.1242L27.1702 24.3225Z" fill="#0D6954"/>
<path d="M25.5664 27.4927L25.0876 27.5953L25.2761 27.7464C25.3988 27.6838 25.5192 27.6186 25.6385 27.5506L25.5664 27.4927Z" fill="#0D6954"/>
<path d="M25.6389 27.5498C25.7068 27.5125 25.7749 27.4736 25.8428 27.4336L25.5667 27.4923L25.6389 27.5498Z" fill="#0D6954"/>
<path d="M25.3911 27.3523L25.0878 27.5955L25.3911 27.3523Z" fill="#0D6954"/>
<path d="M28.1707 25.1243L25.3914 27.3521L28.1707 25.1243Z" fill="#0D6954"/>
<path d="M25.0878 27.5955L25.5666 27.4928L25.3912 27.3523L25.0878 27.5955Z" fill="#0D6954"/>
<path d="M27.1491 26.5332C27.6231 26.1533 28.0469 25.7483 28.4183 25.3227L28.1707 25.1243L25.3914 27.3521L25.5668 27.4926L25.8428 27.4336L25.8431 27.4335C26.2992 27.1644 26.7364 26.864 27.1491 26.5332" fill="#0D6954"/>
<path d="M25.1917 24.9644C26.7179 23.7415 27.6222 22.2097 27.9097 20.62C26.4253 21.5218 23.0471 23.2658 19.1143 23.2658C13.8121 23.2658 9.51363 20.093 9.51363 20.093C9.51363 20.093 11.8736 18.3506 15.2531 17.4485C16.4353 17.1329 17.7413 16.9202 19.1143 16.9202C20.4884 16.9202 21.7955 17.1329 22.9766 17.4485C25.255 18.0572 27.0686 19.0465 28.0095 19.627C28.0458 17.741 27.2261 15.8465 25.5471 14.351C21.7671 11.6259 15.9439 11.7207 12.3061 14.6362C8.66878 17.5517 8.55056 22.2193 11.9503 25.2497C15.7303 27.9765 21.5544 27.8807 25.1913 24.9648" fill="#0BA587"/>
<path d="M25.563 14.3616C25.5641 14.3623 25.5651 14.3632 25.5662 14.364C25.5651 14.3632 25.5641 14.3623 25.563 14.3616Z" fill="#0BA587"/>
<path d="M11.9667 25.2648C11.9657 25.2638 11.9647 25.2628 11.9639 25.2617C11.9647 25.2628 11.9657 25.2638 11.9667 25.2648Z" fill="#0BA587"/>
<path d="M25.5429 14.3472C25.5442 14.3485 25.5454 14.3499 25.5468 14.3511C25.5515 14.3551 25.5565 14.3588 25.5614 14.3627C25.5553 14.3575 25.5491 14.3523 25.5429 14.3472" fill="#0D6954"/>
<g opacity="0.3">
<path opacity="0.3" d="M25.5429 14.3465C25.5442 14.3478 25.5454 14.3492 25.5468 14.3504C25.5515 14.3544 25.5565 14.3581 25.5614 14.3621C25.5553 14.3569 25.5491 14.3516 25.5429 14.3465" fill="#0BA587"/>
</g>
<path d="M12.3061 25.5507C12.1893 25.4569 12.0759 25.3614 11.9663 25.2642C12.0761 25.3616 12.1894 25.4576 12.3059 25.551C15.5894 28.183 20.6549 28.5159 24.3904 26.5506L24.3902 26.5504C20.655 28.5158 15.5896 28.1828 12.3057 25.5507" fill="#0D6954"/>
<g opacity="0.3">
<path opacity="0.3" d="M12.3061 25.5507C12.1892 25.457 12.0759 25.3615 11.9662 25.2642C12.076 25.3617 12.1893 25.4577 12.3059 25.5511C15.5894 28.183 20.6548 28.5159 24.3904 26.5507L24.3901 26.5505C20.6549 28.5158 15.5896 28.1828 12.3056 25.5507" fill="#0BA587"/>
</g>
<path d="M11.946 25.2458C11.9515 25.2515 11.9571 25.2571 11.9627 25.2627C11.9584 25.2582 11.9545 25.2537 11.9503 25.2493C11.949 25.2481 11.9474 25.247 11.946 25.2458Z" fill="#0D6954"/>
<g opacity="0.3">
<path opacity="0.3" d="M11.946 25.2447C11.9514 25.2505 11.957 25.2561 11.9626 25.2617C11.9584 25.2572 11.9544 25.2526 11.9502 25.2483C11.9489 25.247 11.9474 25.2459 11.946 25.2447Z" fill="#0BA587"/>
</g>
<path d="M27.1702 24.3224L27.17 24.3223H27.1699C26.8144 24.7565 26.3989 25.1684 25.9227 25.5503C25.4463 25.932 24.9324 26.265 24.3907 26.55L24.3909 26.5502C24.9327 26.2653 25.4468 25.9323 25.9231 25.5506C26.3992 25.1688 26.8147 24.7567 27.1702 24.3224" fill="#0D6954"/>
<g opacity="0.3">
<path opacity="0.3" d="M27.1702 24.3223L27.17 24.3221H27.1699C26.8144 24.7563 26.3989 25.1683 25.9227 25.5501C25.4463 25.9319 24.9324 26.2649 24.3907 26.5499L24.3909 26.55C24.9327 26.2651 25.4468 25.9321 25.9231 25.5505C26.3992 25.1686 26.8147 24.7566 27.1702 24.3223" fill="#0BA587"/>
</g>
<path d="M24.3909 26.5502L24.208 26.4037L26.9874 24.1758L27.1702 24.3225C29.6221 21.3285 29.2067 17.2683 25.9229 14.636C25.8059 14.5423 25.6868 14.4515 25.5655 14.3636C25.5646 14.363 25.5638 14.3624 25.5629 14.3618C25.5577 14.3581 25.5523 14.3546 25.5472 14.3508C27.2262 15.8463 28.0458 17.7409 28.0096 19.6268C28.4642 19.9073 28.7162 20.0928 28.7162 20.0928C28.7162 20.0928 28.4271 20.3056 27.9098 20.6198C27.6222 22.2095 26.7179 23.7413 25.1917 24.9642C21.555 27.88 15.7309 27.9759 11.9507 25.2491C11.9554 25.2532 11.9597 25.2575 11.9644 25.2617C11.9651 25.2624 11.9659 25.263 11.9666 25.2637C12.0763 25.361 12.1896 25.4565 12.3065 25.5503C15.5902 28.1824 20.6555 28.5154 24.3909 26.55" fill="#0BA587"/>
<g opacity="0.3">
<path opacity="0.3" d="M24.3909 26.5503L24.208 26.4038L26.9874 24.176L27.1702 24.3226C29.6221 21.3286 29.2066 17.2684 25.9229 14.6361C25.8059 14.5424 25.6868 14.4516 25.5654 14.3637C25.5645 14.3631 25.5638 14.3625 25.5629 14.3619C25.5576 14.3582 25.5523 14.3547 25.5471 14.351C27.2262 15.8464 28.0458 17.741 28.0096 19.627C28.4642 19.9074 28.7161 20.0929 28.7161 20.0929C28.7161 20.0929 28.427 20.3057 27.9097 20.6199C27.6222 22.2096 26.7179 23.7414 25.1917 24.9643C21.555 27.8802 15.7309 27.976 11.9506 25.2492C11.9553 25.2533 11.9597 25.2576 11.9643 25.2618C11.965 25.2625 11.9658 25.2632 11.9666 25.2639C12.0762 25.3611 12.1895 25.4566 12.3064 25.5504C15.5901 28.1825 20.6555 28.5155 24.3909 26.5502" fill="#0BA587"/>
</g>
<path d="M24.208 26.4034L24.3909 26.5499C24.9326 26.2649 25.4465 25.9319 25.9229 25.5502C26.3991 25.1683 26.8146 24.7564 27.1701 24.3222L26.9873 24.1755L24.208 26.4034Z" fill="#0BA587"/>
<g opacity="0.3">
<path opacity="0.3" d="M24.2079 26.4035L24.3909 26.55C24.9326 26.265 25.4465 25.932 25.9228 25.5503C26.3991 25.1685 26.8145 24.7565 27.1701 24.3223L26.9873 24.1757L24.2079 26.4035Z" fill="#0BA587"/>
</g>
<path d="M28.0089 19.6272C28.006 19.7743 27.9994 19.9213 27.9862 20.0681C27.9989 20.0763 28.0122 20.0848 28.0244 20.0927C28.0105 20.1017 27.9946 20.1118 27.9798 20.1211C26.7821 20.888 23.2349 22.9084 19.1137 22.9084C14.9437 22.9084 11.3591 20.838 10.2043 20.0929C10.9807 19.5907 12.8561 18.4879 15.2609 17.8244C15.2532 17.7446 15.248 17.6642 15.248 17.5828C15.248 17.5381 15.2491 17.4925 15.2525 17.4487C11.8731 18.3508 9.51306 20.0932 9.51306 20.0932C9.51306 20.0932 13.8115 23.266 19.1137 23.266C23.0466 23.266 26.4247 21.522 27.9091 20.6202C28.4264 20.3059 28.7155 20.0932 28.7155 20.0932C28.7155 20.0932 28.4635 19.9077 28.0089 19.6272" fill="#295148"/>
<path d="M22.981 17.5828C22.981 17.6643 22.9759 17.7446 22.9682 17.8245C25.3404 18.4795 27.19 19.556 27.9867 20.0681C27.9998 19.9214 28.0065 19.7743 28.0094 19.6272C27.0685 19.0468 25.2549 18.0575 22.9765 17.4487C22.9799 17.4925 22.981 17.5381 22.981 17.5828" fill="#295148"/>
<path d="M19.1142 20.681C17.0811 20.681 15.4153 19.4221 15.2614 17.824C12.8566 18.4875 10.9812 19.5902 10.2048 20.0925C11.3596 20.8376 14.9442 22.908 19.1142 22.908C23.2354 22.908 26.7826 20.8876 27.9803 20.1207C27.9822 20.103 27.985 20.0853 27.9867 20.0677C27.19 19.5556 25.3405 18.4791 22.9682 17.8241C22.8142 19.4222 21.1485 20.681 19.1142 20.681" fill="#F9FBED"/>
<path d="M20.8597 18.8012C20.5273 18.8012 20.2578 18.5851 20.2578 18.3186C20.2578 18.0522 20.5273 17.8361 20.8597 17.8361C21.1922 17.8361 21.4618 18.0522 21.4618 18.3186C21.4618 18.5851 21.1922 18.8012 20.8597 18.8012ZM22.9769 17.449C21.7958 17.1334 20.4886 16.9207 19.1146 16.9207C17.7416 16.9207 16.4356 17.1334 15.2533 17.449C15.25 17.4928 15.2489 17.5384 15.2489 17.5831C15.2489 17.6645 15.254 17.7448 15.2617 17.8247C15.4156 19.4228 17.0814 20.6817 19.1146 20.6817C21.1488 20.6817 22.8145 19.4229 22.9685 17.8248C22.9762 17.7449 22.9814 17.6646 22.9814 17.5831C22.9814 17.5384 22.9803 17.4928 22.9769 17.449" fill="#295148"/>
<path d="M20.8596 17.8354C20.5273 17.8354 20.2577 18.0515 20.2577 18.3179C20.2577 18.5844 20.5273 18.8005 20.8596 18.8005C21.1921 18.8005 21.4617 18.5844 21.4617 18.3179C21.4617 18.0515 21.1921 17.8354 20.8596 17.8354Z" fill="white"/>
<path d="M24.1673 35.3462C24.3233 35.3045 24.3656 35.2937 24.4289 35.2749L24.4069 35.2122C25.0492 35.0252 25.3531 34.9267 26.0126 34.6824L26.0412 34.7429L26.331 34.6293L26.234 34.4336C25.5149 34.716 24.8679 34.9357 24.0991 35.141L24.1673 35.3462ZM24.4289 35.2749C25.1076 35.0774 25.3906 34.984 26.0412 34.7429L26.1541 34.982C25.4884 35.2287 25.1856 35.3277 24.5158 35.5226L24.4289 35.2749ZM7.38569 20.338L6.06328 20.3965C6.06531 20.8169 6.20901 21.8209 6.39365 22.4927L5.22926 22.7392C5.30949 23.0341 5.28344 22.9431 5.33424 23.111L4.99081 23.1937C5.15009 23.7229 5.27117 24.0206 5.36144 24.2507L5.69569 24.1419C5.71456 24.1902 5.68811 24.1261 5.83304 24.4681L6.25904 24.3173C6.45198 24.7397 6.53373 24.9105 6.76856 25.3341L7.00727 25.226L6.97126 25.1609L7.06236 25.1203L7.0981 25.1849L7.33678 25.0769L7.30179 25.0135L7.39304 24.9729C7.59047 25.3298 7.79714 25.6559 8.00799 25.9586L6.37646 26.8736C6.5093 27.0647 6.66043 27.2678 6.67922 27.2917L6.31594 27.5128C6.6293 27.9181 6.88688 28.2367 7.29066 28.6648L7.62613 28.4108C7.77538 28.5691 7.70246 28.4942 7.95825 28.7527L8.12032 28.6214C7.86594 28.3642 7.93617 28.4364 7.84276 28.3372L7.959 28.2482C8.05094 28.3459 7.98034 28.2733 8.23369 28.5295L8.37394 28.4158C8.12471 28.1638 8.1946 28.2357 8.10281 28.1382L8.21905 28.0492C8.30943 28.1453 8.23915 28.0729 8.4873 28.3239L8.6276 28.2102C8.38288 27.9627 8.4534 28.0353 8.36292 27.9391L8.47921 27.8502C8.5682 27.9448 8.49763 27.8721 8.74102 28.1183L8.88127 28.0046C8.64187 27.7624 8.7117 27.8344 8.62303 27.7401L8.73921 27.6512C8.82666 27.7442 8.75603 27.6715 8.99456 27.9128L9.13491 27.799C8.90017 27.5616 8.97037 27.634 8.88311 27.5411L8.9993 27.4523C9.08507 27.5435 9.01518 27.4714 9.2482 27.7072L9.38855 27.5935C9.15822 27.3604 9.22914 27.4336 9.14321 27.3421L9.2594 27.2533C9.34382 27.3432 9.27361 27.2707 9.50187 27.5016L9.64211 27.3879C9.41708 27.1602 9.48734 27.2328 9.40321 27.1432L9.51951 27.0542C9.60259 27.1427 9.53199 27.0698 9.75553 27.296L9.89578 27.1823C9.67657 26.9605 9.74606 27.0324 9.66332 26.9442L9.77951 26.8553C9.86118 26.9423 9.79063 26.8694 10.0091 27.0905L10.08 27.033C10.111 27.0646 10.0864 27.0404 10.1974 27.147C9.49535 27.7325 9.04988 28.1041 8.46037 28.5958C8.61533 28.7451 8.56065 28.6936 8.71609 28.8362C7.8307 29.6134 7.42295 29.9714 6.53908 30.7473C6.68473 30.881 6.63212 30.8338 6.78434 30.9677L6.51231 31.2162C6.67832 31.3615 6.70418 31.3846 6.72199 31.3989L6.56412 31.5479C7.06198 31.9636 7.41742 32.2485 8.0709 32.6978L8.20974 32.5342C8.36273 32.6394 8.30211 32.5987 8.49348 32.724L8.72256 32.4428C8.93495 32.5817 8.87116 32.541 9.0171 32.6318L10.3169 30.9651C10.7356 31.2255 10.9923 31.3694 11.3208 31.5434L11.5747 31.1563C11.6755 31.2098 11.6989 31.2226 11.7388 31.2422L11.791 31.1601C12.0293 31.2794 12.222 31.3759 12.4811 31.4911L12.601 31.2768C12.3482 31.1644 12.1597 31.0701 11.9236 30.9519L11.9746 30.8717C12.0013 30.885 12.3644 31.0687 12.5652 31.1578L12.6865 30.9442C12.4956 30.8595 12.1338 30.6768 12.1072 30.6635L12.1583 30.5833C12.4607 30.735 12.3548 30.6833 12.6542 30.8251L12.7771 30.6122C12.4833 30.4731 12.5875 30.5239 12.2908 30.3751L12.3418 30.2949C12.6532 30.451 12.5313 30.3915 12.7478 30.4939L12.8723 30.2817C12.6671 30.1846 12.7805 30.2401 12.4744 30.0867L12.5254 30.0064C12.8292 30.1586 12.7336 30.1118 12.8457 30.1647L12.9717 29.9532C12.8628 29.902 12.959 29.949 12.658 29.7982L12.709 29.7181L12.9477 29.8377L13.0752 29.627L12.8415 29.5098L12.8926 29.4296L13.055 29.511L13.184 29.301L13.0251 29.2214L13.0761 29.1412L13.1664 29.1863L13.2969 28.977L13.2087 28.933L13.245 28.8758C13.5346 29.021 13.4052 28.9574 13.6239 29.061L13.0107 30.1134C13.0855 30.149 13.1011 30.1567 13.1296 30.1691L13.7305 29.111L13.8025 29.1429L13.2097 30.2047L13.3298 30.2582L11.3026 33.9859C11.3709 34.0171 11.4139 34.0345 11.5922 34.1091L11.4137 34.4533L11.5623 34.5154L11.4803 34.6772C11.507 34.6887 12.1702 34.96 13.0206 35.2289L13.0856 35.0611C13.2908 35.1258 13.595 35.2139 13.7487 35.2551L13.691 35.425C14.3841 35.6099 14.6805 35.6726 15.298 35.793L15.3381 35.619C15.3904 35.6289 15.3498 35.6218 15.6199 35.6683L15.6989 35.2954C15.9257 35.3343 15.8613 35.3238 15.9748 35.3408L16.5177 32.533C16.6196 32.5481 16.9463 32.5986 17.2187 32.6262L16.4843 37.9802L16.7645 38.009L16.6996 38.5424L16.8439 38.5569L16.8155 38.8068C17.6319 38.8761 17.9502 38.8835 18.39 38.8982L18.3979 38.647C18.4507 38.6493 18.5313 38.6501 18.9041 38.6542L18.9029 38.9054C19.3664 38.9133 20.0153 38.886 20.478 38.8597L20.4588 38.609C20.6395 38.5985 20.5818 38.6024 20.7117 38.5923L20.6634 38.0575L20.909 38.038L20.1523 30.752C20.2769 30.7423 20.2406 30.7455 20.3106 30.7382L20.5874 33.0763C20.966 33.0376 20.8285 33.053 21.1388 33.0141L21.2014 33.4038C21.8385 33.3241 22.3424 33.2192 22.7823 33.123L22.6741 32.7414C22.7283 32.7295 22.6896 32.7386 22.8767 32.6931L23.6465 35.256C23.9167 35.1904 23.8529 35.2064 23.9827 35.1719L23.9507 35.0732C24.9333 34.8113 25.4793 34.6175 26.2928 34.2981L26.34 34.3917L26.7062 34.2384L24.948 30.9535C24.9746 30.9423 25.1795 30.8531 25.4278 30.7355L25.9906 31.6892C26.1726 31.6031 26.0867 31.6451 26.365 31.5055L26.5814 31.8482C27.0166 31.6303 27.5694 31.3047 27.6336 31.2631L27.3872 30.9371C27.7092 30.7367 27.6365 30.7827 27.7055 30.7379L27.5472 30.5396C27.8292 30.3552 27.7319 30.4203 28.0028 30.2345L29.8013 32.3126C29.9095 32.2381 29.8608 32.2724 30.0401 32.1431L30.2392 32.3651C30.3833 32.261 30.4222 32.2336 30.4794 32.1894L30.9651 32.7124C31.0496 32.6484 31.2302 32.5117 31.2547 32.4923L31.8864 33.1453C32.2685 32.8413 32.174 32.9187 32.4532 32.6856L31.7938 32.055C31.9304 31.9409 31.873 31.9901 32.068 31.8196L31.5378 31.3325C31.7239 31.1694 31.6636 31.2234 31.7905 31.107L31.5641 30.907C31.7221 30.7619 31.7642 30.7237 31.7869 30.7012L31.6062 30.5474C31.5359 30.6133 31.3128 30.82 31.1938 30.9231C31.0072 30.7531 31.1442 30.8779 31.0599 30.8011C31.1584 30.7161 31.4376 30.4591 31.4678 30.4295L30.4647 29.5753C30.7287 29.4767 30.8908 29.4028 31.1176 29.287L31.4232 29.5261C31.6823 29.2642 32.0747 28.8198 32.2407 28.6157C32.2897 28.6429 32.3386 28.67 32.3873 28.697C32.0764 29.0791 31.7062 29.4666 31.5941 29.5855L32.0945 29.9741C32.3372 29.7168 32.629 29.4069 32.9458 29.0177C32.9987 29.0486 33.0515 29.0794 33.1043 29.1102C32.8231 29.4557 32.5646 29.7379 32.2796 30.0401L32.7687 30.4171C33.0995 30.0663 33.3427 29.7983 33.6474 29.424L33.8212 29.5233C33.5108 29.9028 33.2957 30.1438 32.969 30.4904L33.4469 30.856C33.804 30.477 34.0319 30.2196 34.3553 29.8225C34.4191 29.8577 34.4825 29.8926 34.5456 29.9275C34.2686 30.2676 34.032 30.5441 33.6629 30.9363L34.1293 31.2903C34.5084 30.8875 34.7406 30.6175 35.0713 30.2111C35.1468 30.2514 35.2214 30.2912 35.2952 30.3306C33.6896 32.5 34.9619 32.224 36.1911 30.7977C37.1157 31.2674 37.4587 31.4242 37.8955 31.6274L37.9941 31.4998C36.3886 30.2003 36.4783 30.521 36.7554 30.0053C37.6012 28.3691 37.1498 28.038 35.7258 29.7727C35.6588 29.7247 35.5909 29.676 35.5223 29.6268C35.8835 29.1342 36.0778 28.8399 36.3304 28.4352L35.7963 28.169C35.5592 28.5489 35.362 28.8479 35.0414 29.2854C34.9829 29.2446 34.9241 29.2037 34.8649 29.1624C35.1955 28.7106 35.3796 28.4279 35.6362 28.0163L35.086 27.7445C34.8653 28.0987 34.663 28.4127 34.3648 28.8193L34.1999 28.7084C34.5101 28.2852 34.7218 27.9509 34.939 27.6022L34.3729 27.3251C34.1817 27.632 33.9609 27.9817 33.6814 28.3628C33.6307 28.3294 33.5798 28.2959 33.529 28.2624C33.8027 27.889 34.1621 27.3285 34.2381 27.1929L33.6559 26.9104C33.582 27.0431 33.2216 27.6013 32.9979 27.9063C32.9621 27.8816 32.9263 27.8569 32.8904 27.8321C34.7122 25.5488 34.2832 22.5235 31.8384 21.3227C31.8448 21.2821 31.8391 21.3229 31.8626 21.1371C30.6668 21.0156 31.4467 21.0749 30.5595 20.9077C30.5611 20.8978 30.5878 20.636 30.5914 20.5812L31.912 20.6671L31.9203 20.5466L30.5989 20.4729C30.6208 20.174 30.6201 19.9775 30.623 19.8118H28.7135C28.4824 31.2433 9.51546 31.4424 9.28021 19.8118H7.37069C7.3755 20.135 7.37247 20.0226 7.38559 20.3377L7.38569 20.338ZM35.4189 30.9561C35.5186 31.0237 35.2771 31.2481 35.2822 31.0483C35.284 30.9776 35.33 30.8958 35.4189 30.9561ZM35.6428 30.6856C35.7437 30.7515 35.5081 30.981 35.5085 30.7805C35.5085 30.7095 35.5527 30.6268 35.6428 30.6856ZM36.5276 29.505C36.423 29.447 36.6329 29.2023 36.6539 29.4006C36.6606 29.4712 36.6222 29.5575 36.5276 29.505ZM36.112 30.0848C36.2175 30.1481 35.988 30.3832 35.9814 30.1842C35.9796 30.114 36.0196 30.0294 36.112 30.0848ZM17.2725 31.4387C16.9671 31.4005 17.0758 31.4154 16.7646 31.3695L17.0102 30.0871C17.2862 30.128 17.1903 30.1148 17.4616 30.1487L17.2725 31.4387ZM16.3032 32.1006C16.1434 32.0733 15.921 32.0308 15.6749 31.9768L15.7645 31.6473C15.9777 31.6941 16.1976 31.7373 16.3757 31.7676L16.3032 32.1006ZM15.5056 32.599C15.7626 32.6554 15.99 32.699 16.1663 32.7292L16.0938 33.062C15.9191 33.0321 15.6841 32.9873 15.416 32.9285L15.5056 32.599ZM12.3898 34.0956C12.0404 33.9664 11.7851 33.8579 11.6625 33.8065L11.8236 33.4998C11.8848 33.5254 12.1797 33.6512 12.5349 33.7824L12.3898 34.0956ZM12.8088 33.1908C12.4828 33.0705 12.2265 32.9616 12.1278 32.9202L12.2889 32.6134C12.3613 32.6437 12.6263 32.7568 12.9538 32.8776L12.8088 33.1908ZM13.2278 32.2861C12.9269 32.1753 12.6705 32.0663 12.5931 32.0339L12.7542 31.7271C12.8187 31.7541 13.0693 31.8612 13.3728 31.9729L13.2278 32.2861ZM13.4372 31.8338C13.1492 31.7277 12.9001 31.6219 12.8258 31.5908L12.9869 31.2839C13.0492 31.31 13.2918 31.4137 13.5823 31.5206L13.4372 31.8338ZM13.8562 30.9291C13.594 30.8327 13.3574 30.7323 13.2911 30.7045L13.4521 30.3976C13.4789 30.4088 13.7303 30.5164 14.0013 30.6159L13.8562 30.9291ZM14.2752 30.0244C14.1701 29.9858 14.0123 29.9254 13.7563 29.8182L13.9175 29.5112C14.1581 29.6121 14.3058 29.6691 14.4202 29.7111L14.2752 30.0244ZM13.4616 34.4585C13.0112 34.3162 13.1713 34.3688 12.7144 34.2135L12.8523 33.8978C13.2989 34.0496 13.1426 33.9982 13.5829 34.1373L13.4616 34.4585ZM13.6369 33.9946C13.1909 33.8537 13.3455 33.9043 12.9135 33.7574L13.0514 33.4417C13.4826 33.5883 13.3324 33.5389 13.7582 33.6734L13.6369 33.9946ZM13.9874 33.0667C13.5709 32.9352 13.7153 32.9824 13.3118 32.8452L13.4496 32.5294C13.8525 32.6664 13.7117 32.6201 14.1088 32.7456L13.9874 33.0667ZM14.1627 32.6028C13.7609 32.4759 13.9002 32.5214 13.5109 32.3891L13.6488 32.0733C14.0371 32.2053 13.9012 32.1607 14.2841 32.2816L14.1627 32.6028ZM14.338 32.139C13.9509 32.0167 14.085 32.0605 13.71 31.933L13.8479 31.6172C14.2216 31.7443 14.091 31.7014 14.4594 31.8177L14.338 32.139ZM14.6885 31.2111C14.3387 31.1006 14.4631 31.1415 14.1083 31.0208L14.2461 30.705C14.5907 30.8222 14.4703 30.7826 14.8099 30.8899L14.6885 31.2111ZM15.0391 30.2833C14.7108 30.1796 14.8246 30.2168 14.5065 30.1086L14.6444 29.7928C14.9593 29.8999 14.8496 29.8638 15.1605 29.9621L15.0391 30.2833ZM14.6989 34.2811C14.3401 34.1941 14.0942 34.1278 13.9594 34.0886L14.0734 33.7652C14.2114 33.8054 14.4544 33.8705 14.796 33.9534L14.6989 34.2811ZM14.9795 33.3343C14.9422 33.3253 14.5847 33.2408 14.2887 33.1545L14.4027 32.8312C14.5143 32.8637 14.7306 32.9226 15.0766 33.0066L14.9795 33.3343ZM15.1197 32.861C15.0887 32.8534 14.7407 32.7713 14.4534 32.6875L14.5674 32.3641C14.7513 32.4178 15.0298 32.4878 15.2169 32.5332L15.1197 32.861ZM15.4003 31.9142C15.0818 31.8368 14.8816 31.7824 14.7827 31.7534L14.8967 31.43C14.9913 31.4577 15.1855 31.5106 15.4974 31.5864L15.4003 31.9142ZM15.6808 30.9674C15.5249 30.9296 15.2645 30.8642 15.112 30.8194L15.226 30.4959C15.3161 30.5224 15.4939 30.5706 15.778 30.6396L15.6808 30.9674ZM15.8211 30.4941C15.7945 30.4876 15.5022 30.4186 15.2766 30.3524L15.3907 30.0289C15.4733 30.0532 15.6436 30.0995 15.9182 30.1662L15.8211 30.4941ZM15.3761 33.0748C15.6441 33.1336 15.8778 33.1784 16.0615 33.2099L15.9891 33.5427C15.8069 33.5115 15.5656 33.4655 15.2865 33.4043L15.3761 33.0748ZM15.6751 34.9849C15.4693 34.9495 15.2101 34.9001 14.8982 34.8319L14.9879 34.5025C15.2869 34.5679 15.5386 34.6162 15.7475 34.6521L15.6751 34.9849ZM15.7798 34.5042C15.5819 34.4702 15.3297 34.4221 15.0277 34.3561L15.1173 34.0266C15.4055 34.0897 15.6512 34.1369 15.8522 34.1714L15.7798 34.5042ZM16.5126 31.1391C16.3678 31.1145 16.1579 31.0744 15.9338 31.0251L16.0234 30.6955C16.2152 30.7377 16.4229 30.7786 16.5851 30.8062L16.5126 31.1391ZM17.1402 32.3409C16.8037 32.2987 16.9206 32.3146 16.5929 32.2663L16.7129 31.6396C17.0313 31.6866 16.9203 31.6714 17.2326 31.7105L17.1402 32.3409ZM17.5319 37.4819C17.4785 37.4795 17.0505 37.4462 16.8443 37.4253L16.902 36.9486C17.0995 36.9686 17.5202 37.0014 17.5711 37.0037L17.5319 37.4819ZM17.5885 36.7914C17.539 36.7891 17.1229 36.7567 16.9276 36.7369L16.9853 36.2602C17.1704 36.279 17.5794 36.311 17.6277 36.3131L17.5885 36.7914ZM17.7017 35.4101C17.6625 35.4084 17.2711 35.378 17.0944 35.36L17.1521 34.8833C17.3145 34.8999 17.699 34.9301 17.7409 34.9318L17.7017 35.4101ZM17.7583 34.7194C17.7214 34.7178 17.3427 34.6884 17.1777 34.6715L17.2355 34.1948C17.3882 34.2105 17.7597 34.2396 17.7975 34.2412L17.7583 34.7194ZM17.8715 33.3382C17.8437 33.3371 17.5068 33.3114 17.3445 33.2946L17.4022 32.8178C17.5362 32.8317 17.88 32.8586 17.9107 32.8598L17.8715 33.3382ZM17.9281 32.6476C17.9015 32.6465 17.5665 32.6206 17.4278 32.6062L17.4856 32.1294C17.6035 32.1417 17.9376 32.1682 17.9673 32.1693L17.9281 32.6476ZM18.0413 31.2663C18.0202 31.2655 17.7124 31.2416 17.5946 31.2293L17.6523 30.7525C17.7646 30.7643 18.0615 30.7873 18.0805 30.788L18.0413 31.2663ZM18.5605 36.1407C18.5071 36.14 18.126 36.128 17.9248 36.1167L17.9559 35.6382C18.1418 35.6486 18.5167 35.6608 18.5731 35.6614L18.5605 36.1407ZM18.5787 35.4484C18.5295 35.4478 18.1582 35.436 17.9697 35.4254L18.0007 34.9467C18.173 34.9565 18.5375 34.9684 18.5913 34.969L18.5787 35.4484ZM18.5969 34.7561C18.5438 34.7555 18.1826 34.7436 18.0146 34.7341L18.0456 34.2554C18.2264 34.2657 18.5794 34.2764 18.6095 34.2767L18.5969 34.7561ZM18.6151 34.0638C18.5885 34.0635 18.2417 34.0531 18.0594 34.0428L18.0905 33.564C18.2346 33.5723 18.5786 33.5839 18.6277 33.5844L18.6151 34.0638ZM18.6333 33.3715C18.59 33.3711 18.2504 33.3598 18.1042 33.3515L18.1353 32.8727C18.2667 32.8803 18.5997 32.8916 18.6459 32.8921L18.6333 33.3715ZM18.6515 32.6792C18.6119 32.6788 18.2834 32.6679 18.1491 32.6601L18.1801 32.1813C18.2989 32.1883 18.6211 32.1993 18.6641 32.1997L18.6515 32.6792ZM18.6697 31.9869C18.6428 31.9867 18.3362 31.9771 18.1939 31.9688L18.225 31.49C18.3599 31.4979 18.6557 31.5072 18.6823 31.5075L18.6697 31.9869ZM18.6879 31.2946C18.6548 31.2943 18.3498 31.284 18.2388 31.2775L18.2698 30.7987C18.3658 30.8044 18.6646 30.8148 18.7005 30.8151L18.6879 31.2946ZM19.5165 37.5245C19.4898 37.525 19.1018 37.5317 18.8277 37.5289L18.8322 37.0494C19.0986 37.0522 19.4759 37.0457 19.5027 37.0451L19.5165 37.5245ZM19.4965 36.8323C19.4697 36.8328 19.0979 36.8393 18.8342 36.8365L18.8387 36.357C19.0764 36.3595 19.4558 36.3535 19.4826 36.3529L19.4965 36.8323ZM19.4765 36.1399C19.4499 36.1405 19.0867 36.1466 18.8407 36.1439L18.8452 35.6645C19.0503 35.6668 19.4361 35.6618 19.4627 35.6607L19.4765 36.1399ZM19.4366 34.7554C18.9141 34.7617 19.034 34.761 18.8537 34.759L18.8583 34.2795C19.0307 34.2815 18.9119 34.2822 19.4227 34.2761L19.4366 34.7554ZM19.3966 33.3709C18.9134 33.3766 19.0361 33.3761 18.8668 33.3741L18.8713 32.8945C19.0328 32.8965 18.911 32.897 19.3828 32.8915L19.3966 33.3709ZM19.3567 31.9864C18.9127 31.9915 19.0387 31.9912 18.8799 31.9892L18.8844 31.5096C19.0388 31.5116 18.9061 31.5119 19.3428 31.507L19.3567 31.9864ZM20.5087 37.4793C19.9348 37.5122 20.052 37.5062 19.82 37.5143L19.7981 37.0352C20.0237 37.0273 19.9034 37.0335 20.4683 37.0011L20.5087 37.4793ZM20.3919 36.0982C19.854 36.129 19.9737 36.1229 19.7566 36.1305L19.7347 35.6515C19.9448 35.6442 19.8212 35.6505 20.3515 35.6202L20.3919 36.0982ZM20.3335 35.4078C19.808 35.4377 19.9308 35.4315 19.7249 35.4386L19.703 34.9595C19.9056 34.9525 19.7809 34.9588 20.2931 34.9296L20.3335 35.4078ZM20.2167 34.0267C19.733 34.0542 19.8576 34.0481 19.6615 34.0547L19.6395 33.5756C19.8257 33.5693 19.699 33.5756 20.1763 33.5486L20.2167 34.0267ZM20.1 32.6457C19.6508 32.671 19.7792 32.6649 19.5981 32.671L19.5761 32.1918C19.7516 32.1859 19.622 32.1921 20.0596 32.1675L20.1 32.6457ZM20.0416 31.9552C19.6112 31.9794 19.7408 31.9733 19.5664 31.9791L19.5444 31.4999C19.7136 31.4943 19.5828 31.5004 20.0012 31.477L20.0416 31.9552ZM19.9832 31.2647C19.5722 31.2877 19.7025 31.2816 19.5347 31.2871L19.5127 30.8079C19.6748 30.8027 19.5438 30.8087 19.9428 30.7865L19.9832 31.2647ZM20.2867 30.5338C20.217 30.5411 20.2545 30.5378 20.1313 30.5474L20.1221 30.4584C20.2431 30.4491 20.2073 30.4523 20.2762 30.445L20.2867 30.5338ZM21.106 30.9777C20.8877 31.0103 20.9624 31.0001 20.8184 31.018L20.7681 30.705C20.8983 30.6889 20.831 30.6983 21.0476 30.6659L21.106 30.9777ZM21.828 32.112L21.5111 32.1666L21.4483 31.8556L21.7572 31.8024L21.828 32.112ZM21.7214 30.9153C21.8922 30.8822 21.832 30.8947 22.0056 30.8564L22.0889 31.1636C21.914 31.2022 21.9769 31.1892 21.7967 31.2242L21.7214 30.9153ZM21.0978 31.7774C21.0273 31.7877 21.1008 31.7778 20.7895 31.817L20.7433 31.5037C21.0533 31.4646 20.972 31.4756 21.0435 31.4651L21.0978 31.7774ZM22.5767 32.3967C22.2635 32.4651 22.2685 32.4643 22.2525 32.4673L22.1736 32.1591C22.186 32.1568 22.4774 32.093 22.4898 32.0902L22.5767 32.3967ZM25.7563 28.2967C26.0059 28.1334 25.9019 28.2031 26.069 28.088L26.1108 28.1368C25.9476 28.2492 26.0489 28.1814 25.7962 28.3468L25.7563 28.2967ZM25.9297 28.5139C26.1843 28.3473 26.0802 28.4171 26.2504 28.2999L26.311 28.3707C26.1459 28.4844 26.2448 28.4183 25.9877 28.5865L25.9297 28.5139ZM27.3464 29.0075C27.408 28.9639 27.4387 28.9396 27.6053 28.8134L27.8125 29.0299C27.6478 29.1548 27.6122 29.1829 27.5475 29.2287L27.3464 29.0075ZM27.4809 28.6835C27.3159 28.8086 27.2866 28.8319 27.2258 28.8748L27.0487 28.6801C27.1081 28.6381 27.1365 28.6155 27.2984 28.4928L27.4809 28.6835ZM26.6969 29.2629C26.588 29.2054 26.4824 29.1436 26.3801 29.0779L26.1212 28.7536C26.3803 28.5841 26.2769 28.6534 26.4507 28.5338L26.9368 29.1015C26.7706 29.2161 26.8311 29.1753 26.6969 29.2629ZM27.0842 29.1728C27.2096 29.3177 27.2969 29.4185 27.421 29.5619C27.2051 29.4952 27.0162 29.4199 26.8431 29.3368C26.916 29.2894 26.8557 29.3299 27.0842 29.1728V29.1728ZM29.0649 31.2458C29.3721 31.0239 29.3261 31.0573 29.3862 31.0117L29.5672 31.2066C29.506 31.2529 29.5507 31.2206 29.2403 31.4447L29.0649 31.2458ZM29.3168 30.3271C29.2009 30.4194 29.2613 30.3729 29.0148 30.5598L28.8211 30.3522C29.0587 30.172 29.0018 30.2159 29.1173 30.1239L29.3168 30.3271ZM28.8221 29.0752L29.0824 28.8475L29.2887 29.0323L29.0231 29.2647L28.8221 29.0752ZM28.2016 28.0086C28.146 28.0595 28.2071 28.0048 27.9655 28.2167L27.7366 28.0022C27.9781 27.7903 27.9098 27.8516 27.9667 27.7994L28.2016 28.0086ZM27.8312 27.6788C27.7757 27.7298 27.8411 27.6711 27.6046 27.8786L27.4197 27.7054C27.6554 27.4985 27.5845 27.5621 27.6415 27.5098L27.8312 27.6788ZM28.479 28.7519L28.7303 28.532L28.9472 28.7264L28.6904 28.9511L28.479 28.7519ZM25.3585 29.1361C25.3121 29.1627 25.2879 29.1748 25.1552 29.2451L25.0006 29.0089C25.1262 28.9423 25.1526 28.9291 25.1987 28.9026L25.3585 29.1361ZM26.2337 30.762C26.3796 30.6848 26.3289 30.7124 26.4695 30.6336L26.6306 30.8664C26.4842 30.9485 26.5354 30.9206 26.3898 30.9976L26.2337 30.762ZM25.2171 29.6877C25.3107 29.6411 25.2565 29.6691 25.4296 29.5771L25.5853 29.8128C25.4091 29.9064 25.4636 29.8782 25.3677 29.9261L25.2171 29.6877ZM26.1693 30.6969C25.9793 30.7978 26.0366 30.7681 25.9324 30.8202L25.7817 30.5818C25.8822 30.5316 25.8258 30.5608 26.0135 30.4611L26.1693 30.6969ZM26.3111 30.2984C26.4508 30.2204 26.4025 30.2481 26.5368 30.1687L26.7041 30.398C26.5667 30.4792 26.6163 30.4508 26.4735 30.5306L26.3111 30.2984ZM26.2859 29.8249C26.1531 29.9034 26.1996 29.8766 26.0677 29.9502L25.9054 29.7181C26.0373 29.6445 25.9918 29.6706 26.1186 29.5956L26.2859 29.8249ZM25.8572 29.2374C25.735 29.3098 25.779 29.2845 25.6518 29.3554L25.4894 29.1232C25.6108 29.0556 25.5678 29.0803 25.6898 29.0081L25.8572 29.2374ZM24.0267 29.2165C24.0373 29.2124 24.2466 29.1197 24.4246 29.0353L24.8613 29.7752C24.6726 29.8646 24.4417 29.9669 24.4312 29.971L24.0267 29.2165ZM25.2406 32.9845C25.6106 32.8392 25.5366 32.8688 25.6125 32.8372L25.9401 33.4812C25.8654 33.5122 25.9279 33.4874 25.5497 33.6357L25.2406 32.9845ZM23.2248 32.8175C23.5456 32.7319 23.4596 32.7556 23.5925 32.7168L23.8325 33.3912C23.6954 33.4311 23.7824 33.4072 23.4453 33.4971L23.2248 32.8175ZM23.5729 32.6616C23.4418 32.6998 23.5274 32.6762 23.2067 32.7618L22.9862 32.0822C23.2915 32.0008 23.2065 32.0242 23.333 31.9872L23.5729 32.6616ZM23.3133 31.9319C23.1887 31.9683 23.2734 31.945 22.9681 32.0264L22.8772 31.7461C23.1753 31.6666 23.0907 31.69 23.2144 31.6538L23.3133 31.9319ZM23.1255 31.2423C23.3201 31.1859 23.251 31.207 23.4483 31.1445L23.5516 31.4077C23.3498 31.4715 23.4203 31.4501 23.2213 31.5078L23.1255 31.2423ZM23.4269 31.0899C23.2306 31.152 23.2991 31.1311 23.1056 31.1872L22.8626 30.5137C23.0488 30.4598 22.9843 30.4793 23.1646 30.4222L23.4269 31.0899ZM23.9316 31.2821C23.6593 31.375 23.7407 31.3481 23.6047 31.3909L23.5001 31.1282C23.6317 31.0868 23.5516 31.1133 23.8195 31.0219L23.9316 31.2821ZM23.8305 30.1303C23.5146 30.2456 23.5961 30.217 23.5365 30.2371L23.4229 29.9766C23.4826 29.9564 23.3988 29.9859 23.7095 29.8725L23.8305 30.1303ZM23.56 30.2911C23.6193 30.271 23.538 30.2996 23.8555 30.1837L24.1617 30.8363C23.8294 30.9577 23.9069 30.9304 23.8474 30.9505L23.56 30.2911ZM23.4886 30.2533C23.2381 30.3388 23.3176 30.3127 23.1913 30.3523L23.0865 30.0888C23.2086 30.0505 23.129 30.0768 23.3763 29.9924L23.4886 30.2533ZM23.1431 30.3675C22.9596 30.4256 23.0237 30.4061 22.8427 30.4585L22.7467 30.1924C22.9272 30.1401 22.8647 30.159 23.0395 30.1036L23.1431 30.3675ZM22.7942 30.4727C22.6815 30.5058 22.7641 30.4829 22.4909 30.5557L22.4037 30.2871C22.6695 30.2163 22.5876 30.239 22.6993 30.2062L22.7942 30.4727ZM22.5089 30.6113C22.7818 30.5385 22.7 30.5612 22.8138 30.5279L23.0537 31.2024C22.9348 31.2372 23.0192 31.2139 22.7295 31.2911L22.5089 30.6113ZM22.7476 31.3467C23.0374 31.2694 22.9535 31.2926 23.0734 31.2575L23.1679 31.5233C23.0465 31.5589 23.1312 31.5355 22.8345 31.6146L22.7476 31.3467ZM23.9143 33.4283C24.1466 33.3607 24.0637 33.3859 24.2995 33.3116L24.5617 33.9792C24.32 34.0553 24.4067 34.0291 24.1574 34.1017L23.9143 33.4283ZM24.278 33.2569C24.0487 33.3292 24.131 33.3043 23.8944 33.3731L23.6514 32.6996C23.8706 32.6359 23.7933 32.6594 24.0158 32.5892L24.278 33.2569ZM23.9943 32.5345C23.7725 32.6045 23.85 32.581 23.6315 32.6445L23.3885 31.971C23.6004 31.9095 23.5267 31.9318 23.7321 31.8669L23.9943 32.5345ZM23.7105 31.8122C23.5062 31.8767 23.5795 31.8546 23.3685 31.9158L23.2683 31.6381C23.4698 31.5796 23.3981 31.6014 23.6024 31.5368L23.7105 31.8122ZM24.3612 33.2921C24.5126 33.2443 24.4295 33.2719 24.7423 33.1652L25.0266 33.8255C24.7036 33.9356 24.7854 33.9085 24.6265 33.9587L24.3612 33.2921ZM24.719 33.1111C24.409 33.2168 24.4929 33.189 24.3396 33.2374L24.0743 32.5708C24.219 32.5251 24.1371 32.5522 24.4347 32.4508L24.719 33.1111ZM24.1038 31.6822C23.824 31.7777 23.9046 31.751 23.7655 31.7949L23.656 31.5199C23.7919 31.4771 23.7094 31.5045 23.9866 31.4099L24.1038 31.6822ZM24.8036 33.1443C24.8631 33.1241 24.7945 33.1488 25.1803 33.0074L25.4864 33.6598C25.0922 33.8043 25.1528 33.7825 25.0909 33.8036L24.8036 33.1443ZM25.1552 32.954C24.7759 33.0929 24.842 33.0692 24.78 33.0903L24.4927 32.431C24.553 32.4105 24.4795 32.4368 24.8491 32.3015L25.1552 32.954ZM24.824 32.248C24.4605 32.3811 24.5307 32.3561 24.4691 32.377L24.1818 31.7178C24.2421 31.6974 24.1654 31.7246 24.518 31.5957L24.824 32.248ZM24.4929 31.5421C24.1426 31.6702 24.2194 31.643 24.1583 31.6637L24.0398 31.3918C24.1003 31.3713 24.0218 31.3991 24.3666 31.273L24.4929 31.5421ZM24.3074 31.1468C23.9682 31.2708 24.0447 31.2437 23.9841 31.2643L23.8709 31.0044C23.9312 30.984 23.8504 31.0126 24.1867 30.8897L24.3074 31.1468ZM23.9028 30.1657C24.2101 30.0447 24.1204 30.0811 24.1946 30.0501L24.5223 30.6942C24.4497 30.7245 24.5277 30.693 24.212 30.8171L23.9028 30.1657ZM24.1678 29.9974C24.0943 30.0281 24.1833 29.992 23.8775 30.1124L23.7553 29.855C24.0556 29.7368 23.964 29.774 24.0383 29.7429L24.1678 29.9974ZM23.9749 29.6183C23.9025 29.6485 23.9793 29.6171 23.6955 29.7289L23.5683 29.461C23.8625 29.3452 23.7661 29.3844 23.8401 29.3534L23.9749 29.6183ZM23.6502 29.7461C23.3413 29.8589 23.427 29.8288 23.3673 29.8489L23.2491 29.5778C23.3083 29.5579 23.2243 29.5873 23.5243 29.4778L23.6502 29.7461ZM23.3213 29.8645C23.0784 29.9474 23.1575 29.9214 23.0351 29.9598L22.926 29.6856C23.0443 29.6485 22.9654 29.6745 23.2043 29.5929L23.3213 29.8645ZM22.9887 29.9744C22.8124 30.0303 22.8738 30.0116 22.6996 30.062L22.5996 29.7851C22.7692 29.7361 22.7089 29.7544 22.8809 29.6998L22.9887 29.9744ZM22.6529 30.0756C22.5439 30.1077 22.6255 30.085 22.361 30.1555L22.2703 29.876C22.5274 29.8075 22.447 29.8298 22.5542 29.7983L22.6529 30.0756ZM23.7019 34.2882C24.053 34.1946 23.9663 34.2184 24.1117 34.1761L24.202 34.4301C24.0553 34.4727 24.1427 34.4488 23.785 34.5442L23.7019 34.2882ZM24.1773 34.157C24.427 34.0843 24.3407 34.1103 24.5832 34.034L24.6819 34.2854C24.4348 34.3632 24.5235 34.3364 24.2688 34.4106L24.1773 34.157ZM24.6483 34.0134C24.8057 33.9637 24.7239 33.9909 25.0499 33.8797L25.157 34.1284C24.8275 34.2407 24.9104 34.2132 24.7482 34.2645L24.6483 34.0134ZM25.1145 33.8577C25.1741 33.8374 25.1095 33.8607 25.5115 33.7134L25.6268 33.9591C25.224 34.1068 25.2833 34.0853 25.2227 34.106L25.1145 33.8577ZM25.575 33.6892C25.9586 33.5387 25.8903 33.5659 25.967 33.534L26.0904 33.7766C26.0154 33.8076 26.0763 33.7836 25.6914 33.9345L25.575 33.6892ZM25.2312 32.0878C25.1574 32.1184 25.2282 32.0901 24.8808 32.2265L24.5718 31.5752C24.9111 31.4419 24.8283 31.4751 24.9036 31.4438L25.2312 32.0878ZM24.8767 31.391C24.8036 31.4214 24.8778 31.3915 24.5464 31.5218L24.4189 31.2532C24.7512 31.1226 24.6666 31.1566 24.7416 31.1254L24.8767 31.391ZM24.6782 31.0008C24.6055 31.0311 24.6819 31.0003 24.3591 31.1272L24.2372 30.8705C24.5609 30.7432 24.474 30.7783 24.549 30.747L24.6782 31.0008ZM24.3516 34.8504C24.2004 34.8943 24.288 34.8703 23.9225 34.9679L23.8277 34.6757C24.1872 34.5798 24.0995 34.6039 24.2485 34.5606L24.3516 34.8504ZM24.8454 34.7016C24.5855 34.7834 24.6763 34.7558 24.4203 34.8304L24.3159 34.5409C24.5727 34.466 24.4837 34.493 24.7327 34.4146L24.8454 34.7016ZM25.3342 34.54C24.9979 34.6546 25.0801 34.6274 24.9136 34.68L24.7995 34.3935C24.962 34.3421 24.8776 34.3701 25.212 34.2562L25.3342 34.54ZM25.8176 34.3658C25.4056 34.5169 25.4646 34.4954 25.4018 34.5169L25.2783 34.2335C25.3438 34.2112 25.2869 34.2317 25.686 34.0853L25.8176 34.3658ZM26.2945 34.178C26.2195 34.2091 26.2773 34.1863 25.884 34.3405L25.7512 34.0605C26.1441 33.9065 26.0763 33.9333 26.1537 33.9012L26.2945 34.178ZM25.3924 30.6753C25.1448 30.7925 24.9418 30.8809 24.9152 30.8921L24.523 30.1593C24.5496 30.1481 24.7412 30.0645 24.9684 29.9569L25.3924 30.6753ZM25.7237 30.3463L25.4941 30.4613L25.3472 30.2211L25.5716 30.1086L25.7237 30.3463ZM27.2354 30.5108C27.0667 30.6158 27.1277 30.5787 27.0022 30.6527L26.8333 30.4244C26.9499 30.3556 26.8959 30.3887 27.0615 30.2855L27.2354 30.5108ZM26.8007 29.9475C26.6411 30.0469 26.699 30.0117 26.5798 30.0819L26.4109 29.8537C26.524 29.7871 26.4693 29.8205 26.6269 29.7222L26.8007 29.9475ZM26.3552 29.3701C26.2027 29.4653 26.2601 29.4302 26.1468 29.4969L25.9779 29.2687C26.0855 29.2054 26.0307 29.2389 26.1814 29.1449L26.3552 29.3701ZM27.503 30.4842L26.6747 29.447L26.7187 29.4182C26.9996 29.5608 27.274 29.6641 27.5789 29.7445L27.9563 30.1807C27.6804 30.3698 27.7772 30.3049 27.503 30.4842V30.4842ZM29.8911 31.5558C29.8277 31.6038 29.8664 31.5757 29.5544 31.8012L29.3587 31.5792C29.6726 31.3525 29.6279 31.3849 29.6893 31.3384L29.8911 31.5558ZM28.991 29.9955C28.8783 30.0853 28.9388 30.0387 28.6984 30.2209L28.5082 30.0171L28.6764 29.8896C28.746 29.8908 28.8141 29.8886 28.8837 29.8864L28.991 29.9955ZM31.719 22.4422C31.6673 22.685 31.4747 23.2588 31.4668 23.2827L31.3694 23.2556C31.3772 23.2318 31.5685 22.6618 31.6196 22.4218L31.719 22.4422ZM32.0787 22.5162C32.0357 22.7167 31.8835 23.186 31.8193 23.3807L31.7221 23.3537C31.7835 23.1678 31.9368 22.6953 31.9795 22.4958L32.0787 22.5162ZM30.8677 21.486C30.748 22.1357 30.6542 22.4639 30.4896 22.9649L30.4288 22.9482C30.6143 22.3837 30.6976 22.0597 30.8049 21.4772L30.8677 21.486ZM30.5407 21.4404C30.4238 22.0749 30.3319 22.3948 30.173 22.8782L30.1181 22.8631C30.2788 22.374 30.369 22.0565 30.4839 21.4325L30.5407 21.4404ZM31.9576 23.9145C31.8954 24.0732 31.91 24.0368 31.8956 24.071L31.6993 24.0062C31.7129 23.974 31.7005 24.0047 31.7603 23.8521L31.9576 23.9145ZM30.6399 23.6563C30.6531 23.6251 30.6403 23.6566 30.6957 23.5151L30.8929 23.5775C30.8355 23.7241 30.8497 23.6888 30.8361 23.7211L30.6399 23.6563ZM31.2256 24.2565C31.2852 24.1262 31.2696 24.1614 31.2918 24.1086L31.4867 24.1767C31.4641 24.2305 31.4799 24.1948 31.4194 24.3271L31.2256 24.2565ZM30.6767 24.4928L30.7457 24.3511L30.9378 24.4255L30.8676 24.5695L30.6767 24.4928ZM30.0723 24.1395C30.1387 24.0039 30.1236 24.0357 30.1372 24.0056L30.33 24.0783C30.3167 24.1079 30.33 24.0796 30.264 24.2146L30.0723 24.1395ZM31.1885 21.5308C31.0909 22.0604 31.0102 22.4131 30.8001 23.05L30.7454 23.035C30.9125 22.5284 31.0102 22.1835 31.132 21.5229L31.1885 21.5308ZM31.9538 24.9119L32.2793 25.0402C32.4833 24.6228 32.6004 24.3329 32.7283 24.0077L32.3917 23.9049C32.3987 23.8882 32.5061 23.5915 32.5121 23.5733L32.0747 23.4517C32.2008 23.0702 32.2666 22.8694 32.3869 22.3731L32.1253 22.3234L32.1081 22.3944L32.0087 22.3749L32.0258 22.3045L31.7643 22.2547L31.7474 22.3238L31.6479 22.3043C31.7111 22.0456 31.7694 21.7686 31.8181 21.4536C33.7725 22.4641 34.365 24.7075 33.4096 26.7288L32.9356 26.5008C32.7219 26.8642 32.4893 27.1992 32.3222 27.4394C32.2803 27.4113 32.2392 27.3837 32.1977 27.3559C32.3135 27.1894 32.558 26.8449 32.8263 26.3886L32.2118 26.0958C31.9628 26.5196 31.7341 26.8434 31.6248 27.0005C31.5857 26.9785 31.5467 26.9565 31.508 26.9347C31.7533 26.582 31.8998 26.3617 32.1159 25.9938L31.4852 25.6959C31.2189 26.1491 31.0247 26.4215 30.8903 26.6149C30.8146 26.5778 30.8927 26.6156 30.7839 26.5632C31.0111 26.2362 31.1451 26.0421 31.4027 25.6039L30.7556 25.3011C30.5744 25.6096 30.3461 25.9707 30.1319 26.2612C30.1007 26.2473 30.0693 26.2333 30.0381 26.2194C30.2842 25.8857 30.4871 25.5577 30.6864 25.219L30.023 24.9114C29.8113 25.2713 29.6426 25.5401 29.3564 25.9297C29.3295 25.9188 29.3026 25.9079 29.2762 25.8973C29.5836 25.4785 29.7346 25.2337 29.9674 24.8391L29.3536 24.5571C29.5144 24.2656 29.4624 24.363 29.5007 24.2888L31.7761 25.261C31.9191 24.9864 31.8757 25.0723 31.9538 24.9119V24.9119ZM28.9809 26.2798C29.0015 26.2983 29.0222 26.317 29.0431 26.3357C28.7461 26.7009 28.529 26.9365 28.2239 27.2446L28.7794 27.6924C29.0581 27.4107 29.3349 27.115 29.585 26.8061C29.6097 26.8273 29.6361 26.8487 29.6617 26.8701C29.433 27.1524 29.1472 27.4615 28.8896 27.7213L29.4342 28.1571C29.831 27.7565 30.0317 27.5154 30.2063 27.3113C30.2119 27.3156 30.2098 27.314 30.2979 27.3825C30.1588 27.5449 29.9262 27.8235 29.5595 28.1938L30.0932 28.6176C30.3895 28.3183 30.578 28.1053 30.8489 27.7885C30.8853 27.8134 30.9219 27.8384 30.9587 27.8634C30.7342 28.1258 30.5117 28.3814 30.2336 28.6621L30.7563 29.0741C31.0627 28.7645 31.3034 28.4857 31.5313 28.2193C31.5749 28.2443 31.6181 28.2692 31.6623 28.2945C31.5857 28.3841 31.2358 28.7992 30.912 29.1262L30.9952 29.1913C30.7663 29.3052 30.602 29.3773 30.3417 29.4705L27.4293 26.9902C27.4389 26.9809 27.6107 26.8155 27.6175 26.8083L28.1286 27.2234C28.4826 26.8652 28.666 26.6658 28.9808 26.2798L28.9809 26.2798ZM20.2519 30.2409C20.1842 30.248 20.2208 30.2448 20.1008 30.254L20.0944 30.1928C20.2136 30.1836 20.1772 30.1868 20.2447 30.1797L20.2519 30.2409ZM8.70648 26.3744L8.54021 26.1596L8.83193 25.9821L8.99357 26.1908L8.70648 26.3744ZM7.88723 27.4523C7.75169 27.294 7.78916 27.3384 7.69336 27.2205L7.97768 27.0338C8.08006 27.1598 8.03224 27.1028 8.16668 27.2598L7.88723 27.4523ZM7.87711 28.0468L7.66805 27.8144L7.94479 27.6186L8.14877 27.8453L7.87711 28.0468ZM8.95139 27.2503L8.76245 27.0402L9.03924 26.8444L9.2231 27.0488L8.95139 27.2503ZM8.57252 25.1739C8.19984 24.5756 8.05385 24.2846 7.83507 23.8072L7.91184 23.7797C8.03381 24.0478 8.34024 24.6746 8.5075 24.9177L8.70877 24.8194C8.54614 24.5836 8.24766 23.974 8.12463 23.7034L8.19577 23.6779C8.41856 24.1642 8.55288 24.4281 8.90924 25.0003L8.57252 25.1739ZM7.09706 20.7971C7.14669 21.3091 7.25873 21.8976 7.36624 22.2872L7.30442 22.3003C7.19422 21.9007 7.08333 21.3127 7.0338 20.8023L7.09706 20.7971ZM7.2355 23.3524C7.24611 23.3821 7.238 23.3611 7.2904 23.4939L7.09307 23.5559C7.04022 23.422 7.05131 23.4513 7.03723 23.412L7.2355 23.3524ZM7.87105 23.1043C7.90375 23.1957 7.89425 23.1704 7.92124 23.2384L7.72356 23.2995C7.69607 23.2302 7.7056 23.2555 7.67247 23.163L7.87105 23.1043ZM6.0276 23.891C5.97086 23.747 5.97884 23.7675 5.96679 23.734L6.1651 23.6743C6.17974 23.7151 6.16822 23.6849 6.22498 23.8289L6.0276 23.891ZM6.34708 23.1754L6.39753 23.3282L6.19778 23.3839L6.1465 23.2286L6.34708 23.1754ZM7.34075 22.6573C7.3582 22.7142 7.36523 22.7413 7.38349 22.7979L7.18238 22.8495C7.1638 22.7918 7.15662 22.7642 7.13887 22.7064L7.34075 22.6573ZM6.62272 22.7211L6.66786 22.8703C6.59063 22.8894 6.54251 22.9013 6.4663 22.9202L6.42045 22.7685C6.49677 22.7506 6.5459 22.7391 6.62272 22.7211V22.7211ZM5.84498 22.9034L5.89291 23.062L5.69127 23.1118L5.6426 22.9508L5.84498 22.9034ZM7.42064 20.7709C7.46859 21.2666 7.57773 21.841 7.68245 22.2203L7.62645 22.2322C7.51934 21.8442 7.41114 21.2693 7.36334 20.7755L7.42064 20.7709ZM6.98843 22.3672C6.87535 21.9566 6.76177 21.3564 6.71046 20.8285L6.76744 20.8239C6.81867 21.3508 6.93302 21.9521 7.0441 22.3554L6.98843 22.3672ZM6.90934 25.0496C6.77521 24.809 6.62102 24.477 6.50787 24.2296L6.6025 24.1961C6.7147 24.4414 6.8678 24.7711 7.00088 25.0098L6.90934 25.0496ZM7.24148 24.9054C7.11148 24.6724 6.96049 24.347 6.85114 24.1081L6.94598 24.0745C7.05472 24.3121 7.20505 24.6359 7.33327 24.8655L7.24148 24.9054ZM8.29107 25.3191C7.89686 24.6864 7.74844 24.3841 7.53355 23.9152L7.5867 23.8962C7.82126 24.408 7.973 24.7033 8.34067 25.2936L8.29107 25.3191ZM7.90234 26.7167C7.76832 26.5437 7.81992 26.6118 7.72739 26.4855L8.02127 26.3111C8.10728 26.4286 8.06231 26.3693 8.19167 26.5363L7.90234 26.7167ZM11.4851 30.2267C11.5551 30.2681 11.5345 30.2563 11.5804 30.2819L11.513 30.3768C11.47 30.3528 11.4895 30.3641 11.4169 30.3211L11.4851 30.2267ZM12.0642 29.6898C11.9729 29.6389 11.9936 29.6507 11.9737 29.6389L12.0415 29.5444C12.0596 29.555 12.0426 29.5454 12.1311 29.5947L12.0642 29.6898ZM11.8483 29.2354L11.7627 29.1821L11.8343 29.0896L11.919 29.1424L11.8483 29.2354ZM11.3976 29.6129L11.4874 29.6688L11.4166 29.7616L11.3259 29.7052L11.3976 29.6129ZM11.112 30.0699L11.0407 30.1624C11.0083 30.1422 10.9794 30.1243 10.9461 30.1036L11.0183 30.0116C11.0512 30.0321 11.0799 30.0499 11.112 30.0699ZM8.42256 30.875C8.36042 30.8279 8.40553 30.8637 8.09467 30.6163L8.3704 30.3433C8.68109 30.5905 8.62944 30.5496 8.69006 30.5955L8.42256 30.875ZM7.97217 30.7376C8.2879 30.9889 8.23923 30.9504 8.30373 30.9993L8.03626 31.2788C7.97106 31.2294 8.01664 31.2655 7.69647 31.0107L7.97217 30.7376ZM8.80889 30.4713C8.74901 30.4259 8.79486 30.4622 8.49289 30.2219L8.76862 29.9489C9.06708 30.1863 9.01508 30.1453 9.07639 30.1917L8.80889 30.4713ZM9.19521 30.0675C9.13595 30.0226 9.18372 30.0603 8.89112 29.8276L9.16684 29.5545C9.45564 29.7841 9.40215 29.7421 9.46272 29.7879L9.19521 30.0675ZM9.58154 29.6637C9.52294 29.6194 9.57252 29.6583 9.28934 29.4332L9.56507 29.1601C9.84737 29.3845 9.78901 29.3388 9.84905 29.3841L9.58154 29.6637ZM9.96784 29.26C9.90962 29.216 9.96124 29.2564 9.68754 29.0389L9.96321 28.7658C10.2358 28.9825 10.1757 28.9355 10.2353 28.9805L9.96784 29.26ZM10.3541 28.8562C10.2964 28.8127 10.3503 28.8548 10.0857 28.6445L10.3614 28.3715C10.6245 28.5804 10.5628 28.5323 10.6216 28.5767L10.3541 28.8562ZM8.35677 30.1091C8.16759 29.9512 8.23273 30.0068 8.05196 29.8487L8.33918 29.5854C8.51935 29.7429 8.45598 29.6887 8.63604 29.839L8.35677 30.1091ZM7.92435 29.9657C8.10739 30.1257 8.04123 30.0693 8.23271 30.2291L7.95341 30.4992C7.7614 30.3389 7.82924 30.397 7.63713 30.229L7.92435 29.9657ZM8.76016 29.7189C8.57808 29.567 8.64078 29.6205 8.46681 29.4683L8.75404 29.205C8.92337 29.3532 8.86216 29.301 9.03943 29.4488L8.76016 29.7189ZM9.16352 29.3288C8.98884 29.1831 9.04877 29.2342 8.88167 29.088L9.16889 28.8246C9.33511 28.9702 9.27665 28.9201 9.44281 29.0586L9.16352 29.3288ZM9.56683 28.9387C9.39922 28.799 9.45671 28.848 9.29645 28.7077L9.58362 28.4444C9.74279 28.5838 9.68677 28.5359 9.84604 28.6686L9.56683 28.9387ZM9.97016 28.5486C9.80963 28.4148 9.86467 28.4618 9.71125 28.3274L9.99847 28.0641C10.1506 28.1974 10.0971 28.1516 10.2494 28.2785L9.97016 28.5486ZM7.50949 30.346C7.70366 30.5158 7.6354 30.4573 7.82932 30.6192L7.55002 30.8894C7.34703 30.7198 7.41672 30.7793 7.22224 30.6094L7.50949 30.346ZM10.3573 29.0728C10.4569 29.1487 10.3831 29.0943 10.6378 29.2783L10.3826 29.5669C10.123 29.3794 10.1965 29.4335 10.0935 29.3552L10.3573 29.0728ZM10.7513 29.1501C10.5008 28.9691 10.5739 29.023 10.4744 28.9473L10.7382 28.665C10.8353 28.7388 10.7621 28.6849 11.0065 28.8615L10.7513 29.1501ZM9.97636 29.4806C10.0798 29.5592 10.0059 29.5048 10.2692 29.695L10.0139 29.9836C9.74513 29.7895 9.81919 29.844 9.71255 29.7629L9.97636 29.4806ZM9.59535 29.8884C9.70297 29.9702 9.62905 29.9158 9.90049 30.1119L9.64517 30.4005C9.36652 30.1992 9.44092 30.2539 9.33152 30.1708L9.59535 29.8884ZM9.21435 30.2962C9.32428 30.3797 9.25041 30.3254 9.53178 30.5287L9.27649 30.8173C8.99137 30.6113 9.06402 30.6647 8.95054 30.5786L9.21435 30.2962ZM8.83334 30.7041C8.94732 30.7906 8.87281 30.7359 9.16307 30.9455L8.90778 31.2341C8.61039 31.0193 8.68554 31.0744 8.56954 30.9865L8.83334 30.7041ZM8.45234 31.1119C8.56935 31.2007 8.49523 31.1463 8.79436 31.3624L8.53906 31.651C8.23563 31.4318 8.30844 31.4852 8.18853 31.3943L8.45234 31.1119ZM10.4004 29.787C10.6259 29.9422 10.5491 29.8907 10.7025 29.9908L10.4598 30.288C10.3166 30.1944 10.3848 30.2405 10.149 30.0783L10.4004 29.787ZM10.8103 29.8588C10.6711 29.7679 10.739 29.8138 10.5121 29.6576L10.7635 29.3664C10.9812 29.5162 10.9049 29.465 11.0529 29.5617L10.8103 29.8588ZM10.0372 30.2077C10.2699 30.3677 10.1937 30.3167 10.3519 30.4201L10.1093 30.7173C9.95334 30.6154 10.0255 30.6639 9.78574 30.499L10.0372 30.2077ZM9.40824 31.5758C9.24245 31.4674 9.31449 31.5158 9.05936 31.3403L9.31082 31.0491C9.55993 31.2204 9.48135 31.1677 9.65092 31.2786L9.40824 31.5758ZM8.94761 31.4698C9.20386 31.646 9.12586 31.5937 9.30041 31.7079L9.05774 32.0051C8.88611 31.8928 8.96028 31.9426 8.69616 31.761L8.94761 31.4698ZM9.75875 31.1466C9.60536 31.0463 9.67468 31.0931 9.42256 30.9197L9.67402 30.6284C9.91507 30.7942 9.83723 30.742 10.0014 30.8493L9.75875 31.1466ZM11.1607 29.4296C11.0197 29.3376 11.0923 29.3864 10.8753 29.237L11.1267 28.9457C11.3359 29.0897 11.2612 29.0396 11.4034 29.1324L11.1607 29.4296ZM11.2245 31.2126C10.9931 31.0829 10.8484 31.0041 10.5058 30.7909L10.6112 30.6549C10.9471 30.8639 11.0902 30.942 11.321 31.0714L11.2245 31.2126ZM11.6033 30.8823C11.5284 30.8427 11.5504 30.8546 11.5024 30.8277C11.5379 30.7756 11.5265 30.7924 11.5678 30.7318C11.6138 30.7576 11.5931 30.7464 11.6679 30.7859C11.627 30.8469 11.6383 30.83 11.6033 30.8823ZM11.9685 30.1141L11.8748 30.0615C11.9124 30.0075 11.9039 30.0197 11.9412 29.9661L12.0341 30.0182C11.9973 30.0721 12.0057 30.0599 11.9685 30.1141ZM12.5483 29.2667L12.4622 29.2184C12.4875 29.1822 12.5034 29.1593 12.5286 29.1231L12.6138 29.1709C12.5889 29.2073 12.5731 29.2303 12.5483 29.2667ZM10.6298 27.1567C10.4706 27.0106 10.3261 26.87 10.307 26.8497L10.3685 26.7998C10.3874 26.8198 10.5317 26.9602 10.6891 27.1046L10.6298 27.1567Z" fill="black"/>
<path d="M13.827 4.27715C13.671 4.31885 13.6287 4.32966 13.5654 4.34844L13.5874 4.41116C12.9172 4.60623 12.6234 4.70323 11.9817 4.941L11.9531 4.88044L11.6633 4.99408L11.7602 5.18972C12.4686 4.91159 13.0991 4.69492 13.8952 4.48234L13.827 4.27715ZM13.5654 4.34844C12.8942 4.54377 12.5999 4.64079 11.9531 4.88044L11.8402 4.64134C12.5059 4.3946 12.8082 4.29581 13.4784 4.10077L13.5654 4.34844ZM30.6086 19.2854L31.931 19.2268C31.9303 19.0784 31.8465 18.0259 31.6006 17.1306L32.765 16.8841C32.6847 16.5891 32.7107 16.6798 32.66 16.5123L33.0034 16.4296C32.8531 15.9303 32.7448 15.658 32.6328 15.3726L32.2986 15.4814C32.2798 15.4334 32.3075 15.5005 32.1612 15.1552L31.7352 15.306C31.5418 14.8826 31.4599 14.7116 31.2257 14.2892L30.987 14.3973L31.023 14.4624L30.9319 14.503L30.8962 14.4384L30.6575 14.5465L30.6925 14.6098L30.6012 14.6505C30.3826 14.2552 30.1852 13.9503 29.9863 13.6647L31.6179 12.7497C31.4835 12.5566 31.3339 12.3556 31.3151 12.3316L31.6784 12.1106C31.3705 11.7124 31.1125 11.3921 30.7037 10.9586L30.3682 11.2126C30.2103 11.045 30.288 11.1253 30.0361 10.8706L29.874 11.002C30.1282 11.259 30.0581 11.1869 30.1516 11.2862L30.0353 11.3751C29.9436 11.2777 30.0134 11.3495 29.7606 11.0938L29.6204 11.2075C29.8703 11.4602 29.7995 11.3873 29.8915 11.4851L29.7753 11.5741C29.6849 11.478 29.7552 11.5504 29.507 11.2994L29.3667 11.4131C29.6112 11.6604 29.541 11.5881 29.6314 11.6842L29.5151 11.7731C29.4262 11.6787 29.4966 11.7511 29.2533 11.505L29.113 11.6187C29.3528 11.8613 29.2824 11.7887 29.3713 11.8832L29.2551 11.9721C29.1677 11.8791 29.238 11.9516 28.9997 11.7106L28.8594 11.8243C29.094 12.0616 29.0238 11.9892 29.1112 12.0822L28.995 12.1711C28.909 12.0797 28.9794 12.1522 28.7461 11.9162L28.6057 12.0299C28.8353 12.2622 28.7651 12.1898 28.851 12.2812L28.7349 12.3701C28.6505 12.2803 28.7205 12.3526 28.4924 12.1218L28.3522 12.2354C28.5773 12.4632 28.5067 12.3903 28.591 12.4802L28.4748 12.5691C28.3918 12.4808 28.4618 12.5532 28.2387 12.3274L28.0985 12.4411C28.3182 12.6634 28.2482 12.591 28.3309 12.6792L28.2148 12.7681C28.1328 12.6808 28.2031 12.7535 27.9852 12.5329L27.9142 12.5903C27.8904 12.5661 27.9076 12.5827 27.7969 12.4764C28.4989 11.8908 28.9444 11.5193 29.5339 11.0276C29.379 10.8783 29.4336 10.9297 29.2782 10.7872C30.1636 10.0099 30.5713 9.65198 31.4552 8.87608C31.3065 8.73963 31.3586 8.78648 31.2099 8.65569L31.482 8.40723C31.3158 8.26173 31.2901 8.2388 31.2723 8.22452L31.4302 8.07554C30.9323 7.65975 30.5769 7.37492 29.9234 6.92564L29.7845 7.08915C29.6315 6.98399 29.6929 7.02519 29.5008 6.89941L29.2717 7.18057C29.06 7.04214 29.1227 7.08209 28.9772 6.99156L27.6774 8.65829C27.2585 8.3978 27.0017 8.25391 26.6735 8.07996L26.4195 8.46714C26.3208 8.4147 26.2958 8.40093 26.2555 8.38121L26.2033 8.46325C25.9983 8.36062 25.7879 8.25438 25.5132 8.13228L25.3933 8.34663C25.6711 8.47005 25.8722 8.5721 26.0707 8.67149L26.0196 8.75168C25.9919 8.73782 25.63 8.55473 25.4291 8.46558L25.3077 8.67917C25.4982 8.76362 25.8605 8.94654 25.8871 8.95985L25.836 9.0401C25.5336 8.88837 25.6395 8.94012 25.3401 8.79827L25.2172 9.01114C25.5171 9.1532 25.4137 9.10289 25.7035 9.24827L25.6525 9.32846C25.3419 9.1728 25.4626 9.2317 25.2465 9.12948L25.122 9.34171C25.3267 9.43849 25.2139 9.38331 25.5199 9.5367L25.4689 9.61695C25.1649 9.46474 25.2606 9.5115 25.1486 9.45871L25.0226 9.67015C25.1324 9.72184 25.0355 9.67447 25.3363 9.82514L25.2853 9.90526L25.0466 9.78562L24.9191 9.99639L25.1528 10.1135L25.1017 10.1937L24.9393 10.1124L24.8103 10.3223L24.9692 10.4019L24.9181 10.4822L24.8279 10.4371L24.6974 10.6463L24.7856 10.6904L24.7492 10.7475C24.461 10.603 24.5887 10.6658 24.3704 10.5624L24.9836 9.50993C24.9127 9.47625 24.8941 9.46701 24.8647 9.45424L24.2638 10.5124L24.1918 10.4805L24.7846 9.4187L24.6645 9.36512L26.6917 5.63752C26.6233 5.60632 26.5802 5.58885 26.4021 5.51424L26.5806 5.1701L26.432 5.10795L26.5139 4.9462C26.4873 4.93465 25.8237 4.66325 24.9737 4.39448L24.9086 4.56227C24.7035 4.49759 24.3993 4.40947 24.2456 4.36827L24.3033 4.19832C23.6102 4.01346 23.3138 3.95072 22.6963 3.83035L22.6562 4.00432C22.6039 3.99442 22.6447 4.00153 22.3743 3.95504L22.2954 4.32792C22.0694 4.28915 22.133 4.29949 22.0195 4.28257L21.4766 7.09032C21.3779 7.07572 21.0481 7.02471 20.7756 6.9971L21.51 1.64317L21.2298 1.61436L21.2946 1.08098L21.1503 1.06644L21.1788 0.816525C20.3628 0.747286 20.0441 0.739792 19.6042 0.725185L19.5964 0.976293C19.5438 0.974002 19.4665 0.973238 19.0902 0.969133L19.0914 0.717929C18.6278 0.710053 17.9789 0.737405 17.5162 0.763683L17.5355 1.01429C17.354 1.02491 17.4128 1.02093 17.2826 1.03107L17.3309 1.56586L17.0852 1.58536L17.8419 8.87135C17.7211 8.88071 17.758 8.87732 17.6836 8.88515L17.4068 6.54701C17.0274 6.58586 17.1655 6.57033 16.8554 6.60921L16.7928 6.2195C16.2095 6.29246 15.7383 6.38521 15.212 6.50037L15.3201 6.88196C15.2659 6.89375 15.3044 6.88478 15.1175 6.9302L14.3476 4.36732C14.0778 4.43288 14.1416 4.4168 14.0115 4.45143L14.0435 4.5501C13.204 4.77388 12.6604 4.94863 11.7014 5.32521L11.6541 5.23158L11.2879 5.38493L13.0462 8.66979C13.0196 8.68099 12.8149 8.77011 12.5664 8.8878L12.0036 7.93415C11.8215 8.02024 11.9074 7.97828 11.6292 8.11781L11.4127 7.7751C11.1902 7.88654 10.5767 8.22018 10.3605 8.36021L10.6069 8.68624C10.2844 8.88694 10.3577 8.84061 10.2887 8.88546L10.447 9.08368C10.1649 9.26812 10.2623 9.20301 9.99134 9.3888L8.19284 7.31074C8.08488 7.38504 8.13267 7.35134 7.95405 7.48027L7.75494 7.25818C7.61089 7.36229 7.57179 7.38986 7.51474 7.43397L7.02901 6.91089C6.94255 6.9764 6.7639 7.11161 6.73942 7.13102L6.10775 6.47805C5.72595 6.78174 5.81986 6.70479 5.54094 6.93772L6.20028 7.56829C6.06379 7.68238 6.12143 7.6329 5.92612 7.80372L6.45637 8.29078C6.27065 8.45356 6.33031 8.40012 6.20364 8.51635L6.43008 8.71629C6.27222 8.86128 6.22993 8.89959 6.20728 8.92207L6.38795 9.07592C6.45818 9.01007 6.68132 8.80328 6.80031 8.7002C6.98691 8.87016 6.84994 8.74543 6.93422 8.82219C6.83599 8.90701 6.55665 9.16413 6.52636 9.1938L7.5294 10.048C7.26517 10.1467 7.10297 10.2207 6.87655 10.3364L6.57091 10.0972C6.34447 10.3261 5.95508 10.7597 5.75341 11.0076C5.70447 10.9805 5.65556 10.9533 5.60686 10.9263C5.87279 10.5994 6.16063 10.2917 6.40006 10.0378L5.89962 9.64926C5.65529 9.90825 5.36408 10.2177 5.04832 10.6057C4.99539 10.5747 4.94259 10.5439 4.88982 10.5131C5.17124 10.1673 5.42994 9.88495 5.71453 9.58317L5.22543 9.20621C4.89451 9.55709 4.65127 9.82517 4.34677 10.1993L4.17292 10.1C4.48593 9.71733 4.70061 9.47716 5.02509 9.13289L4.54724 8.76736C4.19567 9.14046 3.96582 9.39932 3.63881 9.80087C3.57497 9.76564 3.51161 9.73067 3.44848 9.69585C3.72602 9.35498 3.96281 9.07838 4.33118 8.68705L3.86478 8.33298C3.48635 8.73512 3.25389 9.00537 2.92284 9.41221C2.84734 9.37192 2.77269 9.33209 2.69895 9.29276C4.3027 7.12558 3.03346 7.39781 1.80297 8.82558C0.876577 8.35496 0.533068 8.19801 0.0985979 7.99597L0 8.12357C1.60237 9.42059 1.51561 9.10258 1.23864 9.61807C0.384705 11.2699 0.848768 11.5799 2.26831 9.85066C2.33527 9.89865 2.40316 9.94734 2.47179 9.99653C2.11135 10.4881 1.91685 10.7826 1.66368 11.1882L2.19782 11.4544C2.43506 11.0742 2.63213 10.7755 2.95272 10.338C3.01119 10.3787 3.06995 10.4197 3.12919 10.4609C2.79904 10.912 2.61462 11.1952 2.35792 11.6071L2.90804 11.8788C3.12794 11.526 3.33059 11.2114 3.62931 10.804L3.7942 10.915C3.49468 11.3235 3.28995 11.644 3.05513 12.0211L3.62117 12.2983C3.81206 11.9918 4.03248 11.6426 4.31266 11.2605C4.36341 11.2939 4.41424 11.3274 4.46509 11.3609C4.19173 11.7337 3.83194 12.2949 3.75596 12.4305L4.33815 12.7129C4.41203 12.5803 4.77204 12.0226 4.99622 11.717C5.03201 11.7417 5.06778 11.7664 5.10365 11.7912C3.27587 14.082 3.7199 17.1041 6.15571 18.3005C6.14929 18.341 6.15491 18.3007 6.13144 18.4862C7.32728 18.6077 6.54731 18.5484 7.43461 18.7155C7.43296 18.7258 7.40627 18.988 7.4027 19.0421L6.08215 18.9562L6.07377 19.0766L7.39525 19.1504C7.37324 19.4502 7.37396 19.6485 7.37111 19.8115H9.28064C9.5156 8.185 28.4832 8.39742 28.7139 19.8115H30.6234C30.6189 19.4954 30.6221 19.6082 30.6087 19.2856L30.6086 19.2854ZM2.57534 8.66724C2.4757 8.59967 2.71713 8.37527 2.7121 8.57506C2.71031 8.64581 2.66419 8.72751 2.57534 8.66724ZM2.35145 8.93778C2.25067 8.87197 2.48621 8.64225 2.48579 8.84288C2.48563 8.91381 2.4415 8.99656 2.35145 8.93778V8.93778ZM1.46662 10.1183C1.57121 10.1763 1.36134 10.4211 1.34037 10.2227C1.33367 10.1521 1.37202 10.0658 1.46662 10.1183ZM1.88222 9.53854C1.77676 9.47527 2.00629 9.24013 2.01284 9.43921C2.01462 9.50935 1.97467 9.59399 1.88222 9.53854ZM20.7218 8.18462C21.0341 8.22371 20.9256 8.20899 21.2296 8.25388L20.984 9.53623C20.708 9.49537 20.8039 9.50854 20.5327 9.47465L20.7218 8.18462ZM21.6911 7.52278C21.8509 7.55003 22.0732 7.59252 22.3194 7.64655L22.2298 7.97611C22.0165 7.92929 21.7966 7.88606 21.6186 7.85573L21.6911 7.52278ZM22.4886 7.02431C22.2316 6.96793 22.0043 6.92433 21.828 6.89416L21.9005 6.5613C22.0353 6.58438 22.288 6.63119 22.5783 6.69482L22.4886 7.02431ZM25.6044 5.52782C25.9545 5.65718 26.2269 5.77294 26.3317 5.81683L26.1706 6.1236C25.9692 6.03923 25.7291 5.94058 25.4594 5.84096L25.6044 5.52782ZM25.1854 6.43251C25.5136 6.55362 25.7947 6.6731 25.8664 6.70312L25.7053 7.00996C25.6687 6.99464 25.3754 6.86929 25.0404 6.74573L25.1854 6.43251ZM24.7665 7.33723C25.0667 7.44788 25.3225 7.5565 25.4011 7.58944L25.24 7.89628C25.1743 7.86876 24.9243 7.76198 24.6214 7.65044L24.7665 7.33723ZM24.557 7.78957C24.845 7.89561 25.0941 8.00144 25.1685 8.03258L25.0074 8.33942C24.9725 8.32479 24.71 8.21247 24.412 8.10278L24.557 7.78957ZM24.138 8.69428C24.4042 8.79209 24.6288 8.88775 24.7032 8.9189L24.5421 9.22574C24.4904 9.20411 24.2622 9.10635 23.993 9.00749L24.138 8.69428ZM23.7191 9.59897C23.963 9.68843 24.1597 9.77244 24.2379 9.80519L24.0768 10.1121C23.8361 10.0113 23.6885 9.95422 23.574 9.91226L23.7191 9.59897ZM24.5327 5.1649C24.9933 5.31039 24.8337 5.25819 25.2799 5.40982L25.142 5.72556C24.6955 5.57382 24.8515 5.62508 24.4113 5.48603L24.5327 5.1649ZM24.3574 5.62881C24.8033 5.76965 24.6488 5.71912 25.0807 5.86593L24.9429 6.18167C24.5109 6.03486 24.6618 6.08446 24.236 5.94994L24.3574 5.62881ZM24.0068 6.5566C24.4233 6.68818 24.279 6.64097 24.6825 6.77811L24.5446 7.0939C24.1417 6.95698 24.2825 7.00323 23.8854 6.87778L24.0068 6.5566ZM23.8315 7.02051C24.2334 7.14746 24.0941 7.1019 24.4834 7.23422L24.3455 7.55001C23.9572 7.41802 24.0929 7.46261 23.7102 7.34172L23.8315 7.02051ZM23.6563 7.48442C24.0434 7.60672 23.9092 7.56285 24.2842 7.69033L24.1463 8.00614C23.7727 7.87909 23.9032 7.92201 23.5349 7.80565L23.6563 7.48442ZM23.3057 8.41222C23.6634 8.52523 23.5394 8.48468 23.886 8.60251L23.7481 8.9183C23.4035 8.80114 23.5239 8.84071 23.1843 8.73342L23.3057 8.41222ZM22.9551 9.34001C23.2834 9.44376 23.1697 9.40653 23.4877 9.5147L23.3498 9.83056C23.0344 9.7233 23.1446 9.75953 22.8337 9.66129L22.9551 9.34001ZM23.2953 5.34223C23.6558 5.4297 23.9005 5.4957 24.0348 5.53479L23.9209 5.8581C23.7836 5.81815 23.5412 5.75318 23.1982 5.66993L23.2953 5.34223ZM23.0148 6.289C23.0479 6.29702 23.4056 6.38141 23.7055 6.46884L23.5915 6.7922C23.4754 6.7583 23.2536 6.69833 22.9177 6.61675L23.0148 6.289ZM22.8745 6.76239C23.2074 6.8432 23.4264 6.90244 23.5409 6.93588L23.4269 7.25923C23.3183 7.22751 23.1107 7.17107 22.7774 7.09013L22.8745 6.76239ZM22.5939 7.70916C22.9118 7.78634 23.1121 7.84083 23.2116 7.86993L23.0975 8.19335C23.0019 8.16536 22.8084 8.11266 22.4968 8.03697L22.5939 7.70916ZM22.3134 8.6559C22.6148 8.72913 22.7967 8.77884 22.8823 8.80395L22.7682 9.1274C22.6774 9.10072 22.4963 9.05179 22.2163 8.98375L22.3134 8.6559ZM22.1731 9.12931C22.3261 9.16647 22.5666 9.22662 22.7176 9.27101L22.6036 9.59444C22.5299 9.57277 22.3685 9.52823 22.076 9.45715L22.1731 9.12931ZM22.6181 6.54853C22.3383 6.48722 22.0954 6.44139 21.9327 6.41352L22.0052 6.08066C22.2395 6.12086 22.4744 6.16795 22.7077 6.21905L22.6181 6.54853ZM22.3192 4.63845C22.4975 4.66917 22.7734 4.72091 23.096 4.79147L23.0064 5.12088C22.7075 5.05551 22.4562 5.0073 22.2467 4.97126L22.3192 4.63845ZM22.2145 5.11917C22.4124 5.1532 22.6651 5.20134 22.9666 5.26729L22.877 5.5967C22.5876 5.53336 22.3423 5.48637 22.142 5.45195L22.2145 5.11917ZM21.4817 8.48423C21.6667 8.51568 21.8716 8.55673 22.0605 8.59824L21.9708 8.9278C21.7419 8.87746 21.5315 8.83792 21.4092 8.81715L21.4817 8.48423ZM20.854 7.28246C21.1906 7.32463 21.0737 7.30876 21.4014 7.35709L21.2814 7.98375C20.9629 7.93676 21.0739 7.95198 20.7616 7.91286L20.854 7.28246ZM20.4624 2.14143C20.5158 2.14386 20.9434 2.17716 21.15 2.19806L21.0923 2.67474C20.8627 2.65147 20.4567 2.62114 20.4232 2.61961L20.4624 2.14143ZM20.4058 2.832C20.4553 2.83422 20.8714 2.86664 21.0667 2.88645L21.0089 3.36317C20.8238 3.34434 20.4148 3.31236 20.3666 3.31024L20.4058 2.832ZM20.2926 4.2133C20.3318 4.215 20.7227 4.24531 20.8999 4.26338L20.8422 4.7401C20.6797 4.72349 20.2952 4.6933 20.2534 4.69153L20.2926 4.2133ZM20.236 4.90398C20.2729 4.90553 20.6515 4.93498 20.8165 4.95188L20.7588 5.42853C20.5928 5.41149 20.2284 5.38345 20.1968 5.38216L20.236 4.90398ZM20.1227 6.28518C20.1498 6.28626 20.4973 6.31299 20.6498 6.32872L20.592 6.80551C20.46 6.79186 20.1148 6.76472 20.0835 6.76351L20.1227 6.28518ZM20.0661 6.97581C20.0928 6.97683 20.4275 7.00275 20.5664 7.01715L20.5087 7.49392C20.3907 7.48165 20.0566 7.45521 20.0269 7.45409L20.0661 6.97581ZM19.9529 8.35708C19.9741 8.35782 20.282 8.38174 20.3997 8.39405L20.3419 8.87083C20.23 8.85906 19.9328 8.83603 19.9137 8.83536L19.9529 8.35708ZM19.4338 3.48265C19.4641 3.48303 19.8428 3.49389 20.0694 3.50662L20.0383 3.9852C19.8506 3.97463 19.475 3.96258 19.4211 3.96191L19.4338 3.48265ZM19.4156 4.17495C19.4648 4.17555 19.8362 4.18731 20.0245 4.19793L19.9935 4.67664C19.7986 4.66561 19.4344 4.65471 19.4029 4.65433L19.4156 4.17495ZM19.3974 4.86729C19.4492 4.86789 19.8099 4.87968 19.9797 4.8893L19.9486 5.36794C19.7895 5.35887 19.4353 5.34717 19.3847 5.3466L19.3974 4.86729ZM19.3791 5.55957C19.4265 5.56009 19.7767 5.57157 19.9349 5.58059L19.9038 6.0593C19.7601 6.05107 19.416 6.03947 19.3665 6.03894L19.3791 5.55957ZM19.3609 6.25184C19.4039 6.25229 19.7435 6.26349 19.89 6.27189L19.859 6.75067C19.6964 6.74129 19.375 6.73155 19.3483 6.73129L19.3609 6.25184ZM19.3427 6.94414C19.3825 6.94454 19.7111 6.95547 19.8452 6.96321L19.8141 7.44199C19.6951 7.43506 19.373 7.42399 19.3301 7.42358L19.3427 6.94414ZM19.3245 7.63641C19.3615 7.63674 19.6791 7.64744 19.8003 7.65452L19.7693 8.1333C19.6626 8.12705 19.352 8.11621 19.3119 8.11588L19.3245 7.63641ZM19.3063 8.32875C19.3394 8.32904 19.6449 8.33937 19.7555 8.34589L19.7244 8.82467C19.6282 8.81896 19.3293 8.80849 19.2937 8.80822L19.3063 8.32875ZM18.4778 2.09889C18.5044 2.09837 18.8925 2.09166 19.1666 2.09448L19.162 2.57395C18.8957 2.57116 18.5182 2.57767 18.4916 2.57822L18.4778 2.09889ZM18.4978 2.7911C18.5249 2.79055 18.8963 2.78413 19.1601 2.7869L19.1556 3.26637C18.9183 3.26384 18.5386 3.26987 18.5116 3.27042L18.4978 2.7911ZM18.5177 3.48339C18.5444 3.48287 18.908 3.47676 19.1536 3.47941L19.149 3.95878C18.9445 3.95656 18.5582 3.96148 18.5316 3.96263L18.5177 3.48339ZM18.5577 4.86794C19.0802 4.86161 18.9602 4.86233 19.1405 4.86436L19.136 5.34381C18.9638 5.34182 19.0824 5.34111 18.5715 5.34724L18.5577 4.86794ZM18.5976 6.25244C19.0813 6.24673 18.9579 6.24726 19.1274 6.24926L19.1229 6.72885C18.961 6.7269 19.0836 6.72637 18.6115 6.73188L18.5976 6.25244ZM18.6376 7.63691C19.0822 7.63185 18.9552 7.63216 19.1144 7.63417L19.1099 8.11373C18.9552 8.11173 19.0882 8.11144 18.6514 8.11633L18.6376 7.63691ZM17.4856 2.14408C18.0594 2.11114 17.9415 2.1172 18.1742 2.10906L18.1962 2.58815C17.9699 2.59603 18.0897 2.58987 17.526 2.62219L17.4856 2.14408ZM17.6023 3.52509C18.1404 3.49432 18.0201 3.50041 18.2376 3.49287L18.2596 3.97186C18.0496 3.97909 18.1728 3.97284 17.6428 4.0031L17.6023 3.52509ZM17.6607 4.2156C18.1851 4.18569 18.0613 4.19194 18.2693 4.18478L18.2913 4.6639C18.0887 4.67084 18.2133 4.66459 17.7012 4.69375L17.6607 4.2156ZM17.7775 5.59663C18.2605 5.56923 18.1367 5.57527 18.3328 5.56861L18.3547 6.04773C18.1656 6.0541 18.2926 6.04789 17.8179 6.07477L17.7775 5.59663ZM17.8943 6.97762C18.3412 6.95242 18.2145 6.95846 18.3962 6.95239L18.4181 7.43158C18.2427 7.43738 18.3715 7.43127 17.9347 7.45583L17.8943 6.97762ZM17.9527 7.6681C18.3825 7.64397 18.2536 7.65004 18.4279 7.64429L18.4498 8.12347C18.2807 8.12901 18.4103 8.12297 17.9931 8.14633L17.9527 7.6681ZM18.011 8.35866C18.421 8.33575 18.2917 8.34171 18.4596 8.33622L18.4815 8.81541C18.3198 8.82064 18.4502 8.81464 18.0515 8.83687L18.011 8.35866ZM17.7076 9.0895C17.7793 9.08194 17.7434 9.08521 17.8629 9.07597L17.8722 9.16492C17.7541 9.17402 17.7901 9.17075 17.7181 9.17834L17.7076 9.0895ZM16.8883 8.64564C17.1064 8.61301 17.032 8.62316 17.1759 8.60535L17.2261 8.9183C17.0903 8.9351 17.1615 8.92529 16.9466 8.95747L16.8883 8.64564ZM16.1663 7.51134L16.4832 7.45678L16.546 7.76777L16.2371 7.82095L16.1663 7.51134ZM16.2729 8.70805C16.0978 8.74194 16.1585 8.72941 15.9886 8.76691L15.9053 8.45969C16.0841 8.42026 16.0217 8.43324 16.1976 8.39916L16.2729 8.70805ZM16.8965 7.84592C16.9668 7.83563 16.8937 7.84549 17.2047 7.80634L17.251 8.11965C16.9403 8.15875 17.0227 8.14762 16.9508 8.15817L16.8965 7.84592ZM15.4176 7.22663C15.7307 7.15825 15.7257 7.15906 15.7418 7.15603L15.8207 7.46421C15.8082 7.46657 15.5168 7.53037 15.5044 7.53309L15.4176 7.22663ZM12.2379 11.3266C11.9889 11.4895 12.0923 11.4202 11.9252 11.5353L11.8835 11.4865C12.0461 11.3745 11.946 11.4414 12.198 11.2765L12.2379 11.3266ZM12.0645 11.1094C11.8107 11.2755 11.9141 11.2062 11.7438 11.3234L11.6832 11.2526C11.8488 11.1386 11.7492 11.2052 12.0066 11.0368L12.0645 11.1094ZM10.6478 10.6158C10.586 10.6595 10.5564 10.6831 10.389 10.8099L10.1817 10.5934C10.3464 10.4685 10.3821 10.4404 10.4468 10.3946L10.6478 10.6158ZM10.5133 10.9398C10.6784 10.8147 10.7077 10.7914 10.7685 10.7485L10.9456 10.9432C10.8862 10.9852 10.8577 11.0078 10.6959 11.1304L10.5133 10.9398ZM11.2974 10.3604C11.4063 10.4179 11.5119 10.4797 11.6142 10.5454L11.8731 10.8697C11.6145 11.0389 11.717 10.9702 11.5436 11.0896L11.0574 10.5218C11.2247 10.4065 11.1628 10.4483 11.2974 10.3604V10.3604ZM10.91 10.4505C10.7846 10.3056 10.6973 10.2048 10.5733 10.0614C10.7903 10.1285 10.9791 10.2039 11.1511 10.2864C11.0782 10.334 11.1386 10.2933 10.91 10.4505ZM8.92933 8.37749C8.62188 8.59958 8.66803 8.56609 8.60807 8.61156L8.42708 8.41668C8.48784 8.37062 8.44377 8.40257 8.7539 8.17856L8.92933 8.37749ZM8.67742 9.29617C8.79324 9.20395 8.73272 9.25053 8.97944 9.06346L9.17323 9.27113C8.93252 9.45365 8.99246 9.40741 8.87704 9.49935L8.67742 9.29617ZM9.17217 10.5481L8.91187 10.7758L8.70558 10.591L8.97117 10.3586L9.17217 10.5481ZM9.79268 11.6147C9.84833 11.5637 9.78707 11.6186 10.0287 11.4066L10.2576 11.6211C10.016 11.8331 10.0845 11.7717 10.0276 11.8239L9.79268 11.6147ZM10.163 11.9445C10.2187 11.8934 10.153 11.9523 10.3896 11.7447L10.5745 11.9179C10.3398 12.124 10.4093 12.0616 10.3528 12.1135L10.163 11.9445ZM9.51522 10.8714L9.26395 11.0913L9.04701 10.8969L9.30384 10.6722L9.51522 10.8714ZM12.6358 10.4872C12.6822 10.4605 12.7066 10.4483 12.839 10.3782L12.9937 10.6145C12.8681 10.6809 12.8417 10.6942 12.7955 10.7207L12.6358 10.4872ZM11.7606 8.86131C11.6179 8.93675 11.6684 8.90918 11.5248 8.98974L11.3636 8.75691C11.5103 8.67469 11.4589 8.70273 11.6045 8.62571L11.7606 8.86131ZM12.7771 9.93558C12.6837 9.98219 12.7377 9.95422 12.5646 10.0462L12.4089 9.81056C12.5856 9.71669 12.5304 9.74523 12.6266 9.69721L12.7771 9.93558ZM11.8249 8.92644C12.0152 8.82543 11.9578 8.8551 12.0619 8.80307L12.2125 9.04153C12.112 9.09175 12.1684 9.06253 11.9807 9.16223L11.8249 8.92644ZM11.6832 9.3249C11.5435 9.40288 11.5917 9.37522 11.4575 9.45458L11.2901 9.22526C11.4306 9.1423 11.3813 9.17063 11.5208 9.09272L11.6832 9.3249ZM11.7084 9.79843C11.8412 9.71991 11.7946 9.74671 11.9266 9.67308L12.0889 9.90522C11.9569 9.97882 12.0025 9.95269 11.8757 10.0277L11.7084 9.79843ZM12.1371 10.3859C12.2621 10.3119 12.2182 10.3371 12.3425 10.2679L12.5048 10.5001C12.3807 10.5692 12.4235 10.5447 12.3044 10.6152L12.1371 10.3859ZM13.9675 10.4068C13.9596 10.4098 13.7474 10.5038 13.5696 10.588L13.133 9.8481C13.329 9.75526 13.5542 9.65573 13.563 9.65234L13.9675 10.4068ZM12.7537 6.63885C12.3844 6.7838 12.4581 6.75439 12.3818 6.78609L12.0542 6.14214C12.1289 6.11114 12.0664 6.13596 12.4446 5.9876L12.7537 6.63885ZM14.7695 6.80587C14.4494 6.89127 14.5348 6.86769 14.4017 6.90652L14.1618 6.23215C14.2982 6.19239 14.2122 6.21601 14.5489 6.12618L14.7695 6.80587ZM14.4214 6.96177C14.5522 6.92359 14.4666 6.94714 14.7875 6.86155L15.008 7.54115C14.7029 7.62252 14.788 7.59903 14.6612 7.63607L14.4214 6.96177ZM14.6809 7.6914C14.8062 7.65476 14.7215 7.67815 15.0261 7.59691L15.1171 7.87721C14.8191 7.95669 14.9033 7.93341 14.7799 7.9695L14.6809 7.6914ZM14.8687 8.381C14.6697 8.43871 14.7387 8.41785 14.5459 8.47881L14.4426 8.21567C14.6444 8.15187 14.5739 8.17331 14.7729 8.11557L14.8687 8.381ZM14.5674 8.53344C14.7593 8.47275 14.6905 8.49356 14.8886 8.43611L15.1316 9.1096C14.9495 9.16232 15.0143 9.14265 14.8296 9.20111L14.5674 8.53344ZM14.0627 8.34124C14.3354 8.24818 14.2535 8.27522 14.3896 8.23242L14.4941 8.49516C14.3621 8.53669 14.4433 8.50983 14.1747 8.60149L14.0627 8.34124ZM14.1638 9.49303C14.4798 9.37765 14.3982 9.40634 14.4578 9.3862L14.5713 9.64673C14.5177 9.66485 14.5667 9.64795 14.2848 9.75084L14.1638 9.49303ZM14.4343 9.33228C14.3745 9.35245 14.4568 9.32352 14.1387 9.43966L13.8325 8.78708C14.1671 8.66483 14.086 8.69347 14.1469 8.67287L14.4343 9.33228ZM14.5056 9.37001C14.7619 9.28252 14.676 9.3109 14.803 9.27104L14.9078 9.53448C14.7857 9.57279 14.8652 9.54654 14.618 9.63096L14.5056 9.37001ZM14.8511 9.25586C15.0344 9.19781 14.9706 9.21722 15.1516 9.16483L15.2476 9.43097C15.067 9.48322 15.1296 9.46431 14.9548 9.51971L14.8511 9.25586ZM15.2001 9.15065C15.313 9.11752 15.2301 9.14048 15.5034 9.06764L15.5905 9.33622C15.3239 9.40732 15.4059 9.38455 15.2949 9.41715L15.2001 9.15065ZM15.4853 9.012C15.2129 9.08463 15.2952 9.06179 15.1805 9.09547L14.9405 8.42095C15.0591 8.38623 14.9752 8.40942 15.2648 8.33219L15.4853 9.012ZM15.2467 8.2766C14.9579 8.3536 15.0418 8.3304 14.9209 8.3658L14.8263 8.10003C14.9476 8.06454 14.8634 8.08779 15.1597 8.00876L15.2467 8.2766ZM14.0799 6.19503C13.8425 6.26411 13.9248 6.23924 13.6948 6.31175L13.4326 5.64415C13.6798 5.56632 13.5934 5.59255 13.8369 5.52162L14.0799 6.19503ZM13.7163 6.36643C13.9507 6.29253 13.8688 6.31743 14.0998 6.25019L14.3428 6.92368C14.1232 6.98753 14.2013 6.9638 13.9785 7.03409L13.7163 6.36643ZM14 7.0888C14.2168 7.02039 14.139 7.0439 14.3628 6.97886L14.6058 7.65228C14.3939 7.71379 14.4673 7.69159 14.2622 7.75641L14 7.0888ZM14.2837 7.81114C14.4927 7.74512 14.4197 7.76732 14.6257 7.70751L14.7259 7.98525C14.52 8.04502 14.5913 8.02344 14.3918 8.0865L14.2837 7.81114ZM13.633 6.33125C13.4758 6.38091 13.5574 6.35397 13.2519 6.45813L12.9676 5.79783C13.29 5.68793 13.2084 5.71499 13.3677 5.66463L13.633 6.33125ZM13.2752 6.51223C13.59 6.4049 13.5011 6.43435 13.6547 6.3859L13.92 7.05259C13.7751 7.09827 13.8572 7.07106 13.5595 7.17259L13.2752 6.51223ZM13.8904 7.94112C14.1662 7.84704 14.09 7.87217 14.2288 7.82847L14.3382 8.1034C14.2024 8.14614 14.2842 8.11908 14.0076 8.21343L13.8904 7.94112ZM13.1907 6.47899C13.1304 6.49951 13.2006 6.47426 12.8139 6.61591L12.5078 5.96352C12.9034 5.81853 12.8409 5.84106 12.9033 5.81977L13.1907 6.47899ZM12.839 6.66937C13.2186 6.53035 13.1523 6.5541 13.2142 6.53302L13.5016 7.19231C13.4416 7.21272 13.5144 7.18665 13.1451 7.32184L12.839 6.66937ZM13.1702 7.3753C13.5333 7.24238 13.4638 7.26716 13.5251 7.24632L13.8124 7.90554C13.7525 7.9259 13.8284 7.89888 13.4763 8.02769L13.1702 7.3753ZM13.5014 8.0812C13.8482 7.95435 13.7752 7.98024 13.836 7.95962L13.9545 8.23152C13.8935 8.25223 13.9729 8.22405 13.6276 8.35031L13.5014 8.0812ZM13.6869 8.47654C14.0138 8.35701 13.9518 8.37885 14.0101 8.35909L14.1233 8.61891C14.0632 8.63924 14.1429 8.61106 13.8075 8.73366L13.6869 8.47654ZM14.0914 9.45766C13.7842 9.57857 13.8738 9.54227 13.7996 9.57322L13.4719 8.92909C13.5448 8.89873 13.4663 8.93047 13.7823 8.80622L14.0914 9.45766ZM13.8265 9.6259C13.8999 9.59525 13.8107 9.63139 14.1168 9.51095L14.239 9.76834C13.9371 9.88717 14.03 9.84946 13.956 9.88039L13.8265 9.6259ZM14.0194 10.0051C14.092 9.97472 14.0028 10.0109 14.2988 9.8944L14.4259 10.1623C14.1342 10.2772 14.2276 10.2392 14.1541 10.2699L14.0194 10.0051ZM14.344 9.87717C14.6227 9.77547 14.5737 9.79235 14.627 9.77438L14.7451 10.0455C14.6929 10.0631 14.7352 10.0488 14.4699 10.1455L14.344 9.87717ZM14.673 9.75881C14.9159 9.67588 14.8364 9.70206 14.9592 9.66356L15.0683 9.93772C14.95 9.97479 15.0288 9.9488 14.7899 10.0304L14.673 9.75881ZM15.0055 9.64895C15.1821 9.59296 15.1204 9.61172 15.2946 9.56134L15.3946 9.83829C15.2212 9.88841 15.2812 9.87025 15.1134 9.92352L15.0055 9.64895ZM15.3413 9.54768C15.4506 9.51561 15.3687 9.5383 15.6332 9.46778L15.7239 9.74729C15.4663 9.81595 15.5477 9.79335 15.44 9.825L15.3413 9.54768ZM14.2923 5.33509C13.941 5.42884 14.028 5.40493 13.8826 5.44725L13.7922 5.19327C13.942 5.14972 13.8586 5.1727 14.2093 5.07914L14.2923 5.33509ZM13.817 5.46634C13.5668 5.53921 13.6535 5.513 13.4111 5.58935L13.3123 5.33791C13.5649 5.25841 13.4767 5.28521 13.7255 5.21273L13.817 5.46634ZM13.346 5.6099C13.1865 5.66031 13.2708 5.63234 12.9443 5.74363L12.8373 5.49496C13.1652 5.38319 13.0836 5.41023 13.2461 5.35884L13.346 5.6099ZM12.8798 5.76564C12.8195 5.78619 12.8863 5.76203 12.4828 5.90994L12.3675 5.66422C12.7693 5.51692 12.7091 5.53868 12.7716 5.51735L12.8798 5.76564ZM12.4192 5.93414C12.0355 6.08467 12.1042 6.05742 12.0273 6.0893L11.9039 5.84679C11.9789 5.81571 11.9182 5.83972 12.3028 5.68888L12.4192 5.93414ZM12.763 7.53557C12.8368 7.50492 12.7663 7.53318 13.1135 7.39685L13.4225 8.04812C13.083 8.18154 13.166 8.14815 13.0906 8.17951L12.763 7.53557ZM13.1176 8.23231C13.1908 8.20185 13.1164 8.2318 13.4479 8.10154L13.5753 8.37014C13.2432 8.50069 13.3278 8.46663 13.2527 8.49788L13.1176 8.23231ZM13.3161 8.62251C13.389 8.59213 13.3123 8.62309 13.6352 8.49618L13.757 8.75288C13.4336 8.88002 13.5201 8.8451 13.4452 8.87632L13.3161 8.62251ZM13.6426 4.77295C13.7918 4.7296 13.7044 4.75352 14.0718 4.65549L14.1666 4.94763C13.8093 5.04298 13.8953 5.01933 13.7458 5.06279L13.6426 4.77295ZM13.1488 4.92174C13.4087 4.83997 13.318 4.86753 13.5739 4.79292L13.6784 5.08241C13.4215 5.15728 13.5106 5.13036 13.2615 5.20874L13.1488 4.92174ZM12.66 5.08334C12.9986 4.96792 12.9147 4.9958 13.0807 4.94329L13.1947 5.22984C13.0339 5.28068 13.1166 5.25316 12.7822 5.36717L12.66 5.08334ZM12.1766 5.25757C12.5882 5.10664 12.5319 5.12711 12.5924 5.10644L12.7159 5.38982C12.6557 5.41037 12.7197 5.38715 12.3082 5.53804L12.1766 5.25757ZM11.6997 5.44531C11.7753 5.414 11.7167 5.43713 12.1102 5.28285L12.2431 5.56281C11.8506 5.71673 11.9178 5.69012 11.8406 5.72213L11.6997 5.44531ZM12.6019 8.94809C12.8489 8.83109 13.0524 8.74249 13.079 8.73128L13.4713 9.46403C13.4446 9.4752 13.2398 9.56508 13.0258 9.66647L12.6019 8.94809ZM12.2705 9.27707L12.5001 9.16206L12.6471 9.40228L12.4227 9.5147L12.2705 9.27707ZM10.7589 9.11256C10.9265 9.00814 10.8667 9.04458 10.992 8.97067L11.161 9.19896C11.0432 9.26836 11.0973 9.23535 10.9327 9.33786L10.7589 9.11256ZM11.1935 9.67585C11.3544 9.57558 11.2949 9.61186 11.4145 9.54143L11.5834 9.76967C11.471 9.83583 11.5251 9.80278 11.3674 9.90111L11.1935 9.67585ZM11.6391 10.2532C11.7914 10.1582 11.7339 10.1932 11.8474 10.1264L12.0163 10.3547C11.9097 10.4174 11.9622 10.3853 11.8129 10.4785L11.6391 10.2532ZM10.4912 9.13915L11.3195 10.1763L11.2756 10.2052C10.9865 10.0584 10.7109 9.95672 10.4154 9.87879L10.0379 9.44267C10.3138 9.25354 10.217 9.31844 10.4912 9.13915V9.13915ZM8.1031 8.0676C8.16644 8.0196 8.12844 8.04717 8.43988 7.82222L8.63556 8.04413C8.32231 8.27037 8.36609 8.23868 8.30498 8.28498L8.1031 8.0676ZM9.00329 9.62781C9.11652 9.53761 9.05566 9.58449 9.29583 9.4024L9.48606 9.60625L9.31782 9.73378C9.2483 9.73251 9.1802 9.73471 9.11053 9.73695L9.00329 9.62781ZM6.27528 17.1811C6.28036 17.1572 6.36504 16.8329 6.52748 16.3406L6.62488 16.3677C6.586 16.4856 6.41797 16.9981 6.37467 17.2015L6.27528 17.1811ZM5.91556 17.1071C5.96575 16.8728 6.14586 16.3307 6.17495 16.2427L6.27214 16.2697C6.25761 16.3137 6.06725 16.882 6.01472 17.1276L5.91556 17.1071ZM7.12652 18.1373C7.23989 17.5221 7.32685 17.1996 7.50465 16.6585L7.56541 16.6751C7.3838 17.2277 7.30022 17.544 7.1893 18.1461L7.12652 18.1373ZM7.45356 18.1829C7.56493 17.5783 7.65043 17.2648 7.8212 16.7451L7.87613 16.7602C7.70767 17.2728 7.62217 17.5835 7.51032 18.1908L7.45356 18.1829ZM6.03667 15.7091C6.09857 15.5511 6.08436 15.5864 6.09868 15.5525L6.29497 15.6173C6.28113 15.6501 6.29385 15.6185 6.23392 15.7715L6.03667 15.7091ZM7.35437 15.9673C7.34123 15.9983 7.35387 15.967 7.29854 16.1085L7.10137 16.0461C7.15861 15.8998 7.14456 15.9346 7.15816 15.9025L7.35437 15.9673ZM6.76858 15.367C6.70897 15.4974 6.72481 15.4617 6.70237 15.515L6.50749 15.4468C6.53001 15.3934 6.5138 15.4298 6.57474 15.2965L6.76858 15.367ZM7.31751 15.1308L7.24851 15.2724L7.05645 15.1981L7.1266 15.0541L7.31751 15.1308ZM7.9219 15.484C7.85564 15.6193 7.87049 15.5881 7.85705 15.6179L7.66422 15.5452C7.67747 15.5158 7.66414 15.5439 7.73019 15.409L7.9219 15.484ZM6.80571 18.0927C6.90939 17.5301 6.99082 17.1897 7.19414 16.5736L7.24885 16.5886C7.05075 17.189 6.96855 17.5238 6.86223 18.1006L6.80571 18.0927ZM6.04042 14.7117L5.7149 14.5834C5.52056 14.9811 5.42441 15.2128 5.26588 15.6158L5.60247 15.7187C5.59552 15.7353 5.48814 16.0321 5.48207 16.0503L5.91955 16.1718C5.80062 16.5315 5.72542 16.7631 5.60731 17.2504L5.86888 17.3001L5.88615 17.2291L5.98555 17.2486L5.96841 17.3191L6.22996 17.3688L6.24677 17.2998L6.34633 17.3193C6.28041 17.5891 6.22423 17.859 6.17615 18.1699C4.20025 17.1483 3.64043 14.8925 4.58458 12.8948L5.05865 13.1228C5.27242 12.7591 5.50478 12.4245 5.67198 12.1841C5.71395 12.2123 5.75504 12.2398 5.79655 12.2677C5.67962 12.4358 5.43604 12.7789 5.16792 13.2349L5.78239 13.5277C5.97765 13.1955 6.14889 12.9401 6.36946 12.623C6.40855 12.6451 6.44751 12.6671 6.4862 12.6889C6.24092 13.0414 6.09445 13.2618 5.8783 13.6297L6.50904 13.9276C6.72321 13.5631 6.86378 13.3541 7.1039 13.0086C7.17956 13.0457 7.1015 13.008 7.21035 13.0604C6.97696 13.3962 6.84363 13.5907 6.59156 14.0196L7.23864 14.3224C7.41978 14.014 7.64809 13.6528 7.86234 13.3623C7.89348 13.3762 7.92491 13.3903 7.9561 13.4042C7.70874 13.7396 7.5051 14.0693 7.30777 14.4045L7.97121 14.7122C8.18254 14.353 8.35113 14.0841 8.63777 13.6938C8.66475 13.7047 8.69161 13.7156 8.71798 13.7263C8.41146 14.144 8.26102 14.3875 8.02681 14.7845L8.64056 15.0665C8.47983 15.358 8.5318 15.2606 8.4935 15.3348L6.21811 14.3626C6.07502 14.6374 6.11845 14.5514 6.04042 14.7116V14.7117ZM9.01327 13.3437C8.99272 13.3253 8.97199 13.3066 8.95115 13.2878C9.22688 12.9488 9.44052 12.7119 9.77028 12.379L9.21483 11.9312C8.93362 12.2153 8.65834 12.5099 8.4092 12.8175C8.38453 12.7962 8.35813 12.7748 8.33255 12.7535C8.56035 12.4722 8.84492 12.1641 9.10457 11.9023L8.55998 11.4665C8.16761 11.8625 7.97052 12.0988 7.78791 12.3123C7.78235 12.3079 7.78442 12.3095 7.69634 12.2411C7.83557 12.0785 8.068 11.8001 8.43469 11.4298L7.90101 11.0059C7.60535 11.3046 7.41686 11.5176 7.14528 11.835C7.1089 11.8102 7.07228 11.7852 7.03553 11.7601C7.23499 11.527 7.46518 11.2597 7.76058 10.9615L7.23794 10.5495C6.92387 10.8667 6.67715 11.1538 6.46294 11.4043C6.41933 11.3792 6.37614 11.3544 6.33196 11.329C6.41166 11.2358 6.75845 10.8244 7.08224 10.4974L6.99899 10.4323C7.22783 10.3184 7.39211 10.2463 7.65251 10.153L10.5649 12.6333C10.5553 12.6427 10.3835 12.8081 10.3767 12.8153L9.86555 12.4001C9.50556 12.7644 9.32191 12.9654 9.0134 13.3438L9.01327 13.3437ZM17.7423 9.38271C17.8118 9.37536 17.7766 9.37853 17.8934 9.36956L17.8998 9.43083C17.7843 9.43971 17.8198 9.43646 17.7496 9.44391L17.7423 9.38271ZM29.2877 13.2492L29.454 13.4639L29.1623 13.6415L29.0006 13.4327L29.2877 13.2492ZM30.107 12.1713C30.2442 12.3315 30.1959 12.2739 30.3009 12.4031L30.0165 12.5898C29.9146 12.4642 29.9614 12.5201 29.8275 12.3638L30.107 12.1713ZM30.1171 11.5768L30.3262 11.8092L30.0494 12.005L29.8454 11.7782L30.1171 11.5768ZM29.0428 12.3733L29.2318 12.5834L28.955 12.7792L28.7711 12.5748L29.0428 12.3733ZM29.4217 14.4496C29.7777 15.0211 29.9267 15.3092 30.1591 15.8164L30.0824 15.8439C29.7811 15.1817 29.5031 14.7298 29.4867 14.7059L29.2854 14.8041C29.3019 14.828 29.5691 15.2595 29.8696 15.9202L29.7984 15.9456C29.5746 15.4571 29.4307 15.1783 29.085 14.6233L29.4217 14.4496ZM30.8971 18.8264C30.856 18.4022 30.7556 17.7993 30.6279 17.3364L30.6898 17.3233C30.8194 17.7936 30.9195 18.3994 30.9604 18.8213L30.8971 18.8264ZM30.7587 16.2712C30.745 16.233 30.7564 16.263 30.7038 16.1297L30.9011 16.0676C30.9538 16.2011 30.9429 16.1722 30.957 16.2115L30.7587 16.2712ZM30.1232 16.5192C30.0879 16.4208 30.1014 16.4568 30.073 16.3852L30.2706 16.324C30.2986 16.3945 30.2856 16.3596 30.3217 16.4605L30.1232 16.5192ZM31.9666 15.7326C32.024 15.8783 32.0124 15.8477 32.0274 15.8896L31.8291 15.9492C31.8144 15.9082 31.826 15.9387 31.7692 15.7947L31.9666 15.7326ZM31.6471 16.4481L31.5967 16.2953L31.7964 16.2396L31.8477 16.3949L31.6471 16.4481ZM30.6534 16.9663C30.636 16.9094 30.629 16.8822 30.6107 16.8256L30.8118 16.774C30.8304 16.8317 30.8376 16.8593 30.8553 16.9172L30.6534 16.9663ZM31.3715 16.9025L31.3263 16.7532C31.4036 16.7341 31.4517 16.7222 31.5279 16.7034L31.5738 16.8551C31.4974 16.873 31.4483 16.8845 31.3715 16.9025V16.9025ZM32.1492 16.7202L32.1013 16.5616L32.3029 16.5117L32.3516 16.6728L32.1492 16.7202ZM30.5736 18.8527C30.5341 18.4446 30.4365 17.8553 30.3118 17.4033L30.3678 17.3914C30.4932 17.8463 30.5911 18.4372 30.6309 18.8481L30.5736 18.8527ZM31.0058 17.2564C31.136 17.7291 31.24 18.346 31.2837 18.795L31.2268 18.7997C31.1841 18.3604 31.0811 17.7436 30.9501 17.2682L31.0058 17.2564ZM31.0848 14.574C31.2185 14.8136 31.3727 15.1456 31.4863 15.394L31.3917 15.4275C31.2792 15.1815 31.1266 14.853 30.9933 14.6137L31.0848 14.574ZM30.7527 14.7182C30.8822 14.9502 31.0335 15.276 31.143 15.5155L31.0482 15.5491C30.9387 15.3099 30.7898 14.9892 30.6609 14.758L30.7527 14.7182ZM29.7031 14.3044C30.0733 14.8986 30.2256 15.1956 30.4606 15.7083L30.4075 15.7274C30.1676 15.2038 30.0146 14.9095 29.6535 14.33L29.7031 14.3044ZM30.0919 12.9068C30.2263 13.0805 30.174 13.0113 30.2668 13.1381L29.9729 13.3125C29.8867 13.1948 29.9322 13.2546 29.8025 13.0873L30.0919 12.9068ZM26.5091 9.39689C26.439 9.35538 26.4598 9.36727 26.4139 9.34168L26.4812 9.24679C26.5252 9.2713 26.5047 9.25946 26.5773 9.30249L26.5091 9.39689ZM25.93 9.93379C26.0213 9.98467 26.0006 9.97293 26.0205 9.98465L25.9527 10.0792C25.9347 10.0685 25.9532 10.079 25.8631 10.0288L25.93 9.93379ZM26.1459 10.3881L26.2315 10.4415L26.1599 10.534L26.0751 10.4811L26.1459 10.3881ZM26.5966 10.0106L26.5068 9.95469L26.5777 9.86192L26.6683 9.91834L26.5966 10.0106ZM26.8822 9.5537L26.9535 9.46119C26.9859 9.48133 27.0148 9.49928 27.048 9.51993L26.9759 9.61191C26.943 9.59143 26.9143 9.57365 26.8822 9.5537V9.5537ZM29.5716 8.74848C29.6343 8.796 29.5884 8.7597 29.8995 9.00723L29.6238 9.28027C29.313 9.03296 29.3648 9.07401 29.3041 9.02802L29.5716 8.74848ZM30.022 8.88591C29.7044 8.63311 29.7546 8.67285 29.6905 8.62425L29.958 8.3447C30.0233 8.39427 29.9778 8.35818 30.2977 8.61285L30.022 8.88591ZM29.1853 9.15227C29.2449 9.19745 29.1994 9.16146 29.5013 9.40162L29.2256 9.67466C28.926 9.43639 28.979 9.47816 28.9178 9.43181L29.1853 9.15227ZM28.799 9.55604C28.858 9.60072 28.8109 9.56363 29.1031 9.79598L28.8273 10.069C28.5384 9.83929 28.592 9.88135 28.5315 9.83557L28.799 9.55604ZM28.4126 9.95982C28.4715 10.0043 28.4216 9.96517 28.7048 10.1904L28.4291 10.4634C28.147 10.2392 28.205 10.2846 28.1451 10.2394L28.4126 9.95982ZM28.0264 10.3636C28.0846 10.4076 28.0329 10.3671 28.3067 10.5847L28.031 10.8577C27.7585 10.6412 27.8182 10.6879 27.7589 10.6431L28.0264 10.3636ZM27.6401 10.7673C27.6977 10.8108 27.644 10.7689 27.9085 10.979L27.6328 11.2521C27.3696 11.043 27.4316 11.0913 27.3726 11.0468L27.6401 10.7673ZM29.6374 9.51448C29.8262 9.67208 29.7615 9.61678 29.9422 9.77488L29.655 10.0382C29.4748 9.88061 29.5382 9.93481 29.3581 9.78459L29.6374 9.51448ZM30.0699 9.65788C29.8868 9.49778 29.953 9.55432 29.7615 9.39445L30.0408 9.12432C30.2327 9.28455 30.165 9.22664 30.3571 9.39453L30.0699 9.65788ZM29.234 9.90462C29.4161 10.0565 29.3534 10.003 29.5274 10.1552L29.2401 10.4185C29.0708 10.2703 29.132 10.3226 28.9548 10.1747L29.234 9.90462ZM28.8307 10.2948C29.0019 10.4376 28.9414 10.3858 29.1125 10.5356L28.8253 10.7989C28.6591 10.6534 28.7176 10.7035 28.5514 10.5649L28.8307 10.2948ZM28.4274 10.6849C28.5916 10.8217 28.5336 10.7722 28.6977 10.9159L28.4106 11.1791C28.2549 11.0428 28.3111 11.0908 28.1481 10.955L28.4274 10.6849ZM28.024 11.075C28.1849 11.209 28.1294 11.1617 28.2829 11.2962L27.9957 11.5595C27.8435 11.4261 27.8971 11.472 27.7448 11.3451L28.024 11.075ZM30.4847 9.27753C30.2906 9.10781 30.3588 9.16621 30.1649 9.00432L30.4442 8.73419C30.6472 8.90372 30.5775 8.84426 30.772 9.0142L30.4847 9.27753ZM27.6369 10.5507C27.537 10.4747 27.6107 10.529 27.3564 10.3452L27.6116 10.0567C27.8708 10.2439 27.7974 10.1898 27.9007 10.2684L27.6369 10.5507ZM27.243 10.4735C27.493 10.6541 27.4204 10.6006 27.5198 10.6762L27.256 10.9586C27.1596 10.8852 27.2323 10.9388 26.9877 10.7621L27.243 10.4735ZM28.0179 10.143C27.9147 10.0645 27.9884 10.1188 27.725 9.92849L27.9803 9.63988C28.2482 9.8334 28.175 9.77951 28.2817 9.86058L28.0179 10.143ZM28.3989 9.73514C28.2922 9.65411 28.3658 9.70824 28.0937 9.51169L28.349 9.22304C28.6268 9.42372 28.5529 9.36939 28.6627 9.45271L28.3989 9.73514ZM28.7799 9.32729C28.6696 9.24361 28.7447 9.29875 28.4624 9.09485L28.7177 8.80624C29.0038 9.01289 28.9302 8.95885 29.0437 9.04492L28.7799 9.32729ZM29.1609 8.91947C29.0484 8.83412 29.123 8.8889 28.8311 8.67803L29.0864 8.38942C29.3816 8.60266 29.3077 8.5484 29.4247 8.6371L29.1609 8.91947ZM29.5419 8.51163C29.4248 8.42284 29.4991 8.47735 29.1999 8.26118L29.4551 7.97258C29.7599 8.19266 29.6852 8.13791 29.8057 8.22923L29.5419 8.51163ZM27.5938 9.83655C27.3699 9.68249 27.4453 9.73299 27.2917 9.63272L27.5344 9.33553C27.6919 9.43844 27.6159 9.38751 27.8453 9.5453L27.5938 9.83655ZM27.184 9.76471C27.3356 9.86373 27.2617 9.81423 27.4821 9.96591L27.2307 10.2571C27.0137 10.1078 27.0841 10.1551 26.9413 10.0619L27.184 9.76471ZM27.957 9.41586C27.7237 9.25538 27.7962 9.30405 27.6423 9.20347L27.8849 8.90627C28.0475 9.01255 27.9715 8.9616 28.2084 9.12461L27.957 9.41586ZM28.586 8.04771C28.7524 8.15655 28.6787 8.10705 28.9349 8.28319L28.6834 8.57447C28.4348 8.40348 28.5126 8.45563 28.3433 8.34494L28.586 8.04771ZM29.0466 8.15378C28.7908 7.97788 28.8681 8.0297 28.6938 7.91568L28.9365 7.61848C29.1078 7.73057 29.0346 7.6814 29.2981 7.86253L29.0466 8.15378ZM28.2355 8.47699C28.3897 8.57786 28.3199 8.53074 28.5716 8.7039L28.3202 8.99518C28.08 8.82999 28.1562 8.88104 27.9928 8.77421L28.2355 8.47699ZM26.8335 10.1939C26.9745 10.286 26.9023 10.2375 27.1189 10.3865L26.8675 10.6778C26.6586 10.534 26.7327 10.5838 26.5908 10.4911L26.8335 10.1939ZM26.7697 8.41098C27.0026 8.54148 27.1472 8.62034 27.4885 8.83266L27.3831 8.96864C27.0473 8.7597 26.9046 8.6818 26.6732 8.55218L26.7697 8.41098ZM26.3909 8.74128C26.466 8.78099 26.4436 8.76872 26.4919 8.79584C26.4563 8.84794 26.4678 8.83116 26.4264 8.89176C26.3819 8.86675 26.4025 8.87794 26.3264 8.83768C26.3672 8.77665 26.3559 8.79355 26.3909 8.74128V8.74128ZM26.0257 9.50942L26.1194 9.56203C26.0818 9.61602 26.0903 9.60389 26.053 9.65743L25.9601 9.60532C25.9969 9.55148 25.9885 9.5637 26.0257 9.50942V9.50942ZM25.446 10.3569L25.532 10.4052C25.5068 10.4413 25.4908 10.4643 25.4656 10.5004L25.3804 10.4526C25.4053 10.4163 25.4211 10.3932 25.446 10.3569V10.3569ZM27.3644 12.4669C27.5137 12.6038 27.6647 12.75 27.6873 12.7739L27.6257 12.8238C27.6032 12.7999 27.454 12.6555 27.3051 12.519L27.3644 12.4669Z" fill="black"/>
</svg>
